<svg id="Grupo_1010973" data-name="Grupo 1010973" xmlns="http://www.w3.org/2000/svg" xmlns:xlink="http://www.w3.org/1999/xlink" width="247.602" height="130.637" viewBox="0 0 247.602 130.637">
  <defs>
    <clipPath id="clip-path">
      <rect id="Rectángulo_349373" data-name="Rectángulo 349373" width="247.602" height="130.637" fill="none"/>
    </clipPath>
  </defs>
  <rect id="Rectángulo_349370" data-name="Rectángulo 349370" width="7.143" height="6.319" transform="translate(178.986 37.926)" fill="#bfc9d8"/>
  <rect id="Rectángulo_349371" data-name="Rectángulo 349371" width="25.276" height="9.341" transform="translate(108.102 62.105)" fill="#bfc9d8"/>
  <g id="Grupo_1010970" data-name="Grupo 1010970">
    <g id="Grupo_1010969" data-name="Grupo 1010969" clip-path="url(#clip-path)">
      <path id="Trazado_720012" data-name="Trazado 720012" d="M207.069,26.766c-6.547-.586-6.459-2.562-13.033-2.562s-6.573,2.567-13.147,2.567S174.314,24.2,167.74,24.2s-6.575,2.567-13.151,2.567S148.015,24.2,141.44,24.2s-6.575,2.567-13.15,2.567S121.715,24.2,115.14,24.2s-6.573,2.567-13.146,2.567S95.419,24.2,88.844,24.2s-6.577,2.567-13.154,2.567S69.115,24.2,62.54,24.2s-6.579,2.567-13.159,2.567-7.008-3.95-13.434-2.537c-1.432.315,1.479,2.786,1.4,4.248s-2.641,1.327-2.719,2.789,2.486,1.6,2.408,3.063-2.642,1.327-2.72,2.79,2.486,1.6,2.408,3.064-2.642,1.327-2.72,2.791,2.486,1.6,2.408,3.065-2.641,1.326-2.719,2.789,2.486,1.6,2.408,3.064-2.642,1.328-2.72,2.793,2.486,1.6,2.408,3.067-2.642,1.329-2.72,2.8.039,1.383,1.458,1.763c5.611,1.5,5.461,2.591,11.27,2.659s5.838-2.5,11.647-2.431,5.779,2.635,11.589,2.7,5.84-2.5,11.65-2.431,5.779,2.635,11.589,2.7,5.839-2.5,11.649-2.431,5.78,2.635,11.59,2.7,5.838-2.5,11.646-2.431,5.78,2.635,11.59,2.7,5.841-2.5,11.653-2.431,5.78,2.635,11.589,2.7,5.844-2.5,11.658-2.431,5.794,2.683,11.608,2.7c.894,0,.832-2.611,1.724-2.656s1.021,2.519,1.913,2.474.763-2.609,1.656-2.654,1.021,2.519,1.913,2.474.761-2.609,1.65-2.654,1.022,2.519,1.915,2.474.762-2.609,1.653-2.654,1.022,2.519,1.915,2.474.764-2.609,1.657-2.654,1.022,2.519,1.914,2.474.765-2.609,1.659-2.654,1.026,2.519,1.921,2.473.193-1.687.844-2.3,2.249.172,2.338-.716-2.466-1.143-2.377-2.031,2.643-.633,2.732-1.521-2.465-1.144-2.377-2.032,2.643-.63,2.732-1.516-2.466-1.144-2.377-2.032,2.644-.631,2.732-1.518-2.465-1.145-2.377-2.033,2.644-.633,2.733-1.523-2.466-1.144-2.377-2.032,2.644-.634,2.733-1.524-2.466-1.148-2.377-2.04,2.769-.8,2.739-1.7c-.02-.614-2.672-.267-2.81-.865s2.363-1.174,2.225-1.77-2.639-.018-2.778-.616,2.363-1.177,2.225-1.774-2.639-.017-2.777-.613,2.363-1.179,2.224-1.777-2.64-.02-2.778-.618,2.363-1.176,2.224-1.776-2.64-.02-2.778-.619,2.362-1.178,2.224-1.776-2.64-.021-2.779-.62,2.287-.943,2.255-1.559c-.014-.257-1.061.2-1.675.144" fill="#93d2ff"/>
      <path id="Trazado_720013" data-name="Trazado 720013" d="M207.069,26.766c-6.547-.586-6.459-2.562-13.033-2.562s-6.573,2.567-13.147,2.567S174.314,24.2,167.74,24.2s-6.575,2.567-13.151,2.567S148.015,24.2,141.44,24.2s-6.575,2.567-13.15,2.567S121.715,24.2,115.14,24.2s-6.573,2.567-13.146,2.567S95.419,24.2,88.844,24.2s-6.577,2.567-13.154,2.567S69.115,24.2,62.54,24.2s-6.579,2.567-13.159,2.567-7.008-3.95-13.434-2.537c-1.432.315,1.479,2.786,1.4,4.248s-2.641,1.327-2.719,2.789,2.486,1.6,2.408,3.063-2.642,1.327-2.72,2.79,2.486,1.6,2.408,3.064-2.642,1.327-2.72,2.791,2.486,1.6,2.408,3.065-2.641,1.326-2.719,2.789,2.486,1.6,2.408,3.064-2.642,1.328-2.72,2.793,2.486,1.6,2.408,3.067-2.642,1.329-2.72,2.8.039,1.383,1.458,1.763c5.611,1.5,5.461,2.591,11.27,2.659s5.838-2.5,11.647-2.431,5.779,2.635,11.589,2.7,5.84-2.5,11.65-2.431,5.779,2.635,11.589,2.7,5.839-2.5,11.649-2.431,5.78,2.635,11.59,2.7,5.838-2.5,11.646-2.431,5.78,2.635,11.59,2.7,5.841-2.5,11.653-2.431,5.78,2.635,11.589,2.7,5.844-2.5,11.658-2.431,5.794,2.683,11.608,2.7c.894,0,.832-2.611,1.724-2.656s1.021,2.519,1.913,2.474.763-2.609,1.656-2.654,1.021,2.519,1.913,2.474.761-2.609,1.65-2.654,1.022,2.519,1.915,2.474.762-2.609,1.653-2.654,1.022,2.519,1.915,2.474.764-2.609,1.657-2.654,1.022,2.519,1.914,2.474.765-2.609,1.659-2.654,1.026,2.519,1.921,2.473.193-1.687.844-2.3,2.249.172,2.338-.716-2.466-1.143-2.377-2.031,2.643-.633,2.732-1.521-2.465-1.144-2.377-2.032,2.643-.63,2.732-1.516-2.466-1.144-2.377-2.032,2.644-.631,2.732-1.518-2.465-1.145-2.377-2.033,2.644-.633,2.733-1.523-2.466-1.144-2.377-2.032,2.644-.634,2.733-1.524-2.466-1.148-2.377-2.04,2.769-.8,2.739-1.7c-.02-.614-2.672-.267-2.81-.865s2.363-1.174,2.225-1.77-2.639-.018-2.778-.616,2.363-1.177,2.225-1.774-2.639-.017-2.777-.613,2.363-1.179,2.224-1.777-2.64-.02-2.778-.618,2.363-1.176,2.224-1.776-2.64-.02-2.778-.619,2.362-1.178,2.224-1.776-2.64-.021-2.779-.62,2.287-.943,2.255-1.559C208.73,26.365,207.683,26.821,207.069,26.766Z" fill="none" stroke="#3c3c3b" stroke-miterlimit="10" stroke-width="1.284"/>
      <rect id="Rectángulo_349372" data-name="Rectángulo 349372" width="166.211" height="63.801" transform="translate(42.037 59.084)" fill="#c0c8da"/>
      <path id="Trazado_720014" data-name="Trazado 720014" d="M0,.011H44.273V117.668H204.224V.65H247.6V15.407H219.429v115.23H29.068V16H0Z" fill="#f7fafc"/>
      <line id="Línea_2971" data-name="Línea 2971" x2="8.05" transform="translate(78.82 30.128)" fill="none" stroke="#3c3c3b" stroke-miterlimit="10" stroke-width="0.75"/>
      <line id="Línea_2972" data-name="Línea 2972" x2="11.737" transform="translate(79.379 39.295)" fill="none" stroke="#3c3c3b" stroke-miterlimit="10" stroke-width="0.75"/>
      <line id="Línea_2973" data-name="Línea 2973" x2="13.081" transform="translate(86.087 34.152)" fill="none" stroke="#3c3c3b" stroke-miterlimit="10" stroke-width="0.75"/>
      <line id="Línea_2974" data-name="Línea 2974" x2="8.395" transform="translate(108.102 34.152)" fill="none" stroke="#3c3c3b" stroke-miterlimit="10" stroke-width="0.75"/>
      <line id="Línea_2975" data-name="Línea 2975" x2="19.906" transform="translate(105.237 37.926)" fill="none" stroke="#3c3c3b" stroke-miterlimit="10" stroke-width="0.75"/>
      <line id="Línea_2976" data-name="Línea 2976" x2="12.788" transform="translate(126.852 30.128)" fill="none" stroke="#3c3c3b" stroke-miterlimit="10" stroke-width="0.75"/>
      <line id="Línea_2977" data-name="Línea 2977" x2="12.298" transform="translate(149.255 29.457)" fill="none" stroke="#3c3c3b" stroke-miterlimit="10" stroke-width="0.75"/>
      <line id="Línea_2978" data-name="Línea 2978" x2="12.075" transform="translate(138.298 34.152)" fill="none" stroke="#3c3c3b" stroke-miterlimit="10" stroke-width="0.75"/>
      <line id="Línea_2979" data-name="Línea 2979" x2="8.375" transform="translate(133.246 37.926)" fill="none" stroke="#3c3c3b" stroke-miterlimit="10" stroke-width="0.75"/>
      <line id="Línea_2980" data-name="Línea 2980" x2="7.714" transform="translate(157.64 35.494)" fill="none" stroke="#3c3c3b" stroke-miterlimit="10" stroke-width="0.75"/>
      <path id="Trazado_720015" data-name="Trazado 720015" d="M0,.5H44.273V58.672s27.615.412,28.174.412h98.982l32.795-.412V.649H247.6" fill="none" stroke="#3c3c3b" stroke-miterlimit="10" stroke-width="1"/>
      <line id="Línea_2981" data-name="Línea 2981" x1="66.492" transform="translate(47.334 67.184)" fill="none" stroke="#1836ab" stroke-miterlimit="10" stroke-width="0.75"/>
      <path id="Trazado_720016" data-name="Trazado 720016" d="M47.717,65.875,45.45,67.184l2.267,1.309Z" fill="#1836ab"/>
      <line id="Línea_2982" data-name="Línea 2982" x2="69.766" transform="translate(130.993 67.184)" fill="none" stroke="#1836ab" stroke-miterlimit="10" stroke-width="0.75"/>
      <path id="Trazado_720017" data-name="Trazado 720017" d="M200.376,68.493l2.267-1.309-2.267-1.309Z" fill="#1836ab"/>
      <line id="Línea_2983" data-name="Línea 2983" y1="7.93" transform="translate(182.571 27.563)" fill="none" stroke="#1836ab" stroke-miterlimit="10" stroke-width="0.75"/>
      <path id="Trazado_720018" data-name="Trazado 720018" d="M183.88,27.946l-1.309-2.267-1.309,2.267Z" fill="#1836ab"/>
      <line id="Línea_2984" data-name="Línea 2984" y2="7.93" transform="translate(182.571 48.859)" fill="none" stroke="#1836ab" stroke-miterlimit="10" stroke-width="0.75"/>
      <path id="Trazado_720019" data-name="Trazado 720019" d="M181.262,56.406l1.309,2.267,1.309-2.267Z" fill="#1836ab"/>
    </g>
  </g>
  <path id="Trazado_726147" data-name="Trazado 726147" d="M4.5-.806V0H.8V-6.462h.959V-.806Z" transform="translate(119.237 69.84)" fill="#3c3c3b"/>
  <path id="Trazado_726146" data-name="Trazado 726146" d="M6.089-6.462V0H5.13V-2.911H1.76V0H.8V-6.462H1.76v2.853H5.13V-6.462Z" transform="translate(178.845 44.388)" fill="#3c3c3b"/>
  <g id="Grupo_1010972" data-name="Grupo 1010972">
    <g id="Grupo_1010971" data-name="Grupo 1010971" clip-path="url(#clip-path)">
      <path id="Trazado_720020" data-name="Trazado 720020" d="M44.273,20.326v97.342h159.95V20.326" fill="none" stroke="#3c3c3b" stroke-miterlimit="10" stroke-width="1"/>
    </g>
  </g>
</svg>
