<svg id="Grupo_1010990" data-name="Grupo 1010990" xmlns="http://www.w3.org/2000/svg" xmlns:xlink="http://www.w3.org/1999/xlink" width="240.031" height="133.679" viewBox="0 0 240.031 133.679">
  <defs>
    <clipPath id="clip-path">
      <rect id="Rectángulo_349387" data-name="Rectángulo 349387" width="240.031" height="133.679" fill="none"/>
    </clipPath>
  </defs>
  <g id="Grupo_1010985" data-name="Grupo 1010985">
    <g id="Grupo_1010984" data-name="Grupo 1010984" clip-path="url(#clip-path)">
      <line id="Línea_3030" data-name="Línea 3030" y2="12.969" transform="translate(51.722 0)" fill="none" stroke="#1836ab" stroke-miterlimit="10" stroke-width="0.75"/>
      <line id="Línea_3031" data-name="Línea 3031" y2="12.969" transform="translate(188.684 0)" fill="none" stroke="#1836ab" stroke-miterlimit="10" stroke-width="0.75"/>
    </g>
  </g>
  <line id="Línea_3032" data-name="Línea 3032" x1="52.805" transform="translate(55.394 6.497)" fill="none" stroke="#1836ab" stroke-miterlimit="10" stroke-width="0.75"/>
  <path id="Trazado_720042" data-name="Trazado 720042" d="M55.778,5.188,53.51,6.5l2.267,1.309Z" fill="#1836ab"/>
  <line id="Línea_3033" data-name="Línea 3033" x2="61.434" transform="translate(125.367 6.497)" fill="none" stroke="#1836ab" stroke-miterlimit="10" stroke-width="0.75"/>
  <path id="Trazado_720043" data-name="Trazado 720043" d="M186.417,7.806,188.684,6.5l-2.267-1.309Z" fill="#1836ab"/>
  <g id="Grupo_1010987" data-name="Grupo 1010987">
    <g id="Grupo_1010986" data-name="Grupo 1010986" clip-path="url(#clip-path)">
      <path id="Trazado_726149" data-name="Trazado 726149" d="M4.5-.806V0H.8V-6.462h.959V-.806Z" transform="translate(113.61 9.154)" fill="#3c3c3b"/>
      <path id="Trazado_720044" data-name="Trazado 720044" d="M189.571,26.854c-5.273-.726-5.147-2.567-10.469-2.567s-5.323,2.579-10.645,2.579-5.324-2.579-10.647-2.579-5.324,2.579-10.648,2.579-5.323-2.579-10.646-2.579-5.324,2.579-10.648,2.579-5.322-2.579-10.645-2.579-5.322,2.579-10.644,2.579-5.324-2.579-10.648-2.579-5.325,2.579-10.651,2.579-5.324-2.579-10.648-2.579S67.3,26.866,61.977,26.866,55.7,22.284,50.811,24.393c-2.134.919,1.736,3.541,1.673,5.864s-2.64,2.252-2.7,4.573,2.514,2.394,2.451,4.718-2.641,2.252-2.7,4.574,2.515,2.394,2.452,4.717-2.641,2.255-2.7,4.579,2.515,2.4,2.451,4.719-2.64,2.254-2.7,4.579,2.515,2.394,2.452,4.718-2.641,2.254-2.7,4.578,2.515,2.4,2.452,4.722-2.641,2.258-2.7,4.586-.308,2.472,1.758,3.546c4.173,2.17,4.085,2.518,8.788,2.6s4.749-2.494,9.453-2.409,4.657,2.663,9.361,2.748,4.751-2.494,9.455-2.409,4.657,2.663,9.361,2.747,4.751-2.493,9.455-2.408,4.656,2.662,9.359,2.747,4.749-2.493,9.452-2.409,4.658,2.663,9.362,2.748,4.753-2.494,9.458-2.409,4.658,2.663,9.363,2.748,4.754-2.494,9.461-2.409,4.677,2.723,9.385,2.748c.725,0,.63-2.631,1.352-2.687s.922,2.515,1.644,2.459.523-2.627,1.245-2.683.921,2.515,1.641,2.459.521-2.627,1.242-2.683.923,2.515,1.646,2.459.522-2.627,1.244-2.684.922,2.515,1.645,2.459.524-2.627,1.248-2.683.922,2.515,1.644,2.459.525-2.628,1.249-2.684.925,2.515,1.651,2.458-.126-1.3.188-1.955c.7-1.45,2.523-.991,2.6-2.6s-2.5-1.72-2.432-3.326,2.648-1.491,2.72-3.1-2.505-1.721-2.433-3.327,2.648-1.491,2.72-3.1-2.5-1.723-2.432-3.33,2.648-1.492,2.72-3.1-2.5-1.721-2.432-3.327,2.648-1.492,2.72-3.1-2.5-1.723-2.432-3.33,2.648-1.493,2.72-3.1-2.5-1.726-2.432-3.336,2.749-1.574,2.721-3.185c-.012-.754-2.676-.532-2.788-1.277s2.438-1.128,2.326-1.873-2.662-.362-2.774-1.107,2.438-1.127,2.326-1.871-2.661-.359-2.773-1.1,2.438-1.129,2.326-1.875-2.662-.361-2.774-1.106,2.437-1.129,2.325-1.874-2.662-.363-2.774-1.109,2.438-1.129,2.326-1.875-2.663-.363-2.775-1.11,2.278-.836,2.335-1.59c.025-.319-.936-.215-1.686-.318" fill="#93d2ff"/>
      <path id="Trazado_720045" data-name="Trazado 720045" d="M189.571,26.854c-5.273-.726-5.147-2.567-10.469-2.567s-5.323,2.579-10.645,2.579-5.324-2.579-10.647-2.579-5.324,2.579-10.648,2.579-5.323-2.579-10.646-2.579-5.324,2.579-10.648,2.579-5.322-2.579-10.645-2.579-5.322,2.579-10.644,2.579-5.324-2.579-10.648-2.579-5.325,2.579-10.651,2.579-5.324-2.579-10.648-2.579S67.3,26.866,61.977,26.866,55.7,22.284,50.811,24.393c-2.134.919,1.736,3.541,1.673,5.864s-2.64,2.252-2.7,4.573,2.514,2.394,2.451,4.718-2.641,2.252-2.7,4.574,2.515,2.394,2.452,4.717-2.641,2.255-2.7,4.579,2.515,2.4,2.451,4.719-2.64,2.254-2.7,4.579,2.515,2.394,2.452,4.718-2.641,2.254-2.7,4.578,2.515,2.4,2.452,4.722-2.641,2.258-2.7,4.586-.308,2.472,1.758,3.546c4.173,2.17,4.085,2.518,8.788,2.6s4.749-2.494,9.453-2.409,4.657,2.663,9.361,2.748,4.751-2.494,9.455-2.409,4.657,2.663,9.361,2.747,4.751-2.493,9.455-2.408,4.656,2.662,9.359,2.747,4.749-2.493,9.452-2.409,4.658,2.663,9.362,2.748,4.753-2.494,9.458-2.409,4.658,2.663,9.363,2.748,4.754-2.494,9.461-2.409,4.677,2.723,9.385,2.748c.725,0,.63-2.631,1.352-2.687s.922,2.515,1.644,2.459.523-2.627,1.245-2.683.921,2.515,1.641,2.459.521-2.627,1.242-2.683.923,2.515,1.646,2.459.522-2.627,1.244-2.684.922,2.515,1.645,2.459.524-2.627,1.248-2.683.922,2.515,1.644,2.459.525-2.628,1.249-2.684.925,2.515,1.651,2.458-.126-1.3.188-1.955c.7-1.45,2.523-.991,2.6-2.6s-2.5-1.72-2.432-3.326,2.648-1.491,2.72-3.1-2.505-1.721-2.433-3.327,2.648-1.491,2.72-3.1-2.5-1.723-2.432-3.33,2.648-1.492,2.72-3.1-2.5-1.721-2.432-3.327,2.648-1.492,2.72-3.1-2.5-1.723-2.432-3.33,2.648-1.493,2.72-3.1-2.5-1.726-2.432-3.336,2.749-1.574,2.721-3.185c-.012-.754-2.676-.532-2.788-1.277s2.438-1.128,2.326-1.873-2.662-.362-2.774-1.107,2.438-1.127,2.326-1.871-2.661-.359-2.773-1.1,2.438-1.129,2.326-1.875-2.662-.361-2.774-1.106,2.437-1.129,2.325-1.874-2.662-.363-2.774-1.109,2.438-1.129,2.326-1.875-2.663-.363-2.775-1.11,2.278-.836,2.335-1.59C191.282,26.853,190.321,26.957,189.571,26.854Z" fill="none" stroke="#3c3c3b" stroke-miterlimit="10" stroke-width="1.035"/>
      <line id="Línea_3034" data-name="Línea 3034" x2="10.74" transform="translate(62.907 31.358)" fill="none" stroke="#3c3c3b" stroke-miterlimit="10" stroke-width="1.035"/>
      <line id="Línea_3035" data-name="Línea 3035" x2="15.66" transform="translate(63.653 42.781)" fill="none" stroke="#3c3c3b" stroke-miterlimit="10" stroke-width="1.035"/>
      <line id="Línea_3036" data-name="Línea 3036" x2="17.452" transform="translate(72.603 36.373)" fill="none" stroke="#3c3c3b" stroke-miterlimit="10" stroke-width="1.035"/>
      <line id="Línea_3037" data-name="Línea 3037" x2="11.2" transform="translate(101.976 36.373)" fill="none" stroke="#3c3c3b" stroke-miterlimit="10" stroke-width="1.035"/>
      <line id="Línea_3038" data-name="Línea 3038" x2="26.558" transform="translate(98.153 41.076)" fill="none" stroke="#3c3c3b" stroke-miterlimit="10" stroke-width="1.035"/>
      <line id="Línea_3039" data-name="Línea 3039" x2="17.062" transform="translate(126.991 31.358)" fill="none" stroke="#3c3c3b" stroke-miterlimit="10" stroke-width="1.035"/>
      <line id="Línea_3040" data-name="Línea 3040" x2="16.408" transform="translate(156.881 30.522)" fill="none" stroke="#3c3c3b" stroke-miterlimit="10" stroke-width="1.035"/>
      <line id="Línea_3041" data-name="Línea 3041" x2="16.11" transform="translate(142.263 36.373)" fill="none" stroke="#3c3c3b" stroke-miterlimit="10" stroke-width="1.035"/>
      <line id="Línea_3042" data-name="Línea 3042" x2="11.173" transform="translate(135.522 41.076)" fill="none" stroke="#3c3c3b" stroke-miterlimit="10" stroke-width="1.035"/>
      <line id="Línea_3043" data-name="Línea 3043" x2="10.292" transform="translate(168.068 38.045)" fill="none" stroke="#3c3c3b" stroke-miterlimit="10" stroke-width="1.035"/>
      <path id="Trazado_720046" data-name="Trazado 720046" d="M189.52,16.948l-69.5,68.393-69.5-68.393H.5V133.179H239.531V16.948Z" fill="#c0c8da"/>
      <path id="Trazado_720047" data-name="Trazado 720047" d="M189.52,16.948l-69.5,68.393-69.5-68.393H.5V133.179H239.531V16.948Z" fill="none" stroke="#3c3c3b" stroke-miterlimit="10" stroke-width="1"/>
    </g>
  </g>
  <path id="Trazado_726148" data-name="Trazado 726148" d="M3.573-.933A1.834,1.834,0,0,0,4.3-1.082a1.693,1.693,0,0,0,.558-.39,1.714,1.714,0,0,0,.354-.573,1.966,1.966,0,0,0,.124-.7,1.971,1.971,0,0,0-.124-.7,1.71,1.71,0,0,0-.354-.575,1.693,1.693,0,0,0-.558-.39,1.88,1.88,0,0,0-.731-.152Zm-.766-3.63a1.88,1.88,0,0,0-.731.152,1.693,1.693,0,0,0-.558.39,1.71,1.71,0,0,0-.354.575,1.971,1.971,0,0,0-.124.7,1.966,1.966,0,0,0,.124.7,1.714,1.714,0,0,0,.354.573,1.693,1.693,0,0,0,.558.39,1.834,1.834,0,0,0,.731.149ZM3.573-5.2A2.8,2.8,0,0,1,4.636-5a2.45,2.45,0,0,1,.8.528,2.278,2.278,0,0,1,.509.775,2.53,2.53,0,0,1,.177.947,2.515,2.515,0,0,1-.177.945,2.3,2.3,0,0,1-.509.775,2.411,2.411,0,0,1-.8.528,2.82,2.82,0,0,1-1.063.2V.434H2.807V-.3A2.82,2.82,0,0,1,1.745-.5a2.411,2.411,0,0,1-.8-.528A2.3,2.3,0,0,1,.432-1.8a2.515,2.515,0,0,1-.177-.945,2.506,2.506,0,0,1,.179-.947,2.3,2.3,0,0,1,.51-.775A2.45,2.45,0,0,1,1.748-5a2.785,2.785,0,0,1,1.059-.2V-5.9h.766Z" transform="translate(116.937 75.058)" fill="#3c3c3b"/>
  <g id="Grupo_1010989" data-name="Grupo 1010989">
    <g id="Grupo_1010988" data-name="Grupo 1010988" clip-path="url(#clip-path)">
      <path id="Trazado_720048" data-name="Trazado 720048" d="M107.135,66.195a20.212,20.212,0,0,1,25.891,0" fill="none" stroke="#1836ab" stroke-miterlimit="10" stroke-width="0.73"/>
      <path id="Trazado_720049" data-name="Trazado 720049" d="M108.273,66.9l-2.492.53.786-2.424Z" fill="#1836ab"/>
      <path id="Trazado_720050" data-name="Trazado 720050" d="M131.888,66.9l2.492.53-.786-2.424Z" fill="#1836ab"/>
      <line id="Línea_3044" data-name="Línea 3044" x2="12.626" transform="translate(186.349 25.316)" fill="none" stroke="#1836ab" stroke-miterlimit="10" stroke-width="0.73"/>
      <line id="Línea_3045" data-name="Línea 3045" y1="19.72" transform="translate(192.675 27.15)" fill="none" stroke="#1836ab" stroke-miterlimit="10" stroke-width="0.73"/>
      <path id="Trazado_720051" data-name="Trazado 720051" d="M193.949,27.523l-1.274-2.207L191.4,27.523Z" fill="#1836ab"/>
      <line id="Línea_3046" data-name="Línea 3046" x2="12.626" transform="translate(186.349 85.383)" fill="none" stroke="#1836ab" stroke-miterlimit="10" stroke-width="0.73"/>
      <line id="Línea_3047" data-name="Línea 3047" y2="19.72" transform="translate(192.675 63.829)" fill="none" stroke="#1836ab" stroke-miterlimit="10" stroke-width="0.73"/>
      <path id="Trazado_720052" data-name="Trazado 720052" d="M191.4,83.176l1.274,2.207,1.275-2.207Z" fill="#1836ab"/>
      <path id="Trazado_720053" data-name="Trazado 720053" d="M194.979,52.24v6.291h-.934V55.7h-3.281v2.834h-.937V52.24h.937v2.777h3.281V52.24Z" fill="#3c3c3b"/>
    </g>
  </g>
</svg>
