<svg xmlns="http://www.w3.org/2000/svg" xmlns:xlink="http://www.w3.org/1999/xlink" width="295" height="217.001" viewBox="0 0 295 217.001">
  <defs>
    <radialGradient id="radial-gradient" cx="0.5" cy="0.5" r="0.5" gradientUnits="objectBoundingBox">
      <stop offset="0" stop-color="#fff"/>
      <stop offset="1" stop-color="#edeff2"/>
    </radialGradient>
    <clipPath id="clip-path">
      <rect id="Rectángulo_349349" data-name="Rectángulo 349349" width="178.188" height="194.7" fill="none"/>
    </clipPath>
    <clipPath id="clip-path-3">
      <path id="Trazado_719794" data-name="Trazado 719794" d="M154.379,371.47v11.378c0,2.4,22.647,4.345,50.584,4.345s50.584-1.945,50.584-4.345V371.47s-44.923-.041-74.9-.041c-14.99,0-26.239.01-26.269.041" transform="translate(-154.379 -371.429)" fill="none"/>
    </clipPath>
    <clipPath id="clip-path-4">
      <path id="Trazado_719795" data-name="Trazado 719795" d="M154.379,371.47v11.378c0,2.4,22.647,4.345,50.584,4.345s50.584-1.945,50.584-4.345V371.47c-.03-.03-11.278-.041-26.269-.041-29.976,0-74.9.041-74.9.041" transform="translate(-154.379 -371.429)" fill="none"/>
    </clipPath>
    <clipPath id="clip-path-6">
      <path id="Trazado_719799" data-name="Trazado 719799" d="M159.169,366.976c0,1.839,21.674,3.33,48.411,3.33s48.412-1.491,48.412-3.33-21.674-3.33-48.412-3.33-48.411,1.491-48.411,3.33" transform="translate(-159.169 -363.646)" fill="none"/>
    </clipPath>
    <clipPath id="clip-path-8">
      <rect id="Rectángulo_349254" data-name="Rectángulo 349254" width="39.466" height="8.19" fill="none"/>
    </clipPath>
    <clipPath id="clip-path-9">
      <rect id="Rectángulo_349255" data-name="Rectángulo 349255" width="29.824" height="48.671" fill="none"/>
    </clipPath>
    <clipPath id="clip-path-10">
      <rect id="Rectángulo_349256" data-name="Rectángulo 349256" width="13.054" height="48.671" fill="none"/>
    </clipPath>
    <clipPath id="clip-path-11">
      <path id="Trazado_719831" data-name="Trazado 719831" d="M85.205,41.1c0,2.531,1.637,4.6,3.729,4.806v.031H117.25a2.263,2.263,0,0,1,2.263,2.263V95.621h9.628V44.486a8.177,8.177,0,0,0-8.177-8.177H89.744a3.459,3.459,0,0,0-.475-.035c-2.25,0-4.064,2.161-4.064,4.826" transform="translate(-85.205 -36.273)" fill="none"/>
    </clipPath>
    <clipPath id="clip-path-13">
      <rect id="Rectángulo_349262" data-name="Rectángulo 349262" width="9.616" height="0.344" fill="none"/>
    </clipPath>
    <clipPath id="clip-path-14">
      <path id="Trazado_719833" data-name="Trazado 719833" d="M93.838,36.355v9.628h28.316a2.263,2.263,0,0,1,2.263,2.263V95.667h9.628V44.532a8.177,8.177,0,0,0-8.177-8.177Z" transform="translate(-93.838 -36.355)" fill="none"/>
    </clipPath>
    <clipPath id="clip-path-15">
      <rect id="Rectángulo_349264" data-name="Rectángulo 349264" width="4.43" height="10.441" fill="none"/>
    </clipPath>
    <clipPath id="clip-path-17">
      <rect id="Rectángulo_349270" data-name="Rectángulo 349270" width="14.763" height="0.411" fill="none"/>
    </clipPath>
    <clipPath id="clip-path-18">
      <rect id="Rectángulo_349293" data-name="Rectángulo 349293" width="120.973" height="61.715" fill="none"/>
    </clipPath>
    <clipPath id="clip-path-19">
      <rect id="Rectángulo_349274" data-name="Rectángulo 349274" width="120.973" height="1.072" fill="none"/>
    </clipPath>
    <clipPath id="clip-path-29">
      <rect id="Rectángulo_349297" data-name="Rectángulo 349297" width="22.445" height="40.756" fill="none"/>
    </clipPath>
    <clipPath id="clip-path-31">
      <path id="Trazado_719847" data-name="Trazado 719847" d="M218.87,314.576c0,2.531,1.637,4.6,3.729,4.806v.031h21.847a2.263,2.263,0,0,1,2.263,2.263v9.5h9.628V317.962a8.177,8.177,0,0,0-8.177-8.177h-24.75a3.446,3.446,0,0,0-.474-.036c-2.251,0-4.065,2.161-4.065,4.827" transform="translate(-218.87 -309.749)" fill="none"/>
    </clipPath>
    <clipPath id="clip-path-34">
      <path id="Trazado_719849" data-name="Trazado 719849" d="M227.5,309.832v9.628H249.35a2.263,2.263,0,0,1,2.263,2.263v9.5h9.628V318.009a8.177,8.177,0,0,0-8.177-8.177Z" transform="translate(-227.503 -309.832)" fill="none"/>
    </clipPath>
    <clipPath id="clip-path-38">
      <path id="Trazado_719851" data-name="Trazado 719851" d="M174.546,307.138h-1.619c-2.216,0-4.012,2.676-4.012,5.978s1.8,5.978,4.012,5.978h1.652c2.217,0,4.013-2.677,4.013-5.978s-1.8-5.978-4.013-5.978h-.033" transform="translate(-168.914 -307.137)" fill="none"/>
    </clipPath>
    <clipPath id="clip-path-40">
      <path id="Trazado_719855" data-name="Trazado 719855" d="M180.15,312.3h-1.015c-1.389,0-2.515,1.677-2.515,3.748s1.126,3.747,2.515,3.747h1.036c1.389,0,2.515-1.678,2.515-3.747s-1.126-3.748-2.515-3.748h-.021" transform="translate(-176.62 -312.302)" fill="none"/>
    </clipPath>
    <clipPath id="clip-path-43">
      <rect id="Rectángulo_349336" data-name="Rectángulo 349336" width="33.738" height="21.391" fill="none"/>
    </clipPath>
    <clipPath id="clip-path-45">
      <path id="Trazado_719869" data-name="Trazado 719869" d="M176.065,314.576c0,2.531,1.637,4.6,3.729,4.806v.031h21.847a2.263,2.263,0,0,1,2.262,2.263v9.5h9.628V317.962a8.177,8.177,0,0,0-8.178-8.177H180.6a3.441,3.441,0,0,0-.474-.036c-2.25,0-4.065,2.161-4.065,4.827" transform="translate(-176.065 -309.749)" fill="none"/>
    </clipPath>
    <clipPath id="clip-path-48">
      <path id="Trazado_719871" data-name="Trazado 719871" d="M184.7,309.832v9.628h21.847a2.263,2.263,0,0,1,2.262,2.263v9.5h9.628V318.009a8.177,8.177,0,0,0-8.178-8.177Z" transform="translate(-184.698 -309.832)" fill="none"/>
    </clipPath>
    <clipPath id="clip-path-51">
      <rect id="Rectángulo_349347" data-name="Rectángulo 349347" width="14.764" height="0.411" fill="none"/>
    </clipPath>
    <clipPath id="clip-path-52">
      <rect id="Rectángulo_349353" data-name="Rectángulo 349353" width="75.73" height="66.687" fill="none"/>
    </clipPath>
    <clipPath id="clip-path-53">
      <rect id="Rectángulo_349352" data-name="Rectángulo 349352" width="75.731" height="66.687" fill="none"/>
    </clipPath>
    <clipPath id="clip-path-54">
      <rect id="Rectángulo_349350" data-name="Rectángulo 349350" width="16.895" height="23.185" fill="none"/>
    </clipPath>
  </defs>
  <g id="Grupo_1012324" data-name="Grupo 1012324" transform="translate(-1125 -3114)">
    <path id="Rectángulo_348235" data-name="Rectángulo 348235" d="M10,0H285a10,10,0,0,1,10,10V217a0,0,0,0,1,0,0H0a0,0,0,0,1,0,0V10A10,10,0,0,1,10,0Z" transform="translate(1125 3114)" fill="url(#radial-gradient)"/>
    <g id="Grupo_1010932" data-name="Grupo 1010932">
      <g id="Grupo_1010921" data-name="Grupo 1010921" transform="translate(1209 3136.301)">
        <g id="Grupo_1010920" data-name="Grupo 1010920" clip-path="url(#clip-path)">
          <g id="Grupo_1010797" data-name="Grupo 1010797">
            <g id="Grupo_1010796" data-name="Grupo 1010796" clip-path="url(#clip-path)">
              <path id="Trazado_719792" data-name="Trazado 719792" d="M255.546,392.155c0,2.4-22.647,4.344-50.584,4.344s-50.584-1.945-50.584-4.344,22.647-4.344,50.584-4.344,50.584,1.945,50.584,4.344" transform="translate(-87.702 -220.315)" fill="#c1c6c9"/>
              <path id="Trazado_719793" data-name="Trazado 719793" d="M154.378,371.47v11.379H255.546V371.47s-101.077-.09-101.168,0" transform="translate(-87.702 -211.01)" fill="#c1c6c9"/>
            </g>
          </g>
          <g id="Grupo_1010799" data-name="Grupo 1010799" transform="translate(66.676 160.42)">
            <g id="Grupo_1010798" data-name="Grupo 1010798" clip-path="url(#clip-path-3)">
              <rect id="Rectángulo_349250" data-name="Rectángulo 349250" width="15.827" height="37.757" transform="translate(12.93 -3.476)" fill="#d3d9de"/>
            </g>
          </g>
          <g id="Grupo_1010801" data-name="Grupo 1010801" transform="translate(66.676 160.42)">
            <g id="Grupo_1010800" data-name="Grupo 1010800" clip-path="url(#clip-path-4)">
              <rect id="Rectángulo_349251" data-name="Rectángulo 349251" width="15.827" height="37.757" transform="translate(72.41 -3.476)" fill="#d3d9de"/>
              <rect id="Rectángulo_349252" data-name="Rectángulo 349252" width="15.827" height="37.757" transform="translate(95.685 -9.269)" fill="#a4aeb3"/>
            </g>
          </g>
          <g id="Grupo_1010803" data-name="Grupo 1010803">
            <g id="Grupo_1010802" data-name="Grupo 1010802" clip-path="url(#clip-path)">
              <path id="Trazado_719796" data-name="Trazado 719796" d="M255.546,365.808c0,2.4-22.647,4.344-50.584,4.344s-50.584-1.945-50.584-4.344,22.647-4.344,50.584-4.344,50.584,1.945,50.584,4.344" transform="translate(-87.702 -205.348)" fill="#d6d6d6"/>
              <path id="Trazado_719797" data-name="Trazado 719797" d="M255.992,366.975c0,1.839-21.674,3.33-48.412,3.33s-48.411-1.491-48.411-3.33,21.674-3.33,48.411-3.33,48.412,1.491,48.412,3.33" transform="translate(-90.424 -206.587)" fill="#9eabb3"/>
            </g>
          </g>
          <g id="Grupo_1010805" data-name="Grupo 1010805" transform="translate(68.745 157.058)">
            <g id="Grupo_1010804" data-name="Grupo 1010804" clip-path="url(#clip-path-6)">
              <path id="Trazado_719798" data-name="Trazado 719798" d="M255.992,372.484c0,1.839-21.674,3.33-48.412,3.33s-48.411-1.491-48.411-3.33,21.674-3.33,48.411-3.33,48.412,1.491,48.412,3.33" transform="translate(-159.169 -366.775)" fill="#80ccff"/>
            </g>
          </g>
          <g id="Grupo_1010816" data-name="Grupo 1010816">
            <g id="Grupo_1010815" data-name="Grupo 1010815" clip-path="url(#clip-path)">
              <path id="Trazado_719800" data-name="Trazado 719800" d="M201.825,372.94H199.24a.31.31,0,1,1,0-.621h2.586a.31.31,0,1,1,0,.621" transform="translate(-113.012 -211.515)" fill="#a8dcff"/>
              <path id="Trazado_719801" data-name="Trazado 719801" d="M191.872,374.07h-1.267a.31.31,0,0,1,0-.621h1.267a.31.31,0,1,1,0,.621" transform="translate(-108.107 -212.157)" fill="#a8dcff"/>
              <path id="Trazado_719802" data-name="Trazado 719802" d="M212.95,371.853h-1.965a.31.31,0,1,1,0-.621h1.965a.31.31,0,1,1,0,.621" transform="translate(-119.684 -210.897)" fill="#a8dcff"/>
              <path id="Trazado_719803" data-name="Trazado 719803" d="M219.4,375.359h-8.793a.31.31,0,1,1,0-.621H219.4a.31.31,0,0,1,0,.621" transform="translate(-119.472 -212.889)" fill="#a8dcff"/>
              <path id="Trazado_719804" data-name="Trazado 719804" d="M241.813,377.163h-3.466a.31.31,0,0,1,0-.621h3.466a.31.31,0,1,1,0,.621" transform="translate(-135.229 -213.914)" fill="#a8dcff"/>
              <path id="Trazado_719805" data-name="Trazado 719805" d="M262.53,377.492h-9a.31.31,0,1,1,0-.621h9a.31.31,0,1,1,0,.621" transform="translate(-143.854 -214.101)" fill="#a8dcff"/>
              <path id="Trazado_719806" data-name="Trazado 719806" d="M297.545,371.545h-3.1a.31.31,0,1,1,0-.621h3.1a.31.31,0,1,1,0,.621" transform="translate(-167.096 -210.722)" fill="#a8dcff"/>
              <path id="Trazado_719807" data-name="Trazado 719807" d="M286.278,377.113h-6.206a.31.31,0,1,1,0-.621h6.206a.31.31,0,1,1,0,.621" transform="translate(-158.932 -213.885)" fill="#a8dcff"/>
              <path id="Trazado_719808" data-name="Trazado 719808" d="M318.827,376.57h-5.638a.31.31,0,0,1,0-.621h5.638a.31.31,0,1,1,0,.621" transform="translate(-177.747 -213.577)" fill="#a8dcff"/>
              <path id="Trazado_719809" data-name="Trazado 719809" d="M326.212,373.341h-2.431a.31.31,0,0,1,0-.621h2.431a.31.31,0,1,1,0,.621" transform="translate(-183.764 -211.743)" fill="#a8dcff"/>
              <path id="Trazado_719810" data-name="Trazado 719810" d="M341.416,375.976h-1.707a.31.31,0,0,1,0-.621h1.707a.31.31,0,1,1,0,.621" transform="translate(-192.813 -213.239)" fill="#a8dcff"/>
              <path id="Trazado_719811" data-name="Trazado 719811" d="M353.764,373.7h-3.517a.31.31,0,1,1,0-.621h3.517a.31.31,0,1,1,0,.621" transform="translate(-198.799 -211.946)" fill="#a8dcff"/>
              <path id="Trazado_719812" data-name="Trazado 719812" d="M51.947,116.55v31.963H64.659v-1.295a.665.665,0,0,0,0-.374V116.55Zm1.333,2.736,4.1,5.33-4.1,5.372Zm.6-1.4h8.645l-4.306,5.635Zm9.443,1.151v11.112l-4.262-5.534Zm0,26-4.268-5.543,4.268-5.571Zm-5.11-6.636-4.861-6.314,4.872-6.377,4.853,6.3c.005.007.012.011.017.018Zm-.839,1.1-4.1,5.348V134.175Zm-4.1,7.684v-.143l4.939-6.447,5.075,6.59Z" transform="translate(-29.511 -66.212)" fill="#9c9c9c"/>
              <path id="Trazado_719813" data-name="Trazado 719813" d="M54.069,116.55v31.963H66.782v-1.295a.669.669,0,0,0,0-.374V116.55Zm1.334,2.736,4.1,5.33-4.1,5.372Zm.6-1.4H64.65l-4.306,5.635Zm9.443,1.151v11.112l-4.261-5.534Zm0,26-4.267-5.543,4.267-5.571ZM60.338,138.4l-4.862-6.314,4.872-6.377,4.853,6.3c.005.007.012.011.017.018Zm-.839,1.1-4.1,5.348V134.175Zm-4.1,7.684v-.143l4.938-6.447,5.075,6.59Z" transform="translate(-30.717 -66.212)" fill="#636363"/>
              <path id="Trazado_719814" data-name="Trazado 719814" d="M26.762,116.55v30.293a.673.673,0,0,0,0,.374v1.295H39.475V116.55Zm11.379,13.437-4.1-5.372,4.1-5.33ZM33.2,123.519l-4.305-5.635h8.644Zm-.842,1.094L28.1,130.147V119.035Zm-4.261,9.31,4.268,5.571L28.1,145.036Zm.229-1.893c.005-.007.012-.011.017-.018l4.853-6.3,4.872,6.377L33.205,138.4Zm9.816,2.145v10.668l-4.1-5.348Zm-10.014,13,5.075-6.59,4.939,6.447v.143Z" transform="translate(-15.188 -66.212)" fill="#636363"/>
              <path id="Trazado_719815" data-name="Trazado 719815" d="M24.64,116.55v30.293a.673.673,0,0,0,0,.374v1.295H37.353V116.55Zm11.379,13.437-4.1-5.372,4.1-5.33Zm-4.942-6.469-4.305-5.635h8.644Zm-.842,1.094-4.261,5.534V119.035Zm-4.261,9.31,4.268,5.571-4.268,5.543Zm.229-1.893c.005-.007.012-.011.017-.018l4.853-6.3,4.872,6.377L31.083,138.4Zm9.816,2.145v10.668l-4.1-5.348Zm-10.014,13,5.075-6.59,4.939,6.447v.143Z" transform="translate(-13.983 -66.212)" fill="#9c9c9c"/>
              <path id="Trazado_719816" data-name="Trazado 719816" d="M47.676,48.671H7.005V11.615A11.615,11.615,0,0,1,18.621,0h17.44A11.615,11.615,0,0,1,47.676,11.615Z" transform="translate(-3.98)" fill="#1b90e3"/>
              <g id="Grupo_1010808" data-name="Grupo 1010808" transform="translate(3.628)" style="mix-blend-mode: screen;isolation: isolate">
                <g id="Grupo_1010807" data-name="Grupo 1010807">
                  <g id="Grupo_1010806" data-name="Grupo 1010806" clip-path="url(#clip-path-8)">
                    <path id="Trazado_719817" data-name="Trazado 719817" d="M47.866,8.19A11.937,11.937,0,0,0,36.535,0h-16.8A11.937,11.937,0,0,0,8.4,8.19Z" transform="translate(-8.4)" fill="#3a4954"/>
                  </g>
                </g>
              </g>
              <g id="Grupo_1010811" data-name="Grupo 1010811" transform="translate(8.448)" style="mix-blend-mode: screen;isolation: isolate">
                <g id="Grupo_1010810" data-name="Grupo 1010810">
                  <g id="Grupo_1010809" data-name="Grupo 1010809" clip-path="url(#clip-path-9)">
                    <path id="Trazado_719818" data-name="Trazado 719818" d="M28.312,0c-4.833,0-8.751,5.343-8.751,11.933V48.671h8.134V11.933C27.695,5.343,29.476,0,31.673,0Z" transform="translate(-19.561)" fill="#3a4954"/>
                    <path id="Trazado_719819" data-name="Trazado 719819" d="M63.932,0H60.571c2.2,0,3.978,5.343,3.978,11.933V48.671h8.134V11.933C72.683,5.343,68.765,0,63.932,0" transform="translate(-42.859)" fill="#2e3b45"/>
                  </g>
                </g>
              </g>
              <g id="Grupo_1010814" data-name="Grupo 1010814" transform="translate(30.642)" style="mix-blend-mode: multiply;isolation: isolate">
                <g id="Grupo_1010813" data-name="Grupo 1010813">
                  <g id="Grupo_1010812" data-name="Grupo 1010812" clip-path="url(#clip-path-10)">
                    <path id="Trazado_719820" data-name="Trazado 719820" d="M72.066,0h-1.12c5.712,0,10.343,5.343,10.343,11.933V48.671H84V11.933A11.933,11.933,0,0,0,72.066,0" transform="translate(-70.946)" fill="#9fc8e6"/>
                  </g>
                </g>
              </g>
              <rect id="Rectángulo_349257" data-name="Rectángulo 349257" width="46.889" height="3.111" transform="translate(0 47.264)" fill="#5c5c5c"/>
              <rect id="Rectángulo_349258" data-name="Rectángulo 349258" width="53.408" height="66.805" transform="translate(0.797 84.648)" fill="#d9dee0"/>
              <rect id="Rectángulo_349259" data-name="Rectángulo 349259" width="67.877" height="66.805" transform="translate(54.206 84.648)" fill="#b6c0c4"/>
              <path id="Trazado_719821" data-name="Trazado 719821" d="M124.417,95.666h9.628V44.532a8.177,8.177,0,0,0-8.177-8.178H93.838v9.628h28.316a2.263,2.263,0,0,1,2.263,2.263Z" transform="translate(-53.309 -20.653)" fill="#ababab"/>
              <path id="Trazado_719822" data-name="Trazado 719822" d="M90.649,45.353l1.4.6V36.346l-1.4.6Z" transform="translate(-51.498 -20.648)" fill="#2eb4e6"/>
              <path id="Trazado_719823" data-name="Trazado 719823" d="M173.687,175.085l.6-1.4h-9.611l.6,1.4Z" transform="translate(-93.555 -98.669)" fill="#999"/>
              <path id="Trazado_719824" data-name="Trazado 719824" d="M92.065,41.174l-1.388.415V39.652l1.388-.563Z" transform="translate(-51.514 -22.207)" fill="#52cbf7"/>
              <path id="Trazado_719825" data-name="Trazado 719825" d="M92.018,55.231H90.634v.851l1.383.625Z" transform="translate(-51.489 -31.376)" fill="#008ec2"/>
              <path id="Trazado_719826" data-name="Trazado 719826" d="M178.9,173.7h2.066l-.452,1.389-2,.012Z" transform="translate(-101.412 -98.681)" fill="#adadad"/>
              <path id="Trazado_719827" data-name="Trazado 719827" d="M166.114,173.683l.5,1.4-1.349,0-.622-1.4Z" transform="translate(-93.532 -98.67)" fill="#7d7d7d"/>
              <path id="Trazado_719828" data-name="Trazado 719828" d="M93.344,41.1c0,2.666-1.824,4.826-4.075,4.826s-4.064-2.16-4.064-4.826,1.814-4.826,4.064-4.826,4.075,2.161,4.075,4.826" transform="translate(-48.405 -20.606)" fill="#ababab"/>
            </g>
          </g>
          <g id="Grupo_1010818" data-name="Grupo 1010818" transform="translate(36.8 15.666)">
            <g id="Grupo_1010817" data-name="Grupo 1010817" clip-path="url(#clip-path-11)">
              <path id="Trazado_719829" data-name="Trazado 719829" d="M116.938,55.23a3.743,3.743,0,0,1,3.739,3.739V106.39H119.2V58.969a2.263,2.263,0,0,0-2.263-2.263H84.657V55.23Z" transform="translate(-84.894 -47.042)" fill="#8c8c8c"/>
              <path id="Trazado_719830" data-name="Trazado 719830" d="M125.769,97.227h2.066V46.084a7.005,7.005,0,0,0-7-7H84.985v2.08l35.853-.015a4.937,4.937,0,0,1,4.931,4.931Z" transform="translate(-85.08 -37.872)" fill="#cfcfcf"/>
            </g>
          </g>
          <g id="Grupo_1010823" data-name="Grupo 1010823">
            <g id="Grupo_1010822" data-name="Grupo 1010822" clip-path="url(#clip-path)">
              <g id="Grupo_1010821" data-name="Grupo 1010821" transform="translate(71.135 66.966)" style="mix-blend-mode: multiply;isolation: isolate">
                <g id="Grupo_1010820" data-name="Grupo 1010820">
                  <g id="Grupo_1010819" data-name="Grupo 1010819" clip-path="url(#clip-path-13)">
                    <rect id="Rectángulo_349261" data-name="Rectángulo 349261" width="9.616" height="0.344" fill="#b5b5b5"/>
                  </g>
                </g>
              </g>
            </g>
          </g>
          <g id="Grupo_1010828" data-name="Grupo 1010828" transform="translate(40.529 15.702)">
            <g id="Grupo_1010827" data-name="Grupo 1010827" clip-path="url(#clip-path-14)">
              <g id="Grupo_1010826" data-name="Grupo 1010826" transform="translate(2.985 -0.43)" style="mix-blend-mode: multiply;isolation: isolate">
                <g id="Grupo_1010825" data-name="Grupo 1010825">
                  <g id="Grupo_1010824" data-name="Grupo 1010824" clip-path="url(#clip-path-15)">
                    <path id="Trazado_719832" data-name="Trazado 719832" d="M105.18,45.8c-2.443,0-4.43-2.342-4.43-5.22s1.987-5.221,4.43-5.221l-.247.426c-1.857,0-3.757,2.151-3.757,4.795s1.943,4.829,3.841,4.829Z" transform="translate(-100.75 -35.36)" fill="#b5b5b5"/>
                  </g>
                </g>
              </g>
            </g>
          </g>
          <g id="Grupo_1010866" data-name="Grupo 1010866">
            <g id="Grupo_1010865" data-name="Grupo 1010865" clip-path="url(#clip-path)">
              <rect id="Rectángulo_349265" data-name="Rectángulo 349265" width="14.763" height="6.973" transform="translate(68.915 74.996)" fill="#bcc0c2"/>
              <rect id="Rectángulo_349266" data-name="Rectángulo 349266" width="2.662" height="6.973" transform="translate(78.178 75.049)" fill="#cbcfd1"/>
              <rect id="Rectángulo_349267" data-name="Rectángulo 349267" width="2.733" height="6.973" transform="translate(71.435 74.996)" fill="#cbcfd1"/>
              <rect id="Rectángulo_349268" data-name="Rectángulo 349268" width="1.916" height="6.973" transform="translate(81.762 74.996)" fill="#a3a6a8"/>
              <g id="Grupo_1010831" data-name="Grupo 1010831" transform="translate(68.915 74.996)" style="mix-blend-mode: screen;isolation: isolate">
                <g id="Grupo_1010830" data-name="Grupo 1010830">
                  <g id="Grupo_1010829" data-name="Grupo 1010829" clip-path="url(#clip-path-17)">
                    <rect id="Rectángulo_349269" data-name="Rectángulo 349269" width="14.763" height="0.411" transform="translate(0)" fill="#8a8d8f"/>
                  </g>
                </g>
              </g>
              <rect id="Rectángulo_349271" data-name="Rectángulo 349271" width="53.408" height="2.322" transform="translate(0.797 82.326)" fill="#8a8d8f"/>
              <rect id="Rectángulo_349272" data-name="Rectángulo 349272" width="67.877" height="2.322" transform="translate(54.206 82.326)" fill="#6f7273"/>
              <g id="Grupo_1010864" data-name="Grupo 1010864" transform="translate(0.976 89.56)">
                <g id="Grupo_1010863" data-name="Grupo 1010863">
                  <g id="Grupo_1010862" data-name="Grupo 1010862" clip-path="url(#clip-path-18)">
                    <g id="Grupo_1010834" data-name="Grupo 1010834" style="mix-blend-mode: multiply;isolation: isolate">
                      <g id="Grupo_1010833" data-name="Grupo 1010833">
                        <g id="Grupo_1010832" data-name="Grupo 1010832" clip-path="url(#clip-path-19)">
                          <rect id="Rectángulo_349273" data-name="Rectángulo 349273" width="120.973" height="1.072" transform="translate(0 0)" fill="#d9dee0"/>
                        </g>
                      </g>
                    </g>
                    <g id="Grupo_1010837" data-name="Grupo 1010837" transform="translate(0 6.738)" style="mix-blend-mode: multiply;isolation: isolate">
                      <g id="Grupo_1010836" data-name="Grupo 1010836">
                        <g id="Grupo_1010835" data-name="Grupo 1010835" clip-path="url(#clip-path-19)">
                          <rect id="Rectángulo_349275" data-name="Rectángulo 349275" width="120.973" height="1.072" transform="translate(0 0)" fill="#d9dee0"/>
                        </g>
                      </g>
                    </g>
                    <g id="Grupo_1010840" data-name="Grupo 1010840" transform="translate(0 13.476)" style="mix-blend-mode: multiply;isolation: isolate">
                      <g id="Grupo_1010839" data-name="Grupo 1010839">
                        <g id="Grupo_1010838" data-name="Grupo 1010838" clip-path="url(#clip-path-19)">
                          <rect id="Rectángulo_349277" data-name="Rectángulo 349277" width="120.973" height="1.072" transform="translate(0 0)" fill="#d9dee0"/>
                        </g>
                      </g>
                    </g>
                    <g id="Grupo_1010843" data-name="Grupo 1010843" transform="translate(0 20.214)" style="mix-blend-mode: multiply;isolation: isolate">
                      <g id="Grupo_1010842" data-name="Grupo 1010842">
                        <g id="Grupo_1010841" data-name="Grupo 1010841" clip-path="url(#clip-path-19)">
                          <rect id="Rectángulo_349279" data-name="Rectángulo 349279" width="120.973" height="1.072" transform="translate(0 0)" fill="#d9dee0"/>
                        </g>
                      </g>
                    </g>
                    <g id="Grupo_1010846" data-name="Grupo 1010846" transform="translate(0 26.952)" style="mix-blend-mode: multiply;isolation: isolate">
                      <g id="Grupo_1010845" data-name="Grupo 1010845">
                        <g id="Grupo_1010844" data-name="Grupo 1010844" clip-path="url(#clip-path-19)">
                          <rect id="Rectángulo_349281" data-name="Rectángulo 349281" width="120.973" height="1.072" transform="translate(0 0)" fill="#d9dee0"/>
                        </g>
                      </g>
                    </g>
                    <g id="Grupo_1010849" data-name="Grupo 1010849" transform="translate(0 33.69)" style="mix-blend-mode: multiply;isolation: isolate">
                      <g id="Grupo_1010848" data-name="Grupo 1010848">
                        <g id="Grupo_1010847" data-name="Grupo 1010847" clip-path="url(#clip-path-19)">
                          <rect id="Rectángulo_349283" data-name="Rectángulo 349283" width="120.973" height="1.072" transform="translate(0 0)" fill="#d9dee0"/>
                        </g>
                      </g>
                    </g>
                    <g id="Grupo_1010852" data-name="Grupo 1010852" transform="translate(0 40.428)" style="mix-blend-mode: multiply;isolation: isolate">
                      <g id="Grupo_1010851" data-name="Grupo 1010851">
                        <g id="Grupo_1010850" data-name="Grupo 1010850" clip-path="url(#clip-path-19)">
                          <rect id="Rectángulo_349285" data-name="Rectángulo 349285" width="120.973" height="1.072" transform="translate(0 0)" fill="#d9dee0"/>
                        </g>
                      </g>
                    </g>
                    <g id="Grupo_1010855" data-name="Grupo 1010855" transform="translate(0 47.166)" style="mix-blend-mode: multiply;isolation: isolate">
                      <g id="Grupo_1010854" data-name="Grupo 1010854">
                        <g id="Grupo_1010853" data-name="Grupo 1010853" clip-path="url(#clip-path-19)">
                          <rect id="Rectángulo_349287" data-name="Rectángulo 349287" width="120.973" height="1.072" transform="translate(0 0)" fill="#d9dee0"/>
                        </g>
                      </g>
                    </g>
                    <g id="Grupo_1010858" data-name="Grupo 1010858" transform="translate(0 53.904)" style="mix-blend-mode: multiply;isolation: isolate">
                      <g id="Grupo_1010857" data-name="Grupo 1010857">
                        <g id="Grupo_1010856" data-name="Grupo 1010856" clip-path="url(#clip-path-19)">
                          <rect id="Rectángulo_349289" data-name="Rectángulo 349289" width="120.973" height="1.072" transform="translate(0 0)" fill="#d9dee0"/>
                        </g>
                      </g>
                    </g>
                    <g id="Grupo_1010861" data-name="Grupo 1010861" transform="translate(0 60.643)" style="mix-blend-mode: multiply;isolation: isolate">
                      <g id="Grupo_1010860" data-name="Grupo 1010860">
                        <g id="Grupo_1010859" data-name="Grupo 1010859" clip-path="url(#clip-path-19)">
                          <rect id="Rectángulo_349291" data-name="Rectángulo 349291" width="120.973" height="1.072" transform="translate(0 0)" fill="#d9dee0"/>
                        </g>
                      </g>
                    </g>
                  </g>
                </g>
              </g>
              <rect id="Rectángulo_349294" data-name="Rectángulo 349294" width="22.445" height="40.756" transform="translate(9.389 110.436)" fill="#b6c0c4"/>
            </g>
          </g>
          <g id="Grupo_1010868" data-name="Grupo 1010868" transform="translate(9.389 110.435)">
            <g id="Grupo_1010867" data-name="Grupo 1010867" clip-path="url(#clip-path-29)">
              <rect id="Rectángulo_349296" data-name="Rectángulo 349296" width="22.445" height="38.08" transform="translate(2.733 2.676)" fill="#cdd3d6"/>
            </g>
          </g>
          <g id="Grupo_1010870" data-name="Grupo 1010870">
            <g id="Grupo_1010869" data-name="Grupo 1010869" clip-path="url(#clip-path)">
              <rect id="Rectángulo_349298" data-name="Rectángulo 349298" width="15.773" height="34.085" transform="translate(14.32 115.493)" fill="#e1e6e8"/>
              <path id="Trazado_719834" data-name="Trazado 719834" d="M21.74,255.7l2.733,2.676H44.191V255.7Z" transform="translate(-12.351 -145.262)" fill="#98a2a8"/>
              <rect id="Rectángulo_349299" data-name="Rectángulo 349299" width="0.713" height="6.051" transform="translate(27.687 130.234)" fill="#9696b0"/>
              <rect id="Rectángulo_349300" data-name="Rectángulo 349300" width="15.939" height="4.874" transform="translate(58.751 91.109)" fill="#707882"/>
              <rect id="Rectángulo_349301" data-name="Rectángulo 349301" width="1.896" height="4.874" transform="translate(72.794 91.109)" fill="#d9dee0"/>
              <rect id="Rectángulo_349302" data-name="Rectángulo 349302" width="15.939" height="4.874" transform="translate(80.331 91.109)" fill="#707882"/>
              <rect id="Rectángulo_349303" data-name="Rectángulo 349303" width="1.896" height="4.874" transform="translate(94.373 91.109)" fill="#d9dee0"/>
              <rect id="Rectángulo_349304" data-name="Rectángulo 349304" width="15.939" height="4.874" transform="translate(102.08 91.109)" fill="#707882"/>
              <rect id="Rectángulo_349305" data-name="Rectángulo 349305" width="1.896" height="4.874" transform="translate(116.123 91.109)" fill="#d9dee0"/>
              <path id="Trazado_719835" data-name="Trazado 719835" d="M88.326,251.705H87.22V180.281a2.8,2.8,0,0,1,5.595,0v3.005h-1.1v-3.005a1.692,1.692,0,1,0-3.384,0Z" transform="translate(-49.55 -100.829)" fill="#6b6d6e"/>
              <path id="Trazado_719836" data-name="Trazado 719836" d="M112.313,251.705h-1.105V180.281a2.8,2.8,0,0,1,5.595,0v3H115.7v-3a1.692,1.692,0,1,0-3.384,0Z" transform="translate(-63.177 -100.829)" fill="#6b6d6e"/>
              <rect id="Rectángulo_349306" data-name="Rectángulo 349306" width="10.038" height="1.105" transform="translate(38.223 86.631)" fill="#6b6d6e"/>
              <rect id="Rectángulo_349307" data-name="Rectángulo 349307" width="10.038" height="1.105" transform="translate(38.223 92.182)" fill="#6b6d6e"/>
              <rect id="Rectángulo_349308" data-name="Rectángulo 349308" width="10.038" height="1.105" transform="translate(38.223 97.734)" fill="#6b6d6e"/>
              <rect id="Rectángulo_349309" data-name="Rectángulo 349309" width="10.038" height="1.105" transform="translate(38.223 103.286)" fill="#6b6d6e"/>
              <rect id="Rectángulo_349310" data-name="Rectángulo 349310" width="10.038" height="1.105" transform="translate(38.223 108.838)" fill="#6b6d6e"/>
              <rect id="Rectángulo_349311" data-name="Rectángulo 349311" width="10.038" height="1.105" transform="translate(38.223 114.389)" fill="#6b6d6e"/>
              <rect id="Rectángulo_349312" data-name="Rectángulo 349312" width="10.038" height="1.105" transform="translate(38.223 119.941)" fill="#6b6d6e"/>
              <rect id="Rectángulo_349313" data-name="Rectángulo 349313" width="10.038" height="1.105" transform="translate(38.223 125.493)" fill="#6b6d6e"/>
              <rect id="Rectángulo_349314" data-name="Rectángulo 349314" width="10.038" height="1.105" transform="translate(38.223 131.044)" fill="#6b6d6e"/>
              <rect id="Rectángulo_349315" data-name="Rectángulo 349315" width="10.038" height="1.105" transform="translate(38.223 136.596)" fill="#6b6d6e"/>
              <rect id="Rectángulo_349316" data-name="Rectángulo 349316" width="10.038" height="1.105" transform="translate(38.223 142.148)" fill="#6b6d6e"/>
              <rect id="Rectángulo_349317" data-name="Rectángulo 349317" width="10.038" height="1.105" transform="translate(38.223 147.699)" fill="#6b6d6e"/>
              <path id="Trazado_719837" data-name="Trazado 719837" d="M251.612,331.222h9.628V318.009a8.178,8.178,0,0,0-8.178-8.178H227.5v9.628H249.35a2.263,2.263,0,0,1,2.263,2.263Z" transform="translate(-129.245 -176.015)" fill="#1b90e3"/>
              <path id="Trazado_719838" data-name="Trazado 719838" d="M224.314,318.83l1.4.6v-9.611l-1.4.6Z" transform="translate(-127.433 -176.011)" fill="#2eb4e6"/>
              <path id="Trazado_719839" data-name="Trazado 719839" d="M292.374,360.759l.6-1.4h-9.611l.6,1.4Z" transform="translate(-160.981 -204.151)" fill="#999"/>
              <path id="Trazado_719840" data-name="Trazado 719840" d="M225.731,314.651l-1.388.415v-1.937l1.388-.563Z" transform="translate(-127.449 -177.569)" fill="#52cbf7"/>
              <path id="Trazado_719841" data-name="Trazado 719841" d="M225.683,328.708H224.3v.851l1.383.624Z" transform="translate(-127.425 -186.739)" fill="#008ec2"/>
              <path id="Trazado_719842" data-name="Trazado 719842" d="M297.588,359.378h2.066l-.452,1.389-2,.013Z" transform="translate(-168.838 -204.163)" fill="#adadad"/>
              <path id="Trazado_719843" data-name="Trazado 719843" d="M284.8,359.358l.5,1.4-1.349,0-.622-1.4Z" transform="translate(-160.958 -204.152)" fill="#7d7d7d"/>
              <path id="Trazado_719844" data-name="Trazado 719844" d="M227.009,314.576c0,2.666-1.824,4.826-4.075,4.826s-4.064-2.161-4.064-4.826,1.814-4.826,4.064-4.826,4.075,2.161,4.075,4.826" transform="translate(-124.34 -175.969)" fill="#a1a1a1"/>
            </g>
          </g>
          <g id="Grupo_1010872" data-name="Grupo 1010872" transform="translate(94.53 133.78)">
            <g id="Grupo_1010871" data-name="Grupo 1010871" clip-path="url(#clip-path-31)">
              <path id="Trazado_719845" data-name="Trazado 719845" d="M244.134,328.708a3.743,3.743,0,0,1,3.739,3.739v9.5H246.4v-9.5a2.263,2.263,0,0,0-2.263-2.263H218.322v-1.475Z" transform="translate(-218.559 -320.52)" fill="#0b70b8"/>
              <path id="Trazado_719846" data-name="Trazado 719846" d="M252.966,332.783h2.066V319.561a7.005,7.005,0,0,0-7-7H218.651v2.081l29.384-.015a4.937,4.937,0,0,1,4.931,4.931Z" transform="translate(-218.746 -311.348)" fill="#57baff"/>
            </g>
          </g>
          <g id="Grupo_1010877" data-name="Grupo 1010877">
            <g id="Grupo_1010876" data-name="Grupo 1010876" clip-path="url(#clip-path)">
              <g id="Grupo_1010875" data-name="Grupo 1010875" transform="translate(122.396 147.159)" style="mix-blend-mode: multiply;isolation: isolate">
                <g id="Grupo_1010874" data-name="Grupo 1010874">
                  <g id="Grupo_1010873" data-name="Grupo 1010873" clip-path="url(#clip-path-13)">
                    <rect id="Rectángulo_349319" data-name="Rectángulo 349319" width="9.616" height="0.344" fill="#b5b5b5"/>
                  </g>
                </g>
              </g>
            </g>
          </g>
          <g id="Grupo_1010882" data-name="Grupo 1010882" transform="translate(98.258 133.816)">
            <g id="Grupo_1010881" data-name="Grupo 1010881" clip-path="url(#clip-path-34)">
              <g id="Grupo_1010880" data-name="Grupo 1010880" transform="translate(2.985 -0.43)" style="mix-blend-mode: multiply;isolation: isolate">
                <g id="Grupo_1010879" data-name="Grupo 1010879">
                  <g id="Grupo_1010878" data-name="Grupo 1010878" clip-path="url(#clip-path-15)">
                    <path id="Trazado_719848" data-name="Trazado 719848" d="M238.845,319.279c-2.443,0-4.43-2.342-4.43-5.22s1.987-5.22,4.43-5.22l-.247.426c-1.857,0-3.757,2.151-3.757,4.795s1.943,4.829,3.841,4.829Z" transform="translate(-234.415 -308.838)" fill="#b5b5b5"/>
                  </g>
                </g>
              </g>
            </g>
          </g>
          <g id="Grupo_1010887" data-name="Grupo 1010887">
            <g id="Grupo_1010886" data-name="Grupo 1010886" clip-path="url(#clip-path)">
              <rect id="Rectángulo_349323" data-name="Rectángulo 349323" width="14.764" height="6.973" transform="translate(120.176 155.189)" fill="#bcc0c2"/>
              <rect id="Rectángulo_349324" data-name="Rectángulo 349324" width="2.662" height="6.973" transform="translate(129.438 155.242)" fill="#cbcfd1"/>
              <rect id="Rectángulo_349325" data-name="Rectángulo 349325" width="2.733" height="6.973" transform="translate(122.696 155.189)" fill="#cbcfd1"/>
              <rect id="Rectángulo_349326" data-name="Rectángulo 349326" width="1.916" height="6.973" transform="translate(133.023 155.189)" fill="#a3a6a8"/>
              <g id="Grupo_1010885" data-name="Grupo 1010885" transform="translate(120.176 155.189)" style="mix-blend-mode: screen;isolation: isolate">
                <g id="Grupo_1010884" data-name="Grupo 1010884">
                  <g id="Grupo_1010883" data-name="Grupo 1010883" clip-path="url(#clip-path-17)">
                    <rect id="Rectángulo_349327" data-name="Rectángulo 349327" width="14.764" height="0.411" transform="translate(0 0)" fill="#8a8d8f"/>
                  </g>
                </g>
              </g>
              <path id="Trazado_719850" data-name="Trazado 719850" d="M172.926,307.136h1.652c2.216,0,4.012,2.676,4.012,5.978s-1.8,5.978-4.012,5.978h-1.652c-2.216,0-4.013-2.677-4.013-5.978s1.8-5.978,4.013-5.978" transform="translate(-95.96 -174.484)" fill="#0b7acc"/>
            </g>
          </g>
          <g id="Grupo_1010889" data-name="Grupo 1010889" transform="translate(72.954 132.652)">
            <g id="Grupo_1010888" data-name="Grupo 1010888" clip-path="url(#clip-path-38)">
              <rect id="Rectángulo_349330" data-name="Rectángulo 349330" width="8.545" height="2.779" transform="translate(-1.157 9.6)" fill="#026ab5"/>
              <rect id="Rectángulo_349331" data-name="Rectángulo 349331" width="8.545" height="2.779" transform="translate(-1.936 1.012)" fill="#148ae0"/>
            </g>
          </g>
          <g id="Grupo_1010891" data-name="Grupo 1010891">
            <g id="Grupo_1010890" data-name="Grupo 1010890" clip-path="url(#clip-path)">
              <path id="Trazado_719852" data-name="Trazado 719852" d="M172.739,313.114c0,3.3,1.8,5.978,4.013,5.978s4.013-2.677,4.013-5.978-1.8-5.978-4.013-5.978-4.013,2.676-4.013,5.978" transform="translate(-98.133 -174.484)" fill="#30aaff"/>
              <path id="Trazado_719853" data-name="Trazado 719853" d="M178.466,319.277h0c-.076,0-.148-.088-.165-.213a.308.308,0,0,1,.129-.328v0c.092-.036.182.057.2.2a.309.309,0,0,1-.127.328.213.213,0,0,1-.039.006m-1.463,0h0a.1.1,0,0,1-.039-.008.305.305,0,0,1-.127-.326c.02-.148.112-.241.2-.208s.147.181.127.328c-.017.126-.089.213-.165.213m2.787-1.014h0a.16.16,0,0,1-.134-.1.4.4,0,0,1,.027-.383c.075-.093.181-.074.239.044a.393.393,0,0,1-.029.385.135.135,0,0,1-.1.057m-4.108-.011h0a.135.135,0,0,1-.1-.057.4.4,0,0,1-.028-.386c.058-.117.165-.136.238-.044a.393.393,0,0,1,.027.385.158.158,0,0,1-.132.1m5.026-1.826h0a.116.116,0,0,1-.074-.027.364.364,0,0,1-.078-.367v0c.041-.136.142-.194.227-.126a.363.363,0,0,1,.078.364c-.029.1-.09.153-.153.153m-5.941-.014h0c-.063,0-.124-.057-.153-.156a.359.359,0,0,1,.078-.363c.085-.066.187-.009.228.126a.364.364,0,0,1-.08.366.116.116,0,0,1-.073.027m6.272-2.283h0c-.1,0-.17-.123-.17-.273s.076-.273.17-.273.17.123.17.273-.076.273-.17.273m-6.6-.016h0c-.093,0-.169-.123-.169-.273v-.025c0-.151.077-.273.171-.271s.17.123.168.273v.022c0,.15-.075.273-.17.273m6.279-2.285h0c-.063,0-.124-.057-.153-.156a.357.357,0,0,1,.08-.363c.085-.066.184-.008.225.128a.359.359,0,0,1-.08.364.111.111,0,0,1-.073.027m-5.945-.033h0a.122.122,0,0,1-.075-.03.364.364,0,0,1-.076-.366h0c.043-.134.144-.189.229-.123a.367.367,0,0,1,.076.366c-.029.1-.09.153-.153.153m5.033-1.812h0a.145.145,0,0,1-.107-.06.4.4,0,0,1-.025-.386c.058-.117.165-.136.238-.044a.4.4,0,0,1,.027.385.158.158,0,0,1-.132.1m-4.108-.019h0a.159.159,0,0,1-.134-.1.394.394,0,0,1,.029-.385c.073-.093.18-.071.238.047a.4.4,0,0,1-.029.385.135.135,0,0,1-.1.057m2.788-1.006h0a.1.1,0,0,1-.037-.008.3.3,0,0,1-.128-.326c.021-.147.112-.24.2-.207a.307.307,0,0,1,.127.328c-.017.126-.088.213-.166.213m-1.465-.006h0c-.076,0-.148-.085-.165-.213a.3.3,0,0,1,.129-.325c.092-.033.182.06.2.208a.3.3,0,0,1-.129.325.153.153,0,0,1-.037.006" transform="translate(-99.003 -175.204)" fill="#cceaff"/>
              <path id="Trazado_719854" data-name="Trazado 719854" d="M179.134,312.3h1.036c1.389,0,2.515,1.678,2.515,3.747s-1.126,3.748-2.515,3.748h-1.036c-1.389,0-2.515-1.678-2.515-3.748s1.126-3.747,2.515-3.747" transform="translate(-100.337 -177.419)" fill="#87b0cc"/>
            </g>
          </g>
          <g id="Grupo_1010893" data-name="Grupo 1010893" transform="translate(76.282 134.883)">
            <g id="Grupo_1010892" data-name="Grupo 1010892" clip-path="url(#clip-path-40)">
              <rect id="Rectángulo_349333" data-name="Rectángulo 349333" width="5.356" height="1.742" transform="translate(-0.725 6.018)" fill="#6796b8"/>
              <rect id="Rectángulo_349334" data-name="Rectángulo 349334" width="5.356" height="1.742" transform="translate(-1.214 0.634)" fill="#a1c7e0"/>
            </g>
          </g>
          <g id="Grupo_1010895" data-name="Grupo 1010895">
            <g id="Grupo_1010894" data-name="Grupo 1010894" clip-path="url(#clip-path)">
              <path id="Trazado_719856" data-name="Trazado 719856" d="M179.017,316.049c0,2.07,1.126,3.747,2.515,3.747s2.515-1.677,2.515-3.747-1.126-3.747-2.515-3.747-2.515,1.677-2.515,3.747" transform="translate(-101.7 -177.419)" fill="#bed7e8"/>
            </g>
          </g>
          <g id="Grupo_1010900" data-name="Grupo 1010900" transform="translate(98.258 133.816)">
            <g id="Grupo_1010899" data-name="Grupo 1010899" clip-path="url(#clip-path-34)">
              <g id="Grupo_1010898" data-name="Grupo 1010898" transform="translate(-16.344 -0.469)" style="mix-blend-mode: multiply;isolation: isolate">
                <g id="Grupo_1010897" data-name="Grupo 1010897">
                  <g id="Grupo_1010896" data-name="Grupo 1010896" clip-path="url(#clip-path-43)">
                    <path id="Trazado_719857" data-name="Trazado 719857" d="M213.77,330.137H223.4V316.924a8.177,8.177,0,0,0-8.178-8.177h-25.56v9.628h21.847a2.263,2.263,0,0,1,2.263,2.263Z" transform="translate(-189.661 -308.747)" fill="#6cb0e0"/>
                  </g>
                </g>
              </g>
            </g>
          </g>
          <g id="Grupo_1010902" data-name="Grupo 1010902">
            <g id="Grupo_1010901" data-name="Grupo 1010901" clip-path="url(#clip-path)">
              <path id="Trazado_719859" data-name="Trazado 719859" d="M208.807,331.222h9.628V318.009a8.177,8.177,0,0,0-8.177-8.178H184.7v9.628h21.847a2.263,2.263,0,0,1,2.263,2.263Z" transform="translate(-104.927 -176.015)" fill="#1b90e3"/>
              <path id="Trazado_719860" data-name="Trazado 719860" d="M181.509,318.83l1.4.6v-9.611l-1.4.6Z" transform="translate(-103.116 -176.011)" fill="#2eb4e6"/>
              <path id="Trazado_719861" data-name="Trazado 719861" d="M249.569,360.759l.6-1.4h-9.611l.6,1.4Z" transform="translate(-136.664 -204.151)" fill="#999"/>
              <path id="Trazado_719862" data-name="Trazado 719862" d="M182.925,314.651l-1.388.415v-1.937l1.388-.563Z" transform="translate(-103.131 -177.569)" fill="#52cbf7"/>
              <path id="Trazado_719863" data-name="Trazado 719863" d="M182.878,328.708h-1.383v.851l1.383.624Z" transform="translate(-103.107 -186.739)" fill="#008ec2"/>
              <path id="Trazado_719864" data-name="Trazado 719864" d="M254.783,359.378h2.066l-.452,1.389-2,.013Z" transform="translate(-144.521 -204.163)" fill="#adadad"/>
              <path id="Trazado_719865" data-name="Trazado 719865" d="M242,359.358l.5,1.4-1.349,0-.622-1.4Z" transform="translate(-136.64 -204.152)" fill="#7d7d7d"/>
              <path id="Trazado_719866" data-name="Trazado 719866" d="M184.2,314.576c0,2.666-1.824,4.826-4.075,4.826s-4.064-2.161-4.064-4.826,1.814-4.826,4.064-4.826,4.075,2.161,4.075,4.826" transform="translate(-100.023 -175.969)" fill="#1b90e3"/>
            </g>
          </g>
          <g id="Grupo_1010904" data-name="Grupo 1010904" transform="translate(76.042 133.78)">
            <g id="Grupo_1010903" data-name="Grupo 1010903" clip-path="url(#clip-path-45)">
              <path id="Trazado_719867" data-name="Trazado 719867" d="M201.329,328.708a3.742,3.742,0,0,1,3.738,3.739v9.5h-1.475v-9.5a2.263,2.263,0,0,0-2.263-2.263H175.517v-1.475Z" transform="translate(-175.754 -320.52)" fill="#0b70b8"/>
              <path id="Trazado_719868" data-name="Trazado 719868" d="M210.161,332.783h2.066V319.561a7.005,7.005,0,0,0-7-7H175.846v2.081l29.384-.015a4.937,4.937,0,0,1,4.931,4.931Z" transform="translate(-175.941 -311.348)" fill="#57baff"/>
            </g>
          </g>
          <g id="Grupo_1010909" data-name="Grupo 1010909">
            <g id="Grupo_1010908" data-name="Grupo 1010908" clip-path="url(#clip-path)">
              <g id="Grupo_1010907" data-name="Grupo 1010907" transform="translate(103.909 147.159)" style="mix-blend-mode: multiply;isolation: isolate">
                <g id="Grupo_1010906" data-name="Grupo 1010906">
                  <g id="Grupo_1010905" data-name="Grupo 1010905" clip-path="url(#clip-path-13)">
                    <rect id="Rectángulo_349338" data-name="Rectángulo 349338" width="9.616" height="0.344" fill="#b5b5b5"/>
                  </g>
                </g>
              </g>
            </g>
          </g>
          <g id="Grupo_1010914" data-name="Grupo 1010914" transform="translate(79.771 133.816)">
            <g id="Grupo_1010913" data-name="Grupo 1010913" clip-path="url(#clip-path-48)">
              <g id="Grupo_1010912" data-name="Grupo 1010912" transform="translate(2.985 -0.43)" style="mix-blend-mode: multiply;isolation: isolate">
                <g id="Grupo_1010911" data-name="Grupo 1010911">
                  <g id="Grupo_1010910" data-name="Grupo 1010910" clip-path="url(#clip-path-15)">
                    <path id="Trazado_719870" data-name="Trazado 719870" d="M196.04,319.279c-2.443,0-4.43-2.342-4.43-5.22s1.987-5.22,4.43-5.22l-.247.426c-1.857,0-3.757,2.151-3.757,4.795s1.942,4.829,3.841,4.829Z" transform="translate(-191.61 -308.838)" fill="#b5b5b5"/>
                  </g>
                </g>
              </g>
            </g>
          </g>
          <g id="Grupo_1010919" data-name="Grupo 1010919">
            <g id="Grupo_1010918" data-name="Grupo 1010918" clip-path="url(#clip-path)">
              <rect id="Rectángulo_349342" data-name="Rectángulo 349342" width="14.763" height="6.973" transform="translate(101.689 155.189)" fill="#bcc0c2"/>
              <rect id="Rectángulo_349343" data-name="Rectángulo 349343" width="2.662" height="6.973" transform="translate(110.951 155.242)" fill="#cbcfd1"/>
              <rect id="Rectángulo_349344" data-name="Rectángulo 349344" width="2.733" height="6.973" transform="translate(104.208 155.189)" fill="#cbcfd1"/>
              <rect id="Rectángulo_349345" data-name="Rectángulo 349345" width="1.916" height="6.973" transform="translate(114.535 155.189)" fill="#a3a6a8"/>
              <g id="Grupo_1010917" data-name="Grupo 1010917" transform="translate(101.688 155.189)" style="mix-blend-mode: screen;isolation: isolate">
                <g id="Grupo_1010916" data-name="Grupo 1010916">
                  <g id="Grupo_1010915" data-name="Grupo 1010915" clip-path="url(#clip-path-51)">
                    <rect id="Rectángulo_349346" data-name="Rectángulo 349346" width="14.763" height="0.411" transform="translate(0 0)" fill="#8a8d8f"/>
                  </g>
                </g>
              </g>
            </g>
          </g>
        </g>
      </g>
      <g id="Grupo_1010931" data-name="Grupo 1010931" transform="translate(1176 3250.549)">
        <g id="Grupo_1010930" data-name="Grupo 1010930" clip-path="url(#clip-path-52)">
          <g id="Grupo_1010929" data-name="Grupo 1010929" transform="translate(0 0)">
            <g id="Grupo_1010928" data-name="Grupo 1010928" clip-path="url(#clip-path-53)">
              <path id="Trazado_719872" data-name="Trazado 719872" d="M56.484,48.875c0,2.129-6.716,3.854-15,3.854s-15-1.725-15-3.854V43.854S34.148,40,41.484,40c7.374,0,13.742,2.053,15,3.854Z" transform="translate(0 0)" fill="#ea8913"/>
              <path id="Trazado_719873" data-name="Trazado 719873" d="M30.872,51.6c.473.122.988.232,1.521.337V43.994H30.872Zm3.284.638c.492.071,1,.136,1.521.193V43.994H34.156Zm3.284.347q.745.054,1.52.087V43.994H37.44Zm-9.852-2.261a8.361,8.361,0,0,0,1.521.729V43.994H27.588Zm22.988,1.613c.532-.1,1.047-.215,1.52-.337v-7.6h-1.52Zm-9.852.784c.253,0,.5.01.76.01s.507-.007.76-.01V43.994h-1.52ZM53.86,43.994v7.058a8.349,8.349,0,0,0,1.52-.729V43.994ZM47.292,52.43c.524-.057,1.029-.122,1.52-.193V43.994h-1.52Zm-3.284.241q.774-.033,1.52-.087v-8.59h-1.52Z" transform="translate(0 0)" fill="#d36c07"/>
              <path id="Trazado_719874" data-name="Trazado 719874" d="M56.484,43.854c0,2.129-6.716,3.854-15,3.854s-15-1.725-15-3.854S33.2,40,41.484,40s15,1.725,15,3.854" transform="translate(0 0)" fill="#fcba2b"/>
              <path id="Trazado_719875" data-name="Trazado 719875" d="M55.234,43.854c0,1.951-6.156,3.533-13.75,3.533s-13.75-1.582-13.75-3.533,6.156-3.533,13.75-3.533,13.75,1.582,13.75,3.533" transform="translate(0 0)" fill="#fde51c"/>
              <path id="Trazado_719876" data-name="Trazado 719876" d="M53.516,43.854c0,1.707-5.387,3.092-12.031,3.092s-12.031-1.385-12.031-3.092,5.386-3.091,12.031-3.091,12.031,1.384,12.031,3.091" transform="translate(0 0)" fill="#fcba2b"/>
              <path id="Trazado_719877" data-name="Trazado 719877" d="M40.809,46.285v-.452c0-.038-.116-.068-.264-.071a35.209,35.209,0,0,1-3.668-.237c-.118-.016-.17-.051-.137-.084l.584-.585a.668.668,0,0,1,.4-.046,30.079,30.079,0,0,0,3.717.232c1.383,0,2.33-.137,2.33-.386s-.777-.387-2.572-.543c-2.6-.224-4.369-.536-4.369-1.141,0-.533,1.419-.954,3.878-1.1.129-.007.223-.036.223-.069v-.462c0-.04.128-.073.285-.073h1.809c.157,0,.285.033.285.073v.408c0,.038.123.069.272.072,1.341.022,2.3.093,3.032.176.127.014.189.051.154.085l-.561.562a.646.646,0,0,1-.383.05,27.224,27.224,0,0,0-3.194-.179c-1.577,0-2.087.175-2.087.349,0,.206.849.337,2.912.536,2.888.262,4.053.6,4.053,1.167,0,.539-1.446,1-4.091,1.142-.13.007-.229.036-.229.07v.5c0,.04-.127.073-.284.073h-1.81c-.157,0-.284-.033-.284-.073" transform="translate(0 0)" fill="#fde51c"/>
              <path id="Trazado_719878" data-name="Trazado 719878" d="M56.484,42.208c0,2.129-6.716,3.854-15,3.854s-15-1.725-15-3.854V37.187s7.664-3.854,15-3.854c7.374,0,13.742,2.053,15,3.854Z" transform="translate(0 0)" fill="#ea8913"/>
              <path id="Trazado_719879" data-name="Trazado 719879" d="M30.872,44.932c.473.122.988.232,1.521.337V37.327H30.872Zm3.284.638c.492.071,1,.136,1.521.193V37.327H34.156Zm3.284.347q.745.054,1.52.087V37.327H37.44Zm-9.852-2.261a8.361,8.361,0,0,0,1.521.729V37.327H27.588Zm22.988,1.613c.532-.1,1.047-.215,1.52-.337v-7.6h-1.52Zm-9.852.784c.253,0,.5.01.76.01s.507-.007.76-.01V37.327h-1.52ZM53.86,37.327v7.058a8.349,8.349,0,0,0,1.52-.729V37.327Zm-6.568,8.436c.524-.057,1.029-.122,1.52-.193V37.327h-1.52ZM44.008,46q.774-.033,1.52-.087v-8.59h-1.52Z" transform="translate(0 0)" fill="#d36c07"/>
              <path id="Trazado_719880" data-name="Trazado 719880" d="M56.484,37.188c0,2.129-6.716,3.854-15,3.854s-15-1.725-15-3.854,6.716-3.854,15-3.854,15,1.725,15,3.854" transform="translate(0 0)" fill="#fcba2b"/>
              <path id="Trazado_719881" data-name="Trazado 719881" d="M55.234,37.188c0,1.951-6.156,3.533-13.75,3.533s-13.75-1.582-13.75-3.533,6.156-3.533,13.75-3.533,13.75,1.582,13.75,3.533" transform="translate(0 0)" fill="#fde51c"/>
              <path id="Trazado_719882" data-name="Trazado 719882" d="M53.516,37.188c0,1.707-5.387,3.092-12.031,3.092s-12.031-1.385-12.031-3.092S34.84,34.1,41.485,34.1s12.031,1.384,12.031,3.091" transform="translate(0 0)" fill="#fcba2b"/>
              <path id="Trazado_719883" data-name="Trazado 719883" d="M40.809,39.619v-.451c0-.039-.116-.069-.264-.072a35.208,35.208,0,0,1-3.668-.237c-.118-.016-.17-.051-.137-.084l.584-.585a.668.668,0,0,1,.4-.046,30.058,30.058,0,0,0,3.717.233c1.383,0,2.33-.138,2.33-.387s-.777-.387-2.572-.543c-2.6-.224-4.369-.536-4.369-1.141,0-.533,1.419-.954,3.878-1.1.129-.007.223-.036.223-.069v-.462c0-.04.128-.073.285-.073h1.809c.157,0,.285.033.285.073v.408c0,.038.123.069.272.072,1.341.022,2.3.093,3.032.176.127.014.189.051.154.085l-.561.562a.646.646,0,0,1-.383.05,27.224,27.224,0,0,0-3.194-.179c-1.577,0-2.087.175-2.087.349,0,.206.849.337,2.912.537,2.888.262,4.053.6,4.053,1.166,0,.539-1.446,1-4.091,1.142-.13.007-.229.036-.229.07v.5c0,.04-.127.073-.284.073h-1.81c-.157,0-.284-.033-.284-.073" transform="translate(0 0)" fill="#fde51c"/>
              <path id="Trazado_719884" data-name="Trazado 719884" d="M56.484,35.542c0,2.129-6.716,3.854-15,3.854s-15-1.725-15-3.854V30.521s7.664-3.854,15-3.854c7.374,0,13.742,2.053,15,3.854Z" transform="translate(0 0)" fill="#ea8913"/>
              <path id="Trazado_719885" data-name="Trazado 719885" d="M30.872,38.265c.473.122.988.232,1.521.337V30.66H30.872Zm3.284.638c.492.071,1,.136,1.521.193V30.66H34.156Zm3.284.347c.5.036,1,.064,1.52.087V30.66H37.44Zm-9.852-2.261a8.361,8.361,0,0,0,1.521.729V30.66H27.588ZM50.576,38.6c.532-.1,1.047-.215,1.52-.337v-7.6h-1.52Zm-9.852.784c.253,0,.5.01.76.01s.507-.007.76-.01V30.66h-1.52ZM53.86,30.66v7.058a8.349,8.349,0,0,0,1.52-.729V30.66ZM47.292,39.1c.524-.057,1.029-.122,1.52-.193V30.66h-1.52Zm-3.284.241c.516-.023,1.023-.051,1.52-.087V30.66h-1.52Z" transform="translate(0 0)" fill="#d36c07"/>
              <path id="Trazado_719886" data-name="Trazado 719886" d="M56.484,30.521c0,2.129-6.716,3.854-15,3.854s-15-1.725-15-3.854,6.716-3.854,15-3.854,15,1.725,15,3.854" transform="translate(0 0)" fill="#fcba2b"/>
              <path id="Trazado_719887" data-name="Trazado 719887" d="M55.234,30.521c0,1.951-6.156,3.533-13.75,3.533s-13.75-1.582-13.75-3.533,6.156-3.533,13.75-3.533,13.75,1.582,13.75,3.533" transform="translate(0 0)" fill="#fde51c"/>
              <path id="Trazado_719888" data-name="Trazado 719888" d="M53.516,30.521c0,1.707-5.387,3.092-12.031,3.092s-12.031-1.385-12.031-3.092,5.386-3.092,12.031-3.092,12.031,1.385,12.031,3.092" transform="translate(0 0)" fill="#fcba2b"/>
              <path id="Trazado_719889" data-name="Trazado 719889" d="M40.809,32.952V32.5c0-.038-.116-.069-.264-.071a35.209,35.209,0,0,1-3.668-.237c-.118-.016-.17-.051-.137-.084l.584-.585a.668.668,0,0,1,.4-.046,30.079,30.079,0,0,0,3.717.232c1.383,0,2.33-.137,2.33-.386s-.777-.387-2.572-.543c-2.6-.224-4.369-.536-4.369-1.141,0-.533,1.419-.954,3.878-1.1.129-.007.223-.036.223-.069V28.01c0-.04.128-.073.285-.073h1.809c.157,0,.285.033.285.073v.407c0,.039.123.07.272.073,1.341.022,2.3.092,3.032.176.127.014.189.05.154.085l-.561.562a.646.646,0,0,1-.383.05,27.223,27.223,0,0,0-3.194-.179c-1.577,0-2.087.174-2.087.349,0,.206.849.337,2.912.536,2.888.262,4.053.6,4.053,1.166,0,.54-1.446,1-4.091,1.143-.13.007-.229.036-.229.07v.5c0,.04-.127.073-.284.073h-1.81c-.157,0-.284-.033-.284-.073" transform="translate(0 0)" fill="#fde51c"/>
              <path id="Trazado_719890" data-name="Trazado 719890" d="M56.484,28.875c0,2.129-6.716,3.854-15,3.854s-15-1.725-15-3.854V23.854S34.148,20,41.484,20c7.374,0,13.742,2.053,15,3.854Z" transform="translate(0 0)" fill="#ea8913"/>
              <path id="Trazado_719891" data-name="Trazado 719891" d="M30.872,31.6c.473.122.988.232,1.521.337V23.994H30.872Zm3.284.638c.492.071,1,.136,1.521.193V23.994H34.156Zm3.284.347q.745.054,1.52.087V23.994H37.44Zm-9.852-2.261a8.361,8.361,0,0,0,1.521.729V23.994H27.588Zm22.988,1.613c.532-.1,1.047-.215,1.52-.337v-7.6h-1.52Zm-9.852.784c.253,0,.5.01.76.01s.507-.007.76-.01V23.994h-1.52ZM53.86,23.994v7.058a8.349,8.349,0,0,0,1.52-.729V23.994ZM47.292,32.43c.524-.057,1.029-.122,1.52-.193V23.994h-1.52Zm-3.284.241q.774-.033,1.52-.087v-8.59h-1.52Z" transform="translate(0 0)" fill="#d36c07"/>
              <path id="Trazado_719892" data-name="Trazado 719892" d="M56.484,23.854c0,2.129-6.716,3.854-15,3.854s-15-1.725-15-3.854S33.2,20,41.484,20s15,1.725,15,3.854" transform="translate(0 0)" fill="#fcba2b"/>
              <path id="Trazado_719893" data-name="Trazado 719893" d="M55.234,23.854c0,1.951-6.156,3.533-13.75,3.533s-13.75-1.582-13.75-3.533,6.156-3.533,13.75-3.533,13.75,1.582,13.75,3.533" transform="translate(0 0)" fill="#fde51c"/>
              <path id="Trazado_719894" data-name="Trazado 719894" d="M53.516,23.854c0,1.707-5.387,3.092-12.031,3.092s-12.031-1.385-12.031-3.092,5.386-3.091,12.031-3.091,12.031,1.384,12.031,3.091" transform="translate(0 0)" fill="#fcba2b"/>
              <path id="Trazado_719895" data-name="Trazado 719895" d="M40.809,26.285v-.452c0-.038-.116-.068-.264-.071a35.207,35.207,0,0,1-3.668-.237c-.118-.016-.17-.051-.137-.084l.584-.585a.668.668,0,0,1,.4-.046,30.079,30.079,0,0,0,3.717.232c1.383,0,2.33-.137,2.33-.386s-.777-.387-2.572-.543c-2.6-.224-4.369-.536-4.369-1.141,0-.533,1.419-.954,3.878-1.1.129-.007.223-.036.223-.069v-.462c0-.04.128-.073.285-.073h1.809c.157,0,.285.033.285.073v.408c0,.038.123.069.272.072,1.341.022,2.3.093,3.032.176.127.014.189.051.154.085l-.561.562a.646.646,0,0,1-.383.05,27.223,27.223,0,0,0-3.194-.179c-1.577,0-2.087.175-2.087.349,0,.206.849.337,2.912.536,2.888.262,4.053.6,4.053,1.167,0,.539-1.446,1-4.091,1.142-.13.007-.229.036-.229.07v.5c0,.04-.127.073-.284.073h-1.81c-.157,0-.284-.033-.284-.073" transform="translate(0 0)" fill="#fde51c"/>
              <path id="Trazado_719896" data-name="Trazado 719896" d="M56.484,22.208c0,2.129-6.716,3.854-15,3.854s-15-1.725-15-3.854V17.187s7.664-3.854,15-3.854c7.374,0,13.742,2.053,15,3.854Z" transform="translate(0 0)" fill="#ea8913"/>
              <path id="Trazado_719897" data-name="Trazado 719897" d="M30.872,24.932c.473.122.988.232,1.521.337V17.327H30.872Zm3.284.638c.492.071,1,.136,1.521.193V17.327H34.156Zm3.284.347q.745.054,1.52.087V17.327H37.44Zm-9.852-2.261a8.361,8.361,0,0,0,1.521.729V17.327H27.588Zm22.988,1.613c.532-.1,1.047-.215,1.52-.337v-7.6h-1.52Zm-9.852.784c.253,0,.5.01.76.01s.507-.007.76-.01V17.327h-1.52ZM53.86,17.327v7.058a8.349,8.349,0,0,0,1.52-.729V17.327Zm-6.568,8.436c.524-.057,1.029-.122,1.52-.193V17.327h-1.52ZM44.008,26q.774-.033,1.52-.087v-8.59h-1.52Z" transform="translate(0 0)" fill="#d36c07"/>
              <path id="Trazado_719898" data-name="Trazado 719898" d="M56.484,17.188c0,2.129-6.716,3.854-15,3.854s-15-1.725-15-3.854,6.716-3.854,15-3.854,15,1.725,15,3.854" transform="translate(0 0)" fill="#fcba2b"/>
              <path id="Trazado_719899" data-name="Trazado 719899" d="M55.234,17.188c0,1.951-6.156,3.533-13.75,3.533s-13.75-1.582-13.75-3.533,6.156-3.533,13.75-3.533,13.75,1.582,13.75,3.533" transform="translate(0 0)" fill="#fde51c"/>
              <path id="Trazado_719900" data-name="Trazado 719900" d="M53.516,17.188c0,1.707-5.387,3.092-12.031,3.092s-12.031-1.385-12.031-3.092S34.84,14.1,41.485,14.1s12.031,1.384,12.031,3.091" transform="translate(0 0)" fill="#fcba2b"/>
              <path id="Trazado_719901" data-name="Trazado 719901" d="M40.809,19.619v-.451c0-.039-.116-.069-.264-.072a35.207,35.207,0,0,1-3.668-.237c-.118-.016-.17-.051-.137-.084l.584-.585a.668.668,0,0,1,.4-.046,30.058,30.058,0,0,0,3.717.233c1.383,0,2.33-.138,2.33-.387s-.777-.387-2.572-.543c-2.6-.224-4.369-.536-4.369-1.141,0-.533,1.419-.954,3.878-1.1.129-.007.223-.036.223-.069v-.462c0-.04.128-.073.285-.073h1.809c.157,0,.285.033.285.073v.408c0,.038.123.069.272.072,1.341.022,2.3.093,3.032.176.127.014.189.051.154.085l-.561.562a.646.646,0,0,1-.383.05,27.223,27.223,0,0,0-3.194-.179c-1.577,0-2.087.175-2.087.349,0,.206.849.337,2.912.537,2.888.262,4.053.6,4.053,1.166,0,.539-1.446,1-4.091,1.142-.13.007-.229.036-.229.07v.5c0,.04-.127.073-.284.073h-1.81c-.157,0-.284-.033-.284-.073" transform="translate(0 0)" fill="#fde51c"/>
              <path id="Trazado_719902" data-name="Trazado 719902" d="M56.484,15.542c0,2.129-6.716,3.854-15,3.854s-15-1.725-15-3.854V10.521s7.664-3.854,15-3.854c7.374,0,13.742,2.053,15,3.854Z" transform="translate(0 0)" fill="#ea8913"/>
              <path id="Trazado_719903" data-name="Trazado 719903" d="M30.872,18.265c.473.122.988.232,1.521.337V10.66H30.872Zm3.284.638c.492.071,1,.136,1.521.193V10.66H34.156Zm3.284.347q.745.054,1.52.087V10.66H37.44Zm-9.852-2.261a8.361,8.361,0,0,0,1.521.729V10.66H27.588ZM50.576,18.6c.532-.1,1.047-.215,1.52-.337v-7.6h-1.52Zm-9.852.784c.253,0,.5.01.76.01s.507-.007.76-.01V10.66h-1.52ZM53.86,10.66v7.058a8.349,8.349,0,0,0,1.52-.729V10.66ZM47.292,19.1c.524-.057,1.029-.122,1.52-.193V10.66h-1.52Zm-3.284.241q.774-.033,1.52-.087V10.66h-1.52Z" transform="translate(0 0)" fill="#d36c07"/>
              <path id="Trazado_719904" data-name="Trazado 719904" d="M56.484,10.521c0,2.129-6.716,3.854-15,3.854s-15-1.725-15-3.854,6.716-3.854,15-3.854,15,1.725,15,3.854" transform="translate(0 0)" fill="#fcba2b"/>
              <path id="Trazado_719905" data-name="Trazado 719905" d="M55.234,10.521c0,1.951-6.156,3.533-13.75,3.533s-13.75-1.582-13.75-3.533,6.156-3.533,13.75-3.533,13.75,1.582,13.75,3.533" transform="translate(0 0)" fill="#fde51c"/>
              <path id="Trazado_719906" data-name="Trazado 719906" d="M53.516,10.521c0,1.707-5.387,3.092-12.031,3.092s-12.031-1.385-12.031-3.092S34.84,7.429,41.485,7.429s12.031,1.385,12.031,3.092" transform="translate(0 0)" fill="#fcba2b"/>
              <path id="Trazado_719907" data-name="Trazado 719907" d="M40.809,12.952V12.5c0-.038-.116-.069-.264-.071a35.207,35.207,0,0,1-3.668-.237c-.118-.016-.17-.051-.137-.084l.584-.585a.668.668,0,0,1,.4-.046,30.079,30.079,0,0,0,3.717.232c1.383,0,2.33-.137,2.33-.386s-.777-.387-2.572-.543c-2.6-.224-4.369-.536-4.369-1.141,0-.533,1.419-.954,3.878-1.1.129-.007.223-.036.223-.069V8.01c0-.04.128-.073.285-.073h1.809c.157,0,.285.033.285.073v.407c0,.039.123.07.272.073,1.341.022,2.3.092,3.032.176.127.014.189.05.154.085l-.561.562a.646.646,0,0,1-.383.05,27.223,27.223,0,0,0-3.194-.179c-1.577,0-2.087.174-2.087.349,0,.206.849.337,2.912.536,2.888.262,4.053.6,4.053,1.166,0,.54-1.446,1-4.091,1.143-.13.007-.229.036-.229.07v.5c0,.04-.127.073-.284.073h-1.81c-.157,0-.284-.033-.284-.073" transform="translate(0 0)" fill="#fde51c"/>
              <path id="Trazado_719908" data-name="Trazado 719908" d="M56.484,8.875c0,2.129-6.716,3.854-15,3.854s-15-1.725-15-3.854V3.854S34.148,0,41.484,0c7.374,0,13.742,2.053,15,3.854Z" transform="translate(0 0)" fill="#ea8913"/>
              <path id="Trazado_719909" data-name="Trazado 719909" d="M30.872,11.6c.473.122.988.232,1.521.337V3.994H30.872Zm3.284.638c.492.071,1,.136,1.521.193V3.994H34.156Zm3.284.347q.745.054,1.52.087V3.994H37.44Zm-9.852-2.261a8.361,8.361,0,0,0,1.521.729V3.994H27.588Zm22.988,1.613c.532-.1,1.047-.215,1.52-.337v-7.6h-1.52Zm-9.852.784c.253,0,.5.01.76.01s.507-.007.76-.01V3.994h-1.52ZM53.86,3.994v7.058a8.349,8.349,0,0,0,1.52-.729V3.994ZM47.292,12.43c.524-.057,1.029-.122,1.52-.193V3.994h-1.52Zm-3.284.241q.774-.033,1.52-.087V3.994h-1.52Z" transform="translate(0 0)" fill="#d36c07"/>
              <path id="Trazado_719910" data-name="Trazado 719910" d="M56.484,3.854c0,2.129-6.716,3.854-15,3.854s-15-1.725-15-3.854S33.2,0,41.484,0s15,1.725,15,3.854" transform="translate(0 0)" fill="#fcba2b"/>
              <path id="Trazado_719911" data-name="Trazado 719911" d="M55.234,3.854c0,1.951-6.156,3.533-13.75,3.533S27.734,5.8,27.734,3.854,33.89.321,41.484.321,55.234,1.9,55.234,3.854" transform="translate(0 0)" fill="#fde51c"/>
              <path id="Trazado_719912" data-name="Trazado 719912" d="M53.516,3.854c0,1.707-5.387,3.092-12.031,3.092S29.454,5.561,29.454,3.854,34.84.762,41.485.762,53.516,2.147,53.516,3.854" transform="translate(0 0)" fill="#fcba2b"/>
              <path id="Trazado_719913" data-name="Trazado 719913" d="M40.809,6.285V5.833c0-.038-.116-.068-.264-.071a35.207,35.207,0,0,1-3.668-.237c-.118-.016-.17-.051-.137-.084l.584-.585a.668.668,0,0,1,.4-.046,30.079,30.079,0,0,0,3.717.232c1.383,0,2.33-.137,2.33-.386s-.777-.387-2.572-.543c-2.6-.224-4.369-.536-4.369-1.141,0-.533,1.419-.954,3.878-1.1.129-.007.223-.036.223-.069V1.343c0-.04.128-.073.285-.073h1.809c.157,0,.285.033.285.073v.408c0,.038.123.069.272.072,1.341.022,2.3.093,3.032.176.127.014.189.051.154.085l-.561.562a.646.646,0,0,1-.383.05,27.223,27.223,0,0,0-3.194-.179c-1.577,0-2.087.175-2.087.349,0,.206.849.337,2.912.536,2.888.262,4.053.6,4.053,1.167,0,.539-1.446,1-4.091,1.142-.13.007-.229.036-.229.07v.5c0,.04-.127.073-.284.073h-1.81c-.157,0-.284-.033-.284-.073" transform="translate(0 0)" fill="#fde51c"/>
              <g id="Grupo_1010924" data-name="Grupo 1010924" transform="translate(41.364 29.335)" style="mix-blend-mode: multiply;isolation: isolate">
                <g id="Grupo_1010923" data-name="Grupo 1010923">
                  <g id="Grupo_1010922" data-name="Grupo 1010922" clip-path="url(#clip-path-54)">
                    <path id="Trazado_719914" data-name="Trazado 719914" d="M41.554,42.672c1.151-8.2,7.21-14.135,13.535-13.248a9.05,9.05,0,0,1,2.316.65c1.461,5.55.6,13.571.6,13.571v5.021c0,2.129-6.716,3.854-15,3.854l-.151,0a17.825,17.825,0,0,1-1.3-9.846" transform="translate(-41.364 -29.335)" fill="#b78d70"/>
                  </g>
                </g>
              </g>
              <path id="Trazado_719915" data-name="Trazado 719915" d="M45.78,56.166c0,2.129-6.716,3.854-15,3.854s-15-1.725-15-3.854V51.145s7.664-3.854,15-3.854c7.374,0,13.742,2.053,15,3.854Z" transform="translate(0 0)" fill="#ea8913"/>
              <path id="Trazado_719916" data-name="Trazado 719916" d="M20.168,58.89c.473.122.988.232,1.521.337V51.285H20.168Zm3.284.638c.492.071,1,.136,1.521.193V51.285H23.452Zm3.284.347q.745.054,1.52.087V51.285h-1.52Zm-9.852-2.261a8.361,8.361,0,0,0,1.521.729V51.285H16.884Zm22.988,1.613c.532-.1,1.047-.215,1.52-.337v-7.6h-1.52Zm-9.852.784c.253,0,.5.01.76.01s.507-.007.76-.01V51.285H30.02Zm13.136-8.726v7.058a8.349,8.349,0,0,0,1.52-.729V51.285Zm-6.568,8.436c.524-.057,1.028-.122,1.52-.193V51.285h-1.52Zm-3.284.241q.774-.033,1.52-.087v-8.59H33.3Z" transform="translate(0 0)" fill="#d36c07"/>
              <path id="Trazado_719917" data-name="Trazado 719917" d="M45.78,51.145c0,2.129-6.716,3.854-15,3.854s-15-1.725-15-3.854,6.716-3.854,15-3.854,15,1.725,15,3.854" transform="translate(0 0)" fill="#fcba2b"/>
              <path id="Trazado_719918" data-name="Trazado 719918" d="M44.53,51.145c0,1.951-6.156,3.533-13.75,3.533S17.03,53.1,17.03,51.145s6.156-3.533,13.75-3.533,13.75,1.582,13.75,3.533" transform="translate(0 0)" fill="#fde51c"/>
              <path id="Trazado_719919" data-name="Trazado 719919" d="M42.811,51.145c0,1.707-5.387,3.092-12.031,3.092s-12.031-1.385-12.031-3.092,5.386-3.091,12.031-3.091,12.031,1.384,12.031,3.091" transform="translate(0 0)" fill="#fcba2b"/>
              <path id="Trazado_719920" data-name="Trazado 719920" d="M30.1,53.576v-.452c0-.038-.116-.068-.264-.071a35.209,35.209,0,0,1-3.668-.237c-.118-.016-.17-.051-.137-.084l.584-.585a.668.668,0,0,1,.4-.046,30.079,30.079,0,0,0,3.717.232c1.383,0,2.33-.137,2.33-.386s-.777-.387-2.573-.543c-2.6-.224-4.368-.536-4.368-1.141,0-.533,1.419-.954,3.878-1.1.128-.007.223-.036.223-.069v-.462c0-.04.128-.073.285-.073h1.809c.157,0,.285.033.285.073v.408c0,.038.123.069.272.072,1.341.022,2.3.093,3.032.176.127.014.189.051.154.085l-.561.562a.646.646,0,0,1-.383.05,27.253,27.253,0,0,0-3.194-.179c-1.578,0-2.087.175-2.087.349,0,.206.849.337,2.912.536,2.888.262,4.053.6,4.053,1.166,0,.54-1.446,1-4.091,1.143-.131.007-.229.036-.229.07v.5c0,.04-.127.073-.284.073h-1.81c-.157,0-.284-.033-.284-.073" transform="translate(0 0)" fill="#fde51c"/>
              <path id="Trazado_719921" data-name="Trazado 719921" d="M45.78,49.5c0,2.129-6.716,3.854-15,3.854s-15-1.725-15-3.854V44.478s7.664-3.854,15-3.854c7.374,0,13.742,2.053,15,3.854Z" transform="translate(0 0)" fill="#ea8913"/>
              <path id="Trazado_719922" data-name="Trazado 719922" d="M20.168,52.223c.473.122.988.232,1.521.337V44.618H20.168Zm3.284.638c.492.071,1,.136,1.521.193V44.618H23.452Zm3.284.347q.745.054,1.52.087V44.618h-1.52Zm-9.852-2.261a8.361,8.361,0,0,0,1.521.729V44.618H16.884ZM39.872,52.56c.532-.1,1.047-.215,1.52-.337v-7.6h-1.52Zm-9.852.784c.253,0,.5.01.76.01s.507-.007.76-.01V44.618H30.02Zm13.136-8.726v7.058a8.349,8.349,0,0,0,1.52-.729V44.618Zm-6.568,8.436c.524-.057,1.028-.122,1.52-.193V44.618h-1.52Zm-3.284.241q.774-.033,1.52-.087v-8.59H33.3Z" transform="translate(0 0)" fill="#d36c07"/>
              <path id="Trazado_719923" data-name="Trazado 719923" d="M45.78,44.479c0,2.129-6.716,3.854-15,3.854s-15-1.725-15-3.854,6.716-3.854,15-3.854,15,1.725,15,3.854" transform="translate(0 0)" fill="#fcba2b"/>
              <path id="Trazado_719924" data-name="Trazado 719924" d="M44.53,44.479c0,1.951-6.156,3.533-13.75,3.533S17.03,46.43,17.03,44.479s6.156-3.533,13.75-3.533,13.75,1.582,13.75,3.533" transform="translate(0 0)" fill="#fde51c"/>
              <path id="Trazado_719925" data-name="Trazado 719925" d="M42.811,44.479c0,1.707-5.387,3.092-12.031,3.092s-12.031-1.385-12.031-3.092,5.386-3.091,12.031-3.091,12.031,1.384,12.031,3.091" transform="translate(0 0)" fill="#fcba2b"/>
              <path id="Trazado_719926" data-name="Trazado 719926" d="M30.1,46.909v-.451c0-.039-.116-.069-.264-.072a35.207,35.207,0,0,1-3.668-.237c-.118-.016-.17-.051-.137-.084l.584-.585a.668.668,0,0,1,.4-.046,30.057,30.057,0,0,0,3.717.233c1.383,0,2.33-.138,2.33-.387s-.777-.387-2.573-.543c-2.6-.224-4.368-.536-4.368-1.141,0-.533,1.419-.954,3.878-1.1.128-.007.223-.036.223-.069v-.462c0-.04.128-.073.285-.073h1.809c.157,0,.285.033.285.073v.408c0,.038.123.069.272.072,1.341.022,2.3.093,3.032.176.127.014.189.051.154.085l-.561.562a.646.646,0,0,1-.383.05,27.253,27.253,0,0,0-3.194-.179c-1.578,0-2.087.175-2.087.349,0,.206.849.337,2.912.536,2.888.263,4.053.6,4.053,1.167,0,.539-1.446,1-4.091,1.142-.131.007-.229.036-.229.07v.5c0,.04-.127.073-.284.073h-1.81c-.157,0-.284-.033-.284-.073" transform="translate(0 0)" fill="#fde51c"/>
              <path id="Trazado_719927" data-name="Trazado 719927" d="M45.78,42.833c0,2.129-6.716,3.854-15,3.854s-15-1.725-15-3.854V37.812s7.664-3.854,15-3.854c7.374,0,13.742,2.053,15,3.854Z" transform="translate(0 0)" fill="#ea8913"/>
              <path id="Trazado_719928" data-name="Trazado 719928" d="M20.168,45.556c.473.122.988.232,1.521.337V37.951H20.168Zm3.284.638c.492.071,1,.136,1.521.193V37.951H23.452Zm3.284.347q.745.054,1.52.087V37.951h-1.52ZM16.884,44.28a8.361,8.361,0,0,0,1.521.729V37.951H16.884Zm22.988,1.613c.532-.105,1.047-.215,1.52-.337v-7.6h-1.52Zm-9.852.784c.253,0,.5.01.76.01s.507-.007.76-.01V37.951H30.02Zm13.136-8.726v7.058a8.349,8.349,0,0,0,1.52-.729V37.951Zm-6.568,8.436c.524-.057,1.028-.122,1.52-.193V37.951h-1.52Zm-3.284.241q.774-.033,1.52-.087v-8.59H33.3Z" transform="translate(0 0)" fill="#d36c07"/>
              <path id="Trazado_719929" data-name="Trazado 719929" d="M45.78,37.812c0,2.129-6.716,3.854-15,3.854s-15-1.725-15-3.854,6.716-3.854,15-3.854,15,1.725,15,3.854" transform="translate(0 0)" fill="#fcba2b"/>
              <path id="Trazado_719930" data-name="Trazado 719930" d="M44.53,37.812c0,1.951-6.156,3.533-13.75,3.533s-13.75-1.582-13.75-3.533,6.156-3.533,13.75-3.533,13.75,1.582,13.75,3.533" transform="translate(0 0)" fill="#fde51c"/>
              <path id="Trazado_719931" data-name="Trazado 719931" d="M42.811,37.812c0,1.707-5.387,3.091-12.031,3.091s-12.031-1.384-12.031-3.091S24.135,34.72,30.78,34.72,42.811,36.1,42.811,37.812" transform="translate(0 0)" fill="#fcba2b"/>
              <path id="Trazado_719932" data-name="Trazado 719932" d="M30.1,40.243v-.452c0-.038-.116-.069-.264-.071a35.209,35.209,0,0,1-3.668-.237c-.118-.016-.17-.051-.137-.084l.584-.585a.668.668,0,0,1,.4-.046A30.079,30.079,0,0,0,30.735,39c1.383,0,2.33-.137,2.33-.386s-.777-.387-2.573-.543c-2.6-.224-4.368-.536-4.368-1.141,0-.533,1.419-.954,3.878-1.1.128-.007.223-.036.223-.069V35.3c0-.04.128-.073.285-.073h1.809c.157,0,.285.033.285.073v.407c0,.039.123.07.272.072,1.341.023,2.3.093,3.032.177.127.014.189.05.154.085L35.5,36.6a.646.646,0,0,1-.383.05,27.254,27.254,0,0,0-3.194-.179c-1.578,0-2.087.174-2.087.349,0,.206.849.337,2.912.536,2.888.262,4.053.6,4.053,1.166,0,.54-1.446,1-4.091,1.143-.131.007-.229.036-.229.07v.5c0,.04-.127.073-.284.073h-1.81c-.157,0-.284-.033-.284-.073" transform="translate(0 0)" fill="#fde51c"/>
              <path id="Trazado_719933" data-name="Trazado 719933" d="M45.78,36.166c0,2.129-6.716,3.854-15,3.854s-15-1.725-15-3.854V31.145s7.664-3.854,15-3.854c7.374,0,13.742,2.053,15,3.854Z" transform="translate(0 0)" fill="#ea8913"/>
              <path id="Trazado_719934" data-name="Trazado 719934" d="M20.168,38.89c.473.122.988.232,1.521.337V31.285H20.168Zm3.284.638c.492.071,1,.136,1.521.193V31.285H23.452Zm3.284.347q.745.054,1.52.087V31.285h-1.52Zm-9.852-2.261a8.361,8.361,0,0,0,1.521.729V31.285H16.884Zm22.988,1.613c.532-.1,1.047-.215,1.52-.337v-7.6h-1.52Zm-9.852.784c.253,0,.5.01.76.01s.507-.007.76-.01V31.285H30.02Zm13.136-8.726v7.058a8.349,8.349,0,0,0,1.52-.729V31.285Zm-6.568,8.436c.524-.057,1.028-.122,1.52-.193V31.285h-1.52Zm-3.284.241q.774-.033,1.52-.087v-8.59H33.3Z" transform="translate(0 0)" fill="#d36c07"/>
              <path id="Trazado_719935" data-name="Trazado 719935" d="M45.78,31.145c0,2.129-6.716,3.854-15,3.854s-15-1.725-15-3.854,6.716-3.854,15-3.854,15,1.725,15,3.854" transform="translate(0 0)" fill="#fcba2b"/>
              <path id="Trazado_719936" data-name="Trazado 719936" d="M44.53,31.145c0,1.951-6.156,3.533-13.75,3.533S17.03,33.1,17.03,31.145s6.156-3.533,13.75-3.533,13.75,1.582,13.75,3.533" transform="translate(0 0)" fill="#fde51c"/>
              <path id="Trazado_719937" data-name="Trazado 719937" d="M42.811,31.145c0,1.707-5.387,3.092-12.031,3.092s-12.031-1.385-12.031-3.092,5.386-3.092,12.031-3.092,12.031,1.385,12.031,3.092" transform="translate(0 0)" fill="#fcba2b"/>
              <path id="Trazado_719938" data-name="Trazado 719938" d="M30.1,33.576v-.452c0-.038-.116-.069-.264-.071a35.209,35.209,0,0,1-3.668-.237c-.118-.016-.17-.051-.137-.084l.584-.585a.668.668,0,0,1,.4-.046,30.079,30.079,0,0,0,3.717.232c1.383,0,2.33-.137,2.33-.386s-.777-.387-2.573-.543c-2.6-.224-4.368-.536-4.368-1.141,0-.533,1.419-.954,3.878-1.1.128-.007.223-.036.223-.069v-.462c0-.04.128-.073.285-.073h1.809c.157,0,.285.033.285.073v.408c0,.038.123.069.272.072,1.341.022,2.3.093,3.032.176.127.014.189.051.154.085l-.561.562a.646.646,0,0,1-.383.05,27.254,27.254,0,0,0-3.194-.179c-1.578,0-2.087.175-2.087.349,0,.206.849.337,2.912.536,2.888.262,4.053.6,4.053,1.166,0,.54-1.446,1-4.091,1.143-.131.007-.229.036-.229.07v.5c0,.04-.127.073-.284.073h-1.81c-.157,0-.284-.033-.284-.073" transform="translate(0 0)" fill="#fde51c"/>
              <g id="Grupo_1010927" data-name="Grupo 1010927" transform="translate(15.531 36.835)" style="mix-blend-mode: multiply;isolation: isolate">
                <g id="Grupo_1010926" data-name="Grupo 1010926">
                  <g id="Grupo_1010925" data-name="Grupo 1010925" clip-path="url(#clip-path-54)">
                    <path id="Trazado_719939" data-name="Trazado 719939" d="M32.236,50.172c-1.151-8.2-7.21-14.135-13.535-13.248a9.05,9.05,0,0,0-2.316.65c-1.461,5.55-.6,13.571-.6,13.571v5.021c0,2.129,6.716,3.854,15,3.854l.151,0a17.825,17.825,0,0,0,1.3-9.846" transform="translate(-15.531 -36.836)" fill="#b78d70"/>
                  </g>
                </g>
              </g>
              <path id="Trazado_719940" data-name="Trazado 719940" d="M20.065,37.106c6.1,1.9,9.046,9.848,6.585,17.758s-9.4,12.785-15.5,10.888L7.454,64.6S-1.311,53.847.869,46.843c2.191-7.041,9.962-11.292,15.5-10.888l3.7,1.151" transform="translate(0 0)" fill="#ea8913"/>
              <path id="Trazado_719941" data-name="Trazado 719941" d="M20.259,63.989a14.729,14.729,0,0,0,1.416-1.151L9.607,59.083l-.451,1.452Zm2.8-2.567c.349-.406.687-.83,1-1.28L10.583,55.948,10.131,57.4ZM25.03,58.6q.375-.664.7-1.374l-14.174-4.41-.451,1.452Zm-9.4,7.392a11.03,11.03,0,0,0,2.539-.8L8.632,62.219,8.18,63.671ZM27.077,45.476a14.8,14.8,0,0,0-.513-1.752l-11.1-3.455-.452,1.452Zm-.682,10.1c.085-.239.178-.472.255-.717s.131-.49.2-.735L12.534,49.676l-.452,1.452Zm-10.41-17,9.535,2.967a10.989,10.989,0,0,0-1.636-2.1l-7.447-2.317ZM27.516,49.051c-.007-.55-.045-1.091-.1-1.623L14.485,43.4l-.451,1.452ZM27.231,52.4q.133-.769.2-1.529L13.51,46.541l-.452,1.451Z" transform="translate(0 0)" fill="#d36c07"/>
              <path id="Trazado_719942" data-name="Trazado 719942" d="M16.366,35.955c6.1,1.9,9.046,9.848,6.585,17.758S13.551,66.5,7.454,64.6-1.592,54.753.869,46.843s9.4-12.785,15.5-10.888" transform="translate(0 0)" fill="#fcba2b"/>
              <path id="Trazado_719943" data-name="Trazado 719943" d="M15.995,37.149c5.59,1.739,8.292,9.027,6.036,16.278s-8.616,11.72-14.206,9.98S-.467,54.38,1.789,47.129,10.4,35.41,15.995,37.149" transform="translate(0 0)" fill="#fde51c"/>
              <path id="Trazado_719944" data-name="Trazado 719944" d="M15.484,38.79c4.891,1.522,7.256,7.9,5.282,14.243s-7.54,10.255-12.431,8.733-7.255-7.9-5.281-14.243,7.539-10.255,12.43-8.733" transform="translate(0 0)" fill="#fcba2b"/>
              <path id="Trazado_719945" data-name="Trazado 719945" d="M8.162,58.519l.522-1.678a.26.26,0,0,0-.111-.327,6.318,6.318,0,0,1-2.426-1.721.318.318,0,0,1,0-.342l1.1-2.039c.086-.158.252-.2.348-.082a5.391,5.391,0,0,0,2.467,1.716c1.018.317,1.874.024,2.162-.9.274-.881-.125-1.614-1.266-2.6-1.652-1.429-2.595-2.993-1.9-5.241a4.2,4.2,0,0,1,4.124-3.191.271.271,0,0,0,.244-.208l.534-1.715a.259.259,0,0,1,.294-.207l1.332.415a.259.259,0,0,1,.125.336l-.471,1.515a.262.262,0,0,0,.117.329,5.5,5.5,0,0,1,2.028,1.35.316.316,0,0,1,.015.352l-1.063,1.961c-.082.151-.243.2-.34.1a4.808,4.808,0,0,0-2.144-1.4c-1.161-.361-1.738.171-1.94.82-.238.765.236,1.445,1.524,2.659,1.822,1.635,2.284,3.176,1.635,5.261a4.344,4.344,0,0,1-4.332,3.309.271.271,0,0,0-.249.207l-.583,1.874a.258.258,0,0,1-.294.206l-1.332-.414a.258.258,0,0,1-.125-.337" transform="translate(0 0)" fill="#fde51c"/>
              <path id="Trazado_719946" data-name="Trazado 719946" d="M52.709,30.655c-5.606,3.059-6.934,11.434-2.966,18.706s11.73,10.688,17.336,7.629c.641-.351,3.4-1.856,3.4-1.856s6.479-12.266,2.966-18.706c-3.532-6.473-11.988-9.113-17.336-7.628l-3.4,1.855" transform="translate(0 0)" fill="#ea8913"/>
              <path id="Trazado_719947" data-name="Trazado 719947" d="M68.01,51.483l-.728-1.335L56.188,56.2a14.792,14.792,0,0,0,1.615.851ZM66.437,48.6l-.728-1.334L53.314,54.029c.4.378.815.727,1.237,1.057Zm-1.573-2.882-.728-1.335-13.03,7.109c.307.421.625.825.958,1.21Zm4.719,8.648-.728-1.335-8.766,4.783a11.009,11.009,0,0,0,2.647.288ZM58.572,34.187l-.728-1.335-10.207,5.57a14.782,14.782,0,0,0-.159,1.818Zm4.719,8.648L62.563,41.5,49.4,48.68c.113.227.216.456.339.681s.26.436.39.654Zm-7.02-12.866L49.424,33.7a11.026,11.026,0,0,0-1.19,2.382L57,31.3Zm3.874,7.1-.728-1.334L47.531,42.22c.049.534.118,1.071.22,1.612Zm1.573,2.883-.728-1.334L48.189,45.6q.216.732.5,1.46Z" transform="translate(0 0)" fill="#d36c07"/>
              <path id="Trazado_719948" data-name="Trazado 719948" d="M56.109,28.8c5.606-3.059,13.367.357,17.335,7.629s2.64,15.647-2.965,18.706-13.368-.357-17.336-7.629S50.5,31.859,56.109,28.8" transform="translate(0 0)" fill="#fcba2b"/>
              <path id="Trazado_719949" data-name="Trazado 719949" d="M56.708,29.9c5.139-2.8,12.253.327,15.891,6.993s2.42,14.343-2.719,17.147-12.253-.327-15.89-6.993S51.569,32.7,56.708,29.9" transform="translate(0 0)" fill="#fde51c"/>
              <path id="Trazado_719950" data-name="Trazado 719950" d="M57.531,31.406c4.5-2.453,10.722.286,13.9,6.119s2.118,12.55-2.378,15-10.722-.286-13.9-6.119-2.117-12.55,2.379-15" transform="translate(0 0)" fill="#fcba2b"/>
              <path id="Trazado_719951" data-name="Trazado 719951" d="M70.019,39.067l-1.189.649a.25.25,0,0,0-.062.335,12.382,12.382,0,0,1,1.132,3.56.2.2,0,0,1-.155.24l-1.819.328a.3.3,0,0,1-.314-.283,10.582,10.582,0,0,0-1.168-3.6c-.662-1.213-1.477-1.847-2.134-1.489-.624.341-.646,1.237-.2,3.038.652,2.6.68,4.6-.913,5.474-1.4.766-3.192.125-4.749-1.827a.24.24,0,0,0-.29-.1l-1.216.664a.258.258,0,0,1-.328-.145l-.867-1.588a.259.259,0,0,1,.056-.355l1.073-.586a.259.259,0,0,0,.06-.342,10.934,10.934,0,0,1-.989-2.915.208.208,0,0,1,.151-.258l1.749-.315a.3.3,0,0,1,.314.265,9.581,9.581,0,0,0,1.059,3.06c.756,1.385,1.459,1.582,1.92,1.331.541-.3.479-1.229.017-3.327-.693-2.911-.348-4.427,1.129-5.233,1.422-.776,3.333-.172,4.969,1.949a.241.241,0,0,0,.293.1l1.328-.725a.258.258,0,0,1,.328.145l.867,1.588a.259.259,0,0,1-.056.355" transform="translate(0 0)" fill="#fde51c"/>
              <path id="Trazado_719952" data-name="Trazado 719952" d="M63.613,62.833c0,2.129-6.716,3.854-15,3.854s-15-1.725-15-3.854V57.812s7.664-3.854,15-3.854c7.374,0,13.742,2.053,15,3.854Z" transform="translate(0 0)" fill="#ea8913"/>
              <path id="Trazado_719953" data-name="Trazado 719953" d="M38,65.556c.473.122.988.232,1.521.337V57.951H38Zm3.284.638c.492.071,1,.136,1.521.193V57.951H41.285Zm3.284.347q.745.054,1.52.087V57.951h-1.52ZM34.717,64.28a8.361,8.361,0,0,0,1.521.729V57.951H34.717ZM57.7,65.893c.532-.1,1.047-.215,1.52-.337v-7.6H57.7Zm-9.852.784c.253,0,.5.01.76.01s.507-.007.76-.01V57.951h-1.52Zm13.136-8.726v7.058a8.349,8.349,0,0,0,1.52-.729V57.951Zm-6.568,8.436c.524-.057,1.028-.122,1.52-.193V57.951h-1.52Zm-3.284.241q.774-.033,1.52-.087v-8.59h-1.52Z" transform="translate(0 0)" fill="#d36c07"/>
              <path id="Trazado_719954" data-name="Trazado 719954" d="M63.613,57.812c0,2.129-6.716,3.854-15,3.854s-15-1.725-15-3.854,6.716-3.854,15-3.854,15,1.725,15,3.854" transform="translate(0 0)" fill="#fcba2b"/>
              <path id="Trazado_719955" data-name="Trazado 719955" d="M62.363,57.812c0,1.951-6.156,3.533-13.75,3.533s-13.75-1.582-13.75-3.533,6.156-3.533,13.75-3.533,13.75,1.582,13.75,3.533" transform="translate(0 0)" fill="#fde51c"/>
              <path id="Trazado_719956" data-name="Trazado 719956" d="M60.645,57.812c0,1.707-5.388,3.092-12.032,3.092s-12.03-1.385-12.03-3.092,5.385-3.092,12.03-3.092S60.645,56.1,60.645,57.812" transform="translate(0 0)" fill="#fcba2b"/>
              <path id="Trazado_719957" data-name="Trazado 719957" d="M47.938,60.243v-.452c0-.038-.116-.069-.264-.071a35.209,35.209,0,0,1-3.668-.237c-.118-.016-.17-.051-.137-.084l.584-.585a.668.668,0,0,1,.4-.046A30.079,30.079,0,0,0,48.569,59c1.383,0,2.33-.137,2.33-.386s-.777-.387-2.572-.543c-2.6-.224-4.369-.536-4.369-1.141,0-.533,1.419-.954,3.878-1.1.128-.007.223-.036.223-.069V55.3c0-.04.128-.073.285-.073h1.809c.157,0,.285.033.285.073v.407c0,.039.123.07.272.072,1.341.023,2.3.093,3.032.177.127.014.189.05.154.085l-.561.562a.646.646,0,0,1-.383.05,27.224,27.224,0,0,0-3.194-.179c-1.577,0-2.087.174-2.087.349,0,.206.849.337,2.912.536,2.888.262,4.053.6,4.053,1.166,0,.54-1.446,1-4.091,1.143-.13.007-.229.036-.229.07v.5c0,.04-.127.073-.284.073h-1.81c-.157,0-.284-.033-.284-.073" transform="translate(0 0)" fill="#fde51c"/>
            </g>
          </g>
        </g>
      </g>
    </g>
  </g>
</svg>
