<svg xmlns="http://www.w3.org/2000/svg" xmlns:xlink="http://www.w3.org/1999/xlink" width="52.312" height="45.755" viewBox="0 0 52.312 45.755">
  <defs>
    <clipPath id="clip-path">
      <rect id="Rectángulo_348163" data-name="Rectángulo 348163" width="52.312" height="45.755" transform="translate(0 0)" fill="none"/>
    </clipPath>
  </defs>
  <g id="Grupo_1009255" data-name="Grupo 1009255" transform="translate(0 0)">
    <g id="Grupo_1009254" data-name="Grupo 1009254" clip-path="url(#clip-path)">
      <path id="Trazado_718190" data-name="Trazado 718190" d="M27.363,42.943H24.949A2.348,2.348,0,0,1,22.6,40.6v-3.38h7.11V40.6a2.348,2.348,0,0,1-2.348,2.348" fill="#fff"/>
      <path id="Trazado_718191" data-name="Trazado 718191" d="M27.363,42.943H24.949A2.348,2.348,0,0,1,22.6,40.6v-3.38h7.11V40.6A2.348,2.348,0,0,1,27.363,42.943Z" fill="none" stroke="#353535" stroke-linecap="round" stroke-linejoin="round" stroke-width="1.504"/>
      <path id="Trazado_718192" data-name="Trazado 718192" d="M49.1,38.307H3.215A2.463,2.463,0,0,1,.752,35.844V3.215A2.463,2.463,0,0,1,3.215.752H49.1A2.463,2.463,0,0,1,51.56,3.215V35.844A2.463,2.463,0,0,1,49.1,38.307" fill="#b6cfe5"/>
      <rect id="Rectángulo_348160" data-name="Rectángulo 348160" width="50.808" height="37.555" rx="2.463" transform="translate(0.752 0.752)" fill="none" stroke="#353535" stroke-linecap="round" stroke-linejoin="round" stroke-width="1.504"/>
      <path id="Trazado_718193" data-name="Trazado 718193" d="M46.216,35.556H6.1a2.43,2.43,0,0,1-2.431-2.43V5.933A2.43,2.43,0,0,1,6.1,3.5h40.12a2.43,2.43,0,0,1,2.43,2.43V33.126a2.43,2.43,0,0,1-2.43,2.43" fill="#fff"/>
      <path id="Rectángulo_348161" data-name="Rectángulo 348161" d="M2.43,0H42.55a2.431,2.431,0,0,1,2.431,2.431V29.622a2.431,2.431,0,0,1-2.431,2.431H2.43A2.43,2.43,0,0,1,0,29.623V2.43A2.43,2.43,0,0,1,2.43,0Z" transform="translate(3.665 3.503)" fill="none" stroke="#353535" stroke-linecap="round" stroke-linejoin="round" stroke-width="1.504"/>
      <line id="Línea_2901" data-name="Línea 2901" x2="5.164" transform="translate(7.407 27.072)" fill="#fff"/>
      <line id="Línea_2902" data-name="Línea 2902" x2="5.164" transform="translate(7.407 27.072)" fill="none" stroke="#353535" stroke-linecap="round" stroke-linejoin="round" stroke-width="1.504"/>
      <line id="Línea_2903" data-name="Línea 2903" x2="5.164" transform="translate(7.407 24.585)" fill="#fff"/>
      <line id="Línea_2904" data-name="Línea 2904" x2="5.164" transform="translate(7.407 24.585)" fill="none" stroke="#353535" stroke-linecap="round" stroke-linejoin="round" stroke-width="1.504"/>
      <line id="Línea_2905" data-name="Línea 2905" x2="7.7" transform="translate(7.407 29.767)" fill="#fff"/>
      <line id="Línea_2906" data-name="Línea 2906" x2="7.7" transform="translate(7.407 29.767)" fill="none" stroke="#353535" stroke-linecap="round" stroke-linejoin="round" stroke-width="1.504"/>
      <path id="Trazado_718194" data-name="Trazado 718194" d="M34.856,45h-17.4a1.588,1.588,0,0,1-1.588-1.587v-.608a1.588,1.588,0,0,1,1.588-1.587h17.4a1.587,1.587,0,0,1,1.587,1.587v.608A1.587,1.587,0,0,1,34.856,45" fill="#fff"/>
      <path id="Rectángulo_348162" data-name="Rectángulo 348162" d="M1.587,0h17.4a1.587,1.587,0,0,1,1.587,1.587v.607a1.588,1.588,0,0,1-1.588,1.588H1.587A1.587,1.587,0,0,1,0,2.2V1.587A1.587,1.587,0,0,1,1.587,0Z" transform="translate(15.868 41.221)" fill="none" stroke="#353535" stroke-linecap="round" stroke-linejoin="round" stroke-width="1.504"/>
      <path id="Trazado_718195" data-name="Trazado 718195" d="M22.921,28.14a11.987,11.987,0,1,1,16.952,0,11.987,11.987,0,0,1-16.952,0" fill="#ffa031"/>
      <circle id="Elipse_8390" data-name="Elipse 8390" cx="11.987" cy="11.987" r="11.987" transform="translate(19.41 7.677)" fill="none" stroke="#353535" stroke-linecap="round" stroke-linejoin="round" stroke-width="1.504"/>
      <path id="Trazado_718196" data-name="Trazado 718196" d="M40.914,10.147,31.4,19.664,38.508,8.356a5.333,5.333,0,0,1,2.406,1.791" fill="#fff"/>
      <path id="Trazado_718197" data-name="Trazado 718197" d="M40.914,10.147,31.4,19.664,38.508,8.356A5.333,5.333,0,0,1,40.914,10.147Z" fill="none" stroke="#353535" stroke-linecap="round" stroke-linejoin="round" stroke-width="1.504"/>
      <path id="Trazado_718198" data-name="Trazado 718198" d="M31.4,7.678V19.665l5.873,10.452" fill="none" stroke="#353535" stroke-linecap="round" stroke-linejoin="round" stroke-width="1.504"/>
      <line id="Línea_2907" data-name="Línea 2907" x1="10.404" y1="5.956" transform="translate(20.993 13.708)" fill="#fff"/>
      <line id="Línea_2908" data-name="Línea 2908" x1="10.404" y1="5.956" transform="translate(20.993 13.708)" fill="none" stroke="#353535" stroke-linecap="round" stroke-linejoin="round" stroke-width="1.504"/>
      <path id="Trazado_718199" data-name="Trazado 718199" d="M14.182,15.255a3.285,3.285,0,1,1-6.569,0c0-2.29,3.284-6.921,3.284-6.921s3.285,4.862,3.285,6.921" fill="#b6cfe5"/>
      <path id="Trazado_718200" data-name="Trazado 718200" d="M14.182,15.255a3.285,3.285,0,1,1-6.569,0c0-2.29,3.284-6.921,3.284-6.921S14.182,13.2,14.182,15.255Z" fill="none" stroke="#353535" stroke-linecap="round" stroke-linejoin="round" stroke-width="1.504"/>
    </g>
  </g>
</svg>
