<svg xmlns="http://www.w3.org/2000/svg" width="400" height="91" viewBox="0 0 400 91">
  <g id="Grupo_1012332" data-name="Grupo 1012332" transform="translate(-1020 -8751)">
    <path id="Trazado_718245" data-name="Trazado 718245" d="M10,0H390a10,10,0,0,1,10,10V81a10,10,0,0,1-10,10H10A10,10,0,0,1,0,81V10A10,10,0,0,1,10,0Z" transform="translate(1020 8751)" fill="#fff1e0"/>
    <g id="Grupo_1009310" data-name="Grupo 1009310" transform="translate(-4.5 2)">
      <path id="Trazado_726139" data-name="Trazado 726139" d="M26.432,5.992l-.625,2.852H24.527a4.93,4.93,0,0,0-.176-1.309,1.262,1.262,0,0,0-.459-.659,1.454,1.454,0,0,0-.85-.22,2.313,2.313,0,0,0-.889.19,3.157,3.157,0,0,0-.908.6,5.884,5.884,0,0,0-.981,1.226A10,10,0,0,0,19.43,10.4a16.885,16.885,0,0,0-.542,1.8,15.617,15.617,0,0,0-.352,1.846,12.477,12.477,0,0,0-.1,1.494,5.105,5.105,0,0,0,.151,1.357,1.546,1.546,0,0,0,.527.83,1.653,1.653,0,0,0,1.04.293,2.9,2.9,0,0,0,1.255-.249,2.546,2.546,0,0,0,.9-.718,5.853,5.853,0,0,0,.737-1.289h1.279L23.7,18.639a12.707,12.707,0,0,1-1.885.4,15.608,15.608,0,0,1-2.012.122,4.267,4.267,0,0,1-3.193-1.138,4.493,4.493,0,0,1-1.113-3.276,11.1,11.1,0,0,1,.117-1.494,13.781,13.781,0,0,1,.605-2.49A9.188,9.188,0,0,1,17.4,8.414,7.029,7.029,0,0,1,19,6.778a6.464,6.464,0,0,1,1.929-.952,7.683,7.683,0,0,1,2.222-.312,11.377,11.377,0,0,1,1.7.122A11.18,11.18,0,0,1,26.432,5.992Zm7.529,3.867.879-.7,1.094.156-1.5,6.807q-.117.518-.171.83a3.2,3.2,0,0,0-.054.527.821.821,0,0,0,.215.635,1.322,1.322,0,0,0,.762.244L35.074,19h-3.75l.527-2-.127-.039a8.454,8.454,0,0,1-1.235,1.333,3.744,3.744,0,0,1-1.123.669,3.812,3.812,0,0,1-1.274.2,2.225,2.225,0,0,1-1.2-.322,2.17,2.17,0,0,1-.82-1.021,4.48,4.48,0,0,1-.3-1.772,9.253,9.253,0,0,1,.239-2.07,8.168,8.168,0,0,1,.708-1.948A5.443,5.443,0,0,1,27.9,10.475a4.987,4.987,0,0,1,1.616-.981,5.588,5.588,0,0,1,1.968-.337A4.279,4.279,0,0,1,33.961,9.859Zm-1.475,3.066a6.986,6.986,0,0,0,.112-.7,6.6,6.6,0,0,0,.044-.747A1.637,1.637,0,0,0,32.4,10.5a.928.928,0,0,0-.8-.332,2.018,2.018,0,0,0-1.611.913,7.156,7.156,0,0,0-1.133,2.456,10.426,10.426,0,0,0-.43,2.764,2.124,2.124,0,0,0,.21,1.064.7.7,0,0,0,.649.352,1.955,1.955,0,0,0,1.313-.63,4.994,4.994,0,0,0,1.079-1.479,10.815,10.815,0,0,0,.732-2.324Zm5.4-3.613h4.053l-1.221,5.313q-.264,1.133-.322,1.563a5.307,5.307,0,0,0-.059.674.994.994,0,0,0,.181.664.672.672,0,0,0,.532.205,1.1,1.1,0,0,0,.42-.093,1.848,1.848,0,0,0,.449-.273,7.153,7.153,0,0,0,.547-.5,4.514,4.514,0,0,0,.566-.688,3.987,3.987,0,0,0,.405-.786,7.215,7.215,0,0,0,.3-1.064l1.074-5.01h2.8L46.08,16.207q-.049.234-.132.669a4,4,0,0,0-.083.728.623.623,0,0,0,.229.562,1.564,1.564,0,0,0,.718.19L46.666,19H42.984l.527-2-.117-.039a7.443,7.443,0,0,1-1.753,1.665,3.524,3.524,0,0,1-1.919.532,2.143,2.143,0,0,1-1.562-.562,2.061,2.061,0,0,1-.576-1.548,7.135,7.135,0,0,1,.2-1.514l.8-3.613q.1-.449.132-.693a3.094,3.094,0,0,0,.034-.42.743.743,0,0,0-.215-.605,1.549,1.549,0,0,0-.762-.244ZM56.568,7.965q.059-.244.137-.7a4.517,4.517,0,0,0,.078-.693,1.029,1.029,0,0,0-.044-.337.479.479,0,0,0-.132-.2.613.613,0,0,0-.234-.122,4.589,4.589,0,0,0-.576-.1l.156-.635,2.92-.156h1.1l-2.461,11.1q-.107.479-.166.806a3.22,3.22,0,0,0-.059.552.821.821,0,0,0,.215.635,1.322,1.322,0,0,0,.762.244L58.16,19H54.41l.527-2-.127-.039a8.454,8.454,0,0,1-1.235,1.333,3.744,3.744,0,0,1-1.123.669,3.813,3.813,0,0,1-1.274.2,2.225,2.225,0,0,1-1.2-.322,2.17,2.17,0,0,1-.82-1.021,4.48,4.48,0,0,1-.3-1.772,9.253,9.253,0,0,1,.239-2.07,8.3,8.3,0,0,1,.7-1.948,5.37,5.37,0,0,1,1.177-1.548,4.987,4.987,0,0,1,1.616-.981,5.588,5.588,0,0,1,1.968-.337,4.762,4.762,0,0,1,1.68.3Zm-1,4.961q.059-.293.107-.679a6.024,6.024,0,0,0,.049-.757,1.657,1.657,0,0,0-.244-.986.928.928,0,0,0-.8-.332,2.018,2.018,0,0,0-1.611.913,7.156,7.156,0,0,0-1.133,2.456,10.426,10.426,0,0,0-.43,2.764,2.124,2.124,0,0,0,.21,1.064.7.7,0,0,0,.649.352,1.955,1.955,0,0,0,1.313-.63,4.994,4.994,0,0,0,1.079-1.479,10.815,10.815,0,0,0,.732-2.324ZM68.443,9.859l.879-.7,1.094.156-1.5,6.807q-.117.518-.171.83a3.2,3.2,0,0,0-.054.527.821.821,0,0,0,.215.635,1.322,1.322,0,0,0,.762.244L69.557,19h-3.75l.527-2-.127-.039a8.454,8.454,0,0,1-1.235,1.333,3.744,3.744,0,0,1-1.123.669,3.813,3.813,0,0,1-1.274.2,2.225,2.225,0,0,1-1.2-.322,2.17,2.17,0,0,1-.82-1.021,4.48,4.48,0,0,1-.3-1.772,9.253,9.253,0,0,1,.239-2.07,8.168,8.168,0,0,1,.708-1.948,5.443,5.443,0,0,1,1.182-1.548A4.987,4.987,0,0,1,64,9.493a5.588,5.588,0,0,1,1.968-.337A4.279,4.279,0,0,1,68.443,9.859Zm-1.475,3.066a6.987,6.987,0,0,0,.112-.7,6.6,6.6,0,0,0,.044-.747,1.637,1.637,0,0,0-.244-.977.928.928,0,0,0-.8-.332,2.018,2.018,0,0,0-1.611.913,7.156,7.156,0,0,0-1.133,2.456,10.426,10.426,0,0,0-.43,2.764,2.124,2.124,0,0,0,.21,1.064.7.7,0,0,0,.649.352,1.955,1.955,0,0,0,1.313-.63,4.994,4.994,0,0,0,1.079-1.479,10.815,10.815,0,0,0,.732-2.324Zm9.238-7.91h1.1l-2.52,11.377q-.1.449-.132.693a3.093,3.093,0,0,0-.034.42.752.752,0,0,0,.22.605,1.438,1.438,0,0,0,.757.244L75.494,19H71.432L73.9,7.965a7.21,7.21,0,0,0,.215-1.4,1.029,1.029,0,0,0-.044-.337.479.479,0,0,0-.132-.2.613.613,0,0,0-.234-.122,4.589,4.589,0,0,0-.576-.1l.156-.635ZM86.822,23.248a4.723,4.723,0,0,1-2.373-.562,3.579,3.579,0,0,1-1.484-1.6,5.529,5.529,0,0,1-.5-2.422,23.41,23.41,0,0,1,.586-4.863,23.33,23.33,0,0,1,1.416-4.629,8.438,8.438,0,0,1,1.641-2.49,5.479,5.479,0,0,1,1.914-1.25,7.978,7.978,0,0,1,2.832-.449l-.244,1.1A3.012,3.012,0,0,0,89.22,6.4a3.4,3.4,0,0,0-1.128,1,9.824,9.824,0,0,0-1.289,2.7,40.349,40.349,0,0,0-1.27,5.01A23.731,23.731,0,0,0,85,19.391a5.325,5.325,0,0,0,.215,1.709,1.516,1.516,0,0,0,.649.854,2.415,2.415,0,0,0,1.2.249ZM96.9,18.912l.215.576a5.21,5.21,0,0,0,.4.889,1.369,1.369,0,0,0,.425.454,1.123,1.123,0,0,0,.61.151,1.469,1.469,0,0,0,.732-.205,3.873,3.873,0,0,0,.811-.664l.752.752a8.713,8.713,0,0,1-1.768,1.426,3.4,3.4,0,0,1-1.709.449,2.7,2.7,0,0,1-1.777-.6,3.9,3.9,0,0,1-1.133-1.865l-.381-1.162a3.941,3.941,0,0,1-2.744-1.343,4.919,4.919,0,0,1-.947-3.218,11.553,11.553,0,0,1,.156-1.768,13,13,0,0,1,.527-2.1A8.868,8.868,0,0,1,92.1,8.59a7.2,7.2,0,0,1,1.538-1.685A6.188,6.188,0,0,1,95.6,5.86a7.424,7.424,0,0,1,2.275-.347,4.539,4.539,0,0,1,3.374,1.162,4.612,4.612,0,0,1,1.147,3.379,12.3,12.3,0,0,1-.215,2.153,11.462,11.462,0,0,1-.669,2.31,8.774,8.774,0,0,1-1.143,2.017A7.1,7.1,0,0,1,98.8,18.058,5.394,5.394,0,0,1,96.9,18.912Zm-3.574-3.447a3.694,3.694,0,0,0,.391,1.948,1.4,1.4,0,0,0,1.27.6,1.984,1.984,0,0,0,.9-.215,3.406,3.406,0,0,0,1.025-.811,7.4,7.4,0,0,0,1.113-1.719,12.775,12.775,0,0,0,.84-2.285,21.374,21.374,0,0,0,.479-2.344,9.382,9.382,0,0,0,.117-1.465,3.626,3.626,0,0,0-.391-1.914,1.417,1.417,0,0,0-1.289-.605,2.4,2.4,0,0,0-1.65.757,7.037,7.037,0,0,0-1.45,2.134,13.663,13.663,0,0,0-1,3.091A14.619,14.619,0,0,0,93.326,15.465ZM105.191,4.986a4.723,4.723,0,0,1,2.373.562,3.579,3.579,0,0,1,1.484,1.6,5.529,5.529,0,0,1,.5,2.422,24.2,24.2,0,0,1-.7,5.361,20.439,20.439,0,0,1-1.641,4.819,6.505,6.505,0,0,1-2.368,2.646,7.085,7.085,0,0,1-3.682.854l.244-1.1a3.087,3.087,0,0,0,1.318-.269,3.126,3.126,0,0,0,1.084-.894,7.81,7.81,0,0,0,1.177-2.192,29.052,29.052,0,0,0,.991-3.325q.352-1.484.615-2.871a21.881,21.881,0,0,0,.43-3.867,4.876,4.876,0,0,0-.205-1.582,1.549,1.549,0,0,0-.649-.845,2.324,2.324,0,0,0-1.206-.269Zm11.738,7.09.42-1.914h8.691l-.42,1.914Zm-.967,4.326.42-1.914h8.691l-.42,1.914Z" transform="translate(1058.5 8783)" fill="#12263f"/>
      <path id="Trazado_726138" data-name="Trazado 726138" d="M12.684,23.248a4.723,4.723,0,0,1-2.373-.562,3.579,3.579,0,0,1-1.484-1.6,5.529,5.529,0,0,1-.5-2.422A23.41,23.41,0,0,1,8.914,13.8,23.33,23.33,0,0,1,10.33,9.176a8.438,8.438,0,0,1,1.641-2.49,5.479,5.479,0,0,1,1.914-1.25,7.978,7.978,0,0,1,2.832-.449l-.244,1.1a3.012,3.012,0,0,0-1.392.308,3.4,3.4,0,0,0-1.128,1,9.824,9.824,0,0,0-1.289,2.7,40.349,40.349,0,0,0-1.27,5.01,23.731,23.731,0,0,0-.537,4.287,5.325,5.325,0,0,0,.215,1.709,1.516,1.516,0,0,0,.649.854,2.415,2.415,0,0,0,1.2.249ZM24.266,9.938q.557-1.045.762-1.5a4.21,4.21,0,0,0,.273-.752,2.515,2.515,0,0,0,.068-.562q0-.7-.83-.811l.146-.645h4.16l-.146.645a1.52,1.52,0,0,0-.518.2,1.942,1.942,0,0,0-.425.371,3.824,3.824,0,0,0-.391.547q-.19.317-.425.737l-6.064,10.9H18.426l-.42-10.439a9.3,9.3,0,0,0-.068-.942,3.623,3.623,0,0,0-.127-.591,1.6,1.6,0,0,0-.19-.41.746.746,0,0,0-.288-.254,1.242,1.242,0,0,0-.391-.117l.146-.645h5.049l-.146.645a1.208,1.208,0,0,0-.669.215,1.011,1.011,0,0,0-.342.5,3.208,3.208,0,0,0-.1.938v.42q0,.215.01.459l.088,4.795q.02,1.348.02,2.217h.117Zm5.869,9.219a4.373,4.373,0,0,1-1.89-.386A2.892,2.892,0,0,1,26.966,17.6,3.716,3.716,0,0,1,26.5,15.68a8.521,8.521,0,0,1,.332-2.314,6.782,6.782,0,0,1,.566-1.426,5.412,5.412,0,0,1,.859-1.216,4.9,4.9,0,0,1,1.06-.85,4.844,4.844,0,0,1,1.245-.513,6.746,6.746,0,0,1,1.68-.205,4.222,4.222,0,0,1,2.031.444,2.819,2.819,0,0,1,1.216,1.235,4.055,4.055,0,0,1,.4,1.836,8.2,8.2,0,0,1-.43,2.588,6.349,6.349,0,0,1-1.187,2.178,4.644,4.644,0,0,1-1.792,1.3A6.189,6.189,0,0,1,30.135,19.156Zm-1.006-2.842a2.532,2.532,0,0,0,.3,1.372,1.045,1.045,0,0,0,.942.454,1.621,1.621,0,0,0,.688-.151,1.978,1.978,0,0,0,.645-.518,3.8,3.8,0,0,0,.571-.928,9.765,9.765,0,0,0,.483-1.387,14.771,14.771,0,0,0,.356-1.616,9.34,9.34,0,0,0,.127-1.475,2.7,2.7,0,0,0-.3-1.436,1.022,1.022,0,0,0-.923-.459,1.749,1.749,0,0,0-1.421.8,7.2,7.2,0,0,0-1.035,2.461A11.671,11.671,0,0,0,29.129,16.314Zm12.705-11.3h1.1l-2.52,11.377q-.1.449-.132.693a3.094,3.094,0,0,0-.034.42.752.752,0,0,0,.22.605,1.438,1.438,0,0,0,.757.244L41.121,19H37.059L39.529,7.965a7.21,7.21,0,0,0,.215-1.4,1.029,1.029,0,0,0-.044-.337.479.479,0,0,0-.132-.2.613.613,0,0,0-.234-.122,4.589,4.589,0,0,0-.576-.1l.156-.635Zm2.1,4.3h4.053l-1.221,5.313q-.264,1.133-.322,1.563a5.307,5.307,0,0,0-.059.674.994.994,0,0,0,.181.664.672.672,0,0,0,.532.205,1.1,1.1,0,0,0,.42-.093,1.848,1.848,0,0,0,.449-.273,7.153,7.153,0,0,0,.547-.5,4.514,4.514,0,0,0,.566-.688,3.987,3.987,0,0,0,.405-.786,7.215,7.215,0,0,0,.3-1.064l1.074-5.01h2.8l-1.533,6.895q-.049.234-.132.669a4,4,0,0,0-.083.728.623.623,0,0,0,.229.562,1.564,1.564,0,0,0,.718.19L52.713,19H49.031l.527-2-.117-.039a7.443,7.443,0,0,1-1.753,1.665,3.524,3.524,0,0,1-1.919.532,2.143,2.143,0,0,1-1.562-.562,2.061,2.061,0,0,1-.576-1.548,7.135,7.135,0,0,1,.2-1.514l.8-3.613q.1-.449.132-.693a3.094,3.094,0,0,0,.034-.42.743.743,0,0,0-.215-.605,1.549,1.549,0,0,0-.762-.244ZM64.8,11.178a6.119,6.119,0,0,1,1.66-1.538,3.638,3.638,0,0,1,1.865-.483,2.119,2.119,0,0,1,1.567.562,2.092,2.092,0,0,1,.562,1.548,7.134,7.134,0,0,1-.2,1.514l-.8,3.613q-.1.449-.132.693a3.093,3.093,0,0,0-.034.42.747.747,0,0,0,.22.615,1.508,1.508,0,0,0,.757.234L70.154,19H66.1l1.348-5.869q.107-.459.161-.752t.078-.508a3.487,3.487,0,0,0,.024-.391,1.064,1.064,0,0,0-.181-.669.648.648,0,0,0-.542-.229,1.279,1.279,0,0,0-.674.249,4.476,4.476,0,0,0-.825.737,4.539,4.539,0,0,0-.718,1.04,5.618,5.618,0,0,0-.439,1.382L63.26,19H60.447l1.406-6.123q.1-.391.137-.625t.054-.4q.015-.166.015-.3a1.222,1.222,0,0,0-.176-.737.657.657,0,0,0-.557-.229,1.787,1.787,0,0,0-1.1.6,5.282,5.282,0,0,0-1,1.216,5.307,5.307,0,0,0-.552,1.6L57.605,19H54.8l1.533-6.895q.049-.234.132-.669a4,4,0,0,0,.083-.728.623.623,0,0,0-.229-.562,1.564,1.564,0,0,0-.718-.19l.146-.645,2.686-.107h1.025L58.9,11.314l.117.039a9.542,9.542,0,0,1,1.255-1.313,3.864,3.864,0,0,1,1.138-.679,3.679,3.679,0,0,1,1.26-.205,2.133,2.133,0,0,1,1.538.537A2.05,2.05,0,0,1,64.8,11.178Zm15.6,5.791a6.66,6.66,0,0,1-2.124,1.65,5.7,5.7,0,0,1-2.466.537,4.309,4.309,0,0,1-1.943-.4,2.66,2.66,0,0,1-1.206-1.187,4.057,4.057,0,0,1-.405-1.88,7.932,7.932,0,0,1,.137-1.3,7.868,7.868,0,0,1,.566-1.914,5.833,5.833,0,0,1,1.25-1.777,5.358,5.358,0,0,1,1.812-1.143,6.3,6.3,0,0,1,2.28-.4,3.877,3.877,0,0,1,2.227.532,1.849,1.849,0,0,1,.762,1.626,2.771,2.771,0,0,1-.3,1.309A2.864,2.864,0,0,1,80,13.648a5.947,5.947,0,0,1-1.958.742,15.754,15.754,0,0,1-3.052.322,5.521,5.521,0,0,0-.127,1.191,3.36,3.36,0,0,0,.068.688,1.574,1.574,0,0,0,.244.581,1.264,1.264,0,0,0,.469.405,1.635,1.635,0,0,0,.752.151,3.424,3.424,0,0,0,1.553-.347,7.27,7.27,0,0,0,1.631-1.235Zm-5.176-3.281A5.186,5.186,0,0,0,77.972,13a2.057,2.057,0,0,0,.952-1.812,1.107,1.107,0,0,0-.229-.757.81.81,0,0,0-.64-.259,2.091,2.091,0,0,0-1.636.9A7.169,7.169,0,0,0,75.223,13.688ZM91.834,19H87.781L89,13.688q.264-1.133.322-1.562a5.306,5.306,0,0,0,.059-.674A.981.981,0,0,0,89.2,10.8a.671.671,0,0,0-.537-.215,1.3,1.3,0,0,0-.684.234,4.357,4.357,0,0,0-.83.732,4.457,4.457,0,0,0-.732,1.055,5.707,5.707,0,0,0-.439,1.387L84.9,19H82.1l1.533-6.895q.049-.234.132-.669a4,4,0,0,0,.083-.728.623.623,0,0,0-.229-.562,1.564,1.564,0,0,0-.718-.19l.146-.645,2.686-.107h1.025L86.2,11.314l.117.039a9.2,9.2,0,0,1,1.25-1.3,4,4,0,0,1,1.147-.684,3.642,3.642,0,0,1,1.265-.21,2.17,2.17,0,0,1,1.582.562,2.061,2.061,0,0,1,.576,1.548,7.134,7.134,0,0,1-.2,1.514l-.8,3.613q-.1.449-.132.693a3.093,3.093,0,0,0-.034.42.747.747,0,0,0,.22.615,1.508,1.508,0,0,0,.757.234ZM106.023,7.965q.059-.244.137-.7a4.516,4.516,0,0,0,.078-.693,1.029,1.029,0,0,0-.044-.337.479.479,0,0,0-.132-.2.613.613,0,0,0-.234-.122,4.589,4.589,0,0,0-.576-.1l.156-.635,2.92-.156h1.1l-2.461,11.1q-.107.479-.166.806a3.22,3.22,0,0,0-.059.552.821.821,0,0,0,.215.635,1.322,1.322,0,0,0,.762.244l-.107.645h-3.75l.527-2-.127-.039a8.454,8.454,0,0,1-1.235,1.333,3.744,3.744,0,0,1-1.123.669,3.812,3.812,0,0,1-1.274.2,2.225,2.225,0,0,1-1.2-.322,2.17,2.17,0,0,1-.82-1.021,4.48,4.48,0,0,1-.3-1.772,9.252,9.252,0,0,1,.239-2.07,8.3,8.3,0,0,1,.7-1.948,5.37,5.37,0,0,1,1.177-1.548,4.987,4.987,0,0,1,1.616-.981,5.588,5.588,0,0,1,1.968-.337,4.762,4.762,0,0,1,1.68.3Zm-1,4.961q.059-.293.107-.679a6.023,6.023,0,0,0,.049-.757,1.657,1.657,0,0,0-.244-.986.928.928,0,0,0-.8-.332,2.018,2.018,0,0,0-1.611.913,7.156,7.156,0,0,0-1.133,2.456,10.426,10.426,0,0,0-.43,2.764,2.124,2.124,0,0,0,.21,1.064.7.7,0,0,0,.649.352,1.955,1.955,0,0,0,1.313-.63,4.994,4.994,0,0,0,1.079-1.479,10.815,10.815,0,0,0,.732-2.324Zm12.852,4.043a6.66,6.66,0,0,1-2.124,1.65,5.7,5.7,0,0,1-2.466.537,4.309,4.309,0,0,1-1.943-.4,2.66,2.66,0,0,1-1.206-1.187,4.057,4.057,0,0,1-.405-1.88,7.932,7.932,0,0,1,.137-1.3,7.868,7.868,0,0,1,.566-1.914,5.833,5.833,0,0,1,1.25-1.777A5.358,5.358,0,0,1,113.5,9.557a6.3,6.3,0,0,1,2.28-.4,3.877,3.877,0,0,1,2.227.532,1.849,1.849,0,0,1,.762,1.626,2.771,2.771,0,0,1-.3,1.309,2.864,2.864,0,0,1-.991,1.025,5.947,5.947,0,0,1-1.958.742,15.754,15.754,0,0,1-3.052.322,5.521,5.521,0,0,0-.127,1.191,3.36,3.36,0,0,0,.068.688,1.574,1.574,0,0,0,.244.581,1.264,1.264,0,0,0,.469.405,1.635,1.635,0,0,0,.752.151,3.424,3.424,0,0,0,1.553-.347,7.27,7.27,0,0,0,1.631-1.235ZM112.7,13.688A5.186,5.186,0,0,0,115.452,13a2.057,2.057,0,0,0,.952-1.812,1.107,1.107,0,0,0-.229-.757.81.81,0,0,0-.64-.259,2.091,2.091,0,0,0-1.636.9A7.169,7.169,0,0,0,112.7,13.688ZM124.09,5.016h1.1l-2.52,11.377q-.1.449-.132.693a3.093,3.093,0,0,0-.034.42.752.752,0,0,0,.22.605,1.438,1.438,0,0,0,.757.244l-.107.645h-4.062l2.471-11.035a7.21,7.21,0,0,0,.215-1.4,1.029,1.029,0,0,0-.044-.337.479.479,0,0,0-.132-.2.613.613,0,0,0-.234-.122,4.589,4.589,0,0,0-.576-.1l.156-.635Zm6.4,5.518.137-.645a3.516,3.516,0,0,0,.6-.1.9.9,0,0,0,.62-.537,4.577,4.577,0,0,0,.273-.8,5.776,5.776,0,0,1,.635-1.558,3.844,3.844,0,0,1,2.354-1.709,7.049,7.049,0,0,1,1.787-.21,7.132,7.132,0,0,1,1.455.137l-.4,1.8h-.967a1.115,1.115,0,0,0-.117-.513.6.6,0,0,0-.269-.264.763.763,0,0,0-.317-.073.821.821,0,0,0-.576.215,1.7,1.7,0,0,0-.4.62,7.491,7.491,0,0,0-.332,1.147l-.293,1.27h1.865l-.273,1.221H134.4L132.635,18.7a8.517,8.517,0,0,1-.962,2.6,4.113,4.113,0,0,1-1.606,1.548,5.1,5.1,0,0,1-2.412.522,3.537,3.537,0,0,1-.928-.127l.264-1.064a2.36,2.36,0,0,0,.645.078,1.8,1.8,0,0,0,.718-.122,1.285,1.285,0,0,0,.5-.42,3.17,3.17,0,0,0,.42-.874,16.765,16.765,0,0,0,.43-1.621l1.953-8.682Zm10.352-5.518h1.1l-2.52,11.377q-.1.449-.132.693a3.094,3.094,0,0,0-.034.42.752.752,0,0,0,.22.605,1.438,1.438,0,0,0,.757.244l-.107.645h-4.062l2.471-11.035a7.209,7.209,0,0,0,.215-1.4,1.029,1.029,0,0,0-.044-.337.479.479,0,0,0-.132-.2.613.613,0,0,0-.234-.122,4.589,4.589,0,0,0-.576-.1l.156-.635Zm2.1,4.3h4.053l-1.221,5.313q-.264,1.133-.322,1.563a5.307,5.307,0,0,0-.059.674.994.994,0,0,0,.181.664.672.672,0,0,0,.532.205,1.1,1.1,0,0,0,.42-.093,1.848,1.848,0,0,0,.449-.273,7.154,7.154,0,0,0,.547-.5,4.514,4.514,0,0,0,.566-.688,3.987,3.987,0,0,0,.405-.786,7.214,7.214,0,0,0,.3-1.064l1.074-5.01h2.8l-1.533,6.895q-.049.234-.132.669a4,4,0,0,0-.083.728.623.623,0,0,0,.229.562,1.564,1.564,0,0,0,.718.19l-.146.645h-3.682l.527-2-.117-.039a7.443,7.443,0,0,1-1.753,1.665,3.524,3.524,0,0,1-1.919.532,2.143,2.143,0,0,1-1.562-.562,2.062,2.062,0,0,1-.576-1.548,7.135,7.135,0,0,1,.2-1.514l.8-3.613q.1-.449.132-.693a3.094,3.094,0,0,0,.034-.42.743.743,0,0,0-.215-.605,1.549,1.549,0,0,0-.762-.244Zm16.484-3.9-.508,2.393h-2.529l.537-2.393Zm-2.256,10.977q-.107.488-.137.723a3.251,3.251,0,0,0-.029.391.752.752,0,0,0,.22.605,1.438,1.438,0,0,0,.757.244l-.107.645h-4.062l1.523-6.816q.127-.586.176-.913a3.844,3.844,0,0,0,.049-.552.7.7,0,0,0-.181-.542,1.443,1.443,0,0,0-.757-.22l.146-.645,2.861-.107h1.113Zm10.5-8.428q.059-.244.137-.7a4.517,4.517,0,0,0,.078-.693,1.029,1.029,0,0,0-.044-.337.479.479,0,0,0-.132-.2.613.613,0,0,0-.234-.122,4.589,4.589,0,0,0-.576-.1l.156-.635,2.92-.156h1.1l-2.461,11.1q-.107.479-.166.806a3.22,3.22,0,0,0-.059.552.821.821,0,0,0,.215.635,1.322,1.322,0,0,0,.762.244l-.107.645h-3.75l.527-2-.127-.039a8.454,8.454,0,0,1-1.235,1.333,3.744,3.744,0,0,1-1.123.669,3.813,3.813,0,0,1-1.274.2,2.225,2.225,0,0,1-1.2-.322,2.17,2.17,0,0,1-.82-1.021,4.48,4.48,0,0,1-.3-1.772,9.253,9.253,0,0,1,.239-2.07,8.3,8.3,0,0,1,.7-1.948,5.37,5.37,0,0,1,1.177-1.548,4.987,4.987,0,0,1,1.616-.981,5.588,5.588,0,0,1,1.968-.337,4.762,4.762,0,0,1,1.68.3Zm-1,4.961q.059-.293.107-.679a6.025,6.025,0,0,0,.049-.757,1.657,1.657,0,0,0-.244-.986.928.928,0,0,0-.8-.332,2.018,2.018,0,0,0-1.611.913,7.156,7.156,0,0,0-1.133,2.456,10.426,10.426,0,0,0-.43,2.764,2.125,2.125,0,0,0,.21,1.064.7.7,0,0,0,.649.352,1.955,1.955,0,0,0,1.313-.63,4.994,4.994,0,0,0,1.079-1.479,10.815,10.815,0,0,0,.732-2.324Zm8.34,6.23a4.373,4.373,0,0,1-1.89-.386,2.892,2.892,0,0,1-1.279-1.172,3.715,3.715,0,0,1-.464-1.919,8.521,8.521,0,0,1,.332-2.314,6.782,6.782,0,0,1,.566-1.426,5.412,5.412,0,0,1,.859-1.216,4.9,4.9,0,0,1,1.06-.85,4.844,4.844,0,0,1,1.245-.513,6.746,6.746,0,0,1,1.68-.205,4.222,4.222,0,0,1,2.031.444,2.819,2.819,0,0,1,1.216,1.235,4.055,4.055,0,0,1,.4,1.836,8.2,8.2,0,0,1-.43,2.588,6.349,6.349,0,0,1-1.187,2.178,4.644,4.644,0,0,1-1.792,1.3A6.189,6.189,0,0,1,175.008,19.156ZM174,16.314a2.532,2.532,0,0,0,.3,1.372,1.045,1.045,0,0,0,.942.454,1.62,1.62,0,0,0,.688-.151,1.978,1.978,0,0,0,.645-.518,3.8,3.8,0,0,0,.571-.928,9.766,9.766,0,0,0,.483-1.387,14.771,14.771,0,0,0,.356-1.616,9.339,9.339,0,0,0,.127-1.475,2.7,2.7,0,0,0-.3-1.436,1.022,1.022,0,0,0-.923-.459,1.749,1.749,0,0,0-1.421.8,7.2,7.2,0,0,0-1.035,2.461A11.671,11.671,0,0,0,174,16.314Zm9.912-11.328a4.723,4.723,0,0,1,2.373.562,3.579,3.579,0,0,1,1.484,1.6,5.529,5.529,0,0,1,.5,2.422,24.2,24.2,0,0,1-.7,5.361,20.44,20.44,0,0,1-1.641,4.819,6.505,6.505,0,0,1-2.368,2.646,7.085,7.085,0,0,1-3.682.854l.244-1.1a3.087,3.087,0,0,0,1.318-.269,3.126,3.126,0,0,0,1.084-.894A7.81,7.81,0,0,0,183.7,18.79a29.05,29.05,0,0,0,.991-3.325q.352-1.484.615-2.871a21.882,21.882,0,0,0,.43-3.867,4.876,4.876,0,0,0-.205-1.582,1.549,1.549,0,0,0-.649-.845,2.324,2.324,0,0,0-1.206-.269ZM77.752,35.67l-.771,3.535H75.73a6.911,6.911,0,0,0-.127-1.519,1.261,1.261,0,0,0-.376-.654,1.091,1.091,0,0,0-.728-.22h-.869l-2.1,9.551q-.059.264-.078.405t-.034.313q-.015.171-.015.425a.773.773,0,0,0,.229.635,1.26,1.26,0,0,0,.718.215L72.215,49H67.029l.137-.645a1.419,1.419,0,0,0,.684-.254,1.459,1.459,0,0,0,.425-.581,6.734,6.734,0,0,0,.347-1.157l2.1-9.551h-.781a2.316,2.316,0,0,0-.62.068,1.392,1.392,0,0,0-.415.19,2.454,2.454,0,0,0-.381.342,4.653,4.653,0,0,0-.454.6,7.552,7.552,0,0,0-.532.991H66.258l.732-3.33Zm4.971-.254-.508,2.393H79.686l.537-2.393ZM80.467,46.393q-.107.488-.137.723a3.251,3.251,0,0,0-.029.391.752.752,0,0,0,.22.605,1.438,1.438,0,0,0,.757.244L81.17,49H77.107l1.523-6.816q.127-.586.176-.913a3.843,3.843,0,0,0,.049-.552.7.7,0,0,0-.181-.542,1.443,1.443,0,0,0-.757-.22l.146-.645,2.861-.107h1.113Zm10.957.576a6.66,6.66,0,0,1-2.124,1.65,5.7,5.7,0,0,1-2.466.537,4.309,4.309,0,0,1-1.943-.4,2.66,2.66,0,0,1-1.206-1.187,4.057,4.057,0,0,1-.405-1.88,9.045,9.045,0,0,1,.7-3.213,5.833,5.833,0,0,1,1.25-1.777,5.358,5.358,0,0,1,1.812-1.143,6.3,6.3,0,0,1,2.28-.4,3.877,3.877,0,0,1,2.227.532,1.849,1.849,0,0,1,.762,1.626,2.771,2.771,0,0,1-.3,1.309,2.864,2.864,0,0,1-.991,1.025,5.947,5.947,0,0,1-1.958.742,15.754,15.754,0,0,1-3.052.322,5.521,5.521,0,0,0-.127,1.191,3.36,3.36,0,0,0,.068.688,1.574,1.574,0,0,0,.244.581,1.264,1.264,0,0,0,.469.405,1.635,1.635,0,0,0,.752.151,3.424,3.424,0,0,0,1.553-.347A7.27,7.27,0,0,0,90.6,46.148Zm-5.176-3.281A5.186,5.186,0,0,0,89,43a2.057,2.057,0,0,0,.952-1.812,1.107,1.107,0,0,0-.229-.757.81.81,0,0,0-.64-.259,2.091,2.091,0,0,0-1.636.9A7.169,7.169,0,0,0,86.248,43.688Zm16.875-2.51a6.119,6.119,0,0,1,1.66-1.538,3.638,3.638,0,0,1,1.865-.483,2.119,2.119,0,0,1,1.567.562,2.092,2.092,0,0,1,.562,1.548,7.134,7.134,0,0,1-.2,1.514l-.8,3.613q-.1.449-.132.693a3.093,3.093,0,0,0-.034.42.747.747,0,0,0,.22.615,1.508,1.508,0,0,0,.757.234l-.117.645h-4.053l1.348-5.869q.107-.459.161-.752t.078-.508a3.487,3.487,0,0,0,.024-.391,1.064,1.064,0,0,0-.181-.669.648.648,0,0,0-.542-.229,1.279,1.279,0,0,0-.674.249,4.476,4.476,0,0,0-.825.737,4.539,4.539,0,0,0-.718,1.04,5.618,5.618,0,0,0-.439,1.382L101.58,49H98.768l1.406-6.123q.1-.391.137-.625t.054-.4q.015-.166.015-.3a1.222,1.222,0,0,0-.176-.737.657.657,0,0,0-.557-.229,1.787,1.787,0,0,0-1.1.6A4.635,4.635,0,0,0,97,43.99L95.926,49h-2.8l1.533-6.895q.049-.234.132-.669a4,4,0,0,0,.083-.728.623.623,0,0,0-.229-.562,1.564,1.564,0,0,0-.718-.19l.146-.645,2.686-.107h1.025l-.557,2.109.117.039A9.542,9.542,0,0,1,98.6,40.04a3.864,3.864,0,0,1,1.138-.679,3.679,3.679,0,0,1,1.26-.205,2.133,2.133,0,0,1,1.538.537A2.05,2.05,0,0,1,103.123,41.178Zm8.838,1.016a8.071,8.071,0,0,0,.234-1.465.675.675,0,0,0-.205-.562,1.473,1.473,0,0,0-.742-.21l.146-.645,2.646-.107h1.064l-.557,2.109.117.039a8.792,8.792,0,0,1,1.23-1.323,3.4,3.4,0,0,1,2.4-.874,2.225,2.225,0,0,1,1.2.322,2.17,2.17,0,0,1,.82,1.021,4.48,4.48,0,0,1,.3,1.772,9.252,9.252,0,0,1-.239,2.07,8.3,8.3,0,0,1-.7,1.948,5.37,5.37,0,0,1-1.177,1.548,4.987,4.987,0,0,1-1.616.981,5.588,5.588,0,0,1-1.968.337,4.762,4.762,0,0,1-1.68-.3l-.439,2.061q-.029.156-.054.3t-.034.264q-.01.122-.01.229a.752.752,0,0,0,.22.605,1.438,1.438,0,0,0,.757.244l-.107.645H109.51Zm1.953,3.193a6.689,6.689,0,0,0-.156,1.416A1.71,1.71,0,0,0,114,47.828a.953.953,0,0,0,.806.313,1.864,1.864,0,0,0,.669-.117,1.951,1.951,0,0,0,.605-.386,3.307,3.307,0,0,0,.6-.786,8.245,8.245,0,0,0,.669-1.465,11.429,11.429,0,0,0,.454-1.724,9.215,9.215,0,0,0,.166-1.655,2.12,2.12,0,0,0-.21-1.069.706.706,0,0,0-.649-.347,1.955,1.955,0,0,0-1.313.63,4.931,4.931,0,0,0-1.069,1.46,11.05,11.05,0,0,0-.732,2.344Zm11.719,3.77a4.373,4.373,0,0,1-1.89-.386,2.892,2.892,0,0,1-1.279-1.172A3.716,3.716,0,0,1,122,45.68a8.521,8.521,0,0,1,.332-2.314,6.782,6.782,0,0,1,.566-1.426,5.412,5.412,0,0,1,.859-1.216,4.9,4.9,0,0,1,1.06-.85,4.844,4.844,0,0,1,1.245-.513,6.746,6.746,0,0,1,1.68-.205,4.222,4.222,0,0,1,2.031.444,2.819,2.819,0,0,1,1.216,1.235,4.055,4.055,0,0,1,.4,1.836,8.2,8.2,0,0,1-.43,2.588,6.349,6.349,0,0,1-1.187,2.178,4.644,4.644,0,0,1-1.792,1.3A6.189,6.189,0,0,1,125.633,49.156Zm-1.006-2.842a2.532,2.532,0,0,0,.3,1.372,1.045,1.045,0,0,0,.942.454,1.621,1.621,0,0,0,.688-.151,1.978,1.978,0,0,0,.645-.518,3.8,3.8,0,0,0,.571-.928,9.765,9.765,0,0,0,.483-1.387,14.77,14.77,0,0,0,.356-1.616,9.339,9.339,0,0,0,.127-1.475,2.7,2.7,0,0,0-.3-1.436,1.022,1.022,0,0,0-.923-.459,1.749,1.749,0,0,0-1.421.8,7.2,7.2,0,0,0-1.035,2.461A11.671,11.671,0,0,0,124.627,46.314Z" transform="translate(1193 8768)" fill="#12263f"/>
      <line id="Línea_2935" data-name="Línea 2935" x2="196.5" transform="translate(1193 8796.5)" fill="none" stroke="#12263f" stroke-linecap="round" stroke-width="1.5"/>
    </g>
  </g>
</svg>
