<svg xmlns="http://www.w3.org/2000/svg" width="400" height="61.6" viewBox="0 0 400 61.6">
  <g id="Grupo_1009317" data-name="Grupo 1009317" transform="translate(-609 -9586)">
    <path id="Trazado_718246" data-name="Trazado 718246" d="M10,0H390c5.523,0,10,3.031,10,6.769V54.831c0,3.739-4.477,6.769-10,6.769H10c-5.523,0-10-3.031-10-6.769V6.769C0,3.031,4.477,0,10,0Z" transform="translate(609 9586)" fill="#fff"/>
    <path id="Trazado_726140" data-name="Trazado 726140" d="M44.738,5.992l-.625,2.852H42.834a4.93,4.93,0,0,0-.176-1.309,1.262,1.262,0,0,0-.459-.659,1.454,1.454,0,0,0-.85-.22,2.313,2.313,0,0,0-.889.19,3.157,3.157,0,0,0-.908.6,5.884,5.884,0,0,0-.981,1.226,10,10,0,0,0-.835,1.724,16.885,16.885,0,0,0-.542,1.8,15.617,15.617,0,0,0-.352,1.846,12.477,12.477,0,0,0-.1,1.494,5.105,5.105,0,0,0,.151,1.357,1.546,1.546,0,0,0,.527.83,1.653,1.653,0,0,0,1.04.293,2.9,2.9,0,0,0,1.255-.249,2.546,2.546,0,0,0,.9-.718,5.853,5.853,0,0,0,.737-1.289h1.279L42,18.639a12.707,12.707,0,0,1-1.885.4,15.608,15.608,0,0,1-2.012.122,4.267,4.267,0,0,1-3.193-1.138A4.493,4.493,0,0,1,33.8,14.742a11.1,11.1,0,0,1,.117-1.494,13.781,13.781,0,0,1,.605-2.49,9.188,9.188,0,0,1,1.182-2.344,7.029,7.029,0,0,1,1.6-1.636,6.464,6.464,0,0,1,1.929-.952,7.683,7.683,0,0,1,2.222-.312,11.377,11.377,0,0,1,1.7.122A11.18,11.18,0,0,1,44.738,5.992Zm7.529,3.867.879-.7,1.094.156-1.5,6.807q-.117.518-.171.83a3.2,3.2,0,0,0-.054.527.821.821,0,0,0,.215.635,1.322,1.322,0,0,0,.762.244L53.381,19h-3.75l.527-2-.127-.039A8.454,8.454,0,0,1,48.8,18.292a3.744,3.744,0,0,1-1.123.669,3.813,3.813,0,0,1-1.274.2,2.225,2.225,0,0,1-1.2-.322,2.17,2.17,0,0,1-.82-1.021,4.48,4.48,0,0,1-.3-1.772,9.253,9.253,0,0,1,.239-2.07,8.168,8.168,0,0,1,.708-1.948A5.443,5.443,0,0,1,46.2,10.475a4.987,4.987,0,0,1,1.616-.981,5.588,5.588,0,0,1,1.968-.337A4.279,4.279,0,0,1,52.268,9.859Zm-1.475,3.066a6.986,6.986,0,0,0,.112-.7,6.6,6.6,0,0,0,.044-.747,1.637,1.637,0,0,0-.244-.977.928.928,0,0,0-.8-.332,2.018,2.018,0,0,0-1.611.913,7.156,7.156,0,0,0-1.133,2.456,10.426,10.426,0,0,0-.43,2.764,2.124,2.124,0,0,0,.21,1.064.7.7,0,0,0,.649.352,1.955,1.955,0,0,0,1.313-.63,4.994,4.994,0,0,0,1.079-1.479,10.815,10.815,0,0,0,.732-2.324Zm5.4-3.613h4.053l-1.221,5.313q-.264,1.133-.322,1.563a5.307,5.307,0,0,0-.059.674.994.994,0,0,0,.181.664.672.672,0,0,0,.532.205,1.1,1.1,0,0,0,.42-.093,1.848,1.848,0,0,0,.449-.273,7.153,7.153,0,0,0,.547-.5,4.514,4.514,0,0,0,.566-.688,3.987,3.987,0,0,0,.405-.786,7.215,7.215,0,0,0,.3-1.064l1.074-5.01h2.8l-1.533,6.895q-.049.234-.132.669a4,4,0,0,0-.083.728.623.623,0,0,0,.229.562,1.564,1.564,0,0,0,.718.19L64.973,19H61.291l.527-2-.117-.039a7.443,7.443,0,0,1-1.753,1.665,3.524,3.524,0,0,1-1.919.532,2.143,2.143,0,0,1-1.562-.562,2.061,2.061,0,0,1-.576-1.548,7.135,7.135,0,0,1,.2-1.514l.8-3.613q.1-.449.132-.693a3.094,3.094,0,0,0,.034-.42.743.743,0,0,0-.215-.605,1.549,1.549,0,0,0-.762-.244ZM74.875,7.965q.059-.244.137-.7a4.516,4.516,0,0,0,.078-.693,1.029,1.029,0,0,0-.044-.337.479.479,0,0,0-.132-.2.613.613,0,0,0-.234-.122,4.589,4.589,0,0,0-.576-.1l.156-.635,2.92-.156h1.1l-2.461,11.1q-.107.479-.166.806a3.22,3.22,0,0,0-.059.552.821.821,0,0,0,.215.635,1.322,1.322,0,0,0,.762.244L76.467,19h-3.75l.527-2-.127-.039a8.454,8.454,0,0,1-1.235,1.333,3.744,3.744,0,0,1-1.123.669,3.812,3.812,0,0,1-1.274.2,2.225,2.225,0,0,1-1.2-.322,2.17,2.17,0,0,1-.82-1.021,4.48,4.48,0,0,1-.3-1.772,9.252,9.252,0,0,1,.239-2.07,8.3,8.3,0,0,1,.7-1.948,5.37,5.37,0,0,1,1.177-1.548A4.987,4.987,0,0,1,70.9,9.493a5.588,5.588,0,0,1,1.968-.337,4.762,4.762,0,0,1,1.68.3Zm-1,4.961q.059-.293.107-.679a6.023,6.023,0,0,0,.049-.757,1.657,1.657,0,0,0-.244-.986.928.928,0,0,0-.8-.332,2.018,2.018,0,0,0-1.611.913,7.156,7.156,0,0,0-1.133,2.456,10.426,10.426,0,0,0-.43,2.764,2.124,2.124,0,0,0,.21,1.064.7.7,0,0,0,.649.352,1.955,1.955,0,0,0,1.313-.63,4.994,4.994,0,0,0,1.079-1.479,10.815,10.815,0,0,0,.732-2.324ZM86.75,9.859l.879-.7,1.094.156-1.5,6.807q-.117.518-.171.83a3.2,3.2,0,0,0-.054.527.821.821,0,0,0,.215.635,1.322,1.322,0,0,0,.762.244L87.863,19h-3.75l.527-2-.127-.039a8.454,8.454,0,0,1-1.235,1.333,3.744,3.744,0,0,1-1.123.669,3.812,3.812,0,0,1-1.274.2,2.225,2.225,0,0,1-1.2-.322,2.17,2.17,0,0,1-.82-1.021,4.48,4.48,0,0,1-.3-1.772,9.252,9.252,0,0,1,.239-2.07,8.168,8.168,0,0,1,.708-1.948,5.443,5.443,0,0,1,1.182-1.548A4.987,4.987,0,0,1,82.3,9.493a5.588,5.588,0,0,1,1.968-.337A4.279,4.279,0,0,1,86.75,9.859Zm-1.475,3.066a6.987,6.987,0,0,0,.112-.7,6.6,6.6,0,0,0,.044-.747,1.637,1.637,0,0,0-.244-.977.928.928,0,0,0-.8-.332,2.018,2.018,0,0,0-1.611.913,7.156,7.156,0,0,0-1.133,2.456,10.426,10.426,0,0,0-.43,2.764,2.124,2.124,0,0,0,.21,1.064.7.7,0,0,0,.649.352,1.955,1.955,0,0,0,1.313-.63,4.994,4.994,0,0,0,1.079-1.479,10.815,10.815,0,0,0,.732-2.324Zm9.238-7.91h1.1L93.1,16.393q-.1.449-.132.693a3.093,3.093,0,0,0-.034.42.752.752,0,0,0,.22.605,1.438,1.438,0,0,0,.757.244L93.8,19H89.738L92.209,7.965a7.21,7.21,0,0,0,.215-1.4,1.029,1.029,0,0,0-.044-.337.479.479,0,0,0-.132-.2.613.613,0,0,0-.234-.122,4.589,4.589,0,0,0-.576-.1l.156-.635Zm6.211,18.232a4.723,4.723,0,0,1-2.373-.562,3.579,3.579,0,0,1-1.484-1.6,5.529,5.529,0,0,1-.5-2.422,23.41,23.41,0,0,1,.586-4.863,23.33,23.33,0,0,1,1.416-4.629,8.438,8.438,0,0,1,1.641-2.49,5.479,5.479,0,0,1,1.914-1.25,7.978,7.978,0,0,1,2.832-.449l-.244,1.1a3.012,3.012,0,0,0-1.392.308,3.4,3.4,0,0,0-1.128,1,9.824,9.824,0,0,0-1.289,2.7,40.349,40.349,0,0,0-1.27,5.01,23.731,23.731,0,0,0-.537,4.287,5.325,5.325,0,0,0,.215,1.709,1.516,1.516,0,0,0,.649.854,2.415,2.415,0,0,0,1.2.249ZM110.8,18.912l.215.576a5.21,5.21,0,0,0,.4.889,1.369,1.369,0,0,0,.425.454,1.123,1.123,0,0,0,.61.151,1.469,1.469,0,0,0,.732-.205,3.873,3.873,0,0,0,.811-.664l.752.752a8.713,8.713,0,0,1-1.768,1.426,3.4,3.4,0,0,1-1.709.449,2.7,2.7,0,0,1-1.777-.6,3.9,3.9,0,0,1-1.133-1.865l-.381-1.162a3.941,3.941,0,0,1-2.744-1.343,4.919,4.919,0,0,1-.947-3.218,11.553,11.553,0,0,1,.156-1.768,13,13,0,0,1,.527-2.1A8.868,8.868,0,0,1,106,8.59a7.2,7.2,0,0,1,1.538-1.685A6.188,6.188,0,0,1,109.5,5.86a7.424,7.424,0,0,1,2.275-.347,4.539,4.539,0,0,1,3.374,1.162,4.612,4.612,0,0,1,1.147,3.379,12.3,12.3,0,0,1-.215,2.153,11.462,11.462,0,0,1-.669,2.31,8.774,8.774,0,0,1-1.143,2.017,7.1,7.1,0,0,1-1.572,1.523A5.394,5.394,0,0,1,110.8,18.912Zm-3.574-3.447a3.694,3.694,0,0,0,.391,1.948,1.4,1.4,0,0,0,1.27.6,1.984,1.984,0,0,0,.9-.215,3.406,3.406,0,0,0,1.025-.811,7.4,7.4,0,0,0,1.113-1.719,12.775,12.775,0,0,0,.84-2.285,21.374,21.374,0,0,0,.479-2.344,9.382,9.382,0,0,0,.117-1.465,3.626,3.626,0,0,0-.391-1.914,1.417,1.417,0,0,0-1.289-.605,2.4,2.4,0,0,0-1.65.757,7.037,7.037,0,0,0-1.45,2.134,13.663,13.663,0,0,0-1,3.091A14.619,14.619,0,0,0,107.229,15.465ZM119.094,4.986a4.723,4.723,0,0,1,2.373.562,3.579,3.579,0,0,1,1.484,1.6,5.529,5.529,0,0,1,.5,2.422,24.2,24.2,0,0,1-.7,5.361,20.439,20.439,0,0,1-1.641,4.819,6.505,6.505,0,0,1-2.368,2.646,7.085,7.085,0,0,1-3.682.854l.244-1.1a3.087,3.087,0,0,0,1.318-.269,3.126,3.126,0,0,0,1.084-.894,7.81,7.81,0,0,0,1.177-2.192,29.052,29.052,0,0,0,.991-3.325q.352-1.484.615-2.871a21.881,21.881,0,0,0,.43-3.867,4.876,4.876,0,0,0-.205-1.582,1.549,1.549,0,0,0-.649-.845,2.324,2.324,0,0,0-1.206-.269Zm7.334,7.09.42-1.914h8.691l-.42,1.914Zm-.967,4.326.42-1.914h8.691l-.42,1.914ZM145.2,9.938q.557-1.045.762-1.5a4.211,4.211,0,0,0,.273-.752,2.515,2.515,0,0,0,.068-.562q0-.7-.83-.811l.146-.645h4.16l-.146.645a1.52,1.52,0,0,0-.518.2,1.942,1.942,0,0,0-.425.371,3.823,3.823,0,0,0-.391.547q-.19.317-.425.737l-6.064,10.9h-2.451l-.42-10.439a9.3,9.3,0,0,0-.068-.942,3.623,3.623,0,0,0-.127-.591,1.6,1.6,0,0,0-.19-.41.746.746,0,0,0-.288-.254,1.242,1.242,0,0,0-.391-.117l.146-.645h5.049l-.146.645a1.208,1.208,0,0,0-.669.215,1.011,1.011,0,0,0-.342.5,3.208,3.208,0,0,0-.1.938v.42q0,.215.01.459l.088,4.795q.02,1.348.02,2.217h.117Zm10.381,7.031a6.66,6.66,0,0,1-2.124,1.65,5.7,5.7,0,0,1-2.466.537,4.309,4.309,0,0,1-1.943-.4,2.66,2.66,0,0,1-1.206-1.187,4.056,4.056,0,0,1-.405-1.88,7.932,7.932,0,0,1,.137-1.3,7.868,7.868,0,0,1,.566-1.914,5.833,5.833,0,0,1,1.25-1.777A5.358,5.358,0,0,1,151.2,9.557a6.3,6.3,0,0,1,2.28-.4,3.877,3.877,0,0,1,2.227.532,1.849,1.849,0,0,1,.762,1.626,2.771,2.771,0,0,1-.3,1.309,2.864,2.864,0,0,1-.991,1.025,5.947,5.947,0,0,1-1.958.742,15.754,15.754,0,0,1-3.052.322,5.521,5.521,0,0,0-.127,1.191,3.359,3.359,0,0,0,.068.688,1.574,1.574,0,0,0,.244.581,1.264,1.264,0,0,0,.469.405,1.635,1.635,0,0,0,.752.151,3.424,3.424,0,0,0,1.553-.347,7.271,7.271,0,0,0,1.631-1.235ZM150.4,13.688A5.186,5.186,0,0,0,153.151,13a2.057,2.057,0,0,0,.952-1.812,1.107,1.107,0,0,0-.229-.757.81.81,0,0,0-.64-.259,2.091,2.091,0,0,0-1.636.9A7.169,7.169,0,0,0,150.4,13.688Zm11.387-8.672h1.1l-2.52,11.377q-.1.449-.132.693a3.094,3.094,0,0,0-.034.42.752.752,0,0,0,.22.605,1.438,1.438,0,0,0,.757.244l-.107.645h-4.062l2.471-11.035a7.209,7.209,0,0,0,.215-1.4,1.029,1.029,0,0,0-.044-.337.479.479,0,0,0-.132-.2.613.613,0,0,0-.234-.122,4.589,4.589,0,0,0-.576-.1l.156-.635Zm5.039,14.141a4.373,4.373,0,0,1-1.89-.386,2.892,2.892,0,0,1-1.279-1.172,3.715,3.715,0,0,1-.464-1.919,8.521,8.521,0,0,1,.332-2.314,6.782,6.782,0,0,1,.566-1.426,5.412,5.412,0,0,1,.859-1.216,4.9,4.9,0,0,1,1.06-.85,4.844,4.844,0,0,1,1.245-.513,6.746,6.746,0,0,1,1.68-.205,4.222,4.222,0,0,1,2.031.444,2.819,2.819,0,0,1,1.216,1.235,4.055,4.055,0,0,1,.4,1.836,8.2,8.2,0,0,1-.43,2.588,6.349,6.349,0,0,1-1.187,2.178,4.644,4.644,0,0,1-1.792,1.3A6.189,6.189,0,0,1,166.828,19.156Zm-1.006-2.842a2.532,2.532,0,0,0,.3,1.372,1.045,1.045,0,0,0,.942.454,1.62,1.62,0,0,0,.688-.151,1.978,1.978,0,0,0,.645-.518,3.8,3.8,0,0,0,.571-.928,9.766,9.766,0,0,0,.483-1.387,14.771,14.771,0,0,0,.356-1.616,9.339,9.339,0,0,0,.127-1.475,2.7,2.7,0,0,0-.3-1.436,1.022,1.022,0,0,0-.923-.459,1.749,1.749,0,0,0-1.421.8,7.2,7.2,0,0,0-1.035,2.461A11.671,11.671,0,0,0,165.822,16.314Zm14.844.1.791.85a6.613,6.613,0,0,1-2.051,1.46,5.723,5.723,0,0,1-2.256.435,3.269,3.269,0,0,1-1.719-.43,2.66,2.66,0,0,1-1.069-1.226,4.543,4.543,0,0,1-.356-1.87,7.1,7.1,0,0,1,.205-1.689,8.993,8.993,0,0,1,.381-1.211,6.375,6.375,0,0,1,.732-1.377,5.206,5.206,0,0,1,2.769-1.938,6.593,6.593,0,0,1,1.88-.259,10.658,10.658,0,0,1,1.416.1,8.042,8.042,0,0,1,1.348.288l-.547,2.383h-1.758q.02-.205.02-.42a1.867,1.867,0,0,0-.215-1.021.717.717,0,0,0-.635-.317,1.8,1.8,0,0,0-1.377.83,6.913,6.913,0,0,0-1.094,2.3,9.228,9.228,0,0,0-.439,2.588q0,1.836,1.338,1.836a2.793,2.793,0,0,0,1.274-.3A6.163,6.163,0,0,0,180.666,16.412Zm7.861-11-.508,2.393H185.49l.537-2.393Zm-2.256,10.977q-.107.488-.137.723a3.251,3.251,0,0,0-.029.391.752.752,0,0,0,.22.605,1.438,1.438,0,0,0,.757.244l-.107.645h-4.062l1.523-6.816q.127-.586.176-.913a3.844,3.844,0,0,0,.049-.552.7.7,0,0,0-.181-.542,1.443,1.443,0,0,0-.757-.22l.146-.645,2.861-.107h1.113Zm10.5-8.428q.059-.244.137-.7a4.517,4.517,0,0,0,.078-.693,1.029,1.029,0,0,0-.044-.337.479.479,0,0,0-.132-.2.613.613,0,0,0-.234-.122,4.589,4.589,0,0,0-.576-.1l.156-.635,2.92-.156h1.1l-2.461,11.1q-.107.479-.166.806a3.22,3.22,0,0,0-.059.552.821.821,0,0,0,.215.635,1.322,1.322,0,0,0,.762.244l-.107.645h-3.75l.527-2-.127-.039a8.454,8.454,0,0,1-1.235,1.333,3.744,3.744,0,0,1-1.123.669,3.813,3.813,0,0,1-1.274.2,2.225,2.225,0,0,1-1.2-.322,2.17,2.17,0,0,1-.82-1.021,4.48,4.48,0,0,1-.3-1.772,9.253,9.253,0,0,1,.239-2.07,8.3,8.3,0,0,1,.7-1.948,5.37,5.37,0,0,1,1.177-1.548,4.987,4.987,0,0,1,1.616-.981,5.588,5.588,0,0,1,1.968-.337,4.762,4.762,0,0,1,1.68.3Zm-1,4.961q.059-.293.107-.679a6.025,6.025,0,0,0,.049-.757,1.657,1.657,0,0,0-.244-.986.928.928,0,0,0-.8-.332,2.018,2.018,0,0,0-1.611.913,7.156,7.156,0,0,0-1.133,2.456,10.426,10.426,0,0,0-.43,2.764,2.125,2.125,0,0,0,.21,1.064.7.7,0,0,0,.649.352,1.955,1.955,0,0,0,1.313-.63,4.994,4.994,0,0,0,1.079-1.479,10.815,10.815,0,0,0,.732-2.324Zm12.871-3.066.879-.7,1.094.156-1.5,6.807q-.117.518-.171.83a3.2,3.2,0,0,0-.054.527.821.821,0,0,0,.215.635,1.322,1.322,0,0,0,.762.244l-.107.645h-3.75l.527-2-.127-.039a8.454,8.454,0,0,1-1.235,1.333,3.744,3.744,0,0,1-1.123.669,3.813,3.813,0,0,1-1.274.2,2.225,2.225,0,0,1-1.2-.322,2.17,2.17,0,0,1-.82-1.021,4.48,4.48,0,0,1-.3-1.772,9.253,9.253,0,0,1,.239-2.07,8.168,8.168,0,0,1,.708-1.948,5.443,5.443,0,0,1,1.182-1.548,4.987,4.987,0,0,1,1.616-.981,5.588,5.588,0,0,1,1.968-.337A4.28,4.28,0,0,1,208.645,9.859Zm-1.475,3.066a6.985,6.985,0,0,0,.112-.7,6.6,6.6,0,0,0,.044-.747,1.637,1.637,0,0,0-.244-.977.928.928,0,0,0-.8-.332,2.018,2.018,0,0,0-1.611.913,7.156,7.156,0,0,0-1.133,2.456,10.426,10.426,0,0,0-.43,2.764,2.125,2.125,0,0,0,.21,1.064.7.7,0,0,0,.649.352,1.955,1.955,0,0,0,1.313-.63,4.994,4.994,0,0,0,1.079-1.479,10.815,10.815,0,0,0,.732-2.324Zm12.393-4.961q.059-.244.137-.7a4.517,4.517,0,0,0,.078-.693,1.029,1.029,0,0,0-.044-.337.479.479,0,0,0-.132-.2.613.613,0,0,0-.234-.122,4.589,4.589,0,0,0-.576-.1l.156-.635,2.92-.156h1.1l-2.461,11.1q-.107.479-.166.806a3.22,3.22,0,0,0-.059.552.821.821,0,0,0,.215.635,1.322,1.322,0,0,0,.762.244l-.107.645H217.4l.527-2-.127-.039a8.454,8.454,0,0,1-1.235,1.333,3.744,3.744,0,0,1-1.123.669,3.813,3.813,0,0,1-1.274.2,2.225,2.225,0,0,1-1.2-.322,2.17,2.17,0,0,1-.82-1.021,4.48,4.48,0,0,1-.3-1.772,9.253,9.253,0,0,1,.239-2.07,8.3,8.3,0,0,1,.7-1.948,5.37,5.37,0,0,1,1.177-1.548,4.987,4.987,0,0,1,1.616-.981,5.588,5.588,0,0,1,1.968-.337,4.762,4.762,0,0,1,1.68.3Zm-1,4.961q.059-.293.107-.679a6.025,6.025,0,0,0,.049-.757,1.657,1.657,0,0,0-.244-.986.928.928,0,0,0-.8-.332,2.018,2.018,0,0,0-1.611.913,7.156,7.156,0,0,0-1.133,2.456,10.426,10.426,0,0,0-.43,2.764,2.125,2.125,0,0,0,.21,1.064.7.7,0,0,0,.649.352,1.955,1.955,0,0,0,1.313-.63,4.994,4.994,0,0,0,1.079-1.479,10.815,10.815,0,0,0,.732-2.324Zm14.141-.2a6.378,6.378,0,0,0,1.143-1.25,1.762,1.762,0,0,0,.264-.9.676.676,0,0,0-.127-.415.625.625,0,0,0-.449-.21l.146-.645h3.154l.244.645q-.43.459-1.162,1.182t-1.46,1.406q-.728.684-1.323,1.221l1.357,3.018q.205.43.371.732a2.465,2.465,0,0,0,.3.454,1.129,1.129,0,0,0,.664.386l-.146.645h-3.2l-1.377-3.672a8.472,8.472,0,0,0-1.387,1.431,1.736,1.736,0,0,0-.312.942.752.752,0,0,0,.122.439.609.609,0,0,0,.454.215l-.146.645h-3.154l-.254-.645q.625-.664,2-1.978t2.251-2.085l-1.016-2.3q-.312-.7-.5-1.06a2.7,2.7,0,0,0-.342-.532,1.406,1.406,0,0,0-.308-.269,1.73,1.73,0,0,0-.454-.171l.146-.645h3.242Zm15.615,2.139H244.5l-.137.244q-.225.391-.386.708t-.288.645a3.758,3.758,0,0,0-.181.586,2.428,2.428,0,0,0-.054.493q0,.7.83.811l-.146.645h-4.121l.146-.645a1.649,1.649,0,0,0,.6-.264,2.268,2.268,0,0,0,.493-.5,11.249,11.249,0,0,0,.664-1.089L247.99,5.6H250.8l.42,10.439a9.3,9.3,0,0,0,.068.942,3.623,3.623,0,0,0,.127.591,1.6,1.6,0,0,0,.19.41.746.746,0,0,0,.288.254,1.242,1.242,0,0,0,.391.117l-.146.645h-5.049l.146-.645a1.235,1.235,0,0,0,.679-.22.986.986,0,0,0,.347-.518,3.338,3.338,0,0,0,.1-.913q0-.42-.02-.879Zm-3.213-1.143h3.184l-.039-2.344q-.02-1.25-.02-2.07,0-.625.01-1.279h-.117Zm8.105-12.285-.146.645-4.434,2.578-.576-.752,2.627-2.471Zm9.092,10.527h-1.748a2.036,2.036,0,0,0-.142-.908.508.508,0,0,0-.483-.254.939.939,0,0,0-.327.063,1.674,1.674,0,0,0-.391.225,3.375,3.375,0,0,0-.527.522,5.306,5.306,0,0,0-.513.7,4.146,4.146,0,0,0-.342.718,6.836,6.836,0,0,0-.254.952L256.506,19h-2.8l1.533-6.895a7.352,7.352,0,0,0,.215-1.4.623.623,0,0,0-.229-.562,1.564,1.564,0,0,0-.718-.19l.146-.645,2.686-.107h1.1l-.732,2.266.117.039a6.635,6.635,0,0,1,1.729-1.758,3.511,3.511,0,0,1,1.963-.6,5.5,5.5,0,0,1,1.367.186Zm8.594,5a6.66,6.66,0,0,1-2.124,1.65,5.7,5.7,0,0,1-2.466.537,4.309,4.309,0,0,1-1.943-.4,2.66,2.66,0,0,1-1.206-1.187,4.057,4.057,0,0,1-.405-1.88,7.931,7.931,0,0,1,.137-1.3,7.867,7.867,0,0,1,.566-1.914,5.833,5.833,0,0,1,1.25-1.777,5.358,5.358,0,0,1,1.812-1.143,6.3,6.3,0,0,1,2.28-.4,3.877,3.877,0,0,1,2.227.532,1.849,1.849,0,0,1,.762,1.626,2.771,2.771,0,0,1-.3,1.309,2.864,2.864,0,0,1-.991,1.025,5.947,5.947,0,0,1-1.958.742,15.754,15.754,0,0,1-3.052.322,5.522,5.522,0,0,0-.127,1.191,3.36,3.36,0,0,0,.068.688,1.574,1.574,0,0,0,.244.581,1.264,1.264,0,0,0,.469.405,1.635,1.635,0,0,0,.752.151,3.424,3.424,0,0,0,1.553-.347,7.27,7.27,0,0,0,1.631-1.235Zm-5.176-3.281A5.186,5.186,0,0,0,268.474,13a2.057,2.057,0,0,0,.952-1.812,1.107,1.107,0,0,0-.229-.757.81.81,0,0,0-.64-.259,2.091,2.091,0,0,0-1.636.9A7.169,7.169,0,0,0,265.725,13.688Zm15.166-3.828.879-.7,1.094.156-1.5,6.807q-.117.518-.171.83a3.2,3.2,0,0,0-.054.527.821.821,0,0,0,.215.635,1.322,1.322,0,0,0,.762.244L282,19h-3.75l.527-2-.127-.039a8.454,8.454,0,0,1-1.235,1.333,3.744,3.744,0,0,1-1.123.669,3.812,3.812,0,0,1-1.274.2,2.225,2.225,0,0,1-1.2-.322,2.17,2.17,0,0,1-.82-1.021,4.48,4.48,0,0,1-.3-1.772,9.252,9.252,0,0,1,.239-2.07,8.168,8.168,0,0,1,.708-1.948,5.443,5.443,0,0,1,1.182-1.548,4.987,4.987,0,0,1,1.616-.981,5.588,5.588,0,0,1,1.968-.337A4.279,4.279,0,0,1,280.891,9.859Zm-1.475,3.066a6.989,6.989,0,0,0,.112-.7,6.6,6.6,0,0,0,.044-.747,1.637,1.637,0,0,0-.244-.977.928.928,0,0,0-.8-.332,2.018,2.018,0,0,0-1.611.913,7.156,7.156,0,0,0-1.133,2.456,10.426,10.426,0,0,0-.43,2.764,2.124,2.124,0,0,0,.21,1.064.7.7,0,0,0,.649.352,1.955,1.955,0,0,0,1.313-.63,5,5,0,0,0,1.079-1.479,10.815,10.815,0,0,0,.732-2.324Z" transform="translate(651 9605)" fill="#12263f"/>
  </g>
</svg>
