<svg xmlns="http://www.w3.org/2000/svg" xmlns:xlink="http://www.w3.org/1999/xlink" width="418" height="148" viewBox="0 0 418 148">
  <defs>
    <filter id="Rectángulo_347428" x="0" y="0" width="208" height="148" filterUnits="userSpaceOnUse">
      <feOffset dx="2" dy="2" input="SourceAlpha"/>
      <feGaussianBlur stdDeviation="3" result="blur"/>
      <feFlood flood-opacity="0.161"/>
      <feComposite operator="in" in2="blur"/>
      <feComposite in="SourceGraphic"/>
    </filter>
    <filter id="Rectángulo_347428-2" x="0" y="0" width="208" height="148" filterUnits="userSpaceOnUse">
      <feOffset input="SourceAlpha"/>
      <feGaussianBlur stdDeviation="3" result="blur-2"/>
      <feFlood flood-color="#0c0c0c" flood-opacity="0.161" result="color"/>
      <feComposite operator="out" in="SourceGraphic" in2="blur-2"/>
      <feComposite operator="in" in="color"/>
      <feComposite operator="in" in2="SourceGraphic"/>
    </filter>
    <filter id="Rectángulo_347528" x="12.5" y="11.5" width="184" height="123" filterUnits="userSpaceOnUse">
      <feOffset dx="2" dy="2" input="SourceAlpha"/>
      <feGaussianBlur stdDeviation="1.5" result="blur-3"/>
      <feFlood flood-opacity="0.161"/>
      <feComposite operator="in" in2="blur-3"/>
      <feComposite in="SourceGraphic"/>
    </filter>
    <linearGradient id="linear-gradient" x1="0.5" x2="0.5" y2="1" gradientUnits="objectBoundingBox">
      <stop offset="0" stop-color="#dfe3e1"/>
      <stop offset="1" stop-color="#fff"/>
    </linearGradient>
    <linearGradient id="linear-gradient-2" x1="0.5" x2="0.5" y2="1" gradientUnits="objectBoundingBox">
      <stop offset="0" stop-color="#e78d24"/>
      <stop offset="0.497" stop-color="#f5aa51"/>
      <stop offset="1" stop-color="#ffa031"/>
    </linearGradient>
    <filter id="Trazado_726064" x="150.731" y="14.145" width="28.119" height="33.984" filterUnits="userSpaceOnUse">
      <feOffset dx="2" dy="2" input="SourceAlpha"/>
      <feGaussianBlur stdDeviation="3" result="blur-4"/>
      <feFlood flood-opacity="0.439"/>
      <feComposite operator="in" in2="blur-4"/>
      <feComposite in="SourceGraphic"/>
    </filter>
    <filter id="Rectángulo_347531" x="210" y="0" width="208" height="148" filterUnits="userSpaceOnUse">
      <feOffset dx="2" dy="2" input="SourceAlpha"/>
      <feGaussianBlur stdDeviation="3" result="blur-5"/>
      <feFlood flood-opacity="0.161"/>
      <feComposite operator="in" in2="blur-5"/>
      <feComposite in="SourceGraphic"/>
    </filter>
    <filter id="Rectángulo_347531-2" x="210" y="0" width="208" height="148" filterUnits="userSpaceOnUse">
      <feOffset input="SourceAlpha"/>
      <feGaussianBlur stdDeviation="3" result="blur-6"/>
      <feFlood flood-color="#0c0c0c" flood-opacity="0.161" result="color-2"/>
      <feComposite operator="out" in="SourceGraphic" in2="blur-6"/>
      <feComposite operator="in" in="color-2"/>
      <feComposite operator="in" in2="SourceGraphic"/>
    </filter>
    <filter id="Rectángulo_347532" x="222.5" y="11.5" width="184" height="123" filterUnits="userSpaceOnUse">
      <feOffset dx="2" dy="2" input="SourceAlpha"/>
      <feGaussianBlur stdDeviation="1.5" result="blur-7"/>
      <feFlood flood-opacity="0.161"/>
      <feComposite operator="in" in2="blur-7"/>
      <feComposite in="SourceGraphic"/>
    </filter>
    <linearGradient id="linear-gradient-4" x1="0.5" x2="0.5" y2="1" gradientUnits="objectBoundingBox">
      <stop offset="0" stop-color="#2a6aa4"/>
      <stop offset="0.497" stop-color="#3787d0"/>
      <stop offset="1" stop-color="#3076b6"/>
    </linearGradient>
    <filter id="Trazado_726065" x="361.731" y="14.145" width="28.119" height="33.984" filterUnits="userSpaceOnUse">
      <feOffset dx="2" dy="2" input="SourceAlpha"/>
      <feGaussianBlur stdDeviation="3" result="blur-8"/>
      <feFlood flood-opacity="0.439"/>
      <feComposite operator="in" in2="blur-8"/>
      <feComposite in="SourceGraphic"/>
    </filter>
  </defs>
  <g id="Grupo_1012324" data-name="Grupo 1012324" transform="translate(-1013 -1360)">
    <g id="Grupo_1012323" data-name="Grupo 1012323">
      <g id="Grupo_1009365" data-name="Grupo 1009365" transform="translate(0 -26)">
        <g id="Grupo_1009361" data-name="Grupo 1009361">
          <g id="Grupo_1009359" data-name="Grupo 1009359" transform="translate(0 -219)">
            <g data-type="innerShadowGroup">
              <g transform="matrix(1, 0, 0, 1, 1013, 1605)" filter="url(#Rectángulo_347428)">
                <rect id="Rectángulo_347428-3" data-name="Rectángulo 347428" width="190" height="130" rx="9" transform="translate(7 7)" fill="#ffa031"/>
              </g>
              <g transform="matrix(1, 0, 0, 1, 1013, 1605)" filter="url(#Rectángulo_347428-2)">
                <rect id="Rectángulo_347428-4" data-name="Rectángulo 347428" width="190" height="130" rx="9" transform="translate(7 7)" fill="#fff"/>
              </g>
            </g>
            <g transform="matrix(1, 0, 0, 1, 1013, 1605)" filter="url(#Rectángulo_347528)">
              <rect id="Rectángulo_347528-2" data-name="Rectángulo 347528" width="175" height="114" rx="7" transform="translate(15 14)" fill="#fff"/>
            </g>
            <rect id="Rectángulo_347529" data-name="Rectángulo 347529" width="175" height="112" rx="7" transform="translate(1028 1621)" fill="url(#linear-gradient)"/>
          </g>
          <path id="Trazado_716089" data-name="Trazado 716089" d="M-7325.8,2221.472l-8.335,36.743-31.148-4.28,25.057-32.139Z" transform="translate(8501.282 -824.38)" opacity="0.16"/>
          <rect id="Rectángulo_347530" data-name="Rectángulo 347530" width="36" height="43" transform="translate(1158 1393)" fill="url(#linear-gradient-2)"/>
          <g transform="matrix(1, 0, 0, 1, 1013, 1386)" filter="url(#Trazado_726064)">
            <path id="Trazado_726064-2" data-name="Trazado 726064" d="M16.093,16.048a6.992,6.992,0,0,1,.354-2.476A3.873,3.873,0,0,1,17.6,12a7.642,7.642,0,0,0,1.208-1.219,1.99,1.99,0,0,0,.414-1.219q0-1.622-1.4-1.622a1.3,1.3,0,0,0-1.042.473,2.01,2.01,0,0,0-.419,1.278H12.731a4.331,4.331,0,0,1,1.354-3.346,5.4,5.4,0,0,1,3.738-1.2,5.606,5.606,0,0,1,3.711,1.106A3.883,3.883,0,0,1,22.85,9.4a3.666,3.666,0,0,1-.354,1.622,5.482,5.482,0,0,1-1.139,1.493l-1.235,1.149a2.906,2.906,0,0,0-.73,1.037,4.108,4.108,0,0,0-.226,1.348Zm-.44,3.266a1.667,1.667,0,0,1,.575-1.305,2.27,2.27,0,0,1,2.868,0,1.769,1.769,0,0,1,0,2.61,2.27,2.27,0,0,1-2.868,0A1.667,1.667,0,0,1,15.653,19.313Z" transform="translate(145 16)" fill="#fff"/>
          </g>
        </g>
        <path id="Trazado_726062" data-name="Trazado 726062" d="M45.264,13.54a6.958,6.958,0,0,1-.313,2.364A3.53,3.53,0,0,1,43.9,17.354l-.677.625a2.674,2.674,0,0,0-.954,1.907,1.425,1.425,0,0,0,.344,1.061,1.221,1.221,0,0,0,.887.333,1.354,1.354,0,0,0,1.072-.436,1.884,1.884,0,0,0,.405-1.236h3.476a4.2,4.2,0,0,1-1.307,3.2,5.146,5.146,0,0,1-3.563,1.138,5.291,5.291,0,0,1-3.532-1.061,3.725,3.725,0,0,1-1.246-3,3.445,3.445,0,0,1,.39-1.6,6.364,6.364,0,0,1,1.333-1.635l.872-.8a2.356,2.356,0,0,0,.882-1.569l.051-.738ZM43.89,12.156a1.986,1.986,0,0,1-1.369-.487,1.689,1.689,0,0,1,0-2.492A1.986,1.986,0,0,1,43.89,8.69a1.953,1.953,0,0,1,1.379.5,1.687,1.687,0,0,1,0,2.471A1.953,1.953,0,0,1,43.89,12.156Zm18.652.687a8.822,8.822,0,0,1-.687,3.615,6.283,6.283,0,0,1-1.9,2.476l2.41,1.907-2.225,1.887-3.209-2.584a6.671,6.671,0,0,1-.9.062,6.471,6.471,0,0,1-3.384-.882,6,6,0,0,1-2.3-2.522,8.567,8.567,0,0,1-.856-3.773v-.79a8.834,8.834,0,0,1,.8-3.876,6,6,0,0,1,2.3-2.584,6.83,6.83,0,0,1,6.8-.01,6.08,6.08,0,0,1,2.312,2.569,8.589,8.589,0,0,1,.836,3.82Zm-3.661-.625a6.278,6.278,0,0,0-.743-3.379,2.563,2.563,0,0,0-4.271-.015,6.36,6.36,0,0,0-.728,3.333v.687a6.452,6.452,0,0,0,.728,3.379A2.383,2.383,0,0,0,56.031,17.4a2.349,2.349,0,0,0,2.107-1.159,6.317,6.317,0,0,0,.743-3.333ZM70.827,18.8a3.563,3.563,0,0,1-2.963,1.4A3.494,3.494,0,0,1,65.1,19.144a4.463,4.463,0,0,1-.938-3.051V8.905h3.456v7.208A1.242,1.242,0,0,0,69,17.539a1.806,1.806,0,0,0,1.692-.851V8.905H74.17V20h-3.24Zm10.6,1.4A5.7,5.7,0,0,1,77.3,18.682a5.258,5.258,0,0,1-1.579-3.963v-.287a6.814,6.814,0,0,1,.631-3,4.614,4.614,0,0,1,1.841-2.015A5.556,5.556,0,0,1,81.06,8.7a4.8,4.8,0,0,1,3.691,1.451A5.7,5.7,0,0,1,86.105,14.2V15.54h-6.87a2.491,2.491,0,0,0,.81,1.466,2.41,2.41,0,0,0,1.62.533,3.106,3.106,0,0,0,2.563-1.148l1.579,1.866a4.414,4.414,0,0,1-1.83,1.42A6.185,6.185,0,0,1,81.429,20.205Zm-.39-8.839q-1.518,0-1.8,2.01h3.486v-.267a1.712,1.712,0,0,0-.42-1.287A1.673,1.673,0,0,0,81.04,11.366ZM81,4.24h3.65L81.8,7.459l-2.82-.005ZM98.533,16.883a.8.8,0,0,0-.461-.708,7.019,7.019,0,0,0-1.753-.554,8,8,0,0,1-2.133-.754A3.573,3.573,0,0,1,92.9,13.735a2.706,2.706,0,0,1-.441-1.528A3.066,3.066,0,0,1,93.724,9.69a5.2,5.2,0,0,1,3.3-.99,5.756,5.756,0,0,1,3.527.995,3.11,3.11,0,0,1,1.333,2.615H98.42q0-1.333-1.4-1.333a1.393,1.393,0,0,0-.913.3.937.937,0,0,0-.369.754.86.86,0,0,0,.451.749,4.263,4.263,0,0,0,1.441.472,12.45,12.45,0,0,1,1.738.441q2.5.861,2.5,3.086a2.906,2.906,0,0,1-1.348,2.471,5.913,5.913,0,0,1-3.491.954,6.034,6.034,0,0,1-2.543-.513A4.252,4.252,0,0,1,92.74,18.3a3.158,3.158,0,0,1-.625-1.856h3.23a1.335,1.335,0,0,0,.513,1.123,2.109,2.109,0,0,0,1.261.354,1.659,1.659,0,0,0,1.061-.287A.918.918,0,0,0,98.533,16.883Zm10.315,3.322a5.7,5.7,0,0,1-4.132-1.523,5.258,5.258,0,0,1-1.579-3.963v-.287a6.814,6.814,0,0,1,.631-3,4.614,4.614,0,0,1,1.841-2.015,5.556,5.556,0,0,1,2.871-.713,4.8,4.8,0,0,1,3.691,1.451,5.7,5.7,0,0,1,1.354,4.045V15.54h-6.87a2.491,2.491,0,0,0,.81,1.466,2.41,2.41,0,0,0,1.62.533,3.106,3.106,0,0,0,2.563-1.148l1.579,1.866a4.414,4.414,0,0,1-1.83,1.42A6.185,6.185,0,0,1,108.848,20.205Zm-.39-8.839q-1.518,0-1.8,2.01h3.486v-.267a1.712,1.712,0,0,0-.42-1.287A1.673,1.673,0,0,0,108.459,11.366ZM40.4,41.888l1.753-6.983H45.8L42.177,46H38.65l-3.62-11.095h3.65Zm11.659,4.317a5.7,5.7,0,0,1-4.132-1.523,5.258,5.258,0,0,1-1.579-3.963v-.287a6.814,6.814,0,0,1,.631-3,4.614,4.614,0,0,1,1.841-2.015,5.556,5.556,0,0,1,2.871-.713,4.8,4.8,0,0,1,3.691,1.451A5.7,5.7,0,0,1,56.738,40.2V41.54h-6.87a2.491,2.491,0,0,0,.81,1.466,2.41,2.41,0,0,0,1.62.533,3.106,3.106,0,0,0,2.563-1.148l1.579,1.866a4.414,4.414,0,0,1-1.83,1.42A6.185,6.185,0,0,1,52.062,46.205Zm-.39-8.839q-1.518,0-1.8,2.01h3.486v-.267a1.712,1.712,0,0,0-.42-1.287A1.673,1.673,0,0,0,51.673,37.366Zm13.166.667L63.7,37.951a2.044,2.044,0,0,0-2.092,1.025V46H58.153V34.905h3.24l.113,1.425a2.676,2.676,0,0,1,2.43-1.63,3.37,3.37,0,0,1,.964.123ZM69.73,46H66.264V34.905H69.73ZM66.059,32.034a1.556,1.556,0,0,1,.533-1.217,2.256,2.256,0,0,1,2.769,0,1.656,1.656,0,0,1,0,2.435,2.256,2.256,0,0,1-2.769,0A1.556,1.556,0,0,1,66.059,32.034ZM72.662,46V37.3h-1.61v-2.4h1.61v-.369a4.236,4.236,0,0,1,1.456-3.394A5.818,5.818,0,0,1,77.9,30.035a13.427,13.427,0,0,1,3.609.595l-.472,2.728-.574-.154a9.137,9.137,0,0,0-2.358-.3q-1.979,0-1.979,1.8v.195H78.3v2.4H76.128V46ZM83.1,46H79.625V34.905H83.1Zm6.8-2.461a1.537,1.537,0,0,0,1.128-.395,1.448,1.448,0,0,0,.39-1.1h3.24a3.836,3.836,0,0,1-1.307,2.994,4.863,4.863,0,0,1-3.368,1.169,4.924,4.924,0,0,1-3.814-1.518,5.979,5.979,0,0,1-1.395-4.2V40.34a6.758,6.758,0,0,1,.62-2.969,4.517,4.517,0,0,1,1.789-1.979A5.335,5.335,0,0,1,89.95,34.7a4.8,4.8,0,0,1,3.435,1.2,4.255,4.255,0,0,1,1.271,3.25h-3.24A1.9,1.9,0,0,0,91,37.828a1.451,1.451,0,0,0-1.128-.461q-1.343,0-1.569,1.712a12.083,12.083,0,0,0-.072,1.5,4.746,4.746,0,0,0,.4,2.317A1.384,1.384,0,0,0,89.9,43.539ZM102.368,46a3.9,3.9,0,0,1-.328-.995,3.213,3.213,0,0,1-2.666,1.2,3.936,3.936,0,0,1-2.666-.948,3.019,3.019,0,0,1-1.1-2.384,3.1,3.1,0,0,1,1.333-2.728,6.791,6.791,0,0,1,3.876-.923h1.066v-.587q0-1.535-1.323-1.535a1.081,1.081,0,0,0-1.23,1.216H95.877A3.1,3.1,0,0,1,97.246,35.7a5.753,5.753,0,0,1,3.491-1,5.044,5.044,0,0,1,3.353,1.036,3.6,3.6,0,0,1,1.261,2.84v4.912a5.03,5.03,0,0,0,.472,2.338V46ZM100.2,43.744a1.928,1.928,0,0,0,1.072-.277,1.735,1.735,0,0,0,.61-.625V41.068h-1q-1.8,0-1.8,1.62a.989.989,0,0,0,.318.764A1.15,1.15,0,0,0,100.2,43.744Zm9.618-2.471a6.674,6.674,0,0,1,.338-2.364,3.7,3.7,0,0,1,1.1-1.5,7.3,7.3,0,0,0,1.154-1.164,1.9,1.9,0,0,0,.395-1.164q0-1.548-1.333-1.548a1.237,1.237,0,0,0-.995.451,1.919,1.919,0,0,0-.4,1.22h-3.466a4.134,4.134,0,0,1,1.292-3.194,5.151,5.151,0,0,1,3.568-1.143,5.351,5.351,0,0,1,3.543,1.056,3.707,3.707,0,0,1,1.256,3,3.5,3.5,0,0,1-.338,1.548,5.233,5.233,0,0,1-1.087,1.425L113.668,39a2.774,2.774,0,0,0-.7.99,3.921,3.921,0,0,0-.215,1.287Zm-.42,3.117a1.591,1.591,0,0,1,.549-1.246,2.167,2.167,0,0,1,2.738,0,1.689,1.689,0,0,1,0,2.492,2.167,2.167,0,0,1-2.738,0A1.591,1.591,0,0,1,109.4,44.39Z" transform="translate(1039 1437)" fill="#12263f"/>
      </g>
      <g id="Grupo_1009362" data-name="Grupo 1009362" transform="translate(0 -26)">
        <g id="Grupo_1009360" data-name="Grupo 1009360" transform="translate(0 -219)">
          <g data-type="innerShadowGroup">
            <g transform="matrix(1, 0, 0, 1, 1013, 1605)" filter="url(#Rectángulo_347531)">
              <rect id="Rectángulo_347531-3" data-name="Rectángulo 347531" width="190" height="130" rx="9" transform="translate(217 7)" fill="#3076b6"/>
            </g>
            <g transform="matrix(1, 0, 0, 1, 1013, 1605)" filter="url(#Rectángulo_347531-2)">
              <rect id="Rectángulo_347531-4" data-name="Rectángulo 347531" width="190" height="130" rx="9" transform="translate(217 7)" fill="#fff"/>
            </g>
          </g>
          <g transform="matrix(1, 0, 0, 1, 1013, 1605)" filter="url(#Rectángulo_347532)">
            <rect id="Rectángulo_347532-2" data-name="Rectángulo 347532" width="175" height="114" rx="7" transform="translate(225 14)" fill="#fff"/>
          </g>
          <rect id="Rectángulo_347533" data-name="Rectángulo 347533" width="175" height="112" rx="7" transform="translate(1238 1621)" fill="url(#linear-gradient)"/>
        </g>
        <path id="Trazado_716090" data-name="Trazado 716090" d="M-7325.8,2221.472l-8.335,36.743-31.148-4.28,25.057-32.139Z" transform="translate(8712.282 -824.38)" opacity="0.16"/>
        <rect id="Rectángulo_347534" data-name="Rectángulo 347534" width="36" height="43" transform="translate(1369 1393)" fill="url(#linear-gradient-4)"/>
        <g transform="matrix(1, 0, 0, 1, 1013, 1386)" filter="url(#Trazado_726065)">
          <path id="Trazado_726065-2" data-name="Trazado 726065" d="M16.093,16.048a6.992,6.992,0,0,1,.354-2.476A3.873,3.873,0,0,1,17.6,12a7.642,7.642,0,0,0,1.208-1.219,1.99,1.99,0,0,0,.414-1.219q0-1.622-1.4-1.622a1.3,1.3,0,0,0-1.042.473,2.01,2.01,0,0,0-.419,1.278H12.731a4.331,4.331,0,0,1,1.354-3.346,5.4,5.4,0,0,1,3.738-1.2,5.606,5.606,0,0,1,3.711,1.106A3.883,3.883,0,0,1,22.85,9.4a3.666,3.666,0,0,1-.354,1.622,5.482,5.482,0,0,1-1.139,1.493l-1.235,1.149a2.906,2.906,0,0,0-.73,1.037,4.108,4.108,0,0,0-.226,1.348Zm-.44,3.266a1.667,1.667,0,0,1,.575-1.305,2.27,2.27,0,0,1,2.868,0,1.769,1.769,0,0,1,0,2.61,2.27,2.27,0,0,1-2.868,0A1.667,1.667,0,0,1,15.653,19.313Z" transform="translate(356 16)" fill="#fff"/>
        </g>
      </g>
    </g>
    <g id="Grupo_1009366" data-name="Grupo 1009366" transform="translate(0 -26)">
      <path id="Trazado_726063" data-name="Trazado 726063" d="M32.965,13.54a6.958,6.958,0,0,1-.313,2.364A3.53,3.53,0,0,1,31.6,17.354l-.677.625a2.674,2.674,0,0,0-.954,1.907,1.425,1.425,0,0,0,.344,1.061,1.221,1.221,0,0,0,.887.333,1.354,1.354,0,0,0,1.072-.436,1.884,1.884,0,0,0,.405-1.236h3.476a4.2,4.2,0,0,1-1.307,3.2,5.146,5.146,0,0,1-3.563,1.138,5.291,5.291,0,0,1-3.532-1.061,3.725,3.725,0,0,1-1.246-3,3.445,3.445,0,0,1,.39-1.6,6.364,6.364,0,0,1,1.333-1.635l.872-.8a2.356,2.356,0,0,0,.882-1.569l.051-.738Zm-1.374-1.384a1.986,1.986,0,0,1-1.369-.487,1.689,1.689,0,0,1,0-2.492,1.986,1.986,0,0,1,1.369-.487,1.953,1.953,0,0,1,1.379.5,1.687,1.687,0,0,1,0,2.471A1.953,1.953,0,0,1,31.591,12.156Zm18.067,2.789a5.452,5.452,0,0,1-.841,2.753,5.075,5.075,0,0,1-2.158,1.851,7.347,7.347,0,0,1-3.174.656,5.863,5.863,0,0,1-4.635-1.917,7.917,7.917,0,0,1-1.692-5.414v-.738a9.037,9.037,0,0,1,.764-3.84,5.788,5.788,0,0,1,2.2-2.543,6.137,6.137,0,0,1,3.322-.9,6.435,6.435,0,0,1,4.368,1.43,5.652,5.652,0,0,1,1.876,3.943H46.1a2.674,2.674,0,0,0-.687-1.958,2.826,2.826,0,0,0-1.969-.595,2.15,2.15,0,0,0-1.969,1,6.458,6.458,0,0,0-.656,3.209v1.056a7.146,7.146,0,0,0,.6,3.415,2.2,2.2,0,0,0,2.066,1.025,2.764,2.764,0,0,0,1.9-.584,2.481,2.481,0,0,0,.7-1.856ZM57.811,18.8a3.563,3.563,0,0,1-2.963,1.4,3.494,3.494,0,0,1-2.763-1.061,4.463,4.463,0,0,1-.938-3.051V8.905H54.6v7.208a1.242,1.242,0,0,0,1.384,1.425,1.806,1.806,0,0,0,1.692-.851V8.905h3.476V20h-3.24ZM69.295,20a3.9,3.9,0,0,1-.328-.995,3.213,3.213,0,0,1-2.666,1.2,3.936,3.936,0,0,1-2.666-.948,3.019,3.019,0,0,1-1.1-2.384,3.1,3.1,0,0,1,1.333-2.728,6.791,6.791,0,0,1,3.876-.923h1.066v-.587q0-1.535-1.323-1.535a1.081,1.081,0,0,0-1.23,1.216H62.8A3.1,3.1,0,0,1,64.173,9.7a5.753,5.753,0,0,1,3.491-1,5.044,5.044,0,0,1,3.353,1.036,3.6,3.6,0,0,1,1.261,2.84v4.912a5.03,5.03,0,0,0,.472,2.338V20Zm-2.164-2.256a1.928,1.928,0,0,0,1.072-.277,1.735,1.735,0,0,0,.61-.625V15.068h-1q-1.8,0-1.8,1.62a.989.989,0,0,0,.318.764A1.15,1.15,0,0,0,67.131,17.744ZM67.993,4.25h3.65L68.792,7.47l-2.82-.005ZM77.836,20H74.371V4.25h3.466Zm12.725.205a5.7,5.7,0,0,1-4.132-1.523,5.258,5.258,0,0,1-1.579-3.963v-.287a6.814,6.814,0,0,1,.631-3,4.614,4.614,0,0,1,1.841-2.015A5.556,5.556,0,0,1,90.192,8.7a4.8,4.8,0,0,1,3.691,1.451A5.7,5.7,0,0,1,95.237,14.2V15.54h-6.87a2.491,2.491,0,0,0,.81,1.466,2.41,2.41,0,0,0,1.62.533,3.106,3.106,0,0,0,2.563-1.148l1.579,1.866a4.414,4.414,0,0,1-1.83,1.42A6.185,6.185,0,0,1,90.562,20.205Zm-.39-8.839q-1.518,0-1.8,2.01h3.486v-.267a1.712,1.712,0,0,0-.42-1.287A1.673,1.673,0,0,0,90.172,11.366Zm12.264,5.517a.8.8,0,0,0-.461-.708,7.019,7.019,0,0,0-1.753-.554,8,8,0,0,1-2.133-.754,3.573,3.573,0,0,1-1.282-1.133,2.706,2.706,0,0,1-.441-1.528A3.066,3.066,0,0,1,97.626,9.69a5.2,5.2,0,0,1,3.3-.99,5.756,5.756,0,0,1,3.527.995,3.11,3.11,0,0,1,1.333,2.615h-3.466q0-1.333-1.4-1.333a1.393,1.393,0,0,0-.913.3.937.937,0,0,0-.369.754.86.86,0,0,0,.451.749,4.263,4.263,0,0,0,1.441.472,12.45,12.45,0,0,1,1.738.441q2.5.861,2.5,3.086a2.906,2.906,0,0,1-1.348,2.471,5.913,5.913,0,0,1-3.491.954,6.034,6.034,0,0,1-2.543-.513A4.252,4.252,0,0,1,96.642,18.3a3.158,3.158,0,0,1-.625-1.856h3.23a1.335,1.335,0,0,0,.513,1.123,2.109,2.109,0,0,0,1.261.354,1.659,1.659,0,0,0,1.061-.287A.918.918,0,0,0,102.436,16.883Zm15.986,0a.8.8,0,0,0-.461-.708,7.019,7.019,0,0,0-1.753-.554,8,8,0,0,1-2.133-.754,3.573,3.573,0,0,1-1.282-1.133,2.706,2.706,0,0,1-.441-1.528,3.066,3.066,0,0,1,1.261-2.517,5.2,5.2,0,0,1,3.3-.99,5.756,5.756,0,0,1,3.527.995,3.11,3.11,0,0,1,1.333,2.615h-3.466q0-1.333-1.4-1.333a1.393,1.393,0,0,0-.913.3.937.937,0,0,0-.369.754.86.86,0,0,0,.451.749,4.263,4.263,0,0,0,1.441.472,12.45,12.45,0,0,1,1.738.441q2.5.861,2.5,3.086a2.906,2.906,0,0,1-1.348,2.471,5.913,5.913,0,0,1-3.491.954,6.034,6.034,0,0,1-2.543-.513,4.252,4.252,0,0,1-1.743-1.395A3.158,3.158,0,0,1,112,16.442h3.23a1.335,1.335,0,0,0,.513,1.123,2.109,2.109,0,0,0,1.261.354,1.659,1.659,0,0,0,1.061-.287A.918.918,0,0,0,118.421,16.883ZM129.978,18.8a3.563,3.563,0,0,1-2.963,1.4,3.494,3.494,0,0,1-2.763-1.061,4.463,4.463,0,0,1-.938-3.051V8.905h3.456v7.208a1.242,1.242,0,0,0,1.384,1.425,1.806,1.806,0,0,0,1.692-.851V8.905h3.476V20h-3.24ZM52.135,46H48.669V30.25h3.466Zm5.9,0H54.555V34.905h3.476ZM56.739,30.455h3.65l-2.851,3.22-2.82-.005Zm6.778,4.45.113,1.3A3.815,3.815,0,0,1,66.8,34.7a2.808,2.808,0,0,1,2.84,1.671A3.692,3.692,0,0,1,72.9,34.7q3.374,0,3.466,4.081V46H72.9V39a2.115,2.115,0,0,0-.287-1.241,1.222,1.222,0,0,0-1.046-.39,1.637,1.637,0,0,0-1.528.913l.01.144V46H66.583V39.017a2.223,2.223,0,0,0-.277-1.261,1.219,1.219,0,0,0-1.056-.39,1.657,1.657,0,0,0-1.518.913V46H60.277V34.905ZM81.984,46H78.518V34.905h3.466ZM78.313,32.034a1.556,1.556,0,0,1,.533-1.217,2.256,2.256,0,0,1,2.769,0,1.656,1.656,0,0,1,0,2.435,2.256,2.256,0,0,1-2.769,0A1.556,1.556,0,0,1,78.313,32.034Zm9.823.113v2.758h1.825v2.4H88.136V42.38a1.3,1.3,0,0,0,.226.872,1.21,1.21,0,0,0,.892.246,5.069,5.069,0,0,0,.861-.062v2.471a6.377,6.377,0,0,1-1.948.3,3.62,3.62,0,0,1-2.635-.841,3.446,3.446,0,0,1-.851-2.553V37.3H83.266v-2.4h1.415V32.147Zm8.552,14.058a5.7,5.7,0,0,1-4.132-1.523,5.258,5.258,0,0,1-1.579-3.963v-.287a6.814,6.814,0,0,1,.631-3,4.614,4.614,0,0,1,1.841-2.015,5.556,5.556,0,0,1,2.871-.713,4.8,4.8,0,0,1,3.691,1.451,5.7,5.7,0,0,1,1.354,4.045V41.54h-6.87a2.491,2.491,0,0,0,.81,1.466,2.41,2.41,0,0,0,1.62.533,3.106,3.106,0,0,0,2.563-1.148l1.579,1.866a4.414,4.414,0,0,1-1.83,1.42A6.185,6.185,0,0,1,96.688,46.205Zm-.39-8.839q-1.518,0-1.8,2.01H97.98v-.267a1.712,1.712,0,0,0-.42-1.287A1.673,1.673,0,0,0,96.3,37.366Zm9.013,3.907a6.674,6.674,0,0,1,.338-2.364,3.7,3.7,0,0,1,1.1-1.5,7.3,7.3,0,0,0,1.154-1.164,1.9,1.9,0,0,0,.395-1.164q0-1.548-1.333-1.548a1.237,1.237,0,0,0-.995.451,1.919,1.919,0,0,0-.4,1.22H102.1a4.134,4.134,0,0,1,1.292-3.194,5.151,5.151,0,0,1,3.568-1.143,5.351,5.351,0,0,1,3.543,1.056,3.707,3.707,0,0,1,1.256,3,3.5,3.5,0,0,1-.338,1.548,5.233,5.233,0,0,1-1.087,1.425L109.157,39a2.774,2.774,0,0,0-.7.99,3.921,3.921,0,0,0-.215,1.287Zm-.42,3.117a1.591,1.591,0,0,1,.549-1.246,2.167,2.167,0,0,1,2.738,0,1.689,1.689,0,0,1,0,2.492,2.167,2.167,0,0,1-2.738,0A1.591,1.591,0,0,1,104.891,44.39Z" transform="translate(1245 1437)" fill="#12263f"/>
    </g>
  </g>
</svg>
