<svg id="Grupo_1010968" data-name="Grupo 1010968" xmlns="http://www.w3.org/2000/svg" xmlns:xlink="http://www.w3.org/1999/xlink" width="247.602" height="130.637" viewBox="0 0 247.602 130.637">
  <defs>
    <clipPath id="clip-path">
      <rect id="Rectángulo_349368" data-name="Rectángulo 349368" width="247.602" height="130.637" fill="none"/>
    </clipPath>
  </defs>
  <rect id="Rectángulo_349366" data-name="Rectángulo 349366" width="7.143" height="6.319" transform="translate(178.986 37.926)" fill="#bfc9d8"/>
  <rect id="Rectángulo_349367" data-name="Rectángulo 349367" width="25.276" height="9.341" transform="translate(108.102 62.105)" fill="#bfc9d8"/>
  <g id="Grupo_1010965" data-name="Grupo 1010965">
    <g id="Grupo_1010964" data-name="Grupo 1010964" clip-path="url(#clip-path)">
      <path id="Trazado_720002" data-name="Trazado 720002" d="M173.742,26.477c-3.947-.582-3.843-1.989-7.833-1.989s-3.989,2-7.978,2-3.99-2-7.98-2-3.991,2-7.981,2-3.99-2-7.98-2-3.989,2-7.978,2-3.989-2-7.979-2-3.989,2-7.978,2-3.991-2-7.981-2-3.992,2-7.984,2-3.99-2-7.981-2-3.993,2-7.986,2-4.572-3.3-8.327-1.941c-1.377.5,1.293,2.436,1.245,3.9s-2.046,1.4-2.093,2.86,1.952,1.529,1.9,2.993-2.046,1.4-2.093,2.861,1.952,1.528,1.9,2.991-2.046,1.4-2.093,2.864,1.951,1.529,1.9,2.993-2.046,1.4-2.093,2.861,1.951,1.529,1.9,2.993-2.046,1.4-2.094,2.864,1.952,1.529,1.9,2.994-2.047,1.4-2.094,2.87-.034,1.458,1.308,2.051c3.226,1.424,3.1,1.983,6.627,2.051s3.564-1.932,7.089-1.864,3.487,2.068,7.013,2.136,3.564-1.932,7.09-1.864,3.485,2.068,7.009,2.136,3.564-1.932,7.089-1.864,3.487,2.067,7.012,2.135,3.564-1.931,7.089-1.863,3.488,2.067,7.014,2.135,3.563-1.931,7.087-1.863,3.489,2.067,7.016,2.135,3.569-1.931,7.1-1.863,3.505,2.115,7.035,2.136c.54,0,.461-2.042,1-2.086s.705,1.948,1.244,1.9.376-2.038.918-2.083.706,1.948,1.247,1.9.375-2.038.915-2.083.708,1.948,1.251,1.9.376-2.038.917-2.083.708,1.948,1.25,1.9.374-2.038.914-2.083.709,1.948,1.252,1.9.378-2.039.921-2.084.711,1.948,1.256,1.9-.129-1.167.166-1.628c.481-.749,1.894-.287,1.948-1.175s-1.943-1.009-1.889-1.9,2.05-.767,2.1-1.655-1.942-1.009-1.888-1.9,2.05-.765,2.1-1.65-1.942-1.01-1.888-1.9,2.05-.766,2.1-1.653-1.942-1.01-1.888-1.9,2.05-.768,2.1-1.658-1.943-1.009-1.889-1.9,2.051-.769,2.1-1.659-1.942-1.013-1.888-1.9,2.124-.849,2.106-1.742c-.012-.6-2.074-.439-2.158-1.037s1.9-.874,1.813-1.469-2.064-.32-2.148-.918,1.9-.875,1.813-1.472-2.065-.319-2.149-.916,1.9-.876,1.813-1.475-2.065-.32-2.149-.918,1.9-.876,1.813-1.475-2.065-.321-2.149-.921,1.9-.876,1.812-1.475-2.065-.321-2.149-.92,1.765-.649,1.818-1.253c.023-.266-.711-.212-1.311-.3" fill="#93d2ff"/>
      <path id="Trazado_720003" data-name="Trazado 720003" d="M173.742,26.477c-3.947-.582-3.843-1.989-7.833-1.989s-3.989,2-7.978,2-3.99-2-7.98-2-3.991,2-7.981,2-3.99-2-7.98-2-3.989,2-7.978,2-3.989-2-7.979-2-3.989,2-7.978,2-3.991-2-7.981-2-3.992,2-7.984,2-3.99-2-7.981-2-3.993,2-7.986,2-4.572-3.3-8.327-1.941c-1.377.5,1.293,2.436,1.245,3.9s-2.046,1.4-2.093,2.86,1.952,1.529,1.9,2.993-2.046,1.4-2.093,2.861,1.952,1.528,1.9,2.991-2.046,1.4-2.093,2.864,1.951,1.529,1.9,2.993-2.046,1.4-2.093,2.861,1.951,1.529,1.9,2.993-2.046,1.4-2.094,2.864,1.952,1.529,1.9,2.994-2.047,1.4-2.094,2.87-.034,1.458,1.308,2.051c3.226,1.424,3.1,1.983,6.627,2.051s3.564-1.932,7.089-1.864,3.487,2.068,7.013,2.136,3.564-1.932,7.09-1.864,3.485,2.068,7.009,2.136,3.564-1.932,7.089-1.864,3.487,2.067,7.012,2.135,3.564-1.931,7.089-1.863,3.488,2.067,7.014,2.135,3.563-1.931,7.087-1.863,3.489,2.067,7.016,2.135,3.569-1.931,7.1-1.863,3.505,2.115,7.035,2.136c.54,0,.461-2.042,1-2.086s.705,1.948,1.244,1.9.376-2.038.918-2.083.706,1.948,1.247,1.9.375-2.038.915-2.083.708,1.948,1.251,1.9.376-2.038.917-2.083.708,1.948,1.25,1.9.374-2.038.914-2.083.709,1.948,1.252,1.9.378-2.039.921-2.084.711,1.948,1.256,1.9-.129-1.167.166-1.628c.481-.749,1.894-.287,1.948-1.175s-1.943-1.009-1.889-1.9,2.05-.767,2.1-1.655-1.942-1.009-1.888-1.9,2.05-.765,2.1-1.65-1.942-1.01-1.888-1.9,2.05-.766,2.1-1.653-1.942-1.01-1.888-1.9,2.05-.768,2.1-1.658-1.943-1.009-1.889-1.9,2.051-.769,2.1-1.659-1.942-1.013-1.888-1.9,2.124-.849,2.106-1.742c-.012-.6-2.074-.439-2.158-1.037s1.9-.874,1.813-1.469-2.064-.32-2.148-.918,1.9-.875,1.813-1.472-2.065-.319-2.149-.916,1.9-.876,1.813-1.475-2.065-.32-2.149-.918,1.9-.876,1.813-1.475-2.065-.321-2.149-.921,1.9-.876,1.812-1.475-2.065-.321-2.149-.92,1.765-.649,1.818-1.253C175.076,26.512,174.342,26.566,173.742,26.477Z" fill="none" stroke="#3c3c3b" stroke-miterlimit="10" stroke-width="1"/>
      <path id="Trazado_720004" data-name="Trazado 720004" d="M42.037,20.326h30.41V59.084h98.981V20.326h36.82V122.885H42.037Z" fill="#c0c8da"/>
      <path id="Trazado_720005" data-name="Trazado 720005" d="M0,.011H44.273V117.668H204.224V.65H247.6V15.407H219.429v115.23H29.068V16H0Z" fill="#f7fafc"/>
      <line id="Línea_2953" data-name="Línea 2953" x2="8.05" transform="translate(78.82 30.128)" fill="none" stroke="#3c3c3b" stroke-miterlimit="10" stroke-width="0.75"/>
      <line id="Línea_2954" data-name="Línea 2954" x2="11.737" transform="translate(79.379 39.295)" fill="none" stroke="#3c3c3b" stroke-miterlimit="10" stroke-width="0.75"/>
      <line id="Línea_2955" data-name="Línea 2955" x2="13.081" transform="translate(86.087 34.152)" fill="none" stroke="#3c3c3b" stroke-miterlimit="10" stroke-width="0.75"/>
      <line id="Línea_2956" data-name="Línea 2956" x2="8.395" transform="translate(108.102 34.152)" fill="none" stroke="#3c3c3b" stroke-miterlimit="10" stroke-width="0.75"/>
      <line id="Línea_2957" data-name="Línea 2957" x2="19.906" transform="translate(105.237 37.926)" fill="none" stroke="#3c3c3b" stroke-miterlimit="10" stroke-width="0.75"/>
      <line id="Línea_2958" data-name="Línea 2958" x2="12.788" transform="translate(126.852 30.128)" fill="none" stroke="#3c3c3b" stroke-miterlimit="10" stroke-width="0.75"/>
      <line id="Línea_2959" data-name="Línea 2959" x2="12.298" transform="translate(149.255 29.457)" fill="none" stroke="#3c3c3b" stroke-miterlimit="10" stroke-width="0.75"/>
      <line id="Línea_2960" data-name="Línea 2960" x2="12.075" transform="translate(138.298 34.152)" fill="none" stroke="#3c3c3b" stroke-miterlimit="10" stroke-width="0.75"/>
      <line id="Línea_2961" data-name="Línea 2961" x2="8.375" transform="translate(133.246 37.926)" fill="none" stroke="#3c3c3b" stroke-miterlimit="10" stroke-width="0.75"/>
      <line id="Línea_2962" data-name="Línea 2962" x2="7.714" transform="translate(157.64 35.494)" fill="none" stroke="#3c3c3b" stroke-miterlimit="10" stroke-width="0.75"/>
      <path id="Trazado_720006" data-name="Trazado 720006" d="M0,.5H44.273V20.326H72.447s-.559,38.758,0,38.758h98.982V20.326h32.795V.649H247.6" fill="none" stroke="#3c3c3b" stroke-miterlimit="10" stroke-width="1"/>
      <line id="Línea_2963" data-name="Línea 2963" y2="12.969" transform="translate(72.224 60.687)" fill="none" stroke="#1836ab" stroke-miterlimit="10" stroke-width="0.75"/>
      <line id="Línea_2964" data-name="Línea 2964" y2="12.969" transform="translate(171.807 60.687)" fill="none" stroke="#1836ab" stroke-miterlimit="10" stroke-width="0.75"/>
      <line id="Línea_2965" data-name="Línea 2965" x1="37.93" transform="translate(75.896 67.184)" fill="none" stroke="#1836ab" stroke-miterlimit="10" stroke-width="0.75"/>
      <path id="Trazado_720007" data-name="Trazado 720007" d="M76.279,65.875l-2.267,1.309,2.267,1.309Z" fill="#1836ab"/>
      <line id="Línea_2966" data-name="Línea 2966" x2="38.93" transform="translate(130.993 67.184)" fill="none" stroke="#1836ab" stroke-miterlimit="10" stroke-width="0.75"/>
      <path id="Trazado_720008" data-name="Trazado 720008" d="M169.54,68.493l2.267-1.309-2.267-1.309Z" fill="#1836ab"/>
      <line id="Línea_2967" data-name="Línea 2967" x2="12.969" transform="translate(176.073 25.679)" fill="none" stroke="#1836ab" stroke-miterlimit="10" stroke-width="0.75"/>
      <line id="Línea_2968" data-name="Línea 2968" y1="7.93" transform="translate(182.571 27.563)" fill="none" stroke="#1836ab" stroke-miterlimit="10" stroke-width="0.75"/>
      <path id="Trazado_720009" data-name="Trazado 720009" d="M183.88,27.946l-1.309-2.267-1.309,2.267Z" fill="#1836ab"/>
      <line id="Línea_2969" data-name="Línea 2969" x2="12.969" transform="translate(176.073 58.673)" fill="none" stroke="#1836ab" stroke-miterlimit="10" stroke-width="0.75"/>
      <line id="Línea_2970" data-name="Línea 2970" y2="7.93" transform="translate(182.571 48.859)" fill="none" stroke="#1836ab" stroke-miterlimit="10" stroke-width="0.75"/>
      <path id="Trazado_720010" data-name="Trazado 720010" d="M181.262,56.406l1.309,2.267,1.309-2.267Z" fill="#1836ab"/>
    </g>
  </g>
  <path id="Trazado_726145" data-name="Trazado 726145" d="M4.5-.806V0H.8V-6.462h.959V-.806Z" transform="translate(119.237 69.84)" fill="#3c3c3b"/>
  <path id="Trazado_726144" data-name="Trazado 726144" d="M6.089-6.462V0H5.13V-2.911H1.76V0H.8V-6.462H1.76v2.853H5.13V-6.462Z" transform="translate(178.845 44.388)" fill="#3c3c3b"/>
  <g id="Grupo_1010967" data-name="Grupo 1010967">
    <g id="Grupo_1010966" data-name="Grupo 1010966" clip-path="url(#clip-path)">
      <path id="Trazado_720011" data-name="Trazado 720011" d="M44.273,20.326v97.342h159.95V20.326" fill="none" stroke="#3c3c3b" stroke-miterlimit="10" stroke-width="1"/>
    </g>
  </g>
</svg>
