<svg xmlns="http://www.w3.org/2000/svg" width="315" height="91" viewBox="0 0 315 91">
  <g id="Grupo_1009322" data-name="Grupo 1009322" transform="translate(-390 -10012)">
    <path id="Trazado_718247" data-name="Trazado 718247" d="M7.875,0h299.25C311.474,0,315,4.477,315,10V81c0,5.523-3.526,10-7.875,10H7.875C3.526,91,0,86.523,0,81V10C0,4.477,3.526,0,7.875,0Z" transform="translate(390 10012)" fill="#fff"/>
    <g id="Grupo_1009320" data-name="Grupo 1009320" transform="translate(-7)">
      <path id="Trazado_726142" data-name="Trazado 726142" d="M33.307,9.938q.557-1.045.762-1.5a4.21,4.21,0,0,0,.273-.752,2.515,2.515,0,0,0,.068-.562q0-.7-.83-.811l.146-.645h4.16l-.146.645a1.52,1.52,0,0,0-.518.2,1.942,1.942,0,0,0-.425.371,3.824,3.824,0,0,0-.391.547q-.19.317-.425.737l-6.064,10.9H27.467l-.42-10.439a9.3,9.3,0,0,0-.068-.942,3.623,3.623,0,0,0-.127-.591,1.6,1.6,0,0,0-.19-.41.746.746,0,0,0-.288-.254,1.242,1.242,0,0,0-.391-.117l.146-.645h5.049l-.146.645a1.208,1.208,0,0,0-.669.215,1.011,1.011,0,0,0-.342.5,3.208,3.208,0,0,0-.1.938v.42q0,.215.01.459l.088,4.795q.02,1.348.02,2.217h.117Zm10.381,7.031a6.66,6.66,0,0,1-2.124,1.65,5.7,5.7,0,0,1-2.466.537,4.309,4.309,0,0,1-1.943-.4,2.66,2.66,0,0,1-1.206-1.187,4.056,4.056,0,0,1-.405-1.88,7.932,7.932,0,0,1,.137-1.3,7.868,7.868,0,0,1,.566-1.914A5.833,5.833,0,0,1,37.5,10.7a5.358,5.358,0,0,1,1.812-1.143,6.3,6.3,0,0,1,2.28-.4,3.877,3.877,0,0,1,2.227.532,1.849,1.849,0,0,1,.762,1.626,2.771,2.771,0,0,1-.3,1.309,2.864,2.864,0,0,1-.991,1.025,5.947,5.947,0,0,1-1.958.742,15.754,15.754,0,0,1-3.052.322A5.521,5.521,0,0,0,38.15,15.9a3.36,3.36,0,0,0,.068.688,1.574,1.574,0,0,0,.244.581,1.264,1.264,0,0,0,.469.405,1.635,1.635,0,0,0,.752.151,3.424,3.424,0,0,0,1.553-.347,7.27,7.27,0,0,0,1.631-1.235Zm-5.176-3.281A5.186,5.186,0,0,0,41.261,13a2.057,2.057,0,0,0,.952-1.812,1.107,1.107,0,0,0-.229-.757.81.81,0,0,0-.64-.259,2.091,2.091,0,0,0-1.636.9A7.169,7.169,0,0,0,38.512,13.688ZM49.9,5.016H51l-2.52,11.377q-.1.449-.132.693a3.094,3.094,0,0,0-.034.42.752.752,0,0,0,.22.605,1.438,1.438,0,0,0,.757.244L49.186,19H45.123L47.594,7.965a7.21,7.21,0,0,0,.215-1.4,1.029,1.029,0,0,0-.044-.337.479.479,0,0,0-.132-.2.613.613,0,0,0-.234-.122,4.589,4.589,0,0,0-.576-.1l.156-.635Zm5.039,14.141a4.373,4.373,0,0,1-1.89-.386A2.892,2.892,0,0,1,51.769,17.6,3.716,3.716,0,0,1,51.3,15.68a8.521,8.521,0,0,1,.332-2.314,6.782,6.782,0,0,1,.566-1.426,5.412,5.412,0,0,1,.859-1.216,4.9,4.9,0,0,1,1.06-.85,4.844,4.844,0,0,1,1.245-.513,6.746,6.746,0,0,1,1.68-.205,4.222,4.222,0,0,1,2.031.444,2.819,2.819,0,0,1,1.216,1.235,4.055,4.055,0,0,1,.4,1.836,8.2,8.2,0,0,1-.43,2.588,6.349,6.349,0,0,1-1.187,2.178,4.644,4.644,0,0,1-1.792,1.3A6.189,6.189,0,0,1,54.938,19.156Zm-1.006-2.842a2.532,2.532,0,0,0,.3,1.372,1.045,1.045,0,0,0,.942.454,1.621,1.621,0,0,0,.688-.151,1.978,1.978,0,0,0,.645-.518,3.8,3.8,0,0,0,.571-.928,9.765,9.765,0,0,0,.483-1.387,14.771,14.771,0,0,0,.356-1.616,9.34,9.34,0,0,0,.127-1.475,2.7,2.7,0,0,0-.3-1.436,1.022,1.022,0,0,0-.923-.459,1.749,1.749,0,0,0-1.421.8,7.2,7.2,0,0,0-1.035,2.461A11.671,11.671,0,0,0,53.932,16.314Zm14.844.1.791.85a6.613,6.613,0,0,1-2.051,1.46,5.723,5.723,0,0,1-2.256.435,3.269,3.269,0,0,1-1.719-.43A2.66,2.66,0,0,1,62.472,17.5a4.542,4.542,0,0,1-.356-1.87,7.1,7.1,0,0,1,.205-1.689A8.993,8.993,0,0,1,62.7,12.73a6.375,6.375,0,0,1,.732-1.377A5.206,5.206,0,0,1,66.2,9.415a6.593,6.593,0,0,1,1.88-.259,10.658,10.658,0,0,1,1.416.1,8.042,8.042,0,0,1,1.348.288L70.3,11.93H68.541q.02-.205.02-.42a1.867,1.867,0,0,0-.215-1.021.717.717,0,0,0-.635-.317,1.8,1.8,0,0,0-1.377.83,6.913,6.913,0,0,0-1.094,2.3,9.228,9.228,0,0,0-.439,2.588q0,1.836,1.338,1.836a2.793,2.793,0,0,0,1.274-.3A6.163,6.163,0,0,0,68.775,16.412Zm7.861-11-.508,2.393H73.6l.537-2.393ZM74.381,16.393q-.107.488-.137.723a3.251,3.251,0,0,0-.029.391.752.752,0,0,0,.22.605,1.438,1.438,0,0,0,.757.244L75.084,19H71.021l1.523-6.816q.127-.586.176-.913a3.843,3.843,0,0,0,.049-.552.7.7,0,0,0-.181-.542,1.443,1.443,0,0,0-.757-.22l.146-.645,2.861-.107h1.113Zm10.5-8.428q.059-.244.137-.7a4.516,4.516,0,0,0,.078-.693,1.029,1.029,0,0,0-.044-.337.479.479,0,0,0-.132-.2.613.613,0,0,0-.234-.122,4.589,4.589,0,0,0-.576-.1l.156-.635,2.92-.156h1.1l-2.461,11.1q-.107.479-.166.806a3.22,3.22,0,0,0-.059.552.821.821,0,0,0,.215.635,1.322,1.322,0,0,0,.762.244L86.471,19h-3.75l.527-2-.127-.039a8.454,8.454,0,0,1-1.235,1.333,3.744,3.744,0,0,1-1.123.669,3.812,3.812,0,0,1-1.274.2,2.225,2.225,0,0,1-1.2-.322,2.17,2.17,0,0,1-.82-1.021,4.48,4.48,0,0,1-.3-1.772,9.252,9.252,0,0,1,.239-2.07,8.3,8.3,0,0,1,.7-1.948,5.37,5.37,0,0,1,1.177-1.548A4.987,4.987,0,0,1,80.9,9.493a5.588,5.588,0,0,1,1.968-.337,4.762,4.762,0,0,1,1.68.3Zm-1,4.961q.059-.293.107-.679a6.023,6.023,0,0,0,.049-.757,1.657,1.657,0,0,0-.244-.986.928.928,0,0,0-.8-.332,2.018,2.018,0,0,0-1.611.913,7.156,7.156,0,0,0-1.133,2.456,10.426,10.426,0,0,0-.43,2.764,2.124,2.124,0,0,0,.21,1.064.7.7,0,0,0,.649.352,1.955,1.955,0,0,0,1.313-.63,4.994,4.994,0,0,0,1.079-1.479,10.815,10.815,0,0,0,.732-2.324ZM96.754,9.859l.879-.7,1.094.156-1.5,6.807q-.117.518-.171.83a3.2,3.2,0,0,0-.054.527.821.821,0,0,0,.215.635,1.322,1.322,0,0,0,.762.244L97.867,19h-3.75l.527-2-.127-.039a8.454,8.454,0,0,1-1.235,1.333,3.744,3.744,0,0,1-1.123.669,3.812,3.812,0,0,1-1.274.2,2.225,2.225,0,0,1-1.2-.322,2.17,2.17,0,0,1-.82-1.021,4.48,4.48,0,0,1-.3-1.772,9.252,9.252,0,0,1,.239-2.07,8.168,8.168,0,0,1,.708-1.948,5.443,5.443,0,0,1,1.182-1.548,4.987,4.987,0,0,1,1.616-.981,5.588,5.588,0,0,1,1.968-.337A4.279,4.279,0,0,1,96.754,9.859Zm-1.475,3.066a6.987,6.987,0,0,0,.112-.7,6.6,6.6,0,0,0,.044-.747,1.637,1.637,0,0,0-.244-.977.928.928,0,0,0-.8-.332,2.018,2.018,0,0,0-1.611.913,7.156,7.156,0,0,0-1.133,2.456,10.426,10.426,0,0,0-.43,2.764,2.124,2.124,0,0,0,.21,1.064.7.7,0,0,0,.649.352,1.955,1.955,0,0,0,1.313-.63,4.994,4.994,0,0,0,1.079-1.479,10.815,10.815,0,0,0,.732-2.324Zm12.393-4.961q.059-.244.137-.7a4.516,4.516,0,0,0,.078-.693,1.029,1.029,0,0,0-.044-.337.479.479,0,0,0-.132-.2.613.613,0,0,0-.234-.122,4.589,4.589,0,0,0-.576-.1l.156-.635,2.92-.156h1.1l-2.461,11.1q-.107.479-.166.806a3.22,3.22,0,0,0-.059.552.821.821,0,0,0,.215.635,1.322,1.322,0,0,0,.762.244l-.107.645h-3.75l.527-2-.127-.039a8.454,8.454,0,0,1-1.235,1.333,3.744,3.744,0,0,1-1.123.669,3.812,3.812,0,0,1-1.274.2,2.225,2.225,0,0,1-1.2-.322,2.17,2.17,0,0,1-.82-1.021,4.48,4.48,0,0,1-.3-1.772,9.252,9.252,0,0,1,.239-2.07,8.3,8.3,0,0,1,.7-1.948,5.37,5.37,0,0,1,1.177-1.548,4.987,4.987,0,0,1,1.616-.981,5.588,5.588,0,0,1,1.968-.337,4.762,4.762,0,0,1,1.68.3Zm-1,4.961q.059-.293.107-.679a6.023,6.023,0,0,0,.049-.757,1.657,1.657,0,0,0-.244-.986.928.928,0,0,0-.8-.332,2.018,2.018,0,0,0-1.611.913,7.156,7.156,0,0,0-1.133,2.456,10.426,10.426,0,0,0-.43,2.764,2.124,2.124,0,0,0,.21,1.064.7.7,0,0,0,.649.352,1.955,1.955,0,0,0,1.313-.63,4.994,4.994,0,0,0,1.079-1.479,10.815,10.815,0,0,0,.732-2.324Zm10.254-.85.42-1.914h8.691l-.42,1.914Zm-.967,4.326.42-1.914h8.691l-.42,1.914Z" transform="translate(424 10046)" fill="#12263f"/>
      <path id="Trazado_726141" data-name="Trazado 726141" d="M20.711,19l.137-.645a1.525,1.525,0,0,0,.63-.322,1.647,1.647,0,0,0,.376-.581,6.775,6.775,0,0,0,.313-1.089l1.777-8.057a5.3,5.3,0,0,0,.127-1.143.821.821,0,0,0-.19-.6,1.065,1.065,0,0,0-.62-.249L23.4,5.67h3.955a16.5,16.5,0,0,1,2.275.127,6.19,6.19,0,0,1,1.543.41,7.261,7.261,0,0,1,.928.518A3.438,3.438,0,0,1,33,7.6a4.1,4.1,0,0,1,.62,1.328,6.4,6.4,0,0,1,.215,1.719,10.393,10.393,0,0,1-.293,2.49,8.647,8.647,0,0,1-.864,2.2,7,7,0,0,1-1.367,1.738,7.231,7.231,0,0,1-1.6,1.133,6.771,6.771,0,0,1-1.807.6,12.979,12.979,0,0,1-2.383.19Zm4.043-1.191q.449.039.723.039a4.473,4.473,0,0,0,2.173-.5,4.786,4.786,0,0,0,1.621-1.519,8.128,8.128,0,0,0,1.113-2.49,11.067,11.067,0,0,0,.405-2.954A5.472,5.472,0,0,0,30.564,8.7a2.906,2.906,0,0,0-.62-1.1,2.264,2.264,0,0,0-.918-.6,3.368,3.368,0,0,0-1.108-.181q-.488,0-.752.02Zm15.7-12.393-.508,2.393H37.42l.537-2.393ZM38.2,16.393q-.107.488-.137.723a3.251,3.251,0,0,0-.029.391.752.752,0,0,0,.22.605,1.438,1.438,0,0,0,.757.244L38.9,19H34.842l1.523-6.816q.127-.586.176-.913a3.844,3.844,0,0,0,.049-.552.7.7,0,0,0-.181-.542,1.443,1.443,0,0,0-.757-.22l.146-.645,2.861-.107h1.113Zm3.818-.127a2.682,2.682,0,0,0,.288,1.128,1.328,1.328,0,0,0,.591.586,1.952,1.952,0,0,0,.82.161,1.726,1.726,0,0,0,1.191-.376,1.349,1.349,0,0,0,.42-1.06,1.586,1.586,0,0,0-.137-.693,1.749,1.749,0,0,0-.449-.552,8.351,8.351,0,0,0-1.016-.7,4.61,4.61,0,0,1-1.421-1.216,2.391,2.391,0,0,1-.444-1.411,2.553,2.553,0,0,1,1.074-2.207,5.087,5.087,0,0,1,3.008-.771,12.52,12.52,0,0,1,3.193.449l-.508,2.334h-1.24a2.355,2.355,0,0,0-.464-1.338,1.357,1.357,0,0,0-1.079-.43,1.564,1.564,0,0,0-1.05.337,1.137,1.137,0,0,0-.4.913,1.289,1.289,0,0,0,.151.635,1.972,1.972,0,0,0,.483.547,8.384,8.384,0,0,0,.986.664,4.645,4.645,0,0,1,1.484,1.27,2.642,2.642,0,0,1,.449,1.533,2.734,2.734,0,0,1-.532,1.7,3.14,3.14,0,0,1-1.455,1.045,6.033,6.033,0,0,1-2.1.342,13.92,13.92,0,0,1-1.943-.127,13.83,13.83,0,0,1-1.689-.342l.547-2.422Zm14.248.957a9,9,0,0,1-1.24,1.152,3.984,3.984,0,0,1-1.143.591,4.526,4.526,0,0,1-1.377.19,2.7,2.7,0,0,1-1.313-.288,1.747,1.747,0,0,1-.757-.771,2.464,2.464,0,0,1-.234-1.089,5.375,5.375,0,0,1,.068-.874q.068-.415.283-1.362l1.006-4.238H50.242l.137-.645a2.678,2.678,0,0,0,.947-.2,1.565,1.565,0,0,0,.581-.474,3.584,3.584,0,0,0,.454-.859q.215-.547.479-1.484h2.344l-.566,2.441H56.99l-.264,1.221H54.334L53.25,15q-.068.293-.127.576t-.1.542q-.039.259-.054.43t-.015.308a1.08,1.08,0,0,0,.166.669.585.585,0,0,0,.488.21,1.619,1.619,0,0,0,.9-.312,4.938,4.938,0,0,0,1-.967Zm8.9-7.363.879-.7,1.094.156-1.5,6.807q-.117.518-.171.83a3.2,3.2,0,0,0-.054.527.821.821,0,0,0,.215.635,1.322,1.322,0,0,0,.762.244L66.277,19h-3.75l.527-2-.127-.039a8.454,8.454,0,0,1-1.235,1.333,3.744,3.744,0,0,1-1.123.669,3.813,3.813,0,0,1-1.274.2,2.225,2.225,0,0,1-1.2-.322,2.17,2.17,0,0,1-.82-1.021,4.48,4.48,0,0,1-.3-1.772,9.253,9.253,0,0,1,.239-2.07,8.168,8.168,0,0,1,.708-1.948A5.443,5.443,0,0,1,59.1,10.475a4.987,4.987,0,0,1,1.616-.981,5.588,5.588,0,0,1,1.968-.337A4.279,4.279,0,0,1,65.164,9.859Zm-1.475,3.066a6.986,6.986,0,0,0,.112-.7,6.6,6.6,0,0,0,.044-.747A1.637,1.637,0,0,0,63.6,10.5a.928.928,0,0,0-.8-.332,2.018,2.018,0,0,0-1.611.913,7.156,7.156,0,0,0-1.133,2.456,10.426,10.426,0,0,0-.43,2.764,2.124,2.124,0,0,0,.21,1.064.7.7,0,0,0,.649.352,1.955,1.955,0,0,0,1.313-.63,4.994,4.994,0,0,0,1.079-1.479,10.815,10.815,0,0,0,.732-2.324ZM78.006,19H73.953l1.221-5.312q.264-1.133.322-1.562a5.306,5.306,0,0,0,.059-.674.981.981,0,0,0-.186-.654.671.671,0,0,0-.537-.215,1.3,1.3,0,0,0-.684.234,4.357,4.357,0,0,0-.83.732,4.457,4.457,0,0,0-.732,1.055,5.707,5.707,0,0,0-.439,1.387L71.072,19h-2.8L69.8,12.105q.049-.234.132-.669a4,4,0,0,0,.083-.728.623.623,0,0,0-.229-.562,1.564,1.564,0,0,0-.718-.19l.146-.645L71.9,9.205h1.025l-.557,2.109.117.039a9.2,9.2,0,0,1,1.25-1.3,4,4,0,0,1,1.147-.684,3.642,3.642,0,0,1,1.265-.21,2.17,2.17,0,0,1,1.582.562,2.061,2.061,0,0,1,.576,1.548,7.134,7.134,0,0,1-.2,1.514l-.8,3.613q-.1.449-.132.693a3.093,3.093,0,0,0-.034.42.747.747,0,0,0,.22.615,1.508,1.508,0,0,0,.757.234Zm8.77-2.588.791.85a6.613,6.613,0,0,1-2.051,1.46,5.723,5.723,0,0,1-2.256.435,3.269,3.269,0,0,1-1.719-.43A2.66,2.66,0,0,1,80.472,17.5a4.542,4.542,0,0,1-.356-1.87,7.1,7.1,0,0,1,.205-1.689A8.993,8.993,0,0,1,80.7,12.73a6.376,6.376,0,0,1,.732-1.377A5.206,5.206,0,0,1,84.2,9.415a6.593,6.593,0,0,1,1.88-.259,10.658,10.658,0,0,1,1.416.1,8.042,8.042,0,0,1,1.348.288L88.3,11.93H86.541q.02-.205.02-.42a1.867,1.867,0,0,0-.215-1.021.717.717,0,0,0-.635-.317,1.8,1.8,0,0,0-1.377.83,6.913,6.913,0,0,0-1.094,2.3,9.228,9.228,0,0,0-.439,2.588q0,1.836,1.338,1.836a2.793,2.793,0,0,0,1.274-.3A6.163,6.163,0,0,0,86.775,16.412Zm7.861-11-.508,2.393H91.6l.537-2.393ZM92.381,16.393q-.107.488-.137.723a3.251,3.251,0,0,0-.029.391.752.752,0,0,0,.22.605,1.438,1.438,0,0,0,.757.244L93.084,19H89.021l1.523-6.816q.127-.586.176-.913a3.843,3.843,0,0,0,.049-.552.7.7,0,0,0-.181-.542,1.443,1.443,0,0,0-.757-.22l.146-.645,2.861-.107h1.113Zm10.977-6.533.879-.7,1.094.156-1.5,6.807q-.117.518-.171.83a3.2,3.2,0,0,0-.054.527.821.821,0,0,0,.215.635,1.322,1.322,0,0,0,.762.244l-.107.645h-3.75l.527-2-.127-.039a8.454,8.454,0,0,1-1.235,1.333,3.744,3.744,0,0,1-1.123.669,3.812,3.812,0,0,1-1.274.2,2.225,2.225,0,0,1-1.2-.322,2.17,2.17,0,0,1-.82-1.021,4.48,4.48,0,0,1-.3-1.772,9.252,9.252,0,0,1,.239-2.07,8.168,8.168,0,0,1,.708-1.948,5.443,5.443,0,0,1,1.182-1.548,4.987,4.987,0,0,1,1.616-.981,5.588,5.588,0,0,1,1.968-.337A4.279,4.279,0,0,1,103.357,9.859Zm-1.475,3.066a6.987,6.987,0,0,0,.112-.7,6.6,6.6,0,0,0,.044-.747,1.637,1.637,0,0,0-.244-.977.928.928,0,0,0-.8-.332,2.018,2.018,0,0,0-1.611.913,7.156,7.156,0,0,0-1.133,2.456,10.426,10.426,0,0,0-.43,2.764,2.124,2.124,0,0,0,.21,1.064.7.7,0,0,0,.649.352,1.955,1.955,0,0,0,1.313-.63,4.994,4.994,0,0,0,1.079-1.479,10.815,10.815,0,0,0,.732-2.324ZM42.752,35.67l-.771,3.535H40.73a6.911,6.911,0,0,0-.127-1.519,1.261,1.261,0,0,0-.376-.654,1.091,1.091,0,0,0-.728-.22h-.869l-2.1,9.551q-.059.264-.078.405t-.034.313q-.015.171-.015.425a.773.773,0,0,0,.229.635,1.26,1.26,0,0,0,.718.215L37.215,49H32.029l.137-.645a1.419,1.419,0,0,0,.684-.254,1.459,1.459,0,0,0,.425-.581,6.734,6.734,0,0,0,.347-1.157l2.1-9.551h-.781a2.316,2.316,0,0,0-.62.068,1.392,1.392,0,0,0-.415.19,2.454,2.454,0,0,0-.381.342,4.653,4.653,0,0,0-.454.6,7.552,7.552,0,0,0-.532.991H31.258l.732-3.33Zm4.971-.254-.508,2.393H44.686l.537-2.393ZM45.467,46.393q-.107.488-.137.723a3.251,3.251,0,0,0-.029.391.752.752,0,0,0,.22.605,1.438,1.438,0,0,0,.757.244L46.17,49H42.107l1.523-6.816q.127-.586.176-.913a3.844,3.844,0,0,0,.049-.552.7.7,0,0,0-.181-.542,1.443,1.443,0,0,0-.757-.22l.146-.645,2.861-.107h1.113Zm10.957.576a6.66,6.66,0,0,1-2.124,1.65,5.7,5.7,0,0,1-2.466.537,4.309,4.309,0,0,1-1.943-.4,2.66,2.66,0,0,1-1.206-1.187,4.056,4.056,0,0,1-.405-1.88,9.045,9.045,0,0,1,.7-3.213,5.833,5.833,0,0,1,1.25-1.777,5.358,5.358,0,0,1,1.812-1.143,6.3,6.3,0,0,1,2.28-.4,3.877,3.877,0,0,1,2.227.532,1.849,1.849,0,0,1,.762,1.626,2.771,2.771,0,0,1-.3,1.309,2.864,2.864,0,0,1-.991,1.025,5.947,5.947,0,0,1-1.958.742,15.754,15.754,0,0,1-3.052.322,5.521,5.521,0,0,0-.127,1.191,3.359,3.359,0,0,0,.068.688,1.574,1.574,0,0,0,.244.581,1.264,1.264,0,0,0,.469.405,1.635,1.635,0,0,0,.752.151,3.424,3.424,0,0,0,1.553-.347A7.27,7.27,0,0,0,55.6,46.148Zm-5.176-3.281A5.186,5.186,0,0,0,54,43a2.057,2.057,0,0,0,.952-1.812,1.107,1.107,0,0,0-.229-.757.81.81,0,0,0-.64-.259,2.091,2.091,0,0,0-1.636.9A7.169,7.169,0,0,0,51.248,43.688Zm16.875-2.51a6.119,6.119,0,0,1,1.66-1.538,3.638,3.638,0,0,1,1.865-.483,2.119,2.119,0,0,1,1.567.562,2.092,2.092,0,0,1,.562,1.548,7.134,7.134,0,0,1-.2,1.514l-.8,3.613q-.1.449-.132.693a3.093,3.093,0,0,0-.034.42.747.747,0,0,0,.22.615,1.508,1.508,0,0,0,.757.234L73.475,49H69.422l1.348-5.869q.107-.459.161-.752t.078-.508a3.487,3.487,0,0,0,.024-.391,1.064,1.064,0,0,0-.181-.669.648.648,0,0,0-.542-.229,1.279,1.279,0,0,0-.674.249,4.476,4.476,0,0,0-.825.737,4.539,4.539,0,0,0-.718,1.04,5.618,5.618,0,0,0-.439,1.382L66.58,49H63.768l1.406-6.123q.1-.391.137-.625t.054-.4q.015-.166.015-.3a1.222,1.222,0,0,0-.176-.737.657.657,0,0,0-.557-.229,1.787,1.787,0,0,0-1.1.6A4.635,4.635,0,0,0,62,43.99L60.926,49h-2.8l1.533-6.895q.049-.234.132-.669a4,4,0,0,0,.083-.728.623.623,0,0,0-.229-.562,1.564,1.564,0,0,0-.718-.19l.146-.645,2.686-.107h1.025l-.557,2.109.117.039A9.542,9.542,0,0,1,63.6,40.04a3.864,3.864,0,0,1,1.138-.679,3.679,3.679,0,0,1,1.26-.205,2.133,2.133,0,0,1,1.538.537A2.05,2.05,0,0,1,68.123,41.178Zm8.838,1.016a8.071,8.071,0,0,0,.234-1.465.675.675,0,0,0-.205-.562,1.473,1.473,0,0,0-.742-.21l.146-.645,2.646-.107h1.064l-.557,2.109.117.039A8.792,8.792,0,0,1,80.9,40.03a3.4,3.4,0,0,1,2.4-.874,2.225,2.225,0,0,1,1.2.322,2.17,2.17,0,0,1,.82,1.021,4.48,4.48,0,0,1,.3,1.772,9.252,9.252,0,0,1-.239,2.07,8.3,8.3,0,0,1-.7,1.948A5.37,5.37,0,0,1,83.5,47.838a4.987,4.987,0,0,1-1.616.981,5.588,5.588,0,0,1-1.968.337,4.762,4.762,0,0,1-1.68-.3L77.8,50.914q-.029.156-.054.3t-.034.264q-.01.122-.01.229a.752.752,0,0,0,.22.605,1.438,1.438,0,0,0,.757.244l-.107.645H74.51Zm1.953,3.193a6.689,6.689,0,0,0-.156,1.416A1.71,1.71,0,0,0,79,47.828a.953.953,0,0,0,.806.313,1.864,1.864,0,0,0,.669-.117,1.951,1.951,0,0,0,.605-.386,3.307,3.307,0,0,0,.6-.786,8.245,8.245,0,0,0,.669-1.465,11.429,11.429,0,0,0,.454-1.724,9.215,9.215,0,0,0,.166-1.655,2.12,2.12,0,0,0-.21-1.069.706.706,0,0,0-.649-.347,1.955,1.955,0,0,0-1.313.63,4.931,4.931,0,0,0-1.069,1.46,11.05,11.05,0,0,0-.732,2.344Zm11.719,3.77a4.373,4.373,0,0,1-1.89-.386A2.892,2.892,0,0,1,87.464,47.6,3.716,3.716,0,0,1,87,45.68a8.521,8.521,0,0,1,.332-2.314,6.782,6.782,0,0,1,.566-1.426,5.412,5.412,0,0,1,.859-1.216,4.9,4.9,0,0,1,1.06-.85,4.844,4.844,0,0,1,1.245-.513,6.746,6.746,0,0,1,1.68-.205,4.222,4.222,0,0,1,2.031.444,2.819,2.819,0,0,1,1.216,1.235,4.055,4.055,0,0,1,.4,1.836,8.2,8.2,0,0,1-.43,2.588,6.349,6.349,0,0,1-1.187,2.178,4.644,4.644,0,0,1-1.792,1.3A6.189,6.189,0,0,1,90.633,49.156Zm-1.006-2.842a2.532,2.532,0,0,0,.3,1.372,1.045,1.045,0,0,0,.942.454,1.621,1.621,0,0,0,.688-.151,1.978,1.978,0,0,0,.645-.518,3.8,3.8,0,0,0,.571-.928,9.764,9.764,0,0,0,.483-1.387,14.77,14.77,0,0,0,.356-1.616,9.34,9.34,0,0,0,.127-1.475,2.7,2.7,0,0,0-.3-1.436,1.022,1.022,0,0,0-.923-.459,1.749,1.749,0,0,0-1.421.8,7.2,7.2,0,0,0-1.035,2.461A11.671,11.671,0,0,0,89.627,46.314Z" transform="translate(558.5 10031)" fill="#12263f"/>
      <path id="Trazado_726143" data-name="Trazado 726143" d="M0,0H126" transform="translate(558.5 10059.5)" fill="none" stroke="#12263f" stroke-linecap="round" stroke-width="1.5"/>
    </g>
  </g>
</svg>
