<svg xmlns="http://www.w3.org/2000/svg" xmlns:xlink="http://www.w3.org/1999/xlink" width="295" height="188" viewBox="0 0 295 188">
  <defs>
    <clipPath id="clip-path">
      <rect id="Rectángulo_33841" data-name="Rectángulo 33841" width="177.367" height="147.917" fill="none"/>
    </clipPath>
  </defs>
  <g id="Grupo_1011148" data-name="Grupo 1011148" transform="translate(0)">
    <rect id="Rectángulo_349391" data-name="Rectángulo 349391" width="295" height="188" transform="translate(0)" fill="none"/>
    <g id="Grupo_1011093" data-name="Grupo 1011093" transform="translate(0 0)">
      <path id="Trazado_113636" data-name="Trazado 113636" d="M146.109,222.073a73.054,73.054,0,1,1-73.054-73.055,73.054,73.054,0,0,1,73.054,73.055" transform="translate(0 -149.018)" fill="#0078bb"/>
      <path id="Trazado_113637" data-name="Trazado 113637" d="M1094.11,491.416a52.936,52.936,0,1,1-52.936-52.936,52.936,52.936,0,0,1,52.936,52.936" transform="translate(-904.167 -398.243)" fill="#008b8a"/>
      <path id="Trazado_113638" data-name="Trazado 113638" d="M1148.323,556.067a42.5,42.5,0,1,1-42.5-42.5,42.5,42.5,0,0,1,42.5,42.5" transform="translate(-968.818 -462.894)" fill="#fff"/>
      <path id="Trazado_113665" data-name="Trazado 113665" d="M126.741,379.76a1.633,1.633,0,1,1-1.632-1.632,1.632,1.632,0,0,1,1.632,1.632" transform="translate(-106.312 -346.28)" fill="#fff"/>
      <path id="Trazado_113666" data-name="Trazado 113666" d="M178.416,379.76a1.633,1.633,0,1,1-1.632-1.632,1.632,1.632,0,0,1,1.632,1.632" transform="translate(-150.804 -346.28)" fill="#fff"/>
      <path id="Trazado_113667" data-name="Trazado 113667" d="M230.091,379.76a1.633,1.633,0,1,1-1.633-1.632,1.633,1.633,0,0,1,1.633,1.632" transform="translate(-195.296 -346.28)" fill="#fff"/>
      <path id="Trazado_113668" data-name="Trazado 113668" d="M281.766,379.76a1.633,1.633,0,1,1-1.633-1.632,1.633,1.633,0,0,1,1.633,1.632" transform="translate(-239.788 -346.28)" fill="#fff"/>
      <path id="Trazado_113669" data-name="Trazado 113669" d="M333.441,379.76a1.633,1.633,0,1,1-1.633-1.632,1.632,1.632,0,0,1,1.633,1.632" transform="translate(-284.279 -346.28)" fill="#fff"/>
      <path id="Trazado_113670" data-name="Trazado 113670" d="M126.741,429.087a1.633,1.633,0,1,1-1.632-1.632,1.633,1.633,0,0,1,1.632,1.632" transform="translate(-106.312 -388.749)" fill="#fff"/>
      <path id="Trazado_113671" data-name="Trazado 113671" d="M178.416,429.087a1.633,1.633,0,1,1-1.632-1.632,1.632,1.632,0,0,1,1.632,1.632" transform="translate(-150.804 -388.749)" fill="#fff"/>
      <path id="Trazado_113672" data-name="Trazado 113672" d="M230.091,429.087a1.633,1.633,0,1,1-1.633-1.632,1.633,1.633,0,0,1,1.633,1.632" transform="translate(-195.296 -388.749)" fill="#fff"/>
      <path id="Trazado_113673" data-name="Trazado 113673" d="M281.766,429.087a1.633,1.633,0,1,1-1.633-1.632,1.633,1.633,0,0,1,1.633,1.632" transform="translate(-239.788 -388.749)" fill="#fff"/>
      <path id="Trazado_113674" data-name="Trazado 113674" d="M333.441,429.087a1.633,1.633,0,1,1-1.633-1.632,1.632,1.632,0,0,1,1.633,1.632" transform="translate(-284.279 -388.749)" fill="#fff"/>
      <path id="Trazado_113675" data-name="Trazado 113675" d="M126.741,478.413a1.633,1.633,0,1,1-1.632-1.632,1.633,1.633,0,0,1,1.632,1.632" transform="translate(-106.312 -431.22)" fill="#fff"/>
      <path id="Trazado_113676" data-name="Trazado 113676" d="M178.416,478.413a1.633,1.633,0,1,1-1.632-1.632,1.633,1.633,0,0,1,1.632,1.632" transform="translate(-150.804 -431.22)" fill="#fff"/>
      <path id="Trazado_113677" data-name="Trazado 113677" d="M230.091,478.413a1.633,1.633,0,1,1-1.633-1.632,1.633,1.633,0,0,1,1.633,1.632" transform="translate(-195.296 -431.22)" fill="#fff"/>
      <path id="Trazado_113678" data-name="Trazado 113678" d="M281.766,478.413a1.633,1.633,0,1,1-1.633-1.632,1.633,1.633,0,0,1,1.633,1.632" transform="translate(-239.788 -431.22)" fill="#fff"/>
      <path id="Trazado_113679" data-name="Trazado 113679" d="M333.441,478.413a1.633,1.633,0,1,1-1.633-1.632,1.632,1.632,0,0,1,1.633,1.632" transform="translate(-284.279 -431.22)" fill="#fff"/>
      <path id="Trazado_113680" data-name="Trazado 113680" d="M126.741,527.74a1.633,1.633,0,1,1-1.632-1.633,1.632,1.632,0,0,1,1.632,1.633" transform="translate(-106.312 -473.689)" fill="#fff"/>
      <path id="Trazado_113681" data-name="Trazado 113681" d="M178.416,527.74a1.633,1.633,0,1,1-1.632-1.633,1.632,1.632,0,0,1,1.632,1.633" transform="translate(-150.804 -473.689)" fill="#fff"/>
      <path id="Trazado_113682" data-name="Trazado 113682" d="M230.091,527.74a1.633,1.633,0,1,1-1.633-1.633,1.633,1.633,0,0,1,1.633,1.633" transform="translate(-195.296 -473.689)" fill="#fff"/>
      <path id="Trazado_113683" data-name="Trazado 113683" d="M281.766,527.74a1.633,1.633,0,1,1-1.633-1.633,1.633,1.633,0,0,1,1.633,1.633" transform="translate(-239.788 -473.689)" fill="#fff"/>
      <path id="Trazado_113684" data-name="Trazado 113684" d="M333.441,527.74a1.633,1.633,0,1,1-1.633-1.633,1.632,1.632,0,0,1,1.633,1.633" transform="translate(-284.279 -473.689)" fill="#fff"/>
      <path id="Trazado_113685" data-name="Trazado 113685" d="M126.741,577.065a1.633,1.633,0,1,1-1.632-1.632,1.633,1.633,0,0,1,1.632,1.632" transform="translate(-106.312 -516.158)" fill="#fff"/>
      <path id="Trazado_113686" data-name="Trazado 113686" d="M178.416,577.065a1.633,1.633,0,1,1-1.632-1.632,1.632,1.632,0,0,1,1.632,1.632" transform="translate(-150.804 -516.158)" fill="#fff"/>
      <path id="Trazado_113687" data-name="Trazado 113687" d="M230.091,577.065a1.633,1.633,0,1,1-1.633-1.632,1.633,1.633,0,0,1,1.633,1.632" transform="translate(-195.296 -516.158)" fill="#fff"/>
      <path id="Trazado_113688" data-name="Trazado 113688" d="M281.766,577.065a1.633,1.633,0,1,1-1.633-1.632,1.633,1.633,0,0,1,1.633,1.632" transform="translate(-239.788 -516.158)" fill="#fff"/>
      <path id="Trazado_113689" data-name="Trazado 113689" d="M333.441,577.065a1.633,1.633,0,1,1-1.633-1.632,1.632,1.632,0,0,1,1.633,1.632" transform="translate(-284.279 -516.158)" fill="#fff"/>
      <g id="Grupo_1002336" data-name="Grupo 1002336" transform="translate(19.761 4.932)" opacity="0.251">
        <g id="Grupo_80323" data-name="Grupo 80323" clip-path="url(#clip-path)">
          <path id="Trazado_113615" data-name="Trazado 113615" d="M113.335,145.588c-1.675-.13-3.385-.2-5.136-.191-9.263.07-18.323,2.611-27.643,2.513-19.748-.208-40.072-2.295-57.14-15.19C-14.4,104.15-2,42.951,29.345,17.826,46,4.476,66.747.394,86.624.016c25.587-.486,58.407,7.766,76.74,29.726,12.773,15.3,15.948,50.95,12.963,71.149-2.377,16.078-11.3,31.241-22.564,40.066-14.052,11.007-25.966,5.748-40.427,4.63" transform="translate(0 0.004)" fill="#e0f4fe"/>
        </g>
      </g>
    </g>
    <g id="Grupo_1011094" data-name="Grupo 1011094" transform="translate(120.114 26)">
      <path id="Trazado_720064" data-name="Trazado 720064" d="M18.982,88.28C8.035,94.6,7.977,104.847,18.853,111.17s28.564,6.315,39.512,0,11-16.564.13-22.882-28.571-6.323-39.513,0" transform="translate(108.275 26.184)" fill="#b5dbdc"/>
      <path id="Trazado_720065" data-name="Trazado 720065" d="M18.982,86.822c-10.947,6.319-11.005,16.568-.129,22.886s28.564,6.319,39.512,0,11-16.568.13-22.882-28.571-6.323-39.513,0" transform="translate(108.275 25.727)" fill="#5abce5"/>
      <path id="Trazado_720066" data-name="Trazado 720066" d="M18.982,46.993C8.035,53.31,7.977,63.56,18.853,69.883s28.564,6.315,39.512,0,11-16.569.13-22.882-28.571-6.323-39.513,0" transform="translate(108.275 13.244)" fill="#5abce5"/>
      <rect id="Rectángulo_349393" data-name="Rectángulo 349393" width="55.684" height="76.8" transform="translate(119.202 49.11)" fill="#5abce5"/>
      <path id="Trazado_720067" data-name="Trazado 720067" d="M18.982,67.858C8.035,74.175,7.977,84.425,18.853,90.744s28.564,6.319,39.512,0,11-16.569.13-22.882-28.571-6.323-39.513,0" transform="translate(108.275 19.783)" fill="#b5dbdc"/>
      <path id="Trazado_720068" data-name="Trazado 720068" d="M18.982,66.4c-10.947,6.323-11.005,16.568-.129,22.89s28.564,6.319,39.512,0,11-16.564.13-22.882-28.571-6.319-39.513,0" transform="translate(108.275 19.325)" fill="#5abce5"/>
      <path id="Trazado_720069" data-name="Trazado 720069" d="M18.982,47.724C8.035,54.041,7.977,64.287,18.853,70.61s28.564,6.318,39.512,0,11-16.565.13-22.879-28.571-6.323-39.513,0" transform="translate(108.275 13.473)" fill="#b5dbdc"/>
      <path id="Trazado_720070" data-name="Trazado 720070" d="M18.982,46.263c-10.947,6.32-11.005,16.568-.129,22.89s28.564,6.319,39.512,0,11-16.566.13-22.882-28.571-6.323-39.513,0" transform="translate(108.275 13.015)" fill="#5abce5"/>
      <path id="Trazado_720071" data-name="Trazado 720071" d="M18.982,32.563C8.035,38.882,7.977,49.129,18.853,55.452s28.564,6.316,39.512,0,11-16.566.13-22.881-28.571-6.323-39.513,0" transform="translate(108.275 8.721)" fill="#b5dbdc"/>
      <path id="Trazado_720072" data-name="Trazado 720072" d="M18.982,31.1c-10.947,6.323-11.005,16.57-.129,22.893s28.564,6.316,39.512,0,11-16.566.13-22.885-28.571-6.322-39.513,0" transform="translate(108.275 8.264)" fill="#5abce5"/>
      <path id="Trazado_720073" data-name="Trazado 720073" d="M20.023,31.752c-10.01,5.78-10.065,15.15-.117,20.935s26.119,5.774,36.132,0,10.057-15.15.117-20.925-26.125-5.784-36.132-.005" transform="translate(109.015 8.594)" fill="#298bed"/>
      <path id="Trazado_720074" data-name="Trazado 720074" d="M55.624,51.818c-10.014,5.78-26.191,5.78-36.132.005a18.846,18.846,0,0,1-4.551-3.6C12.3,43.452,14.264,38,20.831,34.212c9.328-5.384,24.407-5.384,33.68.005,6.475,3.762,8.4,9.162,5.779,13.913a18.966,18.966,0,0,1-4.667,3.687" transform="translate(109.43 9.457)" fill="#0467d8"/>
      <path id="Trazado_720075" data-name="Trazado 720075" d="M67.146,73.472c-10.946,6.32-11.005,16.568-.13,22.89s28.566,6.315,39.513,0,11-16.566.13-22.882-28.571-6.323-39.513,0" transform="translate(-3.149 21.543)" fill="#b5dbdc"/>
      <path id="Trazado_720076" data-name="Trazado 720076" d="M67.146,72.014C56.2,78.331,56.141,88.581,67.016,94.9s28.566,6.319,39.513,0,11-16.569.13-22.882-28.571-6.323-39.513,0" transform="translate(-3.149 21.086)" fill="#5abce5"/>
      <path id="Trazado_720077" data-name="Trazado 720077" d="M67.146,32.184C56.2,38.5,56.141,48.754,67.016,55.077s28.566,6.315,39.513,0,11-16.57.13-22.885-28.571-6.322-39.513,0" transform="translate(-3.149 8.603)" fill="#5abce5"/>
      <rect id="Rectángulo_349394" data-name="Rectángulo 349394" width="55.685" height="76.8" transform="translate(55.942 29.66)" fill="#5abce5"/>
      <path id="Trazado_720078" data-name="Trazado 720078" d="M67.146,53.05c-10.946,6.318-11.005,16.568-.13,22.886s28.566,6.318,39.513,0,11-16.569.13-22.882-28.571-6.323-39.513,0" transform="translate(-3.149 15.142)" fill="#b5dbdc"/>
      <path id="Trazado_720079" data-name="Trazado 720079" d="M67.146,51.588c-10.946,6.323-11.005,16.568-.13,22.89s28.566,6.319,39.513,0,11-16.564.13-22.882-28.571-6.319-39.513,0" transform="translate(-3.149 14.685)" fill="#5abce5"/>
      <path id="Trazado_720080" data-name="Trazado 720080" d="M67.146,32.914C56.2,39.232,56.141,49.48,67.016,55.8s28.566,6.316,39.513,0,11-16.566.13-22.881-28.571-6.322-39.513,0" transform="translate(-3.149 8.831)" fill="#b5dbdc"/>
      <path id="Trazado_720081" data-name="Trazado 720081" d="M67.146,31.455c-10.946,6.32-11.005,16.568-.13,22.89s28.566,6.319,39.513,0,11-16.566.13-22.885-28.571-6.32-39.513,0" transform="translate(-3.149 8.373)" fill="#5abce5"/>
      <path id="Trazado_720082" data-name="Trazado 720082" d="M67.146,17.755c-10.946,6.319-11.005,16.566-.13,22.886s28.566,6.319,39.513,0,11-16.564.13-22.879-28.571-6.323-39.513,0" transform="translate(-3.149 4.08)" fill="#b5dbdc"/>
      <path id="Trazado_720083" data-name="Trazado 720083" d="M67.146,16.294c-10.946,6.323-11.005,16.57-.13,22.89s28.566,6.319,39.513,0,11-16.564.13-22.882-28.571-6.323-39.513,0" transform="translate(-3.149 3.621)" fill="#5abce5"/>
      <path id="Trazado_720084" data-name="Trazado 720084" d="M68.187,16.944c-10.011,5.78-10.065,15.148-.117,20.933s26.12,5.775,36.132,0,10.058-15.149.117-20.925-26.127-5.784-36.132,0" transform="translate(-2.409 3.952)" fill="#298bed"/>
      <path id="Trazado_720085" data-name="Trazado 720085" d="M88.029,24.214c-1.785,1.032-1.794,2.708-.022,3.742a7.088,7.088,0,0,0,6.442,0c1.784-1.034,1.793-2.71.02-3.742a7.082,7.082,0,0,0-6.44,0" transform="translate(-20.662 7.346)" fill="#5abce5"/>
      <rect id="Rectángulo_349395" data-name="Rectángulo 349395" width="9.11" height="6.224" transform="translate(66.023 27.376)" fill="#5abce5"/>
      <path id="Trazado_720086" data-name="Trazado 720086" d="M88.029,19.6c-1.785,1.032-1.794,2.7-.022,3.738a7.076,7.076,0,0,0,6.442,0c1.784-1.03,1.793-2.706.02-3.738a7.082,7.082,0,0,0-6.44,0" transform="translate(-20.662 5.901)" fill="#b5dbdc"/>
      <path id="Trazado_720087" data-name="Trazado 720087" d="M65.254,102.059c-10.947,6.323-11.008,16.57-.13,22.892s28.566,6.314,39.514,0,11-16.566.129-22.885-28.571-6.322-39.513,0" transform="translate(1.231 30.503)" fill="#b5dbdc"/>
      <path id="Trazado_720088" data-name="Trazado 720088" d="M65.254,100.6c-10.947,6.319-11.008,16.57-.13,22.889s28.566,6.319,39.514,0,11-16.57.129-22.885-28.571-6.321-39.513,0" transform="translate(1.231 30.046)" fill="#a6ecff"/>
      <path id="Trazado_720089" data-name="Trazado 720089" d="M65.254,60.772c-10.947,6.319-11.008,16.568-.13,22.89s28.566,6.315,39.514,0,11-16.568.129-22.882-28.571-6.323-39.513,0" transform="translate(1.231 17.562)" fill="#5abce5"/>
      <rect id="Rectángulo_349396" data-name="Rectángulo 349396" width="55.688" height="76.8" transform="translate(58.428 67.209)" fill="#a6ecff"/>
      <path id="Trazado_720090" data-name="Trazado 720090" d="M65.254,81.637c-10.947,6.319-11.008,16.57-.13,22.886s28.566,6.319,39.514,0,11-16.568.129-22.882-28.571-6.323-39.513,0" transform="translate(1.231 24.102)" fill="#5abce5"/>
      <path id="Trazado_720091" data-name="Trazado 720091" d="M65.254,80.175c-10.947,6.324-11.008,16.57-.13,22.893s28.566,6.316,39.514,0,11-16.565.129-22.884S76.2,73.861,65.254,80.175" transform="translate(1.231 23.645)" fill="#a6ecff"/>
      <path id="Trazado_720092" data-name="Trazado 720092" d="M65.254,61.5c-10.947,6.319-11.008,16.565-.13,22.886s28.566,6.319,39.514,0,11-16.565.129-22.88-28.571-6.323-39.513,0" transform="translate(1.231 17.791)" fill="#5abce5"/>
      <path id="Trazado_720093" data-name="Trazado 720093" d="M65.254,60.042c-10.947,6.323-11.008,16.57-.13,22.89s28.566,6.319,39.514,0,11-16.564.129-22.882-28.571-6.322-39.513,0" transform="translate(1.231 17.333)" fill="#a6ecff"/>
      <path id="Trazado_720094" data-name="Trazado 720094" d="M65.254,46.344c-10.947,6.319-11.008,16.565-.13,22.886s28.566,6.319,39.514,0,11-16.565.129-22.88-28.571-6.323-39.513,0" transform="translate(1.231 13.04)" fill="#b5dbdc"/>
      <path id="Trazado_720095" data-name="Trazado 720095" d="M65.254,44.883c-10.947,6.323-11.008,16.568-.13,22.89s28.566,6.319,39.514,0,11-16.564.129-22.882-28.571-6.323-39.513,0" transform="translate(1.231 12.582)" fill="#5abce5"/>
      <path id="Trazado_720096" data-name="Trazado 720096" d="M66.294,45.534c-10.014,5.78-10.065,15.148-.117,20.931s26.12,5.778,36.132,0,10.058-15.148.117-20.924-26.127-5.786-36.132,0" transform="translate(1.972 12.912)" fill="#298bed"/>
      <path id="Trazado_720097" data-name="Trazado 720097" d="M86.135,52.8c-1.785,1.032-1.794,2.708-.022,3.741a7.077,7.077,0,0,0,6.441,0c1.785-1.032,1.794-2.708.021-3.741a7.082,7.082,0,0,0-6.44,0" transform="translate(-16.28 16.307)" fill="#5abce5"/>
      <rect id="Rectángulo_349397" data-name="Rectángulo 349397" width="9.11" height="6.224" transform="translate(68.509 64.925)" fill="#5abce5"/>
      <path id="Trazado_720098" data-name="Trazado 720098" d="M86.135,48.193c-1.785,1.032-1.794,2.7-.022,3.737a7.065,7.065,0,0,0,6.441,0c1.785-1.028,1.794-2.7.021-3.737a7.082,7.082,0,0,0-6.44,0" transform="translate(-16.28 14.862)" fill="#b5dbdc"/>
      <path id="Trazado_720099" data-name="Trazado 720099" d="M119.342,39.71l11.223-4.144,12-10.444,3.265,2.6s-11.541,14.218-13.98,15.724-9.312,3.323-9.312,3.323Z" transform="translate(-113.596 7.874)" fill="#ccdcf8"/>
      <path id="Trazado_720100" data-name="Trazado 720100" d="M120.549,106.449s-1.919,3.077.747,3.814,1.872-.936,7.672.536,5.124-1.8,5-2.478-2.668-1.6-3.928-1.929-6.345-1.5-6.345-1.5l-3.093.571Z" transform="translate(-102.528 32.874)" fill="#111114"/>
      <path id="Trazado_720101" data-name="Trazado 720101" d="M138.6,99.586s2.218.332,1.677,1.616-3.092,3.227-3.423,4.045-2.39,3.309-3.106,3.433c-1.2.2-2.426.138-2.228-3.168s4.114-6.073,7.079-5.926" transform="translate(-124.095 31.212)" fill="#111114"/>
      <path id="Trazado_720102" data-name="Trazado 720102" d="M135.361,56.648s-4.319,6.41-1.513,17.216c0,0,4.835,16.314,3.971,19.52s-3.809,10.913-1.87,17.505a76.788,76.788,0,0,1,1.95,7.779c.151,1.735,3.029,1.9,3.449-.047.9-4.129.223-10.275.852-13.331,2.048-10,3.1-15.219,2.452-22.025s.139-22.214.139-22.214-7.706.8-9.43-4.4" transform="translate(-130.414 17.755)" fill="#efb185"/>
      <path id="Trazado_720103" data-name="Trazado 720103" d="M128.579,59.606s-3.705,6.785.088,17.282c0,0,6.344,15.8,5.774,19.068s-2.775,11.225-.231,17.605c0,0,2.464,5.876,2.653,7.567.307,2.685,3.025,3.025,3.3,1.049.588-4.015-.6-11.665-.256-14.769,1.1-10.153,1.679-15.442.4-22.152s-1.928-22.14-1.928-22.14-7.594,1.52-9.8-3.509" transform="translate(-118.802 18.682)" fill="#efb185"/>
      <path id="Trazado_720104" data-name="Trazado 720104" d="M144.881,71.363h0s-.211-8.868,1.727-11.24S151.581,52.34,149,49.313s-4.114-4.538-4.114-4.538-12.1-11.888-16.2-8.428c0,0-3.679,2.812-2.163,12.53s4.445,11.235.864,16.416c-2.778,4.015-3.93,5.125-2.086,20.22,1.688,13.9.86,15.622.86,15.622s11.242,6.2,21.614,1.436c0,0,2.15-3.3,0-15.706-1.937-11.176-2.886-15.5-2.886-15.5" transform="translate(-124.397 11.194)" fill="#e5eeff"/>
      <path id="Trazado_720105" data-name="Trazado 720105" d="M130.725,105.552s-1.551,3.335-4.241.743c0,0-.426,3.554,2.116,3.093s3.57-3.1,2.125-3.836" transform="translate(-108.493 33.083)" fill="#111114"/>
      <path id="Trazado_720106" data-name="Trazado 720106" d="M139.539,37.146l-.59,5.934s-5.086,2.775-8.683-1.61l.592-5.96a20.68,20.68,0,0,0,8.68,1.637" transform="translate(-121.649 11.13)" fill="#efb185"/>
      <path id="Trazado_720107" data-name="Trazado 720107" d="M136.778,23.612s4.518-.041,6.226,3.316,3.161,8.332,1.038,11.138c-2.272,3-1.073,4.8,0,5.779s-11.767,5.355-17.278-2.867c0,0-3.629-20.395,10.015-17.366" transform="translate(-122.037 7.305)" fill="#231202"/>
      <path id="Trazado_720108" data-name="Trazado 720108" d="M119.845,91.029h-2.151a8.6,8.6,0,0,1-8.6-8.592V5.8h19.339V82.437a8.591,8.591,0,0,1-8.591,8.592" transform="translate(-82.743 1.817)" fill="#ade9f4"/>
      <path id="Trazado_720109" data-name="Trazado 720109" d="M118.956,83.693h-1.585a6.349,6.349,0,0,1-6.349-6.346V20.76H125.3V77.346a6.348,6.348,0,0,1-6.344,6.346" transform="translate(-82.135 6.507)" fill="#ffa031"/>
      <path id="Trazado_720110" data-name="Trazado 720110" d="M113.008,18.872c-2.727,1.648-2.632,4.266.211,5.85a11.121,11.121,0,0,0,10.095-.105c2.725-1.637,2.64-4.258-.2-5.843a11.131,11.131,0,0,0-10.1.1" transform="translate(-82.139 5.52)" fill="#e28223"/>
      <path id="Trazado_720111" data-name="Trazado 720111" d="M129.446,6.266V4.238c0,1.518-.975,2.083-2.939,3.266-4.043,2.434-10.736,2.5-14.953.148-2.17-1.2-3.264-1.592-3.26-3.2l0,1.753c0,1.616,1.085,3.232,3.256,4.441,4.212,2.35,10.911,2.281,14.952-.154,1.967-1.182,2.945-2.706,2.949-4.224" transform="translate(-82.691 1.329)" fill="#4ed2f2"/>
      <path id="Trazado_720112" data-name="Trazado 720112" d="M111.227,1.872c-4.044,2.435-3.9,6.315.313,8.669s10.911,2.281,14.955-.154,3.907-6.31-.309-8.666-10.909-2.283-14.959.151" transform="translate(-82.678 0)" fill="#b8f8ff"/>
      <path id="Trazado_720113" data-name="Trazado 720113" d="M118.539,10.43a13.718,13.718,0,0,0,6.843-1.661c1.455-.876,2.247-1.941,2.228-3.006-.018-1.093-.927-2.229-2.5-3.1a13.867,13.867,0,0,0-6.638-1.539,13.684,13.684,0,0,0-6.838,1.66c-1.451.875-2.25,1.946-2.228,3.009.017,1.1.922,2.229,2.494,3.1a13.885,13.885,0,0,0,6.638,1.534" transform="translate(-82.324 0.353)" fill="#2bb4da"/>
      <path id="Trazado_720114" data-name="Trazado 720114" d="M125.111,3.955a13.866,13.866,0,0,0-6.638-1.53,13.666,13.666,0,0,0-6.838,1.659A4.476,4.476,0,0,0,109.514,6.4a2.161,2.161,0,0,1-.106-.608c-.022-1.061.775-2.134,2.228-3.008a13.667,13.667,0,0,1,6.838-1.66,13.867,13.867,0,0,1,6.638,1.539c1.571.871,2.48,2.007,2.5,3.1a2.218,2.218,0,0,1-.105.693,4.787,4.787,0,0,0-2.393-2.5" transform="translate(-82.323 0.353)" fill="#29b2dc"/>
      <path id="Trazado_720115" data-name="Trazado 720115" d="M110.762,5.736s-1.961,1.623-3.638,2.955.487-2.174.487-2.174Z" transform="translate(-61.641 1.798)" fill="#4ed2f2"/>
      <path id="Trazado_720116" data-name="Trazado 720116" d="M108.315,4.237s3.785,1.722,2.618,2.05S106.458,7.3,106.458,7.3s1.9-1.814,1.857-3.067" transform="translate(-61.996 1.327)" fill="#b8f8ff"/>
      <path id="Trazado_720117" data-name="Trazado 720117" d="M107.352,4.55s4.542,1.182,3.924,1.441a9.655,9.655,0,0,1-3.84.452Z" transform="translate(-63.349 1.426)" fill="#2bb4da"/>
      <path id="Trazado_720118" data-name="Trazado 720118" d="M120.193,13.925c-.275-.158-.5-.033-.5.286a1.1,1.1,0,0,0,.5.866l4.082,2.356c.272.156.5.028.5-.3a1.079,1.079,0,0,0-.5-.852Z" transform="translate(-92.99 4.343)" fill="#f3f4f4"/>
      <path id="Trazado_720119" data-name="Trazado 720119" d="M120.193,18.011c-.275-.158-.5-.03-.5.282a1.107,1.107,0,0,0,.5.871l4.082,2.354c.272.158.5.029.5-.293a1.1,1.1,0,0,0-.5-.86Z" transform="translate(-92.99 5.624)" fill="#f3f4f4"/>
      <path id="Trazado_720120" data-name="Trazado 720120" d="M120.193,24.144c-.275-.162-.5-.037-.5.282a1.1,1.1,0,0,0,.5.867l4.082,2.355c.272.156.5.028.5-.294a1.08,1.08,0,0,0-.5-.856Z" transform="translate(-92.99 7.546)" fill="#f3f4f4"/>
      <path id="Trazado_720121" data-name="Trazado 720121" d="M120.193,28.23c-.275-.162-.5-.034-.5.281a1.1,1.1,0,0,0,.5.868l4.082,2.354c.272.158.5.033.5-.293a1.084,1.084,0,0,0-.5-.856Z" transform="translate(-92.99 8.826)" fill="#f3f4f4"/>
      <path id="Trazado_720122" data-name="Trazado 720122" d="M120.193,36.4c-.275-.159-.5-.03-.5.284a1.1,1.1,0,0,0,.5.868l4.082,2.354c.272.158.5.033.5-.3a1.082,1.082,0,0,0-.5-.854Z" transform="translate(-92.99 11.387)" fill="#f3f4f4"/>
      <path id="Trazado_720123" data-name="Trazado 720123" d="M120.193,40.487c-.275-.16-.5-.032-.5.282a1.1,1.1,0,0,0,.5.868l4.082,2.354c.272.16.5.032.5-.293a1.087,1.087,0,0,0-.5-.858Z" transform="translate(-92.99 12.668)" fill="#f3f4f4"/>
      <path id="Trazado_720124" data-name="Trazado 720124" d="M120.193,46.616c-.275-.156-.5-.032-.5.282a1.1,1.1,0,0,0,.5.868l4.082,2.354c.272.158.5.034.5-.294a1.082,1.082,0,0,0-.5-.855Z" transform="translate(-92.99 14.59)" fill="#f3f4f4"/>
      <path id="Trazado_720125" data-name="Trazado 720125" d="M120.193,50.7c-.275-.16-.5-.032-.5.286a1.1,1.1,0,0,0,.5.864l4.082,2.354c.272.16.5.034.5-.294a1.086,1.086,0,0,0-.5-.856Z" transform="translate(-92.99 15.87)" fill="#f3f4f4"/>
      <path id="Trazado_720126" data-name="Trazado 720126" d="M110.181,46.267a19.252,19.252,0,0,1,2.46-1.723,3.582,3.582,0,0,0,1.323-2.38c.039-.743-.066-2.745-1-2.163s-1.26,1.065-1.906,1.349a4.67,4.67,0,0,0-1.79,1.73c-.179.464-.742,1.949-.742,1.949Z" transform="translate(-67.52 12.505)" fill="#efb185"/>
      <path id="Trazado_720127" data-name="Trazado 720127" d="M111.078,47.284c.389-1.334,1.989-3.111,5.389-1.594s12.82,5.841,12.82,5.841,6.346-7.753,7.219-8.537a2.018,2.018,0,0,0,1.777,2.3s-3.766,10.5-7,11.32-21.815-3.8-20.2-9.325" transform="translate(-95.061 13.475)" fill="#f9f9f9"/>
    </g>
  </g>
</svg>
