<svg xmlns="http://www.w3.org/2000/svg" xmlns:xlink="http://www.w3.org/1999/xlink" width="240.031" height="116.87" viewBox="0 0 240.031 116.87">
  <defs>
    <clipPath id="clip-path">
      <rect id="Rectángulo_349390" data-name="Rectángulo 349390" width="240.031" height="116.87" transform="translate(0 0)" fill="none"/>
    </clipPath>
  </defs>
  <g id="Grupo_1010993" data-name="Grupo 1010993" transform="translate(0 0)">
    <g id="Grupo_1010992" data-name="Grupo 1010992">
      <g id="Grupo_1010991" data-name="Grupo 1010991" clip-path="url(#clip-path)">
        <path id="Trazado_720054" data-name="Trazado 720054" d="M189.571,10.407C184.3,9.681,184.424,7.84,179.1,7.84s-5.323,2.579-10.645,2.579S163.133,7.84,157.81,7.84s-5.324,2.579-10.648,2.579S141.839,7.84,136.516,7.84s-5.324,2.579-10.648,2.579S120.546,7.84,115.223,7.84s-5.322,2.579-10.644,2.579S99.255,7.84,93.931,7.84s-5.325,2.579-10.651,2.579S77.956,7.84,72.632,7.84,67.3,10.419,61.977,10.419,55.7,5.837,50.811,7.946c-2.134.919,1.736,3.542,1.673,5.864s-2.64,2.252-2.7,4.573,2.514,2.394,2.451,4.718-2.641,2.252-2.7,4.574,2.515,2.394,2.452,4.717-2.641,2.255-2.7,4.579,2.515,2.4,2.451,4.719-2.64,2.254-2.7,4.579,2.515,2.394,2.452,4.718-2.641,2.254-2.7,4.578,2.515,2.4,2.452,4.722-2.641,2.258-2.7,4.586-.308,2.472,1.758,3.546c4.173,2.17,4.085,2.518,8.788,2.6s4.749-2.494,9.453-2.409,4.657,2.663,9.361,2.748,4.751-2.494,9.455-2.409,4.657,2.663,9.361,2.747,4.751-2.493,9.455-2.408,4.656,2.662,9.359,2.747,4.749-2.493,9.452-2.409,4.658,2.663,9.362,2.748,4.753-2.494,9.458-2.409,4.658,2.663,9.363,2.748,4.754-2.494,9.461-2.409,4.677,2.723,9.385,2.748c.725,0,.63-2.631,1.352-2.687s.922,2.515,1.644,2.459.523-2.627,1.245-2.683.921,2.515,1.641,2.459.521-2.627,1.242-2.683.923,2.515,1.646,2.459.522-2.627,1.244-2.684.922,2.515,1.645,2.459.524-2.627,1.248-2.683.922,2.515,1.644,2.459.525-2.628,1.249-2.684.925,2.515,1.651,2.458-.126-1.3.188-1.955c.7-1.45,2.523-.991,2.6-2.6s-2.5-1.72-2.432-3.326,2.648-1.491,2.72-3.1-2.505-1.721-2.433-3.327,2.648-1.491,2.72-3.1-2.5-1.723-2.432-3.33,2.648-1.492,2.72-3.1-2.5-1.721-2.432-3.327,2.648-1.492,2.72-3.1-2.5-1.723-2.432-3.33,2.648-1.493,2.72-3.1-2.5-1.726-2.432-3.336,2.749-1.574,2.721-3.185c-.012-.754-2.676-.532-2.788-1.277s2.438-1.128,2.326-1.873-2.662-.362-2.774-1.107,2.438-1.127,2.326-1.871-2.661-.359-2.773-1.1,2.438-1.129,2.326-1.875-2.662-.361-2.774-1.106,2.437-1.129,2.325-1.874-2.662-.363-2.774-1.109,2.438-1.129,2.326-1.875-2.663-.363-2.775-1.11,2.278-.836,2.335-1.59c.025-.319-.936-.215-1.686-.318" fill="#93d2ff"/>
        <path id="Trazado_720055" data-name="Trazado 720055" d="M189.571,10.407C184.3,9.681,184.424,7.84,179.1,7.84s-5.323,2.579-10.645,2.579S163.133,7.84,157.81,7.84s-5.324,2.579-10.648,2.579S141.839,7.84,136.516,7.84s-5.324,2.579-10.648,2.579S120.546,7.84,115.223,7.84s-5.322,2.579-10.644,2.579S99.255,7.84,93.931,7.84s-5.325,2.579-10.651,2.579S77.956,7.84,72.632,7.84,67.3,10.419,61.977,10.419,55.7,5.837,50.811,7.946c-2.134.919,1.736,3.542,1.673,5.864s-2.64,2.252-2.7,4.573,2.514,2.394,2.451,4.718-2.641,2.252-2.7,4.574,2.515,2.394,2.452,4.717-2.641,2.255-2.7,4.579,2.515,2.4,2.451,4.719-2.64,2.254-2.7,4.579,2.515,2.394,2.452,4.718-2.641,2.254-2.7,4.578,2.515,2.4,2.452,4.722-2.641,2.258-2.7,4.586-.308,2.472,1.758,3.546c4.173,2.17,4.085,2.518,8.788,2.6s4.749-2.494,9.453-2.409,4.657,2.663,9.361,2.748,4.751-2.494,9.455-2.409,4.657,2.663,9.361,2.747,4.751-2.493,9.455-2.408,4.656,2.662,9.359,2.747,4.749-2.493,9.452-2.409,4.658,2.663,9.362,2.748,4.753-2.494,9.458-2.409,4.658,2.663,9.363,2.748,4.754-2.494,9.461-2.409,4.677,2.723,9.385,2.748c.725,0,.63-2.631,1.352-2.687s.922,2.515,1.644,2.459.523-2.627,1.245-2.683.921,2.515,1.641,2.459.521-2.627,1.242-2.683.923,2.515,1.646,2.459.522-2.627,1.244-2.684.922,2.515,1.645,2.459.524-2.627,1.248-2.683.922,2.515,1.644,2.459.525-2.628,1.249-2.684.925,2.515,1.651,2.458-.126-1.3.188-1.955c.7-1.45,2.523-.991,2.6-2.6s-2.5-1.72-2.432-3.326,2.648-1.491,2.72-3.1-2.505-1.721-2.433-3.327,2.648-1.491,2.72-3.1-2.5-1.723-2.432-3.33,2.648-1.492,2.72-3.1-2.5-1.721-2.432-3.327,2.648-1.492,2.72-3.1-2.5-1.723-2.432-3.33,2.648-1.493,2.72-3.1-2.5-1.726-2.432-3.336,2.749-1.574,2.721-3.185c-.012-.754-2.676-.532-2.788-1.277s2.438-1.128,2.326-1.873-2.662-.362-2.774-1.107,2.438-1.127,2.326-1.871-2.661-.359-2.773-1.1,2.438-1.129,2.326-1.875-2.662-.361-2.774-1.106,2.437-1.129,2.325-1.874-2.662-.363-2.774-1.109,2.438-1.129,2.326-1.875-2.663-.363-2.775-1.11,2.278-.836,2.335-1.59C191.282,10.406,190.321,10.51,189.571,10.407Z" fill="none" stroke="#3c3c3b" stroke-miterlimit="10" stroke-width="1.035"/>
        <line id="Línea_3048" data-name="Línea 3048" x2="10.74" transform="translate(62.907 14.911)" fill="none" stroke="#3c3c3b" stroke-miterlimit="10" stroke-width="1.035"/>
        <line id="Línea_3049" data-name="Línea 3049" x2="15.66" transform="translate(63.653 26.334)" fill="none" stroke="#3c3c3b" stroke-miterlimit="10" stroke-width="1.035"/>
        <line id="Línea_3050" data-name="Línea 3050" x2="17.452" transform="translate(72.603 19.926)" fill="none" stroke="#3c3c3b" stroke-miterlimit="10" stroke-width="1.035"/>
        <line id="Línea_3051" data-name="Línea 3051" x2="11.2" transform="translate(101.976 19.926)" fill="none" stroke="#3c3c3b" stroke-miterlimit="10" stroke-width="1.035"/>
        <line id="Línea_3052" data-name="Línea 3052" x2="26.558" transform="translate(98.153 24.628)" fill="none" stroke="#3c3c3b" stroke-miterlimit="10" stroke-width="1.035"/>
        <line id="Línea_3053" data-name="Línea 3053" x2="17.062" transform="translate(126.991 14.911)" fill="none" stroke="#3c3c3b" stroke-miterlimit="10" stroke-width="1.035"/>
        <line id="Línea_3054" data-name="Línea 3054" x2="16.408" transform="translate(156.881 14.075)" fill="none" stroke="#3c3c3b" stroke-miterlimit="10" stroke-width="1.035"/>
        <line id="Línea_3055" data-name="Línea 3055" x2="16.11" transform="translate(142.263 19.926)" fill="none" stroke="#3c3c3b" stroke-miterlimit="10" stroke-width="1.035"/>
        <line id="Línea_3056" data-name="Línea 3056" x2="11.173" transform="translate(135.522 24.628)" fill="none" stroke="#3c3c3b" stroke-miterlimit="10" stroke-width="1.035"/>
        <line id="Línea_3057" data-name="Línea 3057" x2="10.292" transform="translate(168.068 21.597)" fill="none" stroke="#3c3c3b" stroke-miterlimit="10" stroke-width="1.035"/>
        <path id="Trazado_720056" data-name="Trazado 720056" d="M189.52.5l-8.209,7.094-16.226,61.3-96.809.042L50.511.5H.5V116.37H239.531V.5Z" fill="#c0c8da"/>
        <path id="Trazado_720057" data-name="Trazado 720057" d="M189.52.5l-8.209,7.094-16.226,61.3-96.809.042L50.511.5H.5V116.37H239.531V.5Z" fill="none" stroke="#3c3c3b" stroke-miterlimit="10" stroke-width="1"/>
        <line id="Línea_3058" data-name="Línea 3058" x2="12.626" transform="translate(186.349 8.868)" fill="none" stroke="#1836ab" stroke-miterlimit="10" stroke-width="0.73"/>
        <line id="Línea_3059" data-name="Línea 3059" y1="19.72" transform="translate(192.675 10.702)" fill="none" stroke="#1836ab" stroke-miterlimit="10" stroke-width="0.73"/>
        <path id="Trazado_720058" data-name="Trazado 720058" d="M193.949,11.075l-1.274-2.207L191.4,11.075Z" fill="#1836ab"/>
        <line id="Línea_3060" data-name="Línea 3060" x2="12.626" transform="translate(186.349 68.935)" fill="none" stroke="#1836ab" stroke-miterlimit="10" stroke-width="0.73"/>
        <line id="Línea_3061" data-name="Línea 3061" y2="19.72" transform="translate(192.675 47.381)" fill="none" stroke="#1836ab" stroke-miterlimit="10" stroke-width="0.73"/>
        <path id="Trazado_720059" data-name="Trazado 720059" d="M191.4,66.729l1.274,2.207,1.274-2.207Z" fill="#1836ab"/>
        <path id="Trazado_720060" data-name="Trazado 720060" d="M194.979,35.792v6.291h-.934V39.249h-3.281v2.834h-.937V35.792h.937v2.777h3.281V35.792Z" fill="#3c3c3b"/>
        <line id="Línea_3062" data-name="Línea 3062" y2="12.969" transform="translate(68.277 70.935)" fill="none" stroke="#1836ab" stroke-miterlimit="10" stroke-width="0.75"/>
        <line id="Línea_3063" data-name="Línea 3063" y2="12.969" transform="translate(165.085 70.935)" fill="none" stroke="#1836ab" stroke-miterlimit="10" stroke-width="0.75"/>
        <line id="Línea_3064" data-name="Línea 3064" x1="38.93" transform="translate(71.949 77.433)" fill="none" stroke="#1836ab" stroke-miterlimit="10" stroke-width="0.75"/>
        <path id="Trazado_720061" data-name="Trazado 720061" d="M72.332,76.124l-2.267,1.309,2.267,1.309Z" fill="#1836ab"/>
        <line id="Línea_3065" data-name="Línea 3065" x2="38.93" transform="translate(124.271 77.433)" fill="none" stroke="#1836ab" stroke-miterlimit="10" stroke-width="0.75"/>
        <path id="Trazado_720062" data-name="Trazado 720062" d="M162.818,78.741l2.267-1.309-2.267-1.309Z" fill="#1836ab"/>
      </g>
    </g>
    <path id="Trazado_726150" data-name="Trazado 726150" d="M4.5-.806V0H.8V-6.462h.959V-.806Z" transform="translate(114.855 80.089)" fill="#3c3c3b"/>
  </g>
</svg>
