<svg xmlns="http://www.w3.org/2000/svg" xmlns:xlink="http://www.w3.org/1999/xlink" width="820" height="401" viewBox="0 0 820 401">
  <defs>
    <clipPath id="clip-path">
      <rect id="Rectángulo_349956" data-name="Rectángulo 349956" width="464.7" height="358.411" fill="none"/>
    </clipPath>
  </defs>
  <g id="Grupo_1012325" data-name="Grupo 1012325" transform="translate(-390 -2044)">
    <rect id="Rectángulo_346728" data-name="Rectángulo 346728" width="820" height="401" rx="15" transform="translate(390 2044)" fill="#fff"/>
    <g id="Grupo_1012318" data-name="Grupo 1012318" transform="translate(568 2065)">
      <path id="Trazado_726078" data-name="Trazado 726078" d="M5.726-3.1H7.008v.958H5.726V0H4.545V-2.146H.336v-.692l4.139-6.4h1.25Zm-4.056,0H4.545V-7.636l-.14.254Z" transform="translate(93.137 348.493)"/>
      <path id="Trazado_726077" data-name="Trazado 726077" d="M6.563-3.942a5.371,5.371,0,0,1-.7,3.066,2.506,2.506,0,0,1-2.2,1,2.524,2.524,0,0,1-2.19-.981A5.1,5.1,0,0,1,.73-3.783V-5.351a5.251,5.251,0,0,1,.7-3.028,2.525,2.525,0,0,1,2.209-.99,2.548,2.548,0,0,1,2.2.955,5.068,5.068,0,0,1,.724,2.948ZM5.389-5.548A4.3,4.3,0,0,0,4.97-7.722,1.442,1.442,0,0,0,3.644-8.4a1.423,1.423,0,0,0-1.314.679A4.2,4.2,0,0,0,1.9-5.637v1.879a4.372,4.372,0,0,0,.435,2.212,1.439,1.439,0,0,0,1.317.714A1.42,1.42,0,0,0,4.948-1.5a4.214,4.214,0,0,0,.441-2.12Z" transform="translate(71.54 330.06)"/>
      <path id="Trazado_726079" data-name="Trazado 726079" d="M1.308-4.634l.47-4.608H6.513v1.085H2.774l-.279,2.52a2.983,2.983,0,0,1,1.542-.4A2.55,2.55,0,0,1,6.043-5.2a3.271,3.271,0,0,1,.743,2.257A3.158,3.158,0,0,1,6.014-.7,2.811,2.811,0,0,1,3.859.127a2.921,2.921,0,0,1-2-.679A2.711,2.711,0,0,1,.978-2.431H2.088a1.865,1.865,0,0,0,.565,1.2,1.757,1.757,0,0,0,1.206.4A1.585,1.585,0,0,0,5.145-1.39a2.335,2.335,0,0,0,.467-1.542,2.143,2.143,0,0,0-.5-1.489,1.717,1.717,0,0,0-1.343-.562,1.936,1.936,0,0,0-1.206.336l-.311.254Z" transform="translate(133.417 349.411)"/>
      <path id="Trazado_726080" data-name="Trazado 726080" d="M5.376-9.249v1H5.161a3.092,3.092,0,0,0-2.184.813,3.381,3.381,0,0,0-.939,2.215,2.507,2.507,0,0,1,1.993-.838,2.4,2.4,0,0,1,1.927.851,3.281,3.281,0,0,1,.72,2.2A3.27,3.27,0,0,1,5.9-.73,2.678,2.678,0,0,1,3.815.127,2.638,2.638,0,0,1,1.663-.892,4.038,4.038,0,0,1,.838-3.517v-.451a6.084,6.084,0,0,1,1.089-3.9,4,4,0,0,1,3.24-1.381ZM3.834-5.084a1.874,1.874,0,0,0-1.111.362,1.885,1.885,0,0,0-.7.908v.432a3.032,3.032,0,0,0,.514,1.841,1.541,1.541,0,0,0,1.282.7,1.493,1.493,0,0,0,1.247-.584,2.423,2.423,0,0,0,.454-1.53A2.424,2.424,0,0,0,5.056-4.5,1.475,1.475,0,0,0,3.834-5.084Z" transform="translate(173.696 349.411)"/>
      <path id="Trazado_726081" data-name="Trazado 726081" d="M6.735-8.582,2.907,0H1.676L5.491-8.277h-5v-.965H6.735Z" transform="translate(213.976 349.411)"/>
      <path id="Trazado_726082" data-name="Trazado 726082" d="M6.373-6.83A2.146,2.146,0,0,1,6.008-5.6a2.483,2.483,0,0,1-.987.844,2.649,2.649,0,0,1,1.146.908,2.284,2.284,0,0,1,.422,1.352A2.415,2.415,0,0,1,5.78-.584,3.109,3.109,0,0,1,3.65.127,3.1,3.1,0,0,1,1.514-.587a2.426,2.426,0,0,1-.8-1.907A2.352,2.352,0,0,1,1.12-3.847a2.548,2.548,0,0,1,1.133-.914A2.422,2.422,0,0,1,1.282-5.6,2.177,2.177,0,0,1,.927-6.83a2.389,2.389,0,0,1,.749-1.854A2.81,2.81,0,0,1,3.65-9.369a2.812,2.812,0,0,1,1.971.686A2.384,2.384,0,0,1,6.373-6.83ZM5.415-2.52a1.7,1.7,0,0,0-.492-1.263,1.745,1.745,0,0,0-1.285-.489,1.714,1.714,0,0,0-1.273.482,1.723,1.723,0,0,0-.479,1.27,1.641,1.641,0,0,0,.467,1.238,1.791,1.791,0,0,0,1.3.451,1.786,1.786,0,0,0,1.295-.454A1.637,1.637,0,0,0,5.415-2.52ZM3.65-8.4a1.515,1.515,0,0,0-1.12.428A1.574,1.574,0,0,0,2.1-6.811a1.566,1.566,0,0,0,.422,1.139,1.5,1.5,0,0,0,1.127.435,1.5,1.5,0,0,0,1.127-.435A1.566,1.566,0,0,0,5.2-6.811,1.567,1.567,0,0,0,4.761-7.96,1.494,1.494,0,0,0,3.65-8.4Z" transform="translate(254.254 349.411)"/>
      <path id="Trazado_726083" data-name="Trazado 726083" d="M5.269-4.062a2.873,2.873,0,0,1-.879.7,2.385,2.385,0,0,1-1.12.267,2.463,2.463,0,0,1-1.393-.394A2.558,2.558,0,0,1,.958-4.593,3.776,3.776,0,0,1,.635-6.17,3.847,3.847,0,0,1,.987-7.839a2.588,2.588,0,0,1,1-1.136A2.851,2.851,0,0,1,3.5-9.369,2.581,2.581,0,0,1,5.659-8.344a4.471,4.471,0,0,1,.79,2.8v.343A5.974,5.974,0,0,1,5.383-1.266,4.1,4.1,0,0,1,2.165.006H1.936v-1h.248a3.233,3.233,0,0,0,2.234-.757A3.248,3.248,0,0,0,5.269-4.062Zm-1.809,0a1.813,1.813,0,0,0,1.089-.362,2.133,2.133,0,0,0,.727-.9v-.47a3.232,3.232,0,0,0-.5-1.879A1.5,1.5,0,0,0,3.5-8.392,1.508,1.508,0,0,0,2.26-7.8a2.448,2.448,0,0,0-.47,1.565,2.548,2.548,0,0,0,.454,1.558A1.437,1.437,0,0,0,3.459-4.062Z" transform="translate(294.534 349.411)"/>
      <path id="Trazado_726084" data-name="Trazado 726084" d="M4.627,0H3.447V-7.827l-2.368.87V-8.023L4.443-9.287h.184Zm9.236-3.942a5.371,5.371,0,0,1-.7,3.066,2.506,2.506,0,0,1-2.2,1,2.524,2.524,0,0,1-2.19-.981A5.1,5.1,0,0,1,8.03-3.783V-5.351a5.251,5.251,0,0,1,.7-3.028,2.525,2.525,0,0,1,2.209-.99,2.548,2.548,0,0,1,2.2.955,5.068,5.068,0,0,1,.724,2.948ZM12.689-5.548a4.3,4.3,0,0,0-.419-2.174A1.442,1.442,0,0,0,10.943-8.4a1.423,1.423,0,0,0-1.314.679A4.2,4.2,0,0,0,9.2-5.637v1.879a4.372,4.372,0,0,0,.435,2.212,1.439,1.439,0,0,0,1.317.714A1.42,1.42,0,0,0,12.248-1.5a4.214,4.214,0,0,0,.441-2.12Z" transform="translate(330.73 349.411)"/>
      <path id="Trazado_726085" data-name="Trazado 726085" d="M4.627,0H3.447V-7.827l-2.368.87V-8.023L4.443-9.287h.184Zm7.3,0H10.747V-7.827l-2.368.87V-8.023l3.364-1.263h.184Z" transform="translate(371.01 348.507)"/>
      <path id="Trazado_726076" data-name="Trazado 726076" d="M4.627,0H3.447V-7.827l-2.368.87V-8.023L4.443-9.287h.184Zm9.236-3.942a5.371,5.371,0,0,1-.7,3.066,2.506,2.506,0,0,1-2.2,1,2.524,2.524,0,0,1-2.19-.981A5.1,5.1,0,0,1,8.03-3.783V-5.351a5.251,5.251,0,0,1,.7-3.028,2.525,2.525,0,0,1,2.209-.99,2.548,2.548,0,0,1,2.2.955,5.068,5.068,0,0,1,.724,2.948ZM12.689-5.548a4.3,4.3,0,0,0-.419-2.174A1.442,1.442,0,0,0,10.943-8.4a1.423,1.423,0,0,0-1.314.679A4.2,4.2,0,0,0,9.2-5.637v1.879a4.372,4.372,0,0,0,.435,2.212,1.439,1.439,0,0,0,1.317.714A1.42,1.42,0,0,0,12.248-1.5a4.214,4.214,0,0,0,.441-2.12Z" transform="translate(67.427 298.151)"/>
      <path id="Trazado_726075" data-name="Trazado 726075" d="M6.824,0H.768V-.844L3.967-4.4A7.6,7.6,0,0,0,4.948-5.71a2.188,2.188,0,0,0,.27-1.044A1.658,1.658,0,0,0,4.78-7.941,1.531,1.531,0,0,0,3.612-8.4a1.814,1.814,0,0,0-1.362.5,1.9,1.9,0,0,0-.486,1.387H.59a2.726,2.726,0,0,1,.822-2.063,3.047,3.047,0,0,1,2.2-.787,2.928,2.928,0,0,1,2.038.676,2.306,2.306,0,0,1,.749,1.8,5.287,5.287,0,0,1-1.739,3.25L2.184-.958h4.64Zm7.04-3.942a5.371,5.371,0,0,1-.7,3.066,2.506,2.506,0,0,1-2.2,1,2.524,2.524,0,0,1-2.19-.981A5.1,5.1,0,0,1,8.03-3.783V-5.351a5.251,5.251,0,0,1,.7-3.028,2.525,2.525,0,0,1,2.209-.99,2.548,2.548,0,0,1,2.2.955,5.068,5.068,0,0,1,.724,2.948ZM12.689-5.548a4.3,4.3,0,0,0-.419-2.174A1.442,1.442,0,0,0,10.943-8.4a1.423,1.423,0,0,0-1.314.679A4.2,4.2,0,0,0,9.2-5.637v1.879a4.372,4.372,0,0,0,.435,2.212,1.439,1.439,0,0,0,1.317.714A1.42,1.42,0,0,0,12.248-1.5a4.214,4.214,0,0,0,.441-2.12Z" transform="translate(67.427 266.228)"/>
      <path id="Trazado_726072" data-name="Trazado 726072" d="M2.476-5.192h.882A1.939,1.939,0,0,0,4.666-5.63a1.463,1.463,0,0,0,.476-1.149A1.434,1.434,0,0,0,3.523-8.4a1.684,1.684,0,0,0-1.216.435,1.522,1.522,0,0,0-.454,1.152H.679a2.358,2.358,0,0,1,.8-1.825,2.925,2.925,0,0,1,2.041-.727,2.891,2.891,0,0,1,2.05.692,2.5,2.5,0,0,1,.743,1.923,2.029,2.029,0,0,1-.39,1.168,2.357,2.357,0,0,1-1.063.844,2.271,2.271,0,0,1,1.177.8,2.221,2.221,0,0,1,.416,1.365A2.521,2.521,0,0,1,5.643-.6a3.043,3.043,0,0,1-2.114.73,3.123,3.123,0,0,1-2.117-.7A2.337,2.337,0,0,1,.6-2.437H1.777A1.511,1.511,0,0,0,2.253-1.27a1.811,1.811,0,0,0,1.276.438,1.777,1.777,0,0,0,1.3-.444,1.712,1.712,0,0,0,.451-1.276,1.554,1.554,0,0,0-.5-1.238,2.157,2.157,0,0,0-1.428-.444H2.476Zm11.388,1.25a5.371,5.371,0,0,1-.7,3.066,2.506,2.506,0,0,1-2.2,1,2.524,2.524,0,0,1-2.19-.981A5.1,5.1,0,0,1,8.03-3.783V-5.351a5.251,5.251,0,0,1,.7-3.028,2.525,2.525,0,0,1,2.209-.99,2.548,2.548,0,0,1,2.2.955,5.068,5.068,0,0,1,.724,2.948ZM12.689-5.548a4.3,4.3,0,0,0-.419-2.174A1.442,1.442,0,0,0,10.943-8.4a1.423,1.423,0,0,0-1.314.679A4.2,4.2,0,0,0,9.2-5.637v1.879a4.372,4.372,0,0,0,.435,2.212,1.439,1.439,0,0,0,1.317.714A1.42,1.42,0,0,0,12.248-1.5a4.214,4.214,0,0,0,.441-2.12Z" transform="translate(67.427 234.305)"/>
      <path id="Trazado_726071" data-name="Trazado 726071" d="M5.726-3.1H7.008v.958H5.726V0H4.545V-2.146H.336v-.692l4.139-6.4h1.25Zm-4.056,0H4.545V-7.636l-.14.254Zm12.194-.838a5.371,5.371,0,0,1-.7,3.066,2.506,2.506,0,0,1-2.2,1,2.524,2.524,0,0,1-2.19-.981A5.1,5.1,0,0,1,8.03-3.783V-5.351a5.251,5.251,0,0,1,.7-3.028,2.525,2.525,0,0,1,2.209-.99,2.548,2.548,0,0,1,2.2.955,5.068,5.068,0,0,1,.724,2.948ZM12.689-5.548a4.3,4.3,0,0,0-.419-2.174A1.442,1.442,0,0,0,10.943-8.4a1.423,1.423,0,0,0-1.314.679A4.2,4.2,0,0,0,9.2-5.637v1.879a4.372,4.372,0,0,0,.435,2.212,1.439,1.439,0,0,0,1.317.714A1.42,1.42,0,0,0,12.248-1.5a4.214,4.214,0,0,0,.441-2.12Z" transform="translate(67.427 202.382)"/>
      <path id="Trazado_726070" data-name="Trazado 726070" d="M1.308-4.634l.47-4.608H6.513v1.085H2.774l-.279,2.52a2.983,2.983,0,0,1,1.542-.4A2.55,2.55,0,0,1,6.043-5.2a3.271,3.271,0,0,1,.743,2.257A3.158,3.158,0,0,1,6.014-.7,2.811,2.811,0,0,1,3.859.127a2.921,2.921,0,0,1-2-.679A2.711,2.711,0,0,1,.978-2.431H2.088a1.865,1.865,0,0,0,.565,1.2,1.757,1.757,0,0,0,1.206.4A1.585,1.585,0,0,0,5.145-1.39a2.335,2.335,0,0,0,.467-1.542,2.143,2.143,0,0,0-.5-1.489,1.717,1.717,0,0,0-1.343-.562,1.936,1.936,0,0,0-1.206.336l-.311.254Zm12.556.692a5.371,5.371,0,0,1-.7,3.066,2.506,2.506,0,0,1-2.2,1,2.524,2.524,0,0,1-2.19-.981A5.1,5.1,0,0,1,8.03-3.783V-5.351a5.251,5.251,0,0,1,.7-3.028,2.525,2.525,0,0,1,2.209-.99,2.548,2.548,0,0,1,2.2.955,5.068,5.068,0,0,1,.724,2.948ZM12.689-5.548a4.3,4.3,0,0,0-.419-2.174A1.442,1.442,0,0,0,10.943-8.4a1.423,1.423,0,0,0-1.314.679A4.2,4.2,0,0,0,9.2-5.637v1.879a4.372,4.372,0,0,0,.435,2.212,1.439,1.439,0,0,0,1.317.714A1.42,1.42,0,0,0,12.248-1.5a4.214,4.214,0,0,0,.441-2.12Z" transform="translate(67.427 170.459)"/>
      <path id="Trazado_726074" data-name="Trazado 726074" d="M.6-7.465a1.827,1.827,0,0,1,.552-1.381A2,2,0,0,1,2.6-9.375a2.034,2.034,0,0,1,1.46.524,1.862,1.862,0,0,1,.552,1.419v.457A1.8,1.8,0,0,1,4.063-5.6a2.024,2.024,0,0,1-1.447.521A2.037,2.037,0,0,1,1.158-5.6,1.848,1.848,0,0,1,.6-7.014Zm1.219.5a.863.863,0,0,0,.219.616.752.752,0,0,0,.574.233.717.717,0,0,0,.565-.236.918.918,0,0,0,.209-.632V-7.46a.9.9,0,0,0-.209-.619A.732.732,0,0,0,2.6-8.315a.734.734,0,0,0-.565.233.917.917,0,0,0-.216.648Zm3.2,4.7A1.8,1.8,0,0,1,5.58-3.647,2.031,2.031,0,0,1,7.027-4.17a2.052,2.052,0,0,1,1.457.517,1.852,1.852,0,0,1,.555,1.425v.457A1.817,1.817,0,0,1,8.493-.4,2.012,2.012,0,0,1,7.04.127,2.036,2.036,0,0,1,5.573-.4a1.84,1.84,0,0,1-.552-1.4Zm1.219.5a.856.856,0,0,0,.229.6.743.743,0,0,0,.571.249q.774,0,.774-.862v-.485A.871.871,0,0,0,7.6-2.877a.742.742,0,0,0-.571-.233.742.742,0,0,0-.571.233.9.9,0,0,0-.216.635ZM2.977-.692l-.9-.482L6.6-8.4l.9.482Z" transform="translate(14.723 152.711)"/>
      <path id="Trazado_726073" data-name="Trazado 726073" d="M8.347,0h-1.9V-3.961H2.729V0H.825V-9.242h1.9V-5.5H6.443V-9.242h1.9ZM17.6-4.412a5.579,5.579,0,0,1-.482,2.393A3.633,3.633,0,0,1,15.739-.432a3.819,3.819,0,0,1-2.06.559,3.845,3.845,0,0,1-2.05-.552A3.669,3.669,0,0,1,10.232-2a5.42,5.42,0,0,1-.5-2.358v-.457a5.55,5.55,0,0,1,.492-2.4,3.663,3.663,0,0,1,1.39-1.593,3.824,3.824,0,0,1,2.053-.555,3.824,3.824,0,0,1,2.053.555A3.663,3.663,0,0,1,17.11-7.22a5.534,5.534,0,0,1,.492,2.4Zm-1.93-.419a3.889,3.889,0,0,0-.521-2.209,1.7,1.7,0,0,0-1.485-.755,1.7,1.7,0,0,0-1.479.746,3.845,3.845,0,0,0-.527,2.187v.451a3.938,3.938,0,0,0,.521,2.2,1.692,1.692,0,0,0,1.5.781,1.677,1.677,0,0,0,1.473-.752,3.915,3.915,0,0,0,.521-2.193ZM26.241-3.079A3.27,3.27,0,0,1,25.14-.73a3.868,3.868,0,0,1-2.618.857,3.478,3.478,0,0,1-2.8-1.2,4.906,4.906,0,0,1-1.019-3.285v-.565a5.54,5.54,0,0,1,.47-2.349,3.52,3.52,0,0,1,1.343-1.558,3.761,3.761,0,0,1,2.028-.543,3.768,3.768,0,0,1,2.577.857,3.515,3.515,0,0,1,1.13,2.406h-1.9a1.93,1.93,0,0,0-.5-1.3,1.845,1.845,0,0,0-1.3-.4,1.618,1.618,0,0,0-1.425.682,3.824,3.824,0,0,0-.486,2.117v.7a4.093,4.093,0,0,0,.454,2.19,1.588,1.588,0,0,0,1.431.692,1.88,1.88,0,0,0,1.317-.4,1.821,1.821,0,0,0,.5-1.247ZM29.517,0h-1.9V-9.242h1.9Z" transform="translate(3.027 170.211)"/>
      <path id="Trazado_726093" data-name="Trazado 726093" d="M.6-7.465a1.827,1.827,0,0,1,.552-1.381A2,2,0,0,1,2.6-9.375a2.034,2.034,0,0,1,1.46.524,1.862,1.862,0,0,1,.552,1.419v.457A1.8,1.8,0,0,1,4.063-5.6a2.024,2.024,0,0,1-1.447.521A2.037,2.037,0,0,1,1.158-5.6,1.848,1.848,0,0,1,.6-7.014Zm1.219.5a.863.863,0,0,0,.219.616.752.752,0,0,0,.574.233.717.717,0,0,0,.565-.236.918.918,0,0,0,.209-.632V-7.46a.9.9,0,0,0-.209-.619A.732.732,0,0,0,2.6-8.315a.734.734,0,0,0-.565.233.917.917,0,0,0-.216.648Zm3.2,4.7A1.8,1.8,0,0,1,5.58-3.647,2.031,2.031,0,0,1,7.027-4.17a2.052,2.052,0,0,1,1.457.517,1.852,1.852,0,0,1,.555,1.425v.457A1.817,1.817,0,0,1,8.493-.4,2.012,2.012,0,0,1,7.04.127,2.036,2.036,0,0,1,5.573-.4a1.84,1.84,0,0,1-.552-1.4Zm1.219.5a.856.856,0,0,0,.229.6.743.743,0,0,0,.571.249q.774,0,.774-.862v-.485A.871.871,0,0,0,7.6-2.877a.742.742,0,0,0-.571-.233.742.742,0,0,0-.571.233.9.9,0,0,0-.216.635ZM2.977-.692l-.9-.482L6.6-8.4l.9.482Z" transform="translate(439.187 152.711)"/>
      <path id="Trazado_726094" data-name="Trazado 726094" d="M8.417-4.412a5.579,5.579,0,0,1-.482,2.393A3.633,3.633,0,0,1,6.554-.432a3.819,3.819,0,0,1-2.06.559,3.845,3.845,0,0,1-2.05-.552A3.669,3.669,0,0,1,1.047-2a5.42,5.42,0,0,1-.5-2.358v-.457a5.55,5.55,0,0,1,.492-2.4,3.663,3.663,0,0,1,1.39-1.593,3.824,3.824,0,0,1,2.053-.555,3.824,3.824,0,0,1,2.053.555A3.663,3.663,0,0,1,7.925-7.22a5.534,5.534,0,0,1,.492,2.4Zm-1.93-.419A3.889,3.889,0,0,0,5.967-7.04a1.7,1.7,0,0,0-1.485-.755A1.7,1.7,0,0,0,3-7.049a3.845,3.845,0,0,0-.527,2.187v.451A3.938,3.938,0,0,0,3-2.215a1.692,1.692,0,0,0,1.5.781,1.677,1.677,0,0,0,1.473-.752A3.915,3.915,0,0,0,6.487-4.38ZM17.056-3.079a3.27,3.27,0,0,1-1.1,2.349,3.868,3.868,0,0,1-2.618.857,3.478,3.478,0,0,1-2.8-1.2A4.906,4.906,0,0,1,9.521-4.354v-.565a5.54,5.54,0,0,1,.47-2.349,3.52,3.52,0,0,1,1.343-1.558,3.761,3.761,0,0,1,2.028-.543,3.768,3.768,0,0,1,2.577.857,3.515,3.515,0,0,1,1.13,2.406h-1.9a1.93,1.93,0,0,0-.5-1.3,1.845,1.845,0,0,0-1.3-.4,1.618,1.618,0,0,0-1.425.682,3.824,3.824,0,0,0-.486,2.117v.7a4.093,4.093,0,0,0,.454,2.19,1.588,1.588,0,0,0,1.431.692,1.88,1.88,0,0,0,1.317-.4,1.821,1.821,0,0,0,.5-1.247ZM20.332,0h-1.9V-9.242h1.9Z" transform="translate(430.991 170.211)"/>
      <path id="Trazado_726095" data-name="Trazado 726095" d="M2.3-1.733H.376v-.8H2.3Z" transform="translate(454.862 165.802)"/>
      <path id="Trazado_726069" data-name="Trazado 726069" d="M5.376-9.249v1H5.161a3.092,3.092,0,0,0-2.184.813,3.381,3.381,0,0,0-.939,2.215,2.507,2.507,0,0,1,1.993-.838,2.4,2.4,0,0,1,1.927.851,3.281,3.281,0,0,1,.72,2.2A3.27,3.27,0,0,1,5.9-.73,2.678,2.678,0,0,1,3.815.127,2.638,2.638,0,0,1,1.663-.892,4.038,4.038,0,0,1,.838-3.517v-.451a6.084,6.084,0,0,1,1.089-3.9,4,4,0,0,1,3.24-1.381ZM3.834-5.084a1.874,1.874,0,0,0-1.111.362,1.885,1.885,0,0,0-.7.908v.432a3.032,3.032,0,0,0,.514,1.841,1.541,1.541,0,0,0,1.282.7,1.493,1.493,0,0,0,1.247-.584,2.423,2.423,0,0,0,.454-1.53A2.424,2.424,0,0,0,5.056-4.5,1.475,1.475,0,0,0,3.834-5.084ZM13.863-3.942a5.371,5.371,0,0,1-.7,3.066,2.506,2.506,0,0,1-2.2,1,2.524,2.524,0,0,1-2.19-.981A5.1,5.1,0,0,1,8.03-3.783V-5.351a5.251,5.251,0,0,1,.7-3.028,2.525,2.525,0,0,1,2.209-.99,2.548,2.548,0,0,1,2.2.955,5.068,5.068,0,0,1,.724,2.948ZM12.689-5.548a4.3,4.3,0,0,0-.419-2.174A1.442,1.442,0,0,0,10.943-8.4a1.423,1.423,0,0,0-1.314.679A4.2,4.2,0,0,0,9.2-5.637v1.879a4.372,4.372,0,0,0,.435,2.212,1.439,1.439,0,0,0,1.317.714A1.42,1.42,0,0,0,12.248-1.5a4.214,4.214,0,0,0,.441-2.12Z" transform="translate(67.449 138.506)"/>
      <path id="Trazado_726068" data-name="Trazado 726068" d="M6.735-8.582,2.907,0H1.676L5.491-8.277h-5v-.965H6.735Zm7.128,4.64a5.371,5.371,0,0,1-.7,3.066,2.506,2.506,0,0,1-2.2,1,2.524,2.524,0,0,1-2.19-.981A5.1,5.1,0,0,1,8.03-3.783V-5.351a5.251,5.251,0,0,1,.7-3.028,2.525,2.525,0,0,1,2.209-.99,2.548,2.548,0,0,1,2.2.955,5.068,5.068,0,0,1,.724,2.948ZM12.689-5.548a4.3,4.3,0,0,0-.419-2.174A1.442,1.442,0,0,0,10.943-8.4a1.423,1.423,0,0,0-1.314.679A4.2,4.2,0,0,0,9.2-5.637v1.879a4.372,4.372,0,0,0,.435,2.212,1.439,1.439,0,0,0,1.317.714A1.42,1.42,0,0,0,12.248-1.5a4.214,4.214,0,0,0,.441-2.12Z" transform="translate(67.449 106.583)"/>
      <path id="Trazado_726067" data-name="Trazado 726067" d="M6.373-6.83A2.146,2.146,0,0,1,6.008-5.6a2.483,2.483,0,0,1-.987.844,2.649,2.649,0,0,1,1.146.908,2.284,2.284,0,0,1,.422,1.352A2.415,2.415,0,0,1,5.78-.584,3.109,3.109,0,0,1,3.65.127,3.1,3.1,0,0,1,1.514-.587a2.426,2.426,0,0,1-.8-1.907A2.352,2.352,0,0,1,1.12-3.847a2.548,2.548,0,0,1,1.133-.914A2.422,2.422,0,0,1,1.282-5.6,2.177,2.177,0,0,1,.927-6.83a2.389,2.389,0,0,1,.749-1.854A2.81,2.81,0,0,1,3.65-9.369a2.812,2.812,0,0,1,1.971.686A2.384,2.384,0,0,1,6.373-6.83ZM5.415-2.52a1.7,1.7,0,0,0-.492-1.263,1.745,1.745,0,0,0-1.285-.489,1.714,1.714,0,0,0-1.273.482,1.723,1.723,0,0,0-.479,1.27,1.641,1.641,0,0,0,.467,1.238,1.791,1.791,0,0,0,1.3.451,1.786,1.786,0,0,0,1.295-.454A1.637,1.637,0,0,0,5.415-2.52ZM3.65-8.4a1.515,1.515,0,0,0-1.12.428A1.574,1.574,0,0,0,2.1-6.811a1.566,1.566,0,0,0,.422,1.139,1.5,1.5,0,0,0,1.127.435,1.5,1.5,0,0,0,1.127-.435A1.566,1.566,0,0,0,5.2-6.811,1.567,1.567,0,0,0,4.761-7.96,1.494,1.494,0,0,0,3.65-8.4ZM13.863-3.942a5.371,5.371,0,0,1-.7,3.066,2.506,2.506,0,0,1-2.2,1,2.524,2.524,0,0,1-2.19-.981A5.1,5.1,0,0,1,8.03-3.783V-5.351a5.251,5.251,0,0,1,.7-3.028,2.525,2.525,0,0,1,2.209-.99,2.548,2.548,0,0,1,2.2.955,5.068,5.068,0,0,1,.724,2.948ZM12.689-5.548a4.3,4.3,0,0,0-.419-2.174A1.442,1.442,0,0,0,10.943-8.4a1.423,1.423,0,0,0-1.314.679A4.2,4.2,0,0,0,9.2-5.637v1.879a4.372,4.372,0,0,0,.435,2.212,1.439,1.439,0,0,0,1.317.714A1.42,1.42,0,0,0,12.248-1.5a4.214,4.214,0,0,0,.441-2.12Z" transform="translate(67.449 74.66)"/>
      <path id="Trazado_726066" data-name="Trazado 726066" d="M5.269-4.062a2.873,2.873,0,0,1-.879.7,2.385,2.385,0,0,1-1.12.267,2.463,2.463,0,0,1-1.393-.394A2.558,2.558,0,0,1,.958-4.593,3.776,3.776,0,0,1,.635-6.17,3.847,3.847,0,0,1,.987-7.839a2.588,2.588,0,0,1,1-1.136A2.851,2.851,0,0,1,3.5-9.369,2.581,2.581,0,0,1,5.659-8.344a4.471,4.471,0,0,1,.79,2.8v.343A5.974,5.974,0,0,1,5.383-1.266,4.1,4.1,0,0,1,2.165.006H1.936v-1h.248a3.233,3.233,0,0,0,2.234-.757A3.248,3.248,0,0,0,5.269-4.062Zm-1.809,0a1.813,1.813,0,0,0,1.089-.362,2.133,2.133,0,0,0,.727-.9v-.47a3.232,3.232,0,0,0-.5-1.879A1.5,1.5,0,0,0,3.5-8.392,1.508,1.508,0,0,0,2.26-7.8a2.448,2.448,0,0,0-.47,1.565,2.548,2.548,0,0,0,.454,1.558A1.437,1.437,0,0,0,3.459-4.062Zm10.4.121a5.371,5.371,0,0,1-.7,3.066,2.506,2.506,0,0,1-2.2,1,2.524,2.524,0,0,1-2.19-.981A5.1,5.1,0,0,1,8.03-3.783V-5.351a5.251,5.251,0,0,1,.7-3.028,2.525,2.525,0,0,1,2.209-.99,2.548,2.548,0,0,1,2.2.955,5.068,5.068,0,0,1,.724,2.948ZM12.689-5.548a4.3,4.3,0,0,0-.419-2.174A1.442,1.442,0,0,0,10.943-8.4a1.423,1.423,0,0,0-1.314.679A4.2,4.2,0,0,0,9.2-5.637v1.879a4.372,4.372,0,0,0,.435,2.212,1.439,1.439,0,0,0,1.317.714A1.42,1.42,0,0,0,12.248-1.5a4.214,4.214,0,0,0,.441-2.12Z" transform="translate(67.449 42.737)"/>
      <g id="Grupo_1012313" data-name="Grupo 1012313">
        <g id="Grupo_1012312" data-name="Grupo 1012312" clip-path="url(#clip-path)">
          <path id="Trazado_726100" data-name="Trazado 726100" d="M4.627,0H3.447V-7.827l-2.368.87V-8.023L4.443-9.287h.184Zm9.236-3.942a5.371,5.371,0,0,1-.7,3.066,2.506,2.506,0,0,1-2.2,1,2.524,2.524,0,0,1-2.19-.981A5.1,5.1,0,0,1,8.03-3.783V-5.351a5.251,5.251,0,0,1,.7-3.028,2.525,2.525,0,0,1,2.209-.99,2.548,2.548,0,0,1,2.2.955,5.068,5.068,0,0,1,.724,2.948ZM12.689-5.548a4.3,4.3,0,0,0-.419-2.174A1.442,1.442,0,0,0,10.943-8.4a1.423,1.423,0,0,0-1.314.679A4.2,4.2,0,0,0,9.2-5.637v1.879a4.372,4.372,0,0,0,.435,2.212,1.439,1.439,0,0,0,1.317.714A1.42,1.42,0,0,0,12.248-1.5a4.214,4.214,0,0,0,.441-2.12Zm8.474,1.606a5.371,5.371,0,0,1-.7,3.066,2.506,2.506,0,0,1-2.2,1,2.524,2.524,0,0,1-2.19-.981,5.1,5.1,0,0,1-.736-2.929V-5.351a5.251,5.251,0,0,1,.7-3.028,2.525,2.525,0,0,1,2.209-.99,2.548,2.548,0,0,1,2.2.955,5.068,5.068,0,0,1,.724,2.948ZM19.989-5.548a4.3,4.3,0,0,0-.419-2.174A1.442,1.442,0,0,0,18.243-8.4a1.423,1.423,0,0,0-1.314.679A4.2,4.2,0,0,0,16.5-5.637v1.879a4.372,4.372,0,0,0,.435,2.212,1.439,1.439,0,0,0,1.317.714A1.42,1.42,0,0,0,19.548-1.5a4.214,4.214,0,0,0,.441-2.12Z" transform="translate(61.928 10.804)"/>
        </g>
      </g>
      <path id="Trazado_726086" data-name="Trazado 726086" d="M4.627,0H3.447V-7.827l-2.368.87V-8.023L4.443-9.287h.184Zm9.236-3.942a5.371,5.371,0,0,1-.7,3.066,2.506,2.506,0,0,1-2.2,1,2.524,2.524,0,0,1-2.19-.981A5.1,5.1,0,0,1,8.03-3.783V-5.351a5.251,5.251,0,0,1,.7-3.028,2.525,2.525,0,0,1,2.209-.99,2.548,2.548,0,0,1,2.2.955,5.068,5.068,0,0,1,.724,2.948ZM12.689-5.548a4.3,4.3,0,0,0-.419-2.174A1.442,1.442,0,0,0,10.943-8.4a1.423,1.423,0,0,0-1.314.679A4.2,4.2,0,0,0,9.2-5.637v1.879a4.372,4.372,0,0,0,.435,2.212,1.439,1.439,0,0,0,1.317.714A1.42,1.42,0,0,0,12.248-1.5a4.214,4.214,0,0,0,.441-2.12Zm8.474,1.606a5.371,5.371,0,0,1-.7,3.066,2.506,2.506,0,0,1-2.2,1,2.524,2.524,0,0,1-2.19-.981,5.1,5.1,0,0,1-.736-2.929V-5.351a5.251,5.251,0,0,1,.7-3.028,2.525,2.525,0,0,1,2.209-.99,2.548,2.548,0,0,1,2.2.955,5.068,5.068,0,0,1,.724,2.948ZM19.989-5.548a4.3,4.3,0,0,0-.419-2.174A1.442,1.442,0,0,0,18.243-8.4a1.423,1.423,0,0,0-1.314.679A4.2,4.2,0,0,0,16.5-5.637v1.879a4.372,4.372,0,0,0,.435,2.212,1.439,1.439,0,0,0,1.317.714A1.42,1.42,0,0,0,19.548-1.5a4.214,4.214,0,0,0,.441-2.12Z" transform="translate(394.523 330.059)"/>
      <path id="Trazado_726087" data-name="Trazado 726087" d="M5.269-4.062a2.873,2.873,0,0,1-.879.7,2.385,2.385,0,0,1-1.12.267,2.463,2.463,0,0,1-1.393-.394A2.558,2.558,0,0,1,.958-4.593,3.776,3.776,0,0,1,.635-6.17,3.847,3.847,0,0,1,.987-7.839a2.588,2.588,0,0,1,1-1.136A2.851,2.851,0,0,1,3.5-9.369,2.581,2.581,0,0,1,5.659-8.344a4.471,4.471,0,0,1,.79,2.8v.343A5.974,5.974,0,0,1,5.383-1.266,4.1,4.1,0,0,1,2.165.006H1.936v-1h.248a3.233,3.233,0,0,0,2.234-.757A3.248,3.248,0,0,0,5.269-4.062Zm-1.809,0a1.813,1.813,0,0,0,1.089-.362,2.133,2.133,0,0,0,.727-.9v-.47a3.232,3.232,0,0,0-.5-1.879A1.5,1.5,0,0,0,3.5-8.392,1.508,1.508,0,0,0,2.26-7.8a2.448,2.448,0,0,0-.47,1.565,2.548,2.548,0,0,0,.454,1.558A1.437,1.437,0,0,0,3.459-4.062Zm10.4.121a5.371,5.371,0,0,1-.7,3.066,2.506,2.506,0,0,1-2.2,1,2.524,2.524,0,0,1-2.19-.981A5.1,5.1,0,0,1,8.03-3.783V-5.351a5.251,5.251,0,0,1,.7-3.028,2.525,2.525,0,0,1,2.209-.99,2.548,2.548,0,0,1,2.2.955,5.068,5.068,0,0,1,.724,2.948ZM12.689-5.548a4.3,4.3,0,0,0-.419-2.174A1.442,1.442,0,0,0,10.943-8.4a1.423,1.423,0,0,0-1.314.679A4.2,4.2,0,0,0,9.2-5.637v1.879a4.372,4.372,0,0,0,.435,2.212,1.439,1.439,0,0,0,1.317.714A1.42,1.42,0,0,0,12.248-1.5a4.214,4.214,0,0,0,.441-2.12Z" transform="translate(395.705 298.135)"/>
      <path id="Trazado_726088" data-name="Trazado 726088" d="M6.373-6.83A2.146,2.146,0,0,1,6.008-5.6a2.483,2.483,0,0,1-.987.844,2.649,2.649,0,0,1,1.146.908,2.284,2.284,0,0,1,.422,1.352A2.415,2.415,0,0,1,5.78-.584,3.109,3.109,0,0,1,3.65.127,3.1,3.1,0,0,1,1.514-.587a2.426,2.426,0,0,1-.8-1.907A2.352,2.352,0,0,1,1.12-3.847a2.548,2.548,0,0,1,1.133-.914A2.422,2.422,0,0,1,1.282-5.6,2.177,2.177,0,0,1,.927-6.83a2.389,2.389,0,0,1,.749-1.854A2.81,2.81,0,0,1,3.65-9.369a2.812,2.812,0,0,1,1.971.686A2.384,2.384,0,0,1,6.373-6.83ZM5.415-2.52a1.7,1.7,0,0,0-.492-1.263,1.745,1.745,0,0,0-1.285-.489,1.714,1.714,0,0,0-1.273.482,1.723,1.723,0,0,0-.479,1.27,1.641,1.641,0,0,0,.467,1.238,1.791,1.791,0,0,0,1.3.451,1.786,1.786,0,0,0,1.295-.454A1.637,1.637,0,0,0,5.415-2.52ZM3.65-8.4a1.515,1.515,0,0,0-1.12.428A1.574,1.574,0,0,0,2.1-6.811a1.566,1.566,0,0,0,.422,1.139,1.5,1.5,0,0,0,1.127.435,1.5,1.5,0,0,0,1.127-.435A1.566,1.566,0,0,0,5.2-6.811,1.567,1.567,0,0,0,4.761-7.96,1.494,1.494,0,0,0,3.65-8.4ZM13.863-3.942a5.371,5.371,0,0,1-.7,3.066,2.506,2.506,0,0,1-2.2,1,2.524,2.524,0,0,1-2.19-.981A5.1,5.1,0,0,1,8.03-3.783V-5.351a5.251,5.251,0,0,1,.7-3.028,2.525,2.525,0,0,1,2.209-.99,2.548,2.548,0,0,1,2.2.955,5.068,5.068,0,0,1,.724,2.948ZM12.689-5.548a4.3,4.3,0,0,0-.419-2.174A1.442,1.442,0,0,0,10.943-8.4a1.423,1.423,0,0,0-1.314.679A4.2,4.2,0,0,0,9.2-5.637v1.879a4.372,4.372,0,0,0,.435,2.212,1.439,1.439,0,0,0,1.317.714A1.42,1.42,0,0,0,12.248-1.5a4.214,4.214,0,0,0,.441-2.12Z" transform="translate(395.705 266.213)"/>
      <path id="Trazado_726089" data-name="Trazado 726089" d="M6.735-8.582,2.907,0H1.676L5.491-8.277h-5v-.965H6.735Zm7.128,4.64a5.371,5.371,0,0,1-.7,3.066,2.506,2.506,0,0,1-2.2,1,2.524,2.524,0,0,1-2.19-.981A5.1,5.1,0,0,1,8.03-3.783V-5.351a5.251,5.251,0,0,1,.7-3.028,2.525,2.525,0,0,1,2.209-.99,2.548,2.548,0,0,1,2.2.955,5.068,5.068,0,0,1,.724,2.948ZM12.689-5.548a4.3,4.3,0,0,0-.419-2.174A1.442,1.442,0,0,0,10.943-8.4a1.423,1.423,0,0,0-1.314.679A4.2,4.2,0,0,0,9.2-5.637v1.879a4.372,4.372,0,0,0,.435,2.212,1.439,1.439,0,0,0,1.317.714A1.42,1.42,0,0,0,12.248-1.5a4.214,4.214,0,0,0,.441-2.12Z" transform="translate(395.705 234.29)"/>
      <path id="Trazado_726090" data-name="Trazado 726090" d="M5.376-9.249v1H5.161a3.092,3.092,0,0,0-2.184.813,3.381,3.381,0,0,0-.939,2.215,2.507,2.507,0,0,1,1.993-.838,2.4,2.4,0,0,1,1.927.851,3.281,3.281,0,0,1,.72,2.2A3.27,3.27,0,0,1,5.9-.73,2.678,2.678,0,0,1,3.815.127,2.638,2.638,0,0,1,1.663-.892,4.038,4.038,0,0,1,.838-3.517v-.451a6.084,6.084,0,0,1,1.089-3.9,4,4,0,0,1,3.24-1.381ZM3.834-5.084a1.874,1.874,0,0,0-1.111.362,1.885,1.885,0,0,0-.7.908v.432a3.032,3.032,0,0,0,.514,1.841,1.541,1.541,0,0,0,1.282.7,1.493,1.493,0,0,0,1.247-.584,2.423,2.423,0,0,0,.454-1.53A2.424,2.424,0,0,0,5.056-4.5,1.475,1.475,0,0,0,3.834-5.084ZM13.863-3.942a5.371,5.371,0,0,1-.7,3.066,2.506,2.506,0,0,1-2.2,1,2.524,2.524,0,0,1-2.19-.981A5.1,5.1,0,0,1,8.03-3.783V-5.351a5.251,5.251,0,0,1,.7-3.028,2.525,2.525,0,0,1,2.209-.99,2.548,2.548,0,0,1,2.2.955,5.068,5.068,0,0,1,.724,2.948ZM12.689-5.548a4.3,4.3,0,0,0-.419-2.174A1.442,1.442,0,0,0,10.943-8.4a1.423,1.423,0,0,0-1.314.679A4.2,4.2,0,0,0,9.2-5.637v1.879a4.372,4.372,0,0,0,.435,2.212,1.439,1.439,0,0,0,1.317.714A1.42,1.42,0,0,0,12.248-1.5a4.214,4.214,0,0,0,.441-2.12Z" transform="translate(395.705 202.367)"/>
      <path id="Trazado_726091" data-name="Trazado 726091" d="M1.308-4.634l.47-4.608H6.513v1.085H2.774l-.279,2.52a2.983,2.983,0,0,1,1.542-.4A2.55,2.55,0,0,1,6.043-5.2a3.271,3.271,0,0,1,.743,2.257A3.158,3.158,0,0,1,6.014-.7,2.811,2.811,0,0,1,3.859.127a2.921,2.921,0,0,1-2-.679A2.711,2.711,0,0,1,.978-2.431H2.088a1.865,1.865,0,0,0,.565,1.2,1.757,1.757,0,0,0,1.206.4A1.585,1.585,0,0,0,5.145-1.39a2.335,2.335,0,0,0,.467-1.542,2.143,2.143,0,0,0-.5-1.489,1.717,1.717,0,0,0-1.343-.562,1.936,1.936,0,0,0-1.206.336l-.311.254Zm12.556.692a5.371,5.371,0,0,1-.7,3.066,2.506,2.506,0,0,1-2.2,1,2.524,2.524,0,0,1-2.19-.981A5.1,5.1,0,0,1,8.03-3.783V-5.351a5.251,5.251,0,0,1,.7-3.028,2.525,2.525,0,0,1,2.209-.99,2.548,2.548,0,0,1,2.2.955,5.068,5.068,0,0,1,.724,2.948ZM12.689-5.548a4.3,4.3,0,0,0-.419-2.174A1.442,1.442,0,0,0,10.943-8.4a1.423,1.423,0,0,0-1.314.679A4.2,4.2,0,0,0,9.2-5.637v1.879a4.372,4.372,0,0,0,.435,2.212,1.439,1.439,0,0,0,1.317.714A1.42,1.42,0,0,0,12.248-1.5a4.214,4.214,0,0,0,.441-2.12Z" transform="translate(395.705 170.444)"/>
      <path id="Trazado_726092" data-name="Trazado 726092" d="M5.726-3.1H7.008v.958H5.726V0H4.545V-2.146H.336v-.692l4.139-6.4h1.25Zm-4.056,0H4.545V-7.636l-.14.254Zm12.194-.838a5.371,5.371,0,0,1-.7,3.066,2.506,2.506,0,0,1-2.2,1,2.524,2.524,0,0,1-2.19-.981A5.1,5.1,0,0,1,8.03-3.783V-5.351a5.251,5.251,0,0,1,.7-3.028,2.525,2.525,0,0,1,2.209-.99,2.548,2.548,0,0,1,2.2.955,5.068,5.068,0,0,1,.724,2.948ZM12.689-5.548a4.3,4.3,0,0,0-.419-2.174A1.442,1.442,0,0,0,10.943-8.4a1.423,1.423,0,0,0-1.314.679A4.2,4.2,0,0,0,9.2-5.637v1.879a4.372,4.372,0,0,0,.435,2.212,1.439,1.439,0,0,0,1.317.714A1.42,1.42,0,0,0,12.248-1.5a4.214,4.214,0,0,0,.441-2.12Z" transform="translate(395.705 138.521)"/>
      <path id="Trazado_726096" data-name="Trazado 726096" d="M2.476-5.192h.882A1.939,1.939,0,0,0,4.666-5.63a1.463,1.463,0,0,0,.476-1.149A1.434,1.434,0,0,0,3.523-8.4a1.684,1.684,0,0,0-1.216.435,1.522,1.522,0,0,0-.454,1.152H.679a2.358,2.358,0,0,1,.8-1.825,2.925,2.925,0,0,1,2.041-.727,2.891,2.891,0,0,1,2.05.692,2.5,2.5,0,0,1,.743,1.923,2.029,2.029,0,0,1-.39,1.168,2.357,2.357,0,0,1-1.063.844,2.271,2.271,0,0,1,1.177.8,2.221,2.221,0,0,1,.416,1.365A2.521,2.521,0,0,1,5.643-.6a3.043,3.043,0,0,1-2.114.73,3.123,3.123,0,0,1-2.117-.7A2.337,2.337,0,0,1,.6-2.437H1.777A1.511,1.511,0,0,0,2.253-1.27a1.811,1.811,0,0,0,1.276.438,1.777,1.777,0,0,0,1.3-.444,1.712,1.712,0,0,0,.451-1.276,1.554,1.554,0,0,0-.5-1.238,2.157,2.157,0,0,0-1.428-.444H2.476Zm11.388,1.25a5.371,5.371,0,0,1-.7,3.066,2.506,2.506,0,0,1-2.2,1,2.524,2.524,0,0,1-2.19-.981A5.1,5.1,0,0,1,8.03-3.783V-5.351a5.251,5.251,0,0,1,.7-3.028,2.525,2.525,0,0,1,2.209-.99,2.548,2.548,0,0,1,2.2.955,5.068,5.068,0,0,1,.724,2.948ZM12.689-5.548a4.3,4.3,0,0,0-.419-2.174A1.442,1.442,0,0,0,10.943-8.4a1.423,1.423,0,0,0-1.314.679A4.2,4.2,0,0,0,9.2-5.637v1.879a4.372,4.372,0,0,0,.435,2.212,1.439,1.439,0,0,0,1.317.714A1.42,1.42,0,0,0,12.248-1.5a4.214,4.214,0,0,0,.441-2.12Z" transform="translate(395.705 106.598)"/>
      <path id="Trazado_726097" data-name="Trazado 726097" d="M6.824,0H.768V-.844L3.967-4.4A7.6,7.6,0,0,0,4.948-5.71a2.188,2.188,0,0,0,.27-1.044A1.658,1.658,0,0,0,4.78-7.941,1.531,1.531,0,0,0,3.612-8.4a1.814,1.814,0,0,0-1.362.5,1.9,1.9,0,0,0-.486,1.387H.59a2.726,2.726,0,0,1,.822-2.063,3.047,3.047,0,0,1,2.2-.787,2.928,2.928,0,0,1,2.038.676,2.306,2.306,0,0,1,.749,1.8,5.287,5.287,0,0,1-1.739,3.25L2.184-.958h4.64Zm7.04-3.942a5.371,5.371,0,0,1-.7,3.066,2.506,2.506,0,0,1-2.2,1,2.524,2.524,0,0,1-2.19-.981A5.1,5.1,0,0,1,8.03-3.783V-5.351a5.251,5.251,0,0,1,.7-3.028,2.525,2.525,0,0,1,2.209-.99,2.548,2.548,0,0,1,2.2.955,5.068,5.068,0,0,1,.724,2.948ZM12.689-5.548a4.3,4.3,0,0,0-.419-2.174A1.442,1.442,0,0,0,10.943-8.4a1.423,1.423,0,0,0-1.314.679A4.2,4.2,0,0,0,9.2-5.637v1.879a4.372,4.372,0,0,0,.435,2.212,1.439,1.439,0,0,0,1.317.714A1.42,1.42,0,0,0,12.248-1.5a4.214,4.214,0,0,0,.441-2.12Z" transform="translate(395.705 74.675)"/>
      <path id="Trazado_726098" data-name="Trazado 726098" d="M4.627,0H3.447V-7.827l-2.368.87V-8.023L4.443-9.287h.184Zm9.236-3.942a5.371,5.371,0,0,1-.7,3.066,2.506,2.506,0,0,1-2.2,1,2.524,2.524,0,0,1-2.19-.981A5.1,5.1,0,0,1,8.03-3.783V-5.351a5.251,5.251,0,0,1,.7-3.028,2.525,2.525,0,0,1,2.209-.99,2.548,2.548,0,0,1,2.2.955,5.068,5.068,0,0,1,.724,2.948ZM12.689-5.548a4.3,4.3,0,0,0-.419-2.174A1.442,1.442,0,0,0,10.943-8.4a1.423,1.423,0,0,0-1.314.679A4.2,4.2,0,0,0,9.2-5.637v1.879a4.372,4.372,0,0,0,.435,2.212,1.439,1.439,0,0,0,1.317.714A1.42,1.42,0,0,0,12.248-1.5a4.214,4.214,0,0,0,.441-2.12Z" transform="translate(395.705 42.752)"/>
      <g id="Grupo_1012315" data-name="Grupo 1012315">
        <g id="Grupo_1012314" data-name="Grupo 1012314" clip-path="url(#clip-path)">
          <path id="Trazado_726099" data-name="Trazado 726099" d="M6.563-3.942a5.371,5.371,0,0,1-.7,3.066,2.506,2.506,0,0,1-2.2,1,2.524,2.524,0,0,1-2.19-.981A5.1,5.1,0,0,1,.73-3.783V-5.351a5.251,5.251,0,0,1,.7-3.028,2.525,2.525,0,0,1,2.209-.99,2.548,2.548,0,0,1,2.2.955,5.068,5.068,0,0,1,.724,2.948ZM5.389-5.548A4.3,4.3,0,0,0,4.97-7.722,1.442,1.442,0,0,0,3.644-8.4a1.423,1.423,0,0,0-1.314.679A4.2,4.2,0,0,0,1.9-5.637v1.879a4.372,4.372,0,0,0,.435,2.212,1.439,1.439,0,0,0,1.317.714A1.42,1.42,0,0,0,4.948-1.5a4.214,4.214,0,0,0,.441-2.12Z" transform="translate(398.379 10.804)"/>
        </g>
      </g>
      <line id="Línea_3068" data-name="Línea 3068" y2="320.928" transform="translate(97.053 6.015)" fill="none" stroke="#636363" stroke-miterlimit="10" stroke-width="1"/>
      <line id="Línea_3069" data-name="Línea 3069" y2="326.396" transform="translate(137.337 6.015)" fill="none" stroke="#636363" stroke-miterlimit="10" stroke-width="1"/>
      <line id="Línea_3070" data-name="Línea 3070" y2="326.396" transform="translate(177.622 6.015)" fill="none" stroke="#636363" stroke-miterlimit="10" stroke-width="1"/>
      <line id="Línea_3071" data-name="Línea 3071" y2="326.396" transform="translate(217.906 6.015)" fill="none" stroke="#636363" stroke-miterlimit="10" stroke-width="1"/>
      <line id="Línea_3072" data-name="Línea 3072" y2="326.396" transform="translate(258.19 6.015)" fill="none" stroke="#636363" stroke-miterlimit="10" stroke-width="1"/>
      <line id="Línea_3073" data-name="Línea 3073" y2="326.396" transform="translate(298.474 6.015)" fill="none" stroke="#636363" stroke-miterlimit="10" stroke-width="1"/>
      <line id="Línea_3074" data-name="Línea 3074" y2="326.396" transform="translate(338.758 6.015)" fill="none" stroke="#636363" stroke-miterlimit="10" stroke-width="1"/>
      <line id="Línea_3075" data-name="Línea 3075" y2="320.928" transform="translate(379.043 6.015)" fill="none" stroke="#636363" stroke-miterlimit="10" stroke-width="1"/>
      <line id="Línea_3076" data-name="Línea 3076" x1="283.319" transform="translate(96.388 326.943)" fill="none" stroke="#636363" stroke-miterlimit="10" stroke-width="1"/>
      <line id="Línea_3077" data-name="Línea 3077" x1="292.434" transform="translate(92.742 295.018)" fill="none" stroke="#636363" stroke-miterlimit="10" stroke-width="1"/>
      <line id="Línea_3078" data-name="Línea 3078" x1="292.434" transform="translate(92.742 263.092)" fill="none" stroke="#636363" stroke-miterlimit="10" stroke-width="1"/>
      <line id="Línea_3079" data-name="Línea 3079" x1="292.434" transform="translate(92.742 231.167)" fill="none" stroke="#636363" stroke-miterlimit="10" stroke-width="1"/>
      <line id="Línea_3080" data-name="Línea 3080" x1="292.434" transform="translate(92.742 199.241)" fill="none" stroke="#636363" stroke-miterlimit="10" stroke-width="1"/>
      <line id="Línea_3081" data-name="Línea 3081" x1="292.434" transform="translate(92.742 167.316)" fill="none" stroke="#636363" stroke-miterlimit="10" stroke-width="1"/>
      <line id="Línea_3082" data-name="Línea 3082" x1="292.434" transform="translate(92.742 135.391)" fill="none" stroke="#636363" stroke-miterlimit="10" stroke-width="1"/>
      <line id="Línea_3083" data-name="Línea 3083" x1="292.434" transform="translate(92.742 103.465)" fill="none" stroke="#636363" stroke-miterlimit="10" stroke-width="1"/>
      <line id="Línea_3084" data-name="Línea 3084" x1="292.434" transform="translate(92.742 71.54)" fill="none" stroke="#636363" stroke-miterlimit="10" stroke-width="1"/>
      <line id="Línea_3085" data-name="Línea 3085" x1="292.434" transform="translate(92.742 39.614)" fill="none" stroke="#636363" stroke-miterlimit="10" stroke-width="1"/>
      <line id="Línea_3086" data-name="Línea 3086" x1="283.319" transform="translate(96.388 6.777)" fill="none" stroke="#636363" stroke-miterlimit="10" stroke-width="1"/>
      <g id="Grupo_1012317" data-name="Grupo 1012317">
        <g id="Grupo_1012316" data-name="Grupo 1012316" clip-path="url(#clip-path)">
          <path id="Trazado_726055" data-name="Trazado 726055" d="M106.677,8.436s90.564-1.673,111.76,74.285c9.8,35.124,27.628,105.853,37.229,141.032,6.583,24.123,30.007,103.937,132.822,103.937" transform="translate(-9.445 -0.747)" fill="none" stroke="#ffa031" stroke-miterlimit="10" stroke-width="2"/>
          <path id="Trazado_726056" data-name="Trazado 726056" d="M106.677,8.436S206.1,6.762,227.294,82.721c9.8,35.124,26.26,106.256,37.228,141.032,12.188,38.645,38.839,103.937,124.63,103.63" transform="translate(-9.445 -0.747)" fill="none" stroke="#ffa031" stroke-miterlimit="10" stroke-width="2"/>
        </g>
      </g>
    </g>
  </g>
</svg>
