<svg xmlns="http://www.w3.org/2000/svg" xmlns:xlink="http://www.w3.org/1999/xlink" width="295" height="217" viewBox="0 0 295 217">
  <defs>
    <radialGradient id="radial-gradient" cx="0.5" cy="0.5" r="0.5" gradientUnits="objectBoundingBox">
      <stop offset="0" stop-color="#fff"/>
      <stop offset="1" stop-color="#edeff2"/>
    </radialGradient>
    <clipPath id="clip-path">
      <rect id="Rectángulo_348926" data-name="Rectángulo 348926" width="186.721" height="100.673" fill="none"/>
    </clipPath>
    <clipPath id="clip-path-2">
      <rect id="Rectángulo_348925" data-name="Rectángulo 348925" width="186.721" height="100.672" fill="none"/>
    </clipPath>
    <clipPath id="clip-path-3">
      <rect id="Rectángulo_348910" data-name="Rectángulo 348910" width="181.351" height="9.142" fill="none"/>
    </clipPath>
    <clipPath id="clip-path-4">
      <rect id="Rectángulo_348912" data-name="Rectángulo 348912" width="181.351" height="5.388" fill="none"/>
    </clipPath>
  </defs>
  <g id="Grupo_1012325" data-name="Grupo 1012325" transform="translate(-180 -3437)">
    <path id="Rectángulo_348246" data-name="Rectángulo 348246" d="M10,0H285a10,10,0,0,1,10,10V217a0,0,0,0,1,0,0H0a0,0,0,0,1,0,0V10A10,10,0,0,1,10,0Z" transform="translate(180 3437)" fill="url(#radial-gradient)"/>
    <g id="Grupo_1010477" data-name="Grupo 1010477" transform="translate(234 3506.327)">
      <g id="Grupo_1010476" data-name="Grupo 1010476" clip-path="url(#clip-path)">
        <rect id="Rectángulo_348908" data-name="Rectángulo 348908" width="186.721" height="33.91" transform="translate(0 33.382)" fill="#686868"/>
        <g id="Grupo_1010475" data-name="Grupo 1010475" transform="translate(0 0)">
          <g id="Grupo_1010474" data-name="Grupo 1010474" clip-path="url(#clip-path-2)">
            <g id="Grupo_1010470" data-name="Grupo 1010470" transform="translate(2.685 55.464)" opacity="0.15">
              <g id="Grupo_1010469" data-name="Grupo 1010469">
                <g id="Grupo_1010468" data-name="Grupo 1010468" clip-path="url(#clip-path-3)">
                  <rect id="Rectángulo_348909" data-name="Rectángulo 348909" width="181.351" height="9.141" transform="translate(0 0.001)" fill="#1d1d1b"/>
                </g>
              </g>
            </g>
            <g id="Grupo_1010473" data-name="Grupo 1010473" transform="translate(2.685 36.254)" opacity="0.75">
              <g id="Grupo_1010472" data-name="Grupo 1010472">
                <g id="Grupo_1010471" data-name="Grupo 1010471" clip-path="url(#clip-path-4)">
                  <rect id="Rectángulo_348911" data-name="Rectángulo 348911" width="181.351" height="5.388" transform="translate(0 0.001)" fill="#fff"/>
                </g>
              </g>
            </g>
            <path id="Trazado_719545" data-name="Trazado 719545" d="M131.671,61.968H25.808a7.3,7.3,0,0,1-7.3-7.3V22.3a7.3,7.3,0,0,1,7.3-7.3H131.671a7.3,7.3,0,0,1,7.3,7.3V54.668a7.3,7.3,0,0,1-7.3,7.3" transform="translate(14.621 11.851)" fill="#d94919"/>
            <path id="Trazado_719546" data-name="Trazado 719546" d="M124.708,50.336A50.336,50.336,0,1,1,74.372,0a50.336,50.336,0,0,1,50.336,50.336" transform="translate(18.988 0)" fill="#e94e1b"/>
            <path id="Trazado_719547" data-name="Trazado 719547" d="M114.481,47.2A43.24,43.24,0,1,1,71.242,3.965,43.239,43.239,0,0,1,114.481,47.2" transform="translate(22.12 3.132)" fill="#ededed"/>
            <rect id="Rectángulo_348913" data-name="Rectángulo 348913" width="57.169" height="14.696" transform="translate(64.776 26.946)" fill="#fff"/>
            <path id="Trazado_719548" data-name="Trazado 719548" d="M94.535,30.926h-58.8V14.6h58.8Zm-57.17-1.632H92.9V16.23H37.364Z" transform="translate(28.228 11.532)" fill="#575756"/>
            <rect id="Rectángulo_348914" data-name="Rectángulo 348914" width="6.172" height="10.616" transform="translate(67.023 28.985)" fill="#dadada"/>
            <rect id="Rectángulo_348915" data-name="Rectángulo 348915" width="6.172" height="10.616" transform="translate(74.789 28.985)" fill="#dadada"/>
            <rect id="Rectángulo_348916" data-name="Rectángulo 348916" width="6.172" height="10.616" transform="translate(82.558 28.985)" fill="#dadada"/>
            <rect id="Rectángulo_348917" data-name="Rectángulo 348917" width="6.172" height="10.616" transform="translate(90.326 28.985)" fill="#dadada"/>
            <rect id="Rectángulo_348918" data-name="Rectángulo 348918" width="6.172" height="10.616" transform="translate(98.093 28.985)" fill="#dadada"/>
            <rect id="Rectángulo_348919" data-name="Rectángulo 348919" width="6.172" height="10.616" transform="translate(105.862 28.985)" fill="#dadada"/>
            <rect id="Rectángulo_348920" data-name="Rectángulo 348920" width="6.172" height="10.616" transform="translate(113.63 28.985)" fill="#dadada"/>
            <path id="Trazado_719549" data-name="Trazado 719549" d="M79.169,39.53A12.282,12.282,0,1,1,66.886,27.249,12.282,12.282,0,0,1,79.169,39.53" transform="translate(43.137 21.526)" fill="#fff"/>
            <path id="Trazado_719550" data-name="Trazado 719550" d="M61.649,50.412A.416.416,0,0,1,61.234,50V28.207a.415.415,0,1,1,.831,0V50a.416.416,0,0,1-.415.415" transform="translate(48.374 21.955)" fill="#3c3c3b"/>
            <path id="Trazado_719551" data-name="Trazado 719551" d="M77.353,34.71H55.563a.415.415,0,1,1,0-.831h21.79a.415.415,0,1,1,0,.831" transform="translate(43.566 26.764)" fill="#3c3c3b"/>
            <path id="Trazado_719552" data-name="Trazado 719552" d="M72.753,45.812a.416.416,0,0,1-.294-.122L57.051,30.284a.416.416,0,1,1,.589-.589L73.047,45.1a.415.415,0,0,1-.294.709" transform="translate(44.974 23.363)" fill="#3c3c3b"/>
            <path id="Trazado_719553" data-name="Trazado 719553" d="M57.346,45.812a.415.415,0,0,1-.294-.709L72.459,29.7a.416.416,0,0,1,.589.589L57.64,45.691a.416.416,0,0,1-.294.122" transform="translate(44.975 23.363)" fill="#3c3c3b"/>
            <path id="Trazado_719554" data-name="Trazado 719554" d="M74.461,38.088a9.015,9.015,0,1,1-9.016-9.014,9.014,9.014,0,0,1,9.016,9.014" transform="translate(44.579 22.968)" fill="#fff"/>
            <path id="Trazado_719555" data-name="Trazado 719555" d="M64.053,37.81A2.806,2.806,0,1,1,65.166,34a2.807,2.807,0,0,1-1.113,3.809" transform="translate(47.319 25.707)" fill="#d94919"/>
            <path id="Trazado_719556" data-name="Trazado 719556" d="M70.957,31.2l-9.465,3.485,1.43,2.613Z" transform="translate(48.577 24.648)" fill="#d94919"/>
            <rect id="Rectángulo_348921" data-name="Rectángulo 348921" width="31.43" height="2.825" transform="translate(63.564 50.905)" fill="#878787"/>
            <rect id="Rectángulo_348922" data-name="Rectángulo 348922" width="28.436" height="2.825" transform="translate(63.564 57.008)" fill="#878787"/>
            <rect id="Rectángulo_348923" data-name="Rectángulo 348923" width="22.582" height="2.825" transform="translate(63.564 63.111)" fill="#878787"/>
            <rect id="Rectángulo_348924" data-name="Rectángulo 348924" width="26.367" height="2.825" transform="translate(63.564 69.213)" fill="#878787"/>
            <path id="Trazado_719557" data-name="Trazado 719557" d="M65.988,47.892a3.165,3.165,0,0,1-3.165,3.165H49.961a3.165,3.165,0,0,1,0-6.329H62.824a3.166,3.166,0,0,1,3.165,3.165" transform="translate(36.968 35.333)" fill="#c6c6c6"/>
          </g>
        </g>
      </g>
    </g>
  </g>
</svg>
