<svg xmlns="http://www.w3.org/2000/svg" xmlns:xlink="http://www.w3.org/1999/xlink" width="295" height="217" viewBox="0 0 295 217">
  <defs>
    <radialGradient id="radial-gradient" cx="0.5" cy="0.5" r="0.5" gradientUnits="objectBoundingBox">
      <stop offset="0" stop-color="#fff"/>
      <stop offset="1" stop-color="#edeff2"/>
    </radialGradient>
    <clipPath id="clip-path">
      <rect id="Rectángulo_348907" data-name="Rectángulo 348907" width="130.75" height="177.497" fill="none"/>
    </clipPath>
    <clipPath id="clip-path-2">
      <rect id="Rectángulo_348906" data-name="Rectángulo 348906" width="130.749" height="177.497" fill="none"/>
    </clipPath>
    <clipPath id="clip-path-3">
      <rect id="Rectángulo_348902" data-name="Rectángulo 348902" width="111.183" height="52.753" fill="none"/>
    </clipPath>
    <clipPath id="clip-path-4">
      <rect id="Rectángulo_348903" data-name="Rectángulo 348903" width="46.574" height="21.267" fill="none"/>
    </clipPath>
    <clipPath id="clip-path-5">
      <rect id="Rectángulo_348904" data-name="Rectángulo 348904" width="15.845" height="20.904" fill="none"/>
    </clipPath>
  </defs>
  <g id="Grupo_1012326" data-name="Grupo 1012326" transform="translate(-495 -3437)">
    <path id="Rectángulo_348244" data-name="Rectángulo 348244" d="M10,0H285a10,10,0,0,1,10,10V217a0,0,0,0,1,0,0H0a0,0,0,0,1,0,0V10A10,10,0,0,1,10,0Z" transform="translate(495 3437)" fill="url(#radial-gradient)"/>
    <g id="Grupo_1010467" data-name="Grupo 1010467" transform="translate(577.418 3463.7)">
      <g id="Grupo_1010466" data-name="Grupo 1010466" clip-path="url(#clip-path)">
        <rect id="Rectángulo_348901" data-name="Rectángulo 348901" width="24.544" height="22.903" transform="translate(53.098 59.46)" fill="#e8bf93"/>
        <g id="Grupo_1010465" data-name="Grupo 1010465" transform="translate(0 0)">
          <g id="Grupo_1010464" data-name="Grupo 1010464" clip-path="url(#clip-path-2)">
            <path id="Trazado_719443" data-name="Trazado 719443" d="M101.315,92.718,99.126,94l.136,3.448.426,10.074.62,15.111H21.517l.6-14.743.446-10.442L22.7,94l-2.344-1.375-15.6-9.086,16.215-35.9a10.771,10.771,0,0,1,3.72-3.235c0-.019,0-.019.019-.019a9.6,9.6,0,0,1,1.9-.794c.93-.387,1.918-.814,2.945-1.24.116-.058.252-.1.387-.155.659-.271,1.337-.523,2.015-.794,2.441-.969,5-1.957,7.342-2.848,5.153-1.937,9.338-3.448,9.338-3.448,0,4.708,6.141,7.071,12.263,7.071,6.141,0,12.283-2.364,12.283-7.071,0,0,4.185,1.511,9.318,3.448,2.364.891,4.9,1.879,7.342,2.848.7.271,1.356.523,2.015.794.136.058.271.1.387.155,1.027.426,2.015.852,2.945,1.24a10.278,10.278,0,0,1,1.918.794.019.019,0,0,1,.019.019,10.948,10.948,0,0,1,3.72,3.235l16.2,35.9Z" transform="translate(4.461 32.902)" fill="#ededed"/>
            <path id="Trazado_719444" data-name="Trazado 719444" d="M26.776,70.564,26.1,84.454l-.329-.077L.409,78.758,8.836,60.1l15.6,9.086Z" transform="translate(0.383 56.335)" fill="#ffd2a1"/>
            <path id="Trazado_719445" data-name="Trazado 719445" d="M79.817,78.758,68,81.2,54.031,84.086,53.6,74.012l-.136-3.448,2.189-1.279L71.389,60.1Z" transform="translate(50.117 56.335)" fill="#ffd2a1"/>
            <path id="Trazado_719446" data-name="Trazado 719446" d="M92.2,120.962H13.409l.6-14.743.426-10.442h.1a10.885,10.885,0,0,0,10.307-11.7l-.852-10.946-2.538-32.45c.116-.058.252-.1.387-.155.659-.271,1.337-.523,2.015-.794,2.441-.969,5-1.957,7.342-2.848L34,72.974h37.6L74.4,36.882c2.364.891,4.9,1.879,7.342,2.848.7.271,1.356.523,2.015.794.136.058.271.1.387.155l-2.267,29.06-1.1,14.336a10.869,10.869,0,0,0,10.287,11.7h.116l.407,10.074Z" transform="translate(12.568 34.571)" fill="#0091a1"/>
            <g id="Grupo_1010457" data-name="Grupo 1010457" transform="translate(9.646 102.779)" opacity="0.1">
              <g id="Grupo_1010456" data-name="Grupo 1010456">
                <g id="Grupo_1010455" data-name="Grupo 1010455" clip-path="url(#clip-path-3)">
                  <path id="Trazado_719447" data-name="Trazado 719447" d="M113.449,87.807,99.481,90.694l.62,15.111H21.311l.6-14.743.426-10.442h.019l.136-3.448-.678,13.891-.329-.077.058-.232L7.711,87.885,4.979,80.039c5.289-.019,10.539-1.085,14.937-4.088.019.019.019.019.019,0,.077-.058.136-.1.213-.155,5.56-3.855,9.725-10.868,10.965-22.744.271,1.666.523,3.293.775,4.921,2.887,18.908,5.25,34.7,28.42,34.775h.5c24.565-.077,25.766-17.8,28.963-38.165.077-.5.174-1.027.252-1.53,1.259,11.953,5.463,18.986,11.081,22.841.039.019.058.039.1.058,0,.019,0,.019.019,0,4.4,3,9.648,4.068,14.937,4.088Z" transform="translate(-4.979 -53.052)" fill="#1d1d1b"/>
                </g>
              </g>
            </g>
            <path id="Trazado_719448" data-name="Trazado 719448" d="M46.04,2.557c-12.627.029-22.645,8.4-21.613,23.364a39.054,39.054,0,0,0,.678,5.138c-2.821-1.575-5.266,1.221-4.25,5.471.715,3,2.2,7.017,3.869,7.612,2,.715,2.6-.531,2.712-.57.918,4.318,1.3,8.179,2.859,10.465a73.56,73.56,0,0,0,4.58,6.267c2.991,3.468,5.463,4.316,11.132,4.316h.066c5.669,0,8.141-.849,11.132-4.316a73.559,73.559,0,0,0,4.58-6.267c1.558-2.286,1.941-6.147,2.859-10.465.114.039.713,1.284,2.712.57,1.666-.595,3.154-4.615,3.869-7.612,1.015-4.25-1.43-7.046-4.25-5.471a39.052,39.052,0,0,0,.678-5.138C68.686,10.959,58.668,2.586,46.04,2.557" transform="translate(19.328 2.397)" fill="#ffd2a1"/>
            <path id="Trazado_719449" data-name="Trazado 719449" d="M67.548,31.79c0,.014-.014.041-.014.054v.014c-1.914,1.058-2.918,2.457-3.679,8.239-1.383.38-1.98.461-3.243.881.529-2.09.963-4.045,1.317-5.862,1.505-7.805,1.519-13.234.719-17.021-1.06-5.008-3.516-7.153-5.769-8.156a15.424,15.424,0,0,0-3.731-1.005,83.235,83.235,0,0,0-16.233,0c-2.09.42-7.751.827-9.5,9.162a24.706,24.706,0,0,0-.5,4.4A56.451,56.451,0,0,0,28.12,35.047c.366,1.846.8,3.815,1.329,5.932-1.261-.42-1.858-.5-3.23-.881-.759-5.783-1.778-7.182-3.679-8.239v-.014c0-.014-.014-.041-.014-.054-.949-5.647-1.085-10.029-.407-13.695a20.085,20.085,0,0,1,4.75-9.84c8.606-10.153,30.5-8.538,36.321,0A27.045,27.045,0,0,1,67.7,18.1c.773,3.652.8,7.968-.149,13.695" transform="translate(20.336 1.156)" fill="#936037"/>
            <path id="Trazado_719450" data-name="Trazado 719450" d="M51.6,2.561c1.6,0,3.433.11,4.44,1.36,1.248,1.548.465,3.857-.562,5.56C51.312,16.386,44.789,22.8,35.591,23.12c1.007-.785,2.728-2.348,3.061-3.818a24.468,24.468,0,0,1-15.927,1.381c1.614-4.512,3.342-9.2,6.819-12.5A20.593,20.593,0,0,1,39.961,3.268,61.456,61.456,0,0,1,51.6,2.561" transform="translate(21.301 2.399)" fill="#936037"/>
            <path id="Trazado_719451" data-name="Trazado 719451" d="M33.644,32.727h0Z" transform="translate(31.448 30.676)" fill="#ffd2a1"/>
            <path id="Trazado_719452" data-name="Trazado 719452" d="M33.74,32.727h0Z" transform="translate(31.538 30.676)" fill="#ffd2a1"/>
            <path id="Trazado_719453" data-name="Trazado 719453" d="M20.055,36.922c-.019.035-.039.074-.056.108v-.151l.056.043" transform="translate(18.745 34.568)" fill="#3c3c3b"/>
            <path id="Trazado_719454" data-name="Trazado 719454" d="M47.266,36.922c.019.035.039.074.058.108v-.151l-.058.043" transform="translate(44.303 34.568)" fill="#3c3c3b"/>
            <path id="Trazado_719455" data-name="Trazado 719455" d="M33.644,32.782h0" transform="translate(31.448 30.728)" fill="#ffd2a1"/>
            <g id="Grupo_1010460" data-name="Grupo 1010460" transform="translate(42.033 19.252)" opacity="0.1">
              <g id="Grupo_1010459" data-name="Grupo 1010459">
                <g id="Grupo_1010458" data-name="Grupo 1010458" clip-path="url(#clip-path-4)">
                  <path id="Trazado_719456" data-name="Trazado 719456" d="M67.548,23.632a.284.284,0,0,1-.081.054h-.014a50.124,50.124,0,0,1-5.523,3.272c-10.994,5.591-22.26,5.754-33.81-.07a52.05,52.05,0,0,1-5.483-3.2h-.016c-.027-.014-.068-.041-.095-.054-.949-5.647-1.085-10.029-.407-13.695H67.7c.773,3.652.8,7.968-.149,13.695" transform="translate(-21.697 -9.938)" fill="#1d1d1b"/>
                </g>
              </g>
            </g>
            <path id="Trazado_719457" data-name="Trazado 719457" d="M48.518,0H41.859A20.329,20.329,0,0,0,21.531,20.328l.442,7a122.917,122.917,0,0,1,46.457-.275l.417-6.721A20.329,20.329,0,0,0,48.518,0" transform="translate(20.181 0)" fill="#0091a1"/>
            <g id="Grupo_1010463" data-name="Grupo 1010463" transform="translate(44.612 2.987)" opacity="0.1">
              <g id="Grupo_1010462" data-name="Grupo 1010462">
                <g id="Grupo_1010461" data-name="Grupo 1010461" clip-path="url(#clip-path-5)">
                  <path id="Trazado_719458" data-name="Trazado 719458" d="M38.873,1.541A17.4,17.4,0,0,0,23.028,18.7l.236,3.745c2.71-2.1,4.975-3.222,7.685-3.507-2.2-8.106,1.67-13.6,7.924-17.4" transform="translate(-23.027 -1.542)" fill="#fff"/>
                </g>
              </g>
            </g>
            <path id="Trazado_719459" data-name="Trazado 719459" d="M22.547,16.8a6.01,6.01,0,0,0,.744,1.864,8.262,8.262,0,0,0,8.813,5.07c2.121-.407,4-1.711,5.992-2.613a16.613,16.613,0,0,1,6.139-1.459,16.6,16.6,0,0,1,6.137,1.459c1.993.9,3.873,2.207,5.994,2.613a8.263,8.263,0,0,0,8.813-5.07,6.067,6.067,0,0,0,.744-1.864c-6.866-8.391-36.236-8.35-43.377,0" transform="translate(21.134 9.862)" fill="#009eb0"/>
            <path id="Trazado_719460" data-name="Trazado 719460" d="M39.949,66.849l-.012-.064a3.735,3.735,0,0,0-4.194-2.778,103.565,103.565,0,0,0-18.127,4.28v6.837A97.065,97.065,0,0,1,37.1,70.4a3.1,3.1,0,0,0,2.854-3.551" transform="translate(16.512 59.963)" fill="#c1bea2" fill-rule="evenodd"/>
            <path id="Trazado_719461" data-name="Trazado 719461" d="M35.836,51.388v63.373a5.93,5.93,0,0,1-5.93,5.93H10.236v8.079H32.967a10.948,10.948,0,0,0,10.948-10.948V51.388Z" transform="translate(9.594 48.167)" fill="#706f6f"/>
            <path id="Trazado_719462" data-name="Trazado 719462" d="M23.453,51.832a1.406,1.406,0,0,1,1.406,1.406v9.847a1.406,1.406,0,0,1-2.813,0V53.238a1.406,1.406,0,0,1,1.406-1.406" transform="translate(20.665 48.583)" fill="#c0c0be"/>
            <path id="Trazado_719463" data-name="Trazado 719463" d="M28.978,51.832a1.406,1.406,0,0,1,1.406,1.406v9.847a1.406,1.406,0,0,1-2.813,0V53.238a1.406,1.406,0,0,1,1.406-1.406" transform="translate(25.844 48.583)" fill="#c0c0be"/>
            <rect id="Rectángulo_348905" data-name="Rectángulo 348905" width="10.704" height="14.379" transform="translate(44.119 99.555)" fill="#878787"/>
            <path id="Trazado_719464" data-name="Trazado 719464" d="M35.68,51.442a1.519,1.519,0,0,1-1.519,1.519H23.525a1.519,1.519,0,1,1,0-3.038H34.161a1.519,1.519,0,0,1,1.519,1.519" transform="translate(20.627 46.794)" fill="#c0c0be"/>
            <path id="Trazado_719465" data-name="Trazado 719465" d="M26.215,51.832a1.406,1.406,0,0,1,1.406,1.406v9.847a1.406,1.406,0,0,1-2.813,0V53.238a1.406,1.406,0,0,1,1.406-1.406" transform="translate(23.254 48.583)" fill="#c0c0be"/>
            <path id="Trazado_719466" data-name="Trazado 719466" d="M35.68,60.329a1.519,1.519,0,0,1-1.519,1.519H23.525a1.519,1.519,0,1,1,0-3.038H34.161a1.519,1.519,0,0,1,1.519,1.519" transform="translate(20.627 55.124)" fill="#c0c0be"/>
            <path id="Trazado_719467" data-name="Trazado 719467" d="M23.362,69.017v-.06a2.946,2.946,0,0,1,2.945-2.945H36.551A2.946,2.946,0,0,1,39.5,68.957v.06a2.945,2.945,0,0,1-2.945,2.945H26.307a2.945,2.945,0,0,1-2.945-2.945" transform="translate(21.898 61.875)" fill="#c1bea2" fill-rule="evenodd"/>
            <path id="Trazado_719468" data-name="Trazado 719468" d="M23.362,72.088v-.06a2.946,2.946,0,0,1,2.945-2.945H37.28a2.946,2.946,0,0,1,2.945,2.945v.06a2.945,2.945,0,0,1-2.945,2.945H26.307a2.945,2.945,0,0,1-2.945-2.945" transform="translate(21.898 64.753)" fill="#c1bea2" fill-rule="evenodd"/>
            <path id="Trazado_719469" data-name="Trazado 719469" d="M23.362,75.159V75.1a2.946,2.946,0,0,1,2.945-2.945h9.2A2.946,2.946,0,0,1,38.45,75.1v.06A2.945,2.945,0,0,1,35.505,78.1h-9.2a2.945,2.945,0,0,1-2.945-2.945" transform="translate(21.898 67.632)" fill="#c1bea2" fill-rule="evenodd"/>
            <path id="Trazado_719470" data-name="Trazado 719470" d="M23.362,77.868v-.052A2.616,2.616,0,0,1,25.977,75.2h8.168a2.618,2.618,0,0,1,2.617,2.617v.052a2.616,2.616,0,0,1-2.617,2.615H25.977a2.614,2.614,0,0,1-2.615-2.615" transform="translate(21.898 70.485)" fill="#c1bea2" fill-rule="evenodd"/>
            <path id="Trazado_719471" data-name="Trazado 719471" d="M25.007,68.769s-10.663-2.261-14.274-2.584C4.83,65.654,0,71.084,0,77.128v.221C0,83.394,4.837,88.9,10.733,88.295c3.627-.376,14.274-2.985,14.274-2.985Z" transform="translate(0 62.002)" fill="#ffd2a1"/>
            <path id="Trazado_719472" data-name="Trazado 719472" d="M42.634,69.017v-.06a2.946,2.946,0,0,0-2.945-2.945H26.562a8.634,8.634,0,0,0-6.525,2.976l-7.385-.544c-2.46,5.624-2.346,11.645,0,18.007l6.841-.971a8.65,8.65,0,0,0,7.069,3.663H37.843a2.614,2.614,0,0,0,2.615-2.615v-.052a2.614,2.614,0,0,0-2.615-2.615H38.8a2.946,2.946,0,0,0,2.945-2.945v-.06A2.946,2.946,0,0,0,38.8,77.911h.887a2.946,2.946,0,0,0,2.945-2.945v-.06a2.946,2.946,0,0,0-2.945-2.945,2.945,2.945,0,0,0,2.945-2.945" transform="translate(10.169 61.875)" fill="#ebe6b9" fill-rule="evenodd"/>
            <path id="Trazado_719473" data-name="Trazado 719473" d="M38.37,66.856l.012-.064a3.735,3.735,0,0,1,4.194-2.778A103.566,103.566,0,0,1,60.7,68.294v6.837a97.064,97.064,0,0,0-19.48-4.723,3.1,3.1,0,0,1-2.854-3.551" transform="translate(35.92 59.97)" fill="#c1bea2" fill-rule="evenodd"/>
            <path id="Trazado_719474" data-name="Trazado 719474" d="M54.583,68.776s10.663-2.261,14.274-2.584c5.9-.531,10.733,4.9,10.733,10.944v.221c0,6.044-4.837,11.556-10.733,10.946-3.627-.376-14.274-2.985-14.274-2.985Z" transform="translate(51.162 62.009)" fill="#ffd2a1"/>
            <path id="Trazado_719475" data-name="Trazado 719475" d="M54.147,53.867l0-.014,0,0a6.057,6.057,0,0,0-.42-2.135C52.669,49.033,50,46.892,45.857,48.3L39.474,50.12a2.365,2.365,0,0,0-1.713,2.272v.847h9.566l1.054,3.541V64.77h4.958l.732-9.892a6.066,6.066,0,0,0,.076-1.011" transform="translate(35.394 44.854)" fill="#706f6f"/>
            <path id="Trazado_719476" data-name="Trazado 719476" d="M48.978,62.969V56.016l-1.362-4.578h-9.2a1.148,1.148,0,0,1,.773-.738L45.6,48.869l.027-.01a6.643,6.643,0,0,1,2.114-.38,4.555,4.555,0,0,1,4.237,3.1,4.83,4.83,0,0,1,.335,1.707l0,.064a5,5,0,0,1-.06.754l-.008.05-.655,8.819Z" transform="translate(36.01 45.441)" fill="#9d9d9c"/>
            <path id="Trazado_719477" data-name="Trazado 719477" d="M38.5,50.807a.372.372,0,1,0-.372.372.372.372,0,0,0,.372-.372" transform="translate(35.394 47.274)" fill="#706f6f"/>
            <path id="Trazado_719478" data-name="Trazado 719478" d="M38.889,50.807a.372.372,0,1,0-.372.372.372.372,0,0,0,.372-.372" transform="translate(35.754 47.274)" fill="#706f6f"/>
            <path id="Trazado_719479" data-name="Trazado 719479" d="M39.273,50.807a.372.372,0,1,0-.372.372.372.372,0,0,0,.372-.372" transform="translate(36.114 47.274)" fill="#706f6f"/>
            <path id="Trazado_719480" data-name="Trazado 719480" d="M39.657,50.807a.372.372,0,1,0-.372.372.372.372,0,0,0,.372-.372" transform="translate(36.474 47.274)" fill="#706f6f"/>
            <path id="Trazado_719481" data-name="Trazado 719481" d="M40.041,50.807a.372.372,0,1,0-.372.372.372.372,0,0,0,.372-.372" transform="translate(36.834 47.274)" fill="#706f6f"/>
            <path id="Trazado_719482" data-name="Trazado 719482" d="M40.426,50.807a.372.372,0,1,0-.372.372.372.372,0,0,0,.372-.372" transform="translate(37.195 47.274)" fill="#706f6f"/>
            <path id="Trazado_719483" data-name="Trazado 719483" d="M40.81,50.807a.372.372,0,1,0-.372.372.372.372,0,0,0,.372-.372" transform="translate(37.555 47.274)" fill="#706f6f"/>
            <path id="Trazado_719484" data-name="Trazado 719484" d="M41.194,50.807a.372.372,0,1,0-.372.372.372.372,0,0,0,.372-.372" transform="translate(37.914 47.274)" fill="#706f6f"/>
            <path id="Trazado_719485" data-name="Trazado 719485" d="M41.578,50.807a.372.372,0,1,0-.372.372.372.372,0,0,0,.372-.372" transform="translate(38.274 47.274)" fill="#706f6f"/>
            <path id="Trazado_719486" data-name="Trazado 719486" d="M41.962,50.807a.372.372,0,1,0-.372.372.372.372,0,0,0,.372-.372" transform="translate(38.634 47.274)" fill="#706f6f"/>
            <path id="Trazado_719487" data-name="Trazado 719487" d="M42.346,50.807a.372.372,0,1,0-.372.372.372.372,0,0,0,.372-.372" transform="translate(38.994 47.274)" fill="#706f6f"/>
            <path id="Trazado_719488" data-name="Trazado 719488" d="M42.731,50.807a.372.372,0,1,0-.372.372.372.372,0,0,0,.372-.372" transform="translate(39.355 47.274)" fill="#706f6f"/>
            <path id="Trazado_719489" data-name="Trazado 719489" d="M42.364,56.647l-2.073,4.066a4.418,4.418,0,0,0-.471,2.315l1.7,23.912h5.146V62.031l1.188-5.51Z" transform="translate(37.314 52.978)" fill="#706f6f"/>
            <path id="Trazado_719490" data-name="Trazado 719490" d="M44.119,109.15a1.34,1.34,0,0,0,1.343,1.329h.025a1.34,1.34,0,0,0,1.341-1.3l1.219-37.667L43.78,71.5Z" transform="translate(41.036 67.017)" fill="#e94e1b"/>
            <path id="Trazado_719491" data-name="Trazado 719491" d="M52.243,58.084l-5-3.764H38.6l.8,2.488a6.22,6.22,0,0,0,2.21,3.1l6.821,5.078.2,22.618,4.264.017L53.75,61.23a3.787,3.787,0,0,0-1.507-3.146" transform="translate(36.182 50.915)" fill="#878787"/>
            <path id="Trazado_719492" data-name="Trazado 719492" d="M39.053,55.818h8.637v-3.1H38.121v.965a2.825,2.825,0,0,0,.932,2.131" transform="translate(35.731 49.418)" fill="#706f6f"/>
            <path id="Trazado_719493" data-name="Trazado 719493" d="M38.865,52.9a.372.372,0,1,0-.372.372.372.372,0,0,0,.372-.372" transform="translate(35.731 49.238)" fill="#706f6f"/>
            <path id="Trazado_719494" data-name="Trazado 719494" d="M39.249,52.9a.372.372,0,1,0-.372.372.372.372,0,0,0,.372-.372" transform="translate(36.091 49.238)" fill="#706f6f"/>
            <path id="Trazado_719495" data-name="Trazado 719495" d="M39.633,52.9a.372.372,0,1,0-.372.372.372.372,0,0,0,.372-.372" transform="translate(36.451 49.238)" fill="#706f6f"/>
            <path id="Trazado_719496" data-name="Trazado 719496" d="M40.017,52.9a.372.372,0,1,0-.372.372.372.372,0,0,0,.372-.372" transform="translate(36.811 49.238)" fill="#706f6f"/>
            <path id="Trazado_719497" data-name="Trazado 719497" d="M40.4,52.9a.372.372,0,1,0-.372.372A.372.372,0,0,0,40.4,52.9" transform="translate(37.171 49.238)" fill="#706f6f"/>
            <path id="Trazado_719498" data-name="Trazado 719498" d="M40.786,52.9a.372.372,0,1,0-.372.372.372.372,0,0,0,.372-.372" transform="translate(37.532 49.238)" fill="#706f6f"/>
            <path id="Trazado_719499" data-name="Trazado 719499" d="M41.17,52.9a.372.372,0,1,0-.372.372.372.372,0,0,0,.372-.372" transform="translate(37.892 49.238)" fill="#706f6f"/>
            <path id="Trazado_719500" data-name="Trazado 719500" d="M41.554,52.9a.372.372,0,1,0-.372.372.372.372,0,0,0,.372-.372" transform="translate(38.252 49.238)" fill="#706f6f"/>
            <path id="Trazado_719501" data-name="Trazado 719501" d="M41.938,52.9a.372.372,0,1,0-.372.372.372.372,0,0,0,.372-.372" transform="translate(38.612 49.238)" fill="#706f6f"/>
            <path id="Trazado_719502" data-name="Trazado 719502" d="M42.322,52.9a.372.372,0,1,0-.372.372.372.372,0,0,0,.372-.372" transform="translate(38.972 49.238)" fill="#706f6f"/>
            <path id="Trazado_719503" data-name="Trazado 719503" d="M42.706,52.9a.372.372,0,1,0-.372.372.372.372,0,0,0,.372-.372" transform="translate(39.332 49.238)" fill="#706f6f"/>
            <path id="Trazado_719504" data-name="Trazado 719504" d="M43.09,52.9a.372.372,0,1,0-.372.372.372.372,0,0,0,.372-.372" transform="translate(39.692 49.238)" fill="#706f6f"/>
            <path id="Trazado_719505" data-name="Trazado 719505" d="M40.79,55.363a.663.663,0,1,1-.663-.663.662.662,0,0,1,.663.663" transform="translate(36.991 51.272)" fill="#b2b2b2"/>
            <path id="Trazado_719506" data-name="Trazado 719506" d="M43.162,55.363A.663.663,0,1,1,42.5,54.7a.662.662,0,0,1,.663.663" transform="translate(39.215 51.272)" fill="#b2b2b2"/>
            <path id="Trazado_719507" data-name="Trazado 719507" d="M45.19,57.568a1.436,1.436,0,1,1-1.436-1.436,1.436,1.436,0,0,1,1.436,1.436" transform="translate(39.666 52.614)" fill="#b2b2b2"/>
            <path id="Trazado_719508" data-name="Trazado 719508" d="M44.51,108.14a1.654,1.654,0,0,1-3.309,0V73.884a1.654,1.654,0,0,1,3.309,0Z" transform="translate(38.618 67.703)" fill="#706f6f"/>
            <path id="Trazado_719509" data-name="Trazado 719509" d="M44.749,73.842a.326.326,0,0,1-.285.316L41.4,74.5a.249.249,0,0,1-.285-.252.326.326,0,0,1,.285-.316l3.063-.341a.249.249,0,0,1,.285.252" transform="translate(38.54 68.976)" fill="#878787"/>
            <path id="Trazado_719510" data-name="Trazado 719510" d="M44.749,74.313a.326.326,0,0,1-.285.316l-3.063.341a.249.249,0,0,1-.285-.252A.326.326,0,0,1,41.4,74.4l3.063-.341a.249.249,0,0,1,.285.252" transform="translate(38.54 69.417)" fill="#878787"/>
            <path id="Trazado_719511" data-name="Trazado 719511" d="M44.749,74.786a.326.326,0,0,1-.285.316l-3.063.341a.249.249,0,0,1-.285-.252.326.326,0,0,1,.285-.316l3.063-.343a.251.251,0,0,1,.285.254" transform="translate(38.54 69.859)" fill="#878787"/>
            <path id="Trazado_719512" data-name="Trazado 719512" d="M44.749,75.257a.326.326,0,0,1-.285.316l-3.063.341a.249.249,0,0,1-.285-.252.326.326,0,0,1,.285-.316L44.465,75a.249.249,0,0,1,.285.252" transform="translate(38.54 70.302)" fill="#878787"/>
            <path id="Trazado_719513" data-name="Trazado 719513" d="M44.749,75.729a.326.326,0,0,1-.285.316l-3.063.341a.249.249,0,0,1-.285-.252.326.326,0,0,1,.285-.316l3.063-.343a.251.251,0,0,1,.285.254" transform="translate(38.54 70.743)" fill="#878787"/>
            <path id="Trazado_719514" data-name="Trazado 719514" d="M44.749,76.2a.326.326,0,0,1-.285.316l-3.063.341a.249.249,0,0,1-.285-.252.326.326,0,0,1,.285-.316l3.063-.341a.249.249,0,0,1,.285.252" transform="translate(38.54 71.186)" fill="#878787"/>
            <path id="Trazado_719515" data-name="Trazado 719515" d="M44.749,76.673a.326.326,0,0,1-.285.316l-3.063.341a.249.249,0,0,1-.285-.252.326.326,0,0,1,.285-.316l3.063-.343a.252.252,0,0,1,.285.254" transform="translate(38.54 71.628)" fill="#878787"/>
            <path id="Trazado_719516" data-name="Trazado 719516" d="M44.749,77.143a.326.326,0,0,1-.285.316L41.4,77.8a.249.249,0,0,1-.285-.252.326.326,0,0,1,.285-.316l3.063-.341a.248.248,0,0,1,.285.252" transform="translate(38.54 72.07)" fill="#878787"/>
            <path id="Trazado_719517" data-name="Trazado 719517" d="M44.749,77.615a.326.326,0,0,1-.285.316l-3.063.341a.249.249,0,0,1-.285-.252A.326.326,0,0,1,41.4,77.7l3.063-.343a.252.252,0,0,1,.285.254" transform="translate(38.54 72.511)" fill="#878787"/>
            <path id="Trazado_719518" data-name="Trazado 719518" d="M44.749,78.087a.326.326,0,0,1-.285.316l-3.063.341a.249.249,0,0,1-.285-.252.326.326,0,0,1,.285-.316l3.063-.341a.248.248,0,0,1,.285.252" transform="translate(38.54 72.954)" fill="#878787"/>
            <path id="Trazado_719519" data-name="Trazado 719519" d="M44.749,78.558a.326.326,0,0,1-.285.316l-3.063.341a.249.249,0,0,1-.285-.252.326.326,0,0,1,.285-.316l3.063-.341a.249.249,0,0,1,.285.252" transform="translate(38.54 73.396)" fill="#878787"/>
            <path id="Trazado_719520" data-name="Trazado 719520" d="M44.749,79.03a.326.326,0,0,1-.285.316l-3.063.341a.249.249,0,0,1-.285-.252.326.326,0,0,1,.285-.316l3.063-.341a.249.249,0,0,1,.285.252" transform="translate(38.54 73.839)" fill="#878787"/>
            <path id="Trazado_719521" data-name="Trazado 719521" d="M44.749,79.5a.326.326,0,0,1-.285.316l-3.063.341a.249.249,0,0,1-.285-.252.326.326,0,0,1,.285-.316l3.063-.341a.249.249,0,0,1,.285.252" transform="translate(38.54 74.28)" fill="#878787"/>
            <path id="Trazado_719522" data-name="Trazado 719522" d="M44.749,79.973a.326.326,0,0,1-.285.316l-3.063.341a.249.249,0,0,1-.285-.252.326.326,0,0,1,.285-.316l3.063-.341a.249.249,0,0,1,.285.252" transform="translate(38.54 74.722)" fill="#878787"/>
            <path id="Trazado_719523" data-name="Trazado 719523" d="M44.749,80.446a.326.326,0,0,1-.285.316L41.4,81.1a.249.249,0,0,1-.285-.252.326.326,0,0,1,.285-.316l3.063-.343a.251.251,0,0,1,.285.254" transform="translate(38.54 75.164)" fill="#878787"/>
            <path id="Trazado_719524" data-name="Trazado 719524" d="M44.749,80.917a.326.326,0,0,1-.285.316l-3.063.341a.249.249,0,0,1-.285-.252.326.326,0,0,1,.285-.316l3.063-.343a.251.251,0,0,1,.285.254" transform="translate(38.54 75.605)" fill="#878787"/>
            <path id="Trazado_719525" data-name="Trazado 719525" d="M44.749,81.388a.326.326,0,0,1-.285.316l-3.063.341a.249.249,0,0,1-.285-.252.326.326,0,0,1,.285-.316l3.063-.343a.252.252,0,0,1,.285.254" transform="translate(38.54 76.048)" fill="#878787"/>
            <path id="Trazado_719526" data-name="Trazado 719526" d="M44.749,81.86a.326.326,0,0,1-.285.316l-3.063.341a.249.249,0,0,1-.285-.252.326.326,0,0,1,.285-.316l3.063-.341a.248.248,0,0,1,.285.252" transform="translate(38.54 76.491)" fill="#878787"/>
            <path id="Trazado_719527" data-name="Trazado 719527" d="M44.749,82.331a.326.326,0,0,1-.285.316l-3.063.341a.249.249,0,0,1-.285-.252.326.326,0,0,1,.285-.316l3.063-.341a.249.249,0,0,1,.285.252" transform="translate(38.54 76.933)" fill="#878787"/>
            <path id="Trazado_719528" data-name="Trazado 719528" d="M46.146,75.03H40.772a.311.311,0,0,1-.31-.31V72.533a.311.311,0,0,1,.31-.31h5.374a.311.311,0,0,1,.31.31V74.72a.311.311,0,0,1-.31.31" transform="translate(37.926 67.696)" fill="#dadada"/>
            <path id="Trazado_719529" data-name="Trazado 719529" d="M40.931,74.471a.176.176,0,1,1-.351,0V72.536a.175.175,0,1,1,.351,0Z" transform="translate(38.036 67.819)" fill="#b2b2b2"/>
            <path id="Trazado_719530" data-name="Trazado 719530" d="M41.2,74.471a.176.176,0,1,1-.351,0V72.536a.175.175,0,1,1,.351,0Z" transform="translate(38.287 67.819)" fill="#b2b2b2"/>
            <path id="Trazado_719531" data-name="Trazado 719531" d="M41.466,74.471a.176.176,0,1,1-.351,0V72.536a.175.175,0,1,1,.351,0Z" transform="translate(38.538 67.819)" fill="#b2b2b2"/>
            <path id="Trazado_719532" data-name="Trazado 719532" d="M41.734,74.471a.176.176,0,1,1-.351,0V72.536a.175.175,0,1,1,.351,0Z" transform="translate(38.789 67.819)" fill="#b2b2b2"/>
            <path id="Trazado_719533" data-name="Trazado 719533" d="M42,74.471a.176.176,0,1,1-.351,0V72.536a.175.175,0,1,1,.351,0Z" transform="translate(39.04 67.819)" fill="#b2b2b2"/>
            <path id="Trazado_719534" data-name="Trazado 719534" d="M42.27,74.471a.176.176,0,1,1-.351,0V72.536a.175.175,0,1,1,.351,0Z" transform="translate(39.291 67.819)" fill="#b2b2b2"/>
            <path id="Trazado_719535" data-name="Trazado 719535" d="M42.539,74.471a.176.176,0,1,1-.353,0V72.536a.176.176,0,1,1,.353,0Z" transform="translate(39.542 67.819)" fill="#b2b2b2"/>
            <path id="Trazado_719536" data-name="Trazado 719536" d="M42.8,74.471a.176.176,0,1,1-.351,0V72.536a.175.175,0,1,1,.351,0Z" transform="translate(39.793 67.819)" fill="#b2b2b2"/>
            <path id="Trazado_719537" data-name="Trazado 719537" d="M43.073,74.471a.176.176,0,1,1-.351,0V72.536a.175.175,0,1,1,.351,0Z" transform="translate(40.044 67.819)" fill="#b2b2b2"/>
            <path id="Trazado_719538" data-name="Trazado 719538" d="M43.341,74.471a.176.176,0,1,1-.351,0V72.536a.175.175,0,1,1,.351,0Z" transform="translate(40.295 67.819)" fill="#b2b2b2"/>
            <path id="Trazado_719539" data-name="Trazado 719539" d="M43.609,74.471a.176.176,0,1,1-.351,0V72.536a.175.175,0,1,1,.351,0Z" transform="translate(40.546 67.819)" fill="#b2b2b2"/>
            <path id="Trazado_719540" data-name="Trazado 719540" d="M51.934,69.025v-.06a2.946,2.946,0,0,0-2.945-2.945H38.745A2.946,2.946,0,0,0,35.8,68.965v.06a2.945,2.945,0,0,0,2.945,2.945H48.989a2.945,2.945,0,0,0,2.945-2.945" transform="translate(33.556 61.882)" fill="#c1bea2" fill-rule="evenodd"/>
            <path id="Trazado_719541" data-name="Trazado 719541" d="M52.286,72.1v-.06a2.946,2.946,0,0,0-2.945-2.945H38.369a2.946,2.946,0,0,0-2.945,2.945v.06a2.945,2.945,0,0,0,2.945,2.945H49.342A2.945,2.945,0,0,0,52.286,72.1" transform="translate(33.204 64.761)" fill="#c1bea2" fill-rule="evenodd"/>
            <path id="Trazado_719542" data-name="Trazado 719542" d="M51.428,75.167v-.06a2.946,2.946,0,0,0-2.945-2.945h-9.2a2.946,2.946,0,0,0-2.945,2.945v.06a2.946,2.946,0,0,0,2.945,2.945h9.2a2.946,2.946,0,0,0,2.945-2.945" transform="translate(34.062 67.639)" fill="#c1bea2" fill-rule="evenodd"/>
            <path id="Trazado_719543" data-name="Trazado 719543" d="M50.611,77.876v-.052A2.616,2.616,0,0,0,48,75.206H39.828a2.618,2.618,0,0,0-2.617,2.617v.052a2.616,2.616,0,0,0,2.617,2.615H48a2.614,2.614,0,0,0,2.615-2.615" transform="translate(34.878 70.492)" fill="#c1bea2" fill-rule="evenodd"/>
            <path id="Trazado_719544" data-name="Trazado 719544" d="M40.234,69.025v-.06a2.946,2.946,0,0,1,2.945-2.945H56.306A8.633,8.633,0,0,1,62.831,69l7.385-.544c2.462,5.624,2.346,11.645,0,18.007l-6.841-.971a8.65,8.65,0,0,1-7.069,3.665H45.025a2.616,2.616,0,0,1-2.615-2.617v-.052a2.614,2.614,0,0,1,2.615-2.615h-.959a2.946,2.946,0,0,1-2.945-2.945v-.06a2.946,2.946,0,0,1,2.945-2.945h-.887a2.945,2.945,0,0,1-2.945-2.945v-.06a2.946,2.946,0,0,1,2.945-2.945,2.945,2.945,0,0,1-2.945-2.945" transform="translate(37.712 61.882)" fill="#ebe6b9" fill-rule="evenodd"/>
          </g>
        </g>
      </g>
    </g>
  </g>
</svg>
